<?xml version="1.0" encoding="UTF-8"?>
<!DOCTYPE svg PUBLIC "-//W3C//DTD SVG 1.1//EN" "http://www.w3.org/Graphics/SVG/1.1/DTD/svg11.dtd">
<svg xmlns="http://www.w3.org/2000/svg" version="1.1" width="7500px" height="5000px" style="shape-rendering:geometricPrecision; text-rendering:geometricPrecision; image-rendering:optimizeQuality; fill-rule:evenodd; clip-rule:evenodd" xmlns:xlink="http://www.w3.org/1999/xlink">
<g><path style="opacity:0.303" fill="#fefefe" d="M -0.5,-0.5 C 2499.5,-0.5 4999.5,-0.5 7499.5,-0.5C 7499.5,1666.17 7499.5,3332.83 7499.5,4999.5C 4999.5,4999.5 2499.5,4999.5 -0.5,4999.5C -0.5,3332.83 -0.5,1666.17 -0.5,-0.5 Z"/></g>
<g><path style="opacity:1" fill="#2d3a64" d="M 3516.5,1287.5 C 3513.94,1279.69 3511.94,1271.69 3510.5,1263.5C 3512.49,1250.57 3512.99,1237.57 3512,1224.5C 3508.65,1209.44 3505.15,1194.44 3501.5,1179.5C 3500.83,1179.17 3500.17,1178.83 3499.5,1178.5C 3476.93,1182.15 3454.26,1182.98 3431.5,1181C 3421.84,1179 3412.51,1176 3403.5,1172C 3395.81,1167.66 3388.15,1163.66 3380.5,1160C 3407.69,1185.86 3437.69,1207.86 3470.5,1226C 3457.43,1223.9 3444.76,1220.23 3432.5,1215C 3409.64,1203.81 3388.64,1189.81 3369.5,1173C 3338.4,1144.26 3312.23,1111.76 3291,1075.5C 3274.23,1096.98 3265.06,1121.32 3263.5,1148.5C 3265.06,1171.48 3265.56,1194.48 3265,1217.5C 3263.96,1222 3262.46,1226.33 3260.5,1230.5C 3258.93,1232.42 3256.93,1233.42 3254.5,1233.5C 3239.23,1211.62 3227.73,1187.96 3220,1162.5C 3210.04,1128.49 3215.04,1097.15 3235,1068.5C 3237.67,1065.83 3240.33,1063.17 3243,1060.5C 3266.49,1012.67 3297.99,970.838 3337.5,935C 3351.68,923.505 3367.35,914.505 3384.5,908C 3407.59,901.243 3429.92,903.076 3451.5,913.5C 3458.93,871.907 3482.27,843.407 3521.5,828C 3543.55,820.389 3566.22,816.389 3589.5,816C 3572.89,818.152 3556.89,822.485 3541.5,829C 3531.24,833.119 3522.9,839.619 3516.5,848.5C 3517,849.521 3517.67,849.688 3518.5,849C 3535.81,835.674 3555.31,827.841 3577,825.5C 3596.86,825.93 3612.53,834.264 3624,850.5C 3637.09,869.692 3646.09,890.692 3651,913.5C 3650.99,947.52 3641.33,978.52 3622,1006.5C 3617.98,1011.59 3612.81,1014.76 3606.5,1016C 3598.38,1016.39 3590.38,1016.56 3582.5,1016.5C 3615.32,1065.48 3626.82,1119.14 3617,1177.5C 3612.37,1197.76 3603.7,1216.09 3591,1232.5C 3579.37,1246.32 3564.87,1250.99 3547.5,1246.5C 3537.63,1248.2 3530.47,1253.53 3526,1262.5C 3521.91,1270.6 3518.75,1278.94 3516.5,1287.5 Z"/></g>
<g><path style="opacity:1" fill="#feb17d" d="M 3516.5,1287.5 C 3526.68,1322.19 3540.85,1355.19 3559,1386.5C 3567.74,1400.47 3578.24,1412.97 3590.5,1424C 3592.56,1425.7 3594.89,1426.86 3597.5,1427.5C 3609.48,1426.28 3621.48,1425.28 3633.5,1424.5C 3633.5,1444.5 3633.5,1464.5 3633.5,1484.5C 3633.32,1507.98 3631.49,1531.32 3628,1554.5C 3627.48,1563.47 3623.31,1569.97 3615.5,1574C 3571.93,1595.48 3526.93,1613.48 3480.5,1628C 3461.34,1633.83 3442.01,1639.17 3422.5,1644C 3409.02,1647.37 3395.35,1649.53 3381.5,1650.5C 3376.78,1650.48 3372.11,1649.98 3367.5,1649C 3365.71,1648.22 3364.21,1647.05 3363,1645.5C 3360.41,1629.54 3360.41,1613.54 3363,1597.5C 3364.75,1587.84 3366.42,1578.17 3368,1568.5C 3373.67,1543.48 3379.51,1518.48 3385.5,1493.5C 3390.61,1490.87 3395.94,1488.54 3401.5,1486.5C 3402.62,1484.63 3403.46,1482.63 3404,1480.5C 3404,1471.81 3403.33,1463.14 3402,1454.5C 3399.12,1441.18 3396.29,1427.84 3393.5,1414.5C 3426.04,1404.46 3451.54,1385.13 3470,1356.5C 3482.21,1336.5 3490.88,1315.17 3496,1292.5C 3483.8,1309.18 3468.96,1323.01 3451.5,1334C 3428.9,1347.58 3405.24,1358.75 3380.5,1367.5C 3370.14,1370.71 3359.64,1373.38 3349,1375.5C 3341.31,1374.74 3334.47,1371.9 3328.5,1367C 3312.92,1351 3299.92,1333.17 3289.5,1313.5C 3275.89,1287.6 3264.23,1260.93 3254.5,1233.5C 3256.93,1233.42 3258.93,1232.42 3260.5,1230.5C 3262.46,1226.33 3263.96,1222 3265,1217.5C 3265.56,1194.48 3265.06,1171.48 3263.5,1148.5C 3265.06,1121.32 3274.23,1096.98 3291,1075.5C 3312.23,1111.76 3338.4,1144.26 3369.5,1173C 3388.64,1189.81 3409.64,1203.81 3432.5,1215C 3444.76,1220.23 3457.43,1223.9 3470.5,1226C 3437.69,1207.86 3407.69,1185.86 3380.5,1160C 3388.15,1163.66 3395.81,1167.66 3403.5,1172C 3412.51,1176 3421.84,1179 3431.5,1181C 3454.26,1182.98 3476.93,1182.15 3499.5,1178.5C 3500.17,1178.83 3500.83,1179.17 3501.5,1179.5C 3505.15,1194.44 3508.65,1209.44 3512,1224.5C 3512.99,1237.57 3512.49,1250.57 3510.5,1263.5C 3511.94,1271.69 3513.94,1279.69 3516.5,1287.5 Z"/></g>
<g><path style="opacity:1" fill="#bcd7fe" d="M 3014.5,1287.5 C 3107.03,1287.87 3198.69,1296.53 3289.5,1313.5C 3299.92,1333.17 3312.92,1351 3328.5,1367C 3334.47,1371.9 3341.31,1374.74 3349,1375.5C 3359.64,1373.38 3370.14,1370.71 3380.5,1367.5C 3384.99,1383.11 3389.32,1398.78 3393.5,1414.5C 3396.29,1427.84 3399.12,1441.18 3402,1454.5C 3403.33,1463.14 3404,1471.81 3404,1480.5C 3403.46,1482.63 3402.62,1484.63 3401.5,1486.5C 3395.94,1488.54 3390.61,1490.87 3385.5,1493.5C 3348.03,1506.9 3313.03,1525.07 3280.5,1548C 3278.45,1549.97 3276.78,1552.13 3275.5,1554.5C 3188.5,1554.5 3101.5,1554.5 3014.5,1554.5C 3014.5,1465.5 3014.5,1376.5 3014.5,1287.5 Z"/></g>
<g><path style="opacity:1" fill="#d2e3fe" d="M 2975.5,1288.5 C 2975.5,1390.17 2975.5,1491.83 2975.5,1593.5C 3068.5,1593.5 3161.5,1593.5 3254.5,1593.5C 3244.95,1610.19 3236.12,1627.19 3228,1644.5C 3227.51,1646.13 3227.34,1647.8 3227.5,1649.5C 3218.19,1668.92 3209.36,1688.59 3201,1708.5C 3173.36,1779.74 3144.36,1850.41 3114,1920.5C 3103.11,1944.62 3090.44,1967.62 3076,1989.5C 3068.27,2000.07 3059.1,2009.07 3048.5,2016.5C 3022.34,2000.51 3000.51,1979.85 2983,1954.5C 2973.5,1940.17 2964.5,1925.5 2956,1910.5C 2918,1853.84 2871.17,1805.67 2815.5,1766C 2796.23,1753.7 2775.9,1743.53 2754.5,1735.5C 2754.5,1594.83 2754.5,1454.17 2754.5,1313.5C 2827.46,1299.24 2901.13,1290.91 2975.5,1288.5 Z"/></g>
<g><path style="opacity:1" fill="#bcd7fe" d="M 2975.5,1288.5 C 2977.17,1288.5 2978.83,1288.5 2980.5,1288.5C 2985.17,1288.5 2989.83,1288.5 2994.5,1288.5C 2994.5,1383.83 2994.5,1479.17 2994.5,1574.5C 3084.33,1574.17 3174,1574.5 3263.5,1575.5C 3260.53,1581.48 3257.53,1587.48 3254.5,1593.5C 3161.5,1593.5 3068.5,1593.5 2975.5,1593.5C 2975.5,1491.83 2975.5,1390.17 2975.5,1288.5 Z"/></g>
<g><path style="opacity:1" fill="#d2e3fe" d="M 2980.5,1288.5 C 2991.65,1287.51 3002.99,1287.17 3014.5,1287.5C 3014.5,1376.5 3014.5,1465.5 3014.5,1554.5C 3101.5,1554.5 3188.5,1554.5 3275.5,1554.5C 3272.24,1561.99 3268.24,1568.99 3263.5,1575.5C 3174,1574.5 3084.33,1574.17 2994.5,1574.5C 2994.5,1479.17 2994.5,1383.83 2994.5,1288.5C 2989.83,1288.5 2985.17,1288.5 2980.5,1288.5 Z"/></g>
<g><path style="opacity:1" fill="#ed985f" d="M 3393.5,1414.5 C 3389.32,1398.78 3384.99,1383.11 3380.5,1367.5C 3405.24,1358.75 3428.9,1347.58 3451.5,1334C 3468.96,1323.01 3483.8,1309.18 3496,1292.5C 3490.88,1315.17 3482.21,1336.5 3470,1356.5C 3451.54,1385.13 3426.04,1404.46 3393.5,1414.5 Z"/></g>
<g><path style="opacity:1" fill="#bbd7fe" d="M 2754.5,1313.5 C 2754.5,1454.17 2754.5,1594.83 2754.5,1735.5C 2694.55,1716.11 2644.05,1730.11 2603,1777.5C 2598.17,1783.67 2593.33,1789.83 2588.5,1796C 2578.51,1798.5 2568.51,1801 2558.5,1803.5C 2558.83,1658.67 2558.5,1514 2557.5,1369.5C 2621.5,1345.35 2687.17,1326.69 2754.5,1313.5 Z"/></g>
<g><path style="opacity:1" fill="#a0c1f3" d="M 2557.5,1369.5 C 2558.5,1514 2558.83,1658.67 2558.5,1803.5C 2552.12,1805.86 2546.12,1809.03 2540.5,1813C 2544.39,1812.03 2548.39,1811.03 2552.5,1810C 2555.17,1809.33 2557.83,1809.33 2560.5,1810C 2539.91,1822.26 2522.07,1837.76 2507,1856.5C 2498.39,1868.37 2492.56,1881.37 2489.5,1895.5C 2445.09,1892.14 2401.43,1884.3 2358.5,1872C 2310.21,1857.86 2266.87,1834.86 2228.5,1803C 2204.51,1776.51 2176.17,1756.18 2143.5,1742C 2125.3,1734.05 2106.97,1726.89 2088.5,1720.5C 2126.28,1662.19 2171.61,1610.03 2224.5,1564C 2323.4,1479.03 2434.4,1414.2 2557.5,1369.5 Z"/></g>
<g><path style="opacity:1" fill="#89b374" d="M 3859.5,1548.5 C 3861.35,1578.74 3859.52,1608.74 3854,1638.5C 3847.09,1672.72 3837.26,1706.05 3824.5,1738.5C 3821.49,1735.79 3818.49,1733.12 3815.5,1730.5C 3815.65,1729.45 3815.48,1728.45 3815,1727.5C 3791.05,1697.22 3763.55,1670.72 3732.5,1648C 3715.86,1636.67 3697.86,1628 3678.5,1622C 3674.8,1620.93 3671.13,1620.76 3667.5,1621.5C 3653.75,1646.01 3640.25,1670.67 3627,1695.5C 3587.5,1775.18 3547.5,1854.51 3507,1933.5C 3491.11,1964.29 3473.44,1993.96 3454,2022.5C 3442.59,2034.25 3429.76,2044.08 3415.5,2052C 3402.71,2058.63 3390.04,2065.46 3377.5,2072.5C 3372.01,2048.18 3366.34,2023.85 3360.5,1999.5C 3352.39,1968.33 3344.06,1937.33 3335.5,1906.5C 3324.79,1864.75 3310.96,1824.09 3294,1784.5C 3282.63,1751.72 3279.29,1718.05 3284,1683.5C 3284.55,1677.91 3285.38,1672.41 3286.5,1667C 3268.79,1654.82 3249.13,1648.99 3227.5,1649.5C 3227.34,1647.8 3227.51,1646.13 3228,1644.5C 3236.12,1627.19 3244.95,1610.19 3254.5,1593.5C 3257.53,1587.48 3260.53,1581.48 3263.5,1575.5C 3268.24,1568.99 3272.24,1561.99 3275.5,1554.5C 3276.78,1552.13 3278.45,1549.97 3280.5,1548C 3313.03,1525.07 3348.03,1506.9 3385.5,1493.5C 3379.51,1518.48 3373.67,1543.48 3368,1568.5C 3366.42,1578.17 3364.75,1587.84 3363,1597.5C 3360.41,1613.54 3360.41,1629.54 3363,1645.5C 3364.21,1647.05 3365.71,1648.22 3367.5,1649C 3372.11,1649.98 3376.78,1650.48 3381.5,1650.5C 3395.35,1649.53 3409.02,1647.37 3422.5,1644C 3442.01,1639.17 3461.34,1633.83 3480.5,1628C 3526.93,1613.48 3571.93,1595.48 3615.5,1574C 3623.31,1569.97 3627.48,1563.47 3628,1554.5C 3631.49,1531.32 3633.32,1507.98 3633.5,1484.5C 3634.5,1464.67 3634.83,1444.67 3634.5,1424.5C 3635.79,1424.74 3636.79,1424.4 3637.5,1423.5C 3668.5,1420.29 3699.5,1420.12 3730.5,1423C 3807.31,1430.31 3850.31,1472.15 3859.5,1548.5 Z"/></g>
<g><path style="opacity:1" fill="#c5b47d" d="M 3637.5,1423.5 C 3636.79,1424.4 3635.79,1424.74 3634.5,1424.5C 3634.83,1444.67 3634.5,1464.67 3633.5,1484.5C 3633.5,1464.5 3633.5,1444.5 3633.5,1424.5C 3634.57,1423.57 3635.9,1423.23 3637.5,1423.5 Z"/></g>
<g><path style="opacity:1" fill="#c2d9fb" d="M 3859.5,1548.5 C 3913.84,1582.34 3968.84,1615.18 4024.5,1647C 4063.01,1667.25 4102.01,1686.42 4141.5,1704.5C 4137.86,1711 4134.36,1717.67 4131,1724.5C 4129.87,1778.99 4132.21,1833.32 4138,1887.5C 4143.86,1916.43 4155.86,1942.43 4174,1965.5C 4209.16,2003.65 4240.5,2044.65 4268,2088.5C 4282.25,2112.34 4293.25,2137.67 4301,2164.5C 4304.22,2178.67 4305.22,2193 4304,2207.5C 4303.57,2218.65 4299.07,2227.65 4290.5,2234.5C 4317.21,2282.79 4333.37,2334.45 4339,2389.5C 4342.2,2419.42 4343.2,2449.42 4342,2479.5C 4334.63,2652.15 4327.63,2824.82 4321,2997.5C 4317.37,3093.78 4310.2,3189.78 4299.5,3285.5C 4299.54,3288.26 4300.04,3290.93 4301,3293.5C 4336.11,3353.47 4361.44,3417.47 4377,3485.5C 4399.78,3591.76 4406.11,3699.09 4396,3807.5C 4390.28,3870.76 4380.94,3933.43 4368,3995.5C 4366.1,4010.63 4367.77,4025.29 4373,4039.5C 4382.6,4055.7 4391.93,4072.04 4401,4088.5C 4405.51,4100.05 4408.18,4112.05 4409,4124.5C 4409.5,4136.16 4409.67,4147.83 4409.5,4159.5C 4641.83,4159.5 4874.17,4159.5 5106.5,4159.5C 5106.5,4159.83 5106.5,4160.17 5106.5,4160.5C 4772.33,4160.83 4438.33,4160.5 4104.5,4159.5C 4107.83,4159.5 4111.17,4159.5 4114.5,4159.5C 4116.07,4150.21 4120.4,4142.37 4127.5,4136C 4138.86,4127.2 4151.53,4120.87 4165.5,4117C 4181.61,4113.76 4197.61,4110.09 4213.5,4106C 4218.94,4104.11 4223.94,4101.45 4228.5,4098C 4246.07,4078.68 4261.57,4057.85 4275,4035.5C 4244.88,3865.61 4207.88,3697.28 4164,3530.5C 4153.75,3493.22 4141.75,3456.55 4128,3420.5C 4124.67,3413.17 4121.33,3405.83 4118,3398.5C 4095.58,3361.58 4077.58,3322.58 4064,3281.5C 4048.21,3234.46 4034.21,3186.8 4022,3138.5C 4020.67,3143.81 4019.34,3149.15 4018,3154.5C 4011.58,3191.79 4005.41,3229.12 3999.5,3266.5C 4003.35,3286.68 4006.35,3307.02 4008.5,3327.5C 4004.03,3319.9 3999.53,3312.23 3995,3304.5C 3994.04,3301.93 3993.54,3299.26 3993.5,3296.5C 4003.48,3215.11 4009.98,3133.45 4013,3051.5C 4020.6,2864.5 4028.26,2677.5 4036,2490.5C 4040.17,2423.07 4030.84,2357.74 4008,2294.5C 4001.29,2278.09 3993.79,2262.09 3985.5,2246.5C 3989.21,2242.95 3992.38,2238.95 3995,2234.5C 3999.32,2215.96 3999.65,2197.29 3996,2178.5C 3989.66,2153.84 3979.99,2130.51 3967,2108.5C 3937.28,2059.44 3902.95,2013.77 3864,1971.5C 3860.58,1966.93 3857.41,1962.26 3854.5,1957.5C 3842.81,1938.44 3835.31,1917.77 3832,1895.5C 3826.31,1843.33 3823.81,1790.99 3824.5,1738.5C 3837.26,1706.05 3847.09,1672.72 3854,1638.5C 3859.52,1608.74 3861.35,1578.74 3859.5,1548.5 Z"/></g>
<g><path style="opacity:1" fill="#feb17d" d="M 3815.5,1730.5 C 3796.29,1783.94 3773.45,1835.94 3747,1886.5C 3711.61,1953.65 3671.94,2017.98 3628,2079.5C 3606.17,2109.11 3582.01,2136.78 3555.5,2162.5C 3539,2178.25 3520.33,2190.75 3499.5,2200C 3471.05,2209.86 3442.05,2217.69 3412.5,2223.5C 3404.47,2224.8 3396.47,2226.3 3388.5,2228C 3387.62,2229.36 3387.29,2230.86 3387.5,2232.5C 3386.57,2231.43 3386.23,2230.1 3386.5,2228.5C 3310.53,2239.87 3234.2,2247.87 3157.5,2252.5C 3132.22,2254.69 3106.89,2256.19 3081.5,2257C 3039.26,2268.16 2996.26,2274.99 2952.5,2277.5C 2929.39,2277.11 2909.72,2268.77 2893.5,2252.5C 2883.83,2242.22 2883.17,2231.55 2891.5,2220.5C 2896.66,2215.42 2902.66,2211.58 2909.5,2209C 2933.14,2206.01 2956.14,2200.34 2978.5,2192C 2966.78,2191.12 2955.12,2189.79 2943.5,2188C 2939.71,2184.59 2939.71,2181.09 2943.5,2177.5C 2948.46,2173.63 2954.13,2171.96 2960.5,2172.5C 2980.95,2172.64 3001.28,2174.14 3021.5,2177C 3025.83,2178.18 3029.83,2180.02 3033.5,2182.5C 3045.72,2191.09 3059.38,2196.09 3074.5,2197.5C 3080.95,2195.44 3087.28,2193.11 3093.5,2190.5C 3173.02,2161.77 3251.35,2130.11 3328.5,2095.5C 3345.06,2088.42 3361.39,2080.75 3377.5,2072.5C 3390.04,2065.46 3402.71,2058.63 3415.5,2052C 3429.76,2044.08 3442.59,2034.25 3454,2022.5C 3473.44,1993.96 3491.11,1964.29 3507,1933.5C 3547.5,1854.51 3587.5,1775.18 3627,1695.5C 3640.25,1670.67 3653.75,1646.01 3667.5,1621.5C 3671.13,1620.76 3674.8,1620.93 3678.5,1622C 3697.86,1628 3715.86,1636.67 3732.5,1648C 3763.55,1670.72 3791.05,1697.22 3815,1727.5C 3815.48,1728.45 3815.65,1729.45 3815.5,1730.5 Z"/></g>
<g><path style="opacity:1" fill="#ec985f" d="M 3227.5,1649.5 C 3249.13,1648.99 3268.79,1654.82 3286.5,1667C 3285.38,1672.41 3284.55,1677.91 3284,1683.5C 3279.29,1718.05 3282.63,1751.72 3294,1784.5C 3310.96,1824.09 3324.79,1864.75 3335.5,1906.5C 3305.56,1955.29 3271.9,2001.45 3234.5,2045C 3235.06,2045.38 3235.39,2045.88 3235.5,2046.5C 3223.04,2043.52 3210.37,2041.69 3197.5,2041C 3174.83,2040.67 3152.17,2040.33 3129.5,2040C 3100.57,2038.52 3073.57,2030.69 3048.5,2016.5C 3059.1,2009.07 3068.27,2000.07 3076,1989.5C 3090.44,1967.62 3103.11,1944.62 3114,1920.5C 3144.36,1850.41 3173.36,1779.74 3201,1708.5C 3209.36,1688.59 3218.19,1668.92 3227.5,1649.5 Z"/></g>
<g><path style="opacity:1" fill="#d2e3fe" d="M 4141.5,1704.5 C 4273.49,1761.89 4409.82,1807.05 4550.5,1840C 4710.89,1876.18 4872.89,1903.51 5036.5,1922C 5178.92,1938.26 5321.26,1955.26 5463.5,1973C 5514.34,1979.9 5565.01,1987.73 5615.5,1996.5C 5615.5,2211.5 5615.5,2426.5 5615.5,2641.5C 5887.83,2641.5 6160.17,2641.5 6432.5,2641.5C 6432.5,2535.5 6432.5,2429.5 6432.5,2323.5C 6600.99,2452.75 6717.49,2618.75 6782,2821.5C 6821.37,2950.04 6842.03,3081.71 6844,3216.5C 6846.02,3365.58 6833.02,3513.24 6805,3659.5C 6771.95,3830.81 6723.45,3997.48 6659.5,4159.5C 6557.17,4159.5 6454.83,4159.5 6352.5,4159.5C 6348.57,4141.07 6337.57,4129.24 6319.5,4124C 6271.5,4123.67 6223.5,4123.33 6175.5,4123C 6247,4080.8 6299.17,4021.64 6332,3945.5C 6352.26,3897.28 6363.1,3846.94 6364.5,3794.5C 6368.5,3794.5 6372.5,3794.5 6376.5,3794.5C 6376.5,3790.17 6376.5,3785.83 6376.5,3781.5C 6308.83,3781.5 6241.17,3781.5 6173.5,3781.5C 6173.15,3755.48 6173.65,3729.48 6175,3703.5C 6176.84,3676.96 6182.51,3651.29 6192,3626.5C 6200.15,3608.93 6208.15,3591.26 6216,3573.5C 6222.63,3561.22 6229.63,3549.22 6237,3537.5C 6240.3,3533.2 6243.96,3529.2 6248,3525.5C 6254.71,3539.21 6264.54,3550.04 6277.5,3558C 6302.65,3570.94 6329.32,3579.27 6357.5,3583C 6399.87,3588.29 6441.87,3586.29 6483.5,3577C 6491.48,3574.78 6499.15,3571.78 6506.5,3568C 6516.83,3560.87 6518.66,3552.04 6512,3541.5C 6497.45,3524.61 6481.28,3509.45 6463.5,3496C 6451.72,3489.95 6439.39,3485.28 6426.5,3482C 6396.84,3477.26 6367.18,3472.59 6337.5,3468C 6331.72,3465.72 6327.39,3461.88 6324.5,3456.5C 6326.31,3452.86 6328.97,3450.03 6332.5,3448C 6358.73,3439.69 6385.06,3439.36 6411.5,3447C 6417.5,3450 6423.5,3453 6429.5,3456C 6444.56,3466.39 6459.9,3476.39 6475.5,3486C 6503.06,3501.56 6532.4,3507.23 6563.5,3503C 6584.08,3494.43 6601.25,3481.27 6615,3463.5C 6628.97,3445.54 6641.3,3426.54 6652,3406.5C 6660,3390.5 6667.5,3374.16 6674.5,3357.5C 6673.83,3357.17 6673.17,3356.83 6672.5,3356.5C 6660.91,3359.57 6649.07,3361.23 6637,3361.5C 6603.13,3360.6 6570.97,3353.1 6540.5,3339C 6534.09,3335.55 6528.59,3331.05 6524,3325.5C 6522.71,3321.42 6523.87,3318.25 6527.5,3316C 6542.89,3311.6 6558.56,3308.6 6574.5,3307C 6602.83,3305.3 6631.16,3303.63 6659.5,3302C 6668.33,3301.65 6677,3300.31 6685.5,3298C 6702.93,3286.99 6714.43,3271.49 6720,3251.5C 6729.26,3213.07 6727.59,3175.07 6715,3137.5C 6701.05,3109.24 6678.55,3091.74 6647.5,3085C 6613.84,3077.87 6580.18,3077.7 6546.5,3084.5C 6519.09,3129.07 6489.92,3172.4 6459,3214.5C 6448.23,3228.94 6435.73,3241.77 6421.5,3253C 6414.66,3256.3 6411.33,3254.3 6411.5,3247C 6412.64,3237.27 6414.81,3227.77 6418,3218.5C 6435.44,3176.45 6454.94,3135.28 6476.5,3095C 6470.92,3093.48 6465.25,3093.15 6459.5,3094C 6431.97,3098.41 6405.31,3105.91 6379.5,3116.5C 6378.89,3116.38 6378.56,3116.04 6378.5,3115.5C 6380.13,3084.68 6375.96,3054.68 6366,3025.5C 6357.36,3005.86 6343.53,2991.03 6324.5,2981C 6291.2,2964.96 6256.04,2958.13 6219,2960.5C 6199.98,2959.87 6181.14,2961.37 6162.5,2965C 6138.13,3001.85 6112.47,3037.68 6085.5,3072.5C 6083.58,3069.4 6081.41,3066.4 6079,3063.5C 6069.67,3052.83 6059.67,3042.83 6049,3033.5C 6048.54,3032.91 6048.37,3032.24 6048.5,3031.5C 6058.14,3012.56 6068.14,2993.89 6078.5,2975.5C 6068.46,2975.24 6058.46,2975.74 6048.5,2977C 6028.83,2980.42 6009.5,2985.08 5990.5,2991C 5971.62,2997.21 5952.96,3003.71 5934.5,3010.5C 5934.32,2991.09 5934.32,2971.59 5934.5,2952C 5881.07,2924.45 5826.07,2900.45 5769.5,2880C 5749.21,2873.2 5728.54,2867.54 5707.5,2863C 5694.9,2860.56 5682.24,2860.06 5669.5,2861.5C 5699.19,2914.67 5725.35,2969.67 5748,3026.5C 5753.24,3040.05 5755.91,3054.05 5756,3068.5C 5755.53,3069.93 5754.7,3071.1 5753.5,3072C 5750.83,3072.67 5748.17,3072.67 5745.5,3072C 5733.48,3063.99 5722.65,3054.49 5713,3043.5C 5703.61,3032.29 5694.45,3020.95 5685.5,3009.5C 5647.95,2956.91 5612.29,2903.07 5578.5,2848C 5539.76,2840.22 5501.09,2839.72 5462.5,2846.5C 5460.96,2845.7 5459.29,2845.37 5457.5,2845.5C 5446.62,2848.27 5435.79,2851.6 5425,2855.5C 5424.5,2852.85 5424.34,2850.19 5424.5,2847.5C 5424.59,2837.7 5424.59,2828.04 5424.5,2818.5C 5349.87,2782.52 5272.87,2752.69 5193.5,2729C 5164.72,2720.72 5135.39,2716.89 5105.5,2717.5C 5137.61,2772.38 5167.11,2828.72 5194,2886.5C 5200.91,2901.9 5206.25,2917.9 5210,2934.5C 5210.75,2939.57 5210.42,2944.57 5209,2949.5C 5207.41,2951.3 5205.41,2952.3 5203,2952.5C 5192.37,2949.86 5183.21,2944.7 5175.5,2937C 5166.67,2928.17 5157.83,2919.33 5149,2910.5C 5121.81,2879.32 5096.14,2846.99 5072,2813.5C 5045.72,2777.22 5020.22,2740.38 4995.5,2703C 4943.47,2694.39 4891.47,2694.39 4839.5,2703C 4807.19,2709.16 4778.52,2722.82 4753.5,2744C 4734.66,2763.18 4722.83,2786.01 4718,2812.5C 4715.45,2826.48 4713.11,2840.48 4711,2854.5C 4707.26,2890.31 4711.59,2924.97 4724,2958.5C 4731.65,2976.49 4742.82,2991.99 4757.5,3005C 4767.71,3013.27 4779.38,3017.94 4792.5,3019C 4833.81,3021.63 4875.15,3023.96 4916.5,3026C 4950.58,3027.27 4984.25,3031.6 5017.5,3039C 5023.01,3040.67 5027.84,3043.5 5032,3047.5C 5032.67,3052.16 5031.34,3056.16 5028,3059.5C 5014.73,3070.39 4999.89,3078.56 4983.5,3084C 4931.53,3103.23 4877.86,3110.9 4822.5,3107C 4811.96,3105.62 4801.62,3103.62 4791.5,3101C 4815.13,3156.8 4845.96,3207.97 4884,3254.5C 4899.71,3272.55 4917.55,3288.05 4937.5,3301C 4965.39,3318.24 4995.39,3323.24 5027.5,3316C 5036.92,3314.49 5046.25,3312.65 5055.5,3310.5C 5065.5,3319.5 5075.5,3328.5 5085.5,3337.5C 5073.51,3347.83 5062.17,3358.83 5051.5,3370.5C 5027.1,3354.28 5003.1,3337.44 4979.5,3320C 4940.03,3325.07 4904.03,3339.07 4871.5,3362C 4837.72,3388.12 4826.55,3421.96 4838,3463.5C 4843.31,3488.78 4853.97,3511.45 4870,3531.5C 4880.17,3542.35 4892.34,3549.85 4906.5,3554C 4911.83,3554.67 4917.17,3554.67 4922.5,3554C 4961.84,3542.66 5001.18,3531.33 5040.5,3520C 5048.94,3518.37 5057.44,3517.2 5066,3516.5C 5070.9,3515.68 5074.74,3517.18 5077.5,3521C 5075.16,3527.5 5071.66,3533.34 5067,3538.5C 5032.67,3572.92 4991.51,3594.58 4943.5,3603.5C 4973.16,3635.97 5007.49,3662.14 5046.5,3682C 5066.3,3691.07 5086.96,3694.07 5108.5,3691C 5138.06,3679.78 5162.89,3661.95 5183,3637.5C 5193.19,3623.8 5203.85,3610.47 5215,3597.5C 5226.38,3586.4 5239.55,3578.23 5254.5,3573C 5262.08,3570.38 5269.74,3568.05 5277.5,3566C 5286.11,3564.49 5294.78,3564.16 5303.5,3565C 5308.12,3566.08 5309.62,3568.91 5308,3573.5C 5305.21,3577.96 5301.71,3581.79 5297.5,3585C 5276.27,3597.11 5254.61,3608.45 5232.5,3619C 5213.99,3628.51 5198.15,3641.35 5185,3657.5C 5174.42,3673.98 5165.42,3691.32 5158,3709.5C 5154.81,3720.31 5158.65,3726.81 5169.5,3729C 5173.42,3729.2 5177.25,3729.7 5181,3730.5C 5242.48,3725.34 5298.98,3705.84 5350.5,3672C 5365.02,3662.47 5377.85,3650.97 5389,3637.5C 5393.76,3630.99 5397.76,3623.99 5401,3616.5C 5402.79,3612 5403.63,3607.33 5403.5,3602.5C 5408.36,3603.62 5413.02,3605.46 5417.5,3608C 5447.08,3629.9 5474.58,3654.4 5500,3681.5C 5513.79,3699.4 5525.29,3718.73 5534.5,3739.5C 5384.5,3739.33 5234.5,3739.5 5084.5,3740C 5080.17,3742.89 5079.34,3746.72 5082,3751.5C 5082.67,3752.25 5083.5,3752.59 5084.5,3752.5C 5085.92,3753.45 5087.59,3753.78 5089.5,3753.5C 5089.19,3756.71 5089.52,3759.71 5090.5,3762.5C 5098.77,3884.54 5148.77,3985.71 5240.5,4066C 5263.8,4085.32 5288.8,4102.15 5315.5,4116.5C 5262.17,4117.17 5208.83,4117.83 5155.5,4118.5C 5129.1,4120.24 5112.77,4133.9 5106.5,4159.5C 4874.17,4159.5 4641.83,4159.5 4409.5,4159.5C 4409.67,4147.83 4409.5,4136.16 4409,4124.5C 4408.18,4112.05 4405.51,4100.05 4401,4088.5C 4391.93,4072.04 4382.6,4055.7 4373,4039.5C 4367.77,4025.29 4366.1,4010.63 4368,3995.5C 4380.94,3933.43 4390.28,3870.76 4396,3807.5C 4406.11,3699.09 4399.78,3591.76 4377,3485.5C 4361.44,3417.47 4336.11,3353.47 4301,3293.5C 4300.04,3290.93 4299.54,3288.26 4299.5,3285.5C 4310.2,3189.78 4317.37,3093.78 4321,2997.5C 4327.63,2824.82 4334.63,2652.15 4342,2479.5C 4343.2,2449.42 4342.2,2419.42 4339,2389.5C 4333.37,2334.45 4317.21,2282.79 4290.5,2234.5C 4299.07,2227.65 4303.57,2218.65 4304,2207.5C 4305.22,2193 4304.22,2178.67 4301,2164.5C 4293.25,2137.67 4282.25,2112.34 4268,2088.5C 4240.5,2044.65 4209.16,2003.65 4174,1965.5C 4155.86,1942.43 4143.86,1916.43 4138,1887.5C 4132.21,1833.32 4129.87,1778.99 4131,1724.5C 4134.36,1717.67 4137.86,1711 4141.5,1704.5 Z"/></g>
<g><path style="opacity:1" fill="#e9f2f9" d="M 2088.5,1720.5 C 2106.97,1726.89 2125.3,1734.05 2143.5,1742C 2176.17,1756.18 2204.51,1776.51 2228.5,1803C 2266.87,1834.86 2310.21,1857.86 2358.5,1872C 2401.43,1884.3 2445.09,1892.14 2489.5,1895.5C 2485.56,1922.32 2485.56,1949.15 2489.5,1976C 2478.05,2013.43 2483.89,2047.93 2507,2079.5C 2510.62,2084.79 2514.62,2089.79 2519,2094.5C 2525.15,2110.78 2531.98,2126.78 2539.5,2142.5C 2504.86,2139.65 2476.03,2150.98 2453,2176.5C 2447.96,2183.93 2443.46,2191.6 2439.5,2199.5C 2412.65,2196.63 2386.31,2199.13 2360.5,2207C 2345.15,2217.19 2333.65,2230.69 2326,2247.5C 2311.57,2282.95 2303.24,2319.95 2301,2358.5C 2296.99,2426.74 2299.49,2494.74 2308.5,2562.5C 2305.99,2563.92 2303.66,2565.59 2301.5,2567.5C 2277.03,2581.12 2261.19,2601.45 2254,2628.5C 2250.89,2650.56 2252.55,2672.23 2259,2693.5C 2260.71,2698.84 2262.88,2703.84 2265.5,2708.5C 2220.09,2846.38 2175.09,2984.38 2130.5,3122.5C 2131.87,3123.84 2133.2,3125.17 2134.5,3126.5C 2123.53,3140.98 2112.7,3155.65 2102,3170.5C 2094.87,3179.3 2087.37,3187.8 2079.5,3196C 2065.95,3203.29 2051.95,3209.63 2037.5,3215C 2017.25,3223.36 1999.09,3234.86 1983,3249.5C 1974.57,3258.69 1969.07,3269.36 1966.5,3281.5C 1965.6,3282.21 1965.26,3283.21 1965.5,3284.5C 1950.29,3286.68 1935.29,3289.34 1920.5,3292.5C 1920.5,3507.83 1920.5,3723.17 1920.5,3938.5C 1920.5,4012.17 1920.5,4085.83 1920.5,4159.5C 1920.17,4159.5 1919.83,4159.5 1919.5,4159.5C 1919.5,4110.5 1919.5,4061.5 1919.5,4012.5C 1615.17,4012.5 1310.83,4012.5 1006.5,4012.5C 1074.18,3955.34 1139.34,3895.01 1202,3831.5C 1215.14,3817.21 1227.81,3802.54 1240,3787.5C 1251.11,3773.61 1260.45,3758.61 1268,3742.5C 1275.23,3718.62 1266.4,3707.29 1241.5,3708.5C 1231.44,3708.27 1221.77,3710.1 1212.5,3714C 1190.65,3724.18 1170.65,3737.18 1152.5,3753C 1110.25,3792.56 1072.42,3835.73 1039,3882.5C 1008.77,3924.9 979.934,3968.23 952.5,4012.5C 935.466,4013.15 918.8,4012.49 902.5,4010.5C 921.836,3932.66 939.003,3854.32 954,3775.5C 963.895,3721.24 970.895,3666.57 975,3611.5C 975.667,3586.5 975.667,3561.5 975,3536.5C 973.392,3515.12 968.725,3494.46 961,3474.5C 943.908,3444.81 920.408,3438.64 890.5,3456C 879.006,3465.83 870.172,3477.66 864,3491.5C 853.436,3518.2 846.769,3545.87 844,3574.5C 838.75,3635.11 838.083,3695.78 842,3756.5C 847.967,3841.91 857.467,3926.91 870.5,4011.5C 809.336,4012.5 748.002,4012.83 686.5,4012.5C 626.921,3786.62 649.755,3569.29 755,3360.5C 809.545,3255.42 884.378,3167.08 979.5,3095.5C 1064.35,3034.28 1159.01,2996.45 1263.5,2982C 1295.82,2978.8 1328.16,2975.8 1360.5,2973C 1608.67,2941.76 1782.84,2811.92 1883,2583.5C 1914.59,2508.17 1938.92,2430.5 1956,2350.5C 1971.61,2273.8 1983.27,2196.47 1991,2118.5C 1996.38,2061.26 2000.71,2003.92 2004,1946.5C 2014.57,1864.24 2042.74,1788.91 2088.5,1720.5 Z"/></g>
<g><path style="opacity:1" fill="#b6453d" d="M 2754.5,1735.5 C 2775.9,1743.53 2796.23,1753.7 2815.5,1766C 2871.17,1805.67 2918,1853.84 2956,1910.5C 2964.5,1925.5 2973.5,1940.17 2983,1954.5C 3000.51,1979.85 3022.34,2000.51 3048.5,2016.5C 3073.57,2030.69 3100.57,2038.52 3129.5,2040C 3152.17,2040.33 3174.83,2040.67 3197.5,2041C 3210.37,2041.69 3223.04,2043.52 3235.5,2046.5C 3244.72,2048.05 3253.72,2050.39 3262.5,2053.5C 3287.71,2062.44 3309.71,2076.44 3328.5,2095.5C 3251.35,2130.11 3173.02,2161.77 3093.5,2190.5C 3084.83,2186.03 3075.5,2183.53 3065.5,2183C 3054.84,2182.5 3044.17,2182.33 3033.5,2182.5C 3029.83,2180.02 3025.83,2178.18 3021.5,2177C 3001.28,2174.14 2980.95,2172.64 2960.5,2172.5C 2954.13,2171.96 2948.46,2173.63 2943.5,2177.5C 2933.15,2165.98 2923.32,2153.98 2914,2141.5C 2906.8,2133.97 2899.3,2126.8 2891.5,2120C 2886.29,2115.39 2880.29,2113.73 2873.5,2115C 2870.88,2117.11 2868.88,2119.61 2867.5,2122.5C 2858.04,2109.51 2849.54,2095.85 2842,2081.5C 2841.82,2078.64 2841.32,2075.97 2840.5,2073.5C 2839.72,2063.4 2837.22,2053.73 2833,2044.5C 2822.64,2027.62 2812.14,2010.78 2801.5,1994C 2800.5,1993.33 2799.5,1993.33 2798.5,1994C 2777.66,2005.94 2755.66,2014.94 2732.5,2021C 2706.33,2023.96 2680.67,2021.63 2655.5,2014C 2617.47,2001.77 2581.64,1984.94 2548,1963.5C 2542.48,1984.15 2540.15,2005.15 2541,2026.5C 2542.53,2034.28 2544.53,2041.95 2547,2049.5C 2555,2069.49 2563,2089.49 2571,2109.5C 2573.78,2117.97 2574.78,2126.63 2574,2135.5C 2572.86,2137.61 2571.36,2139.44 2569.5,2141C 2572.41,2144.4 2575.07,2147.9 2577.5,2151.5C 2565.25,2146.6 2552.59,2143.6 2539.5,2142.5C 2531.98,2126.78 2525.15,2110.78 2519,2094.5C 2514.62,2089.79 2510.62,2084.79 2507,2079.5C 2483.89,2047.93 2478.05,2013.43 2489.5,1976C 2485.56,1949.15 2485.56,1922.32 2489.5,1895.5C 2492.56,1881.37 2498.39,1868.37 2507,1856.5C 2522.07,1837.76 2539.91,1822.26 2560.5,1810C 2557.83,1809.33 2555.17,1809.33 2552.5,1810C 2548.39,1811.03 2544.39,1812.03 2540.5,1813C 2546.12,1809.03 2552.12,1805.86 2558.5,1803.5C 2568.51,1801 2578.51,1798.5 2588.5,1796C 2593.33,1789.83 2598.17,1783.67 2603,1777.5C 2644.05,1730.11 2694.55,1716.11 2754.5,1735.5 Z"/></g>
<g><path style="opacity:1" fill="#62854f" d="M 3815.5,1730.5 C 3818.49,1733.12 3821.49,1735.79 3824.5,1738.5C 3823.81,1790.99 3826.31,1843.33 3832,1895.5C 3835.31,1917.77 3842.81,1938.44 3854.5,1957.5C 3823.38,2010.46 3785.38,2058.3 3740.5,2101C 3711.08,2128.54 3677.42,2149.21 3639.5,2163C 3626.99,2166.44 3614.32,2169.1 3601.5,2171C 3588.59,2172.39 3575.92,2171.39 3563.5,2168C 3560.28,2166.9 3557.61,2165.06 3555.5,2162.5C 3582.01,2136.78 3606.17,2109.11 3628,2079.5C 3671.94,2017.98 3711.61,1953.65 3747,1886.5C 3773.45,1835.94 3796.29,1783.94 3815.5,1730.5 Z"/></g>
<g><path style="opacity:1" fill="#d2e3fd" d="M 3335.5,1906.5 C 3344.06,1937.33 3352.39,1968.33 3360.5,1999.5C 3352.53,2005.49 3344.2,2010.99 3335.5,2016C 3311.64,2029.35 3287.31,2041.85 3262.5,2053.5C 3253.72,2050.39 3244.72,2048.05 3235.5,2046.5C 3235.39,2045.88 3235.06,2045.38 3234.5,2045C 3271.9,2001.45 3305.56,1955.29 3335.5,1906.5 Z"/></g>
<g><path style="opacity:1" fill="#88b274" d="M 3854.5,1957.5 C 3857.41,1962.26 3860.58,1966.93 3864,1971.5C 3902.95,2013.77 3937.28,2059.44 3967,2108.5C 3979.99,2130.51 3989.66,2153.84 3996,2178.5C 3999.65,2197.29 3999.32,2215.96 3995,2234.5C 3992.38,2238.95 3989.21,2242.95 3985.5,2246.5C 3968.93,2257.45 3951.26,2266.29 3932.5,2273C 3873.29,2292.55 3812.96,2307.55 3751.5,2318C 3684.03,2330.03 3616.03,2337.2 3547.5,2339.5C 3521.02,2339.83 3494.68,2338.16 3468.5,2334.5C 3460.46,2332.11 3452.46,2329.28 3444.5,2326C 3437.85,2322.69 3433.35,2317.52 3431,2310.5C 3425.54,2281.36 3419.37,2252.36 3412.5,2223.5C 3442.05,2217.69 3471.05,2209.86 3499.5,2200C 3520.33,2190.75 3539,2178.25 3555.5,2162.5C 3557.61,2165.06 3560.28,2166.9 3563.5,2168C 3575.92,2171.39 3588.59,2172.39 3601.5,2171C 3614.32,2169.1 3626.99,2166.44 3639.5,2163C 3677.42,2149.21 3711.08,2128.54 3740.5,2101C 3785.38,2058.3 3823.38,2010.46 3854.5,1957.5 Z"/></g>
<g><path style="opacity:1" fill="#feb17d" d="M 2840.5,2073.5 C 2842.6,2094.21 2839.1,2113.88 2830,2132.5C 2819.9,2152.39 2807.56,2170.72 2793,2187.5C 2776.84,2204.83 2759.67,2220.83 2741.5,2235.5C 2734.4,2240.09 2727.4,2244.92 2720.5,2250C 2717.57,2250.95 2714.57,2251.45 2711.5,2251.5C 2686.55,2227.72 2660.55,2205.22 2633.5,2184C 2615.92,2171.37 2597.25,2160.54 2577.5,2151.5C 2575.07,2147.9 2572.41,2144.4 2569.5,2141C 2571.36,2139.44 2572.86,2137.61 2574,2135.5C 2574.78,2126.63 2573.78,2117.97 2571,2109.5C 2563,2089.49 2555,2069.49 2547,2049.5C 2544.53,2041.95 2542.53,2034.28 2541,2026.5C 2540.15,2005.15 2542.48,1984.15 2548,1963.5C 2581.64,1984.94 2617.47,2001.77 2655.5,2014C 2680.67,2021.63 2706.33,2023.96 2732.5,2021C 2755.66,2014.94 2777.66,2005.94 2798.5,1994C 2799.5,1993.33 2800.5,1993.33 2801.5,1994C 2812.14,2010.78 2822.64,2027.62 2833,2044.5C 2837.22,2053.73 2839.72,2063.4 2840.5,2073.5 Z"/></g>
<g><path style="opacity:1" fill="#bcd8fe" d="M 5615.5,1996.5 C 5623.13,1997.91 5630.8,1999.25 5638.5,2000.5C 5640.5,2205.29 5641.16,2410.29 5640.5,2615.5C 5896.17,2615.5 6151.83,2615.5 6407.5,2615.5C 6407.17,2512 6407.5,2408.67 6408.5,2305.5C 6416.78,2311.12 6424.78,2317.12 6432.5,2323.5C 6432.5,2429.5 6432.5,2535.5 6432.5,2641.5C 6160.17,2641.5 5887.83,2641.5 5615.5,2641.5C 5615.5,2426.5 5615.5,2211.5 5615.5,1996.5 Z"/></g>
<g><path style="opacity:1" fill="#c3d9fb" d="M 3360.5,1999.5 C 3366.34,2023.85 3372.01,2048.18 3377.5,2072.5C 3361.39,2080.75 3345.06,2088.42 3328.5,2095.5C 3309.71,2076.44 3287.71,2062.44 3262.5,2053.5C 3287.31,2041.85 3311.64,2029.35 3335.5,2016C 3344.2,2010.99 3352.53,2005.49 3360.5,1999.5 Z"/></g>
<g><path style="opacity:1" fill="#d2e3fe" d="M 5638.5,2000.5 C 5648.94,2002.55 5659.27,2004.55 5669.5,2006.5C 5667.5,2200.16 5666.83,2394.16 5667.5,2588.5C 5905.83,2588.5 6144.17,2588.5 6382.5,2588.5C 6382.5,2487.83 6382.5,2387.17 6382.5,2286.5C 6391.2,2292.85 6399.87,2299.18 6408.5,2305.5C 6407.5,2408.67 6407.17,2512 6407.5,2615.5C 6151.83,2615.5 5896.17,2615.5 5640.5,2615.5C 5641.16,2410.29 5640.5,2205.29 5638.5,2000.5 Z"/></g>
<g><path style="opacity:1" fill="#bcd8fe" d="M 5669.5,2006.5 C 5803.93,2030.59 5934.93,2066.76 6062.5,2115C 6176.32,2159.4 6282.99,2216.57 6382.5,2286.5C 6382.5,2387.17 6382.5,2487.83 6382.5,2588.5C 6144.17,2588.5 5905.83,2588.5 5667.5,2588.5C 5666.83,2394.16 5667.5,2200.16 5669.5,2006.5 Z"/></g>
<g><path style="opacity:1" fill="#d3e4fe" d="M 2315.5,2026.5 C 2332.56,2036.39 2347.73,2048.72 2361,2063.5C 2365.31,2071.32 2365.64,2079.32 2362,2087.5C 2355.46,2096.83 2346.96,2098.99 2336.5,2094C 2328.46,2088.61 2323.63,2081.11 2322,2071.5C 2319.32,2056.56 2317.15,2041.56 2315.5,2026.5 Z"/></g>
<g><path style="opacity:1" fill="#f3a169" d="M 2840.5,2073.5 C 2841.32,2075.97 2841.82,2078.64 2842,2081.5C 2849.54,2095.85 2858.04,2109.51 2867.5,2122.5C 2866.97,2125.24 2866.14,2127.9 2865,2130.5C 2845.53,2159.65 2822.7,2186.15 2796.5,2210C 2783.72,2221.78 2770.05,2232.45 2755.5,2242C 2752.69,2243.55 2749.69,2244.38 2746.5,2244.5C 2744.58,2241.66 2742.91,2238.66 2741.5,2235.5C 2759.67,2220.83 2776.84,2204.83 2793,2187.5C 2807.56,2170.72 2819.9,2152.39 2830,2132.5C 2839.1,2113.88 2842.6,2094.21 2840.5,2073.5 Z"/></g>
<g><path style="opacity:1" fill="#f99646" d="M 2943.5,2177.5 C 2939.71,2181.09 2939.71,2184.59 2943.5,2188C 2955.12,2189.79 2966.78,2191.12 2978.5,2192C 2956.14,2200.34 2933.14,2206.01 2909.5,2209C 2902.66,2211.58 2896.66,2215.42 2891.5,2220.5C 2868.79,2228.69 2846.12,2237.19 2823.5,2246C 2801.41,2253.1 2779.08,2259.1 2756.5,2264C 2746.33,2264.98 2736.33,2266.15 2726.5,2267.5C 2724.2,2264.86 2721.86,2262.19 2719.5,2259.5C 2719.34,2257.8 2719.51,2256.13 2720,2254.5C 2722.23,2252.3 2724.73,2250.47 2727.5,2249C 2733.95,2247.42 2740.28,2245.92 2746.5,2244.5C 2749.69,2244.38 2752.69,2243.55 2755.5,2242C 2770.05,2232.45 2783.72,2221.78 2796.5,2210C 2822.7,2186.15 2845.53,2159.65 2865,2130.5C 2866.14,2127.9 2866.97,2125.24 2867.5,2122.5C 2868.88,2119.61 2870.88,2117.11 2873.5,2115C 2880.29,2113.73 2886.29,2115.39 2891.5,2120C 2899.3,2126.8 2906.8,2133.97 2914,2141.5C 2923.32,2153.98 2933.15,2165.98 2943.5,2177.5 Z"/></g>
<g><path style="opacity:1" fill="#1d4589" d="M 2539.5,2142.5 C 2552.59,2143.6 2565.25,2146.6 2577.5,2151.5C 2597.25,2160.54 2615.92,2171.37 2633.5,2184C 2660.55,2205.22 2686.55,2227.72 2711.5,2251.5C 2713.83,2254.5 2716.5,2257.17 2719.5,2259.5C 2721.86,2262.19 2724.2,2264.86 2726.5,2267.5C 2746.61,2287.6 2765.61,2308.6 2783.5,2330.5C 2751.77,2356.72 2720.44,2383.55 2689.5,2411C 2673.58,2427.92 2657.25,2444.58 2640.5,2461C 2633.81,2466.68 2626.48,2471.34 2618.5,2475C 2597.74,2478.19 2577.74,2483.85 2558.5,2492C 2553.11,2494.73 2548.27,2498.23 2544,2502.5C 2543.59,2503.9 2543.09,2505.23 2542.5,2506.5C 2479.43,2517.86 2416.76,2531.36 2354.5,2547C 2342.02,2550.52 2329.69,2554.36 2317.5,2558.5C 2316.39,2557.05 2316.22,2555.39 2317,2553.5C 2338.68,2488.82 2360.34,2424.15 2382,2359.5C 2400.28,2305.82 2419.45,2252.49 2439.5,2199.5C 2443.46,2191.6 2447.96,2183.93 2453,2176.5C 2476.03,2150.98 2504.86,2139.65 2539.5,2142.5 Z"/></g>
<g><path style="opacity:1" fill="#f99646" d="M 3033.5,2182.5 C 3044.17,2182.33 3054.84,2182.5 3065.5,2183C 3075.5,2183.53 3084.83,2186.03 3093.5,2190.5C 3087.28,2193.11 3080.95,2195.44 3074.5,2197.5C 3059.38,2196.09 3045.72,2191.09 3033.5,2182.5 Z"/></g>
<g><path style="opacity:1" fill="#163561" d="M 2439.5,2199.5 C 2419.45,2252.49 2400.28,2305.82 2382,2359.5C 2360.34,2424.15 2338.68,2488.82 2317,2553.5C 2316.22,2555.39 2316.39,2557.05 2317.5,2558.5C 2314.74,2560.2 2311.74,2561.54 2308.5,2562.5C 2299.49,2494.74 2296.99,2426.74 2301,2358.5C 2303.24,2319.95 2311.57,2282.95 2326,2247.5C 2333.65,2230.69 2345.15,2217.19 2360.5,2207C 2386.31,2199.13 2412.65,2196.63 2439.5,2199.5 Z"/></g>
<g><path style="opacity:1" fill="#c2d9fb" d="M 3412.5,2223.5 C 3419.37,2252.36 3425.54,2281.36 3431,2310.5C 3433.35,2317.52 3437.85,2322.69 3444.5,2326C 3452.46,2329.28 3460.46,2332.11 3468.5,2334.5C 3466.34,2345.05 3464.17,2355.72 3462,2366.5C 3458,2392.5 3454,2418.5 3450,2444.5C 3442.43,2507.47 3435.1,2570.47 3428,2633.5C 3426.59,2651.51 3425.09,2669.51 3423.5,2687.5C 3413.48,2816.44 3414.65,2945.44 3427,3074.5C 3431.85,3122.63 3437.68,3170.63 3444.5,3218.5C 3423.77,3207.87 3402.1,3199.7 3379.5,3194C 3357.98,3190.19 3336.65,3190.69 3315.5,3195.5C 3343.22,3165.04 3358.05,3129.04 3360,3087.5C 3362.01,3037.25 3355.35,2988.25 3340,2940.5C 3320.97,2882.1 3295.64,2826.43 3264,2773.5C 3259.12,2757.49 3255.79,2741.15 3254,2724.5C 3250.48,2694.23 3247.64,2663.9 3245.5,2633.5C 3279.85,2583.59 3311.68,2531.93 3341,2478.5C 3350.87,2459.76 3359.87,2440.76 3368,2421.5C 3386.76,2359.85 3393.26,2296.85 3387.5,2232.5C 3387.29,2230.86 3387.62,2229.36 3388.5,2228C 3396.47,2226.3 3404.47,2224.8 3412.5,2223.5 Z"/></g>
<g><path style="opacity:1" fill="#ec7d2b" d="M 2891.5,2220.5 C 2883.17,2231.55 2883.83,2242.22 2893.5,2252.5C 2855.99,2277.35 2819.32,2303.35 2783.5,2330.5C 2765.61,2308.6 2746.61,2287.6 2726.5,2267.5C 2736.33,2266.15 2746.33,2264.98 2756.5,2264C 2779.08,2259.1 2801.41,2253.1 2823.5,2246C 2846.12,2237.19 2868.79,2228.69 2891.5,2220.5 Z"/></g>
<g><path style="opacity:1" fill="#b6453c" d="M 3387.5,2232.5 C 3393.26,2296.85 3386.76,2359.85 3368,2421.5C 3359.87,2440.76 3350.87,2459.76 3341,2478.5C 3311.68,2531.93 3279.85,2583.59 3245.5,2633.5C 3240.31,2552.96 3229.14,2473.29 3212,2394.5C 3201.11,2344.17 3182.94,2296.84 3157.5,2252.5C 3234.2,2247.87 3310.53,2239.87 3386.5,2228.5C 3386.23,2230.1 3386.57,2231.43 3387.5,2232.5 Z"/></g>
<g><path style="opacity:1" fill="#b7483d" d="M 2741.5,2235.5 C 2742.91,2238.66 2744.58,2241.66 2746.5,2244.5C 2740.28,2245.92 2733.95,2247.42 2727.5,2249C 2724.73,2250.47 2722.23,2252.3 2720,2254.5C 2719.51,2256.13 2719.34,2257.8 2719.5,2259.5C 2716.5,2257.17 2713.83,2254.5 2711.5,2251.5C 2714.57,2251.45 2717.57,2250.95 2720.5,2250C 2727.4,2244.92 2734.4,2240.09 2741.5,2235.5 Z"/></g>
<g><path style="opacity:1" fill="#2b468b" d="M 3985.5,2246.5 C 3993.79,2262.09 4001.29,2278.09 4008,2294.5C 4030.84,2357.74 4040.17,2423.07 4036,2490.5C 4028.26,2677.5 4020.6,2864.5 4013,3051.5C 4009.98,3133.45 4003.48,3215.11 3993.5,3296.5C 3993.54,3299.26 3994.04,3301.93 3995,3304.5C 3999.53,3312.23 4004.03,3319.9 4008.5,3327.5C 4056.52,3422.23 4084.02,3522.9 4091,3629.5C 4095.93,3698.21 4095.26,3766.88 4089,3835.5C 4082.92,3894.71 4073.75,3953.38 4061.5,4011.5C 4037.09,4038.31 4006.76,4049.97 3970.5,4046.5C 3964.49,4013.79 3958.16,3981.12 3951.5,3948.5C 3927.61,3826.45 3900.44,3705.12 3870,3584.5C 3857.17,3533.34 3841.5,3483.01 3823,3433.5C 3819.23,3423.96 3814.9,3414.62 3810,3405.5C 3791.68,3374.52 3776.34,3342.19 3764,3308.5C 3755.8,3284.22 3747.8,3259.89 3740,3235.5C 3732.05,3205.98 3723.88,3176.64 3715.5,3147.5C 3684.99,3016.12 3659.16,2883.79 3638,2750.5C 3631.6,2706.49 3624.93,2662.49 3618,2618.5C 3593.33,2525.82 3569.83,2432.82 3547.5,2339.5C 3616.03,2337.2 3684.03,2330.03 3751.5,2318C 3812.96,2307.55 3873.29,2292.55 3932.5,2273C 3951.26,2266.29 3968.93,2257.45 3985.5,2246.5 Z"/></g>
<g><path style="opacity:1" fill="#f99646" d="M 2893.5,2252.5 C 2909.72,2268.77 2929.39,2277.11 2952.5,2277.5C 2996.26,2274.99 3039.26,2268.16 3081.5,2257C 3106.89,2256.19 3132.22,2254.69 3157.5,2252.5C 3182.94,2296.84 3201.11,2344.17 3212,2394.5C 3229.14,2473.29 3240.31,2552.96 3245.5,2633.5C 3247.64,2663.9 3250.48,2694.23 3254,2724.5C 3255.79,2741.15 3259.12,2757.49 3264,2773.5C 3295.64,2826.43 3320.97,2882.1 3340,2940.5C 3355.35,2988.25 3362.01,3037.25 3360,3087.5C 3358.05,3129.04 3343.22,3165.04 3315.5,3195.5C 3313.58,3196.36 3311.58,3197.03 3309.5,3197.5C 3335.28,3163.92 3336.11,3129.59 3312,3094.5C 3298.16,3076.99 3285.5,3058.66 3274,3039.5C 3218.13,2948.82 3161.29,2858.82 3103.5,2769.5C 3104.12,2769.39 3104.62,2769.06 3105,2768.5C 3114.68,2720.69 3120.35,2672.35 3122,2623.5C 3123.27,2549.2 3119.44,2475.2 3110.5,2401.5C 3062.19,2455.25 3009.52,2503.91 2952.5,2547.5C 2908.98,2581.51 2863.64,2613.01 2816.5,2642C 2784.58,2661.79 2750.91,2678.13 2715.5,2691C 2694.97,2696.47 2675.64,2693.81 2657.5,2683C 2644.5,2674.67 2632.67,2664.84 2622,2653.5C 2612,2641.46 2602.5,2629.13 2593.5,2616.5C 2571.09,2582.35 2554.09,2545.69 2542.5,2506.5C 2543.09,2505.23 2543.59,2503.9 2544,2502.5C 2548.27,2498.23 2553.11,2494.73 2558.5,2492C 2577.74,2483.85 2597.74,2478.19 2618.5,2475C 2626.48,2471.34 2633.81,2466.68 2640.5,2461C 2657.25,2444.58 2673.58,2427.92 2689.5,2411C 2720.44,2383.55 2751.77,2356.72 2783.5,2330.5C 2819.32,2303.35 2855.99,2277.35 2893.5,2252.5 Z"/></g>
<g><path style="opacity:1" fill="#d2e4fe" d="M 2140.5,2292.5 C 2157.56,2302.39 2172.73,2314.72 2186,2329.5C 2191.1,2340.15 2189.93,2349.98 2182.5,2359C 2170.42,2364.76 2160.26,2362.26 2152,2351.5C 2149.39,2345.72 2147.39,2339.72 2146,2333.5C 2143.27,2319.95 2141.43,2306.29 2140.5,2292.5 Z"/></g>
<g><path style="opacity:1" fill="#233863" d="M 3468.5,2334.5 C 3494.68,2338.16 3521.02,2339.83 3547.5,2339.5C 3569.83,2432.82 3593.33,2525.82 3618,2618.5C 3624.93,2662.49 3631.6,2706.49 3638,2750.5C 3659.16,2883.79 3684.99,3016.12 3715.5,3147.5C 3710.73,3178.06 3705.39,3208.39 3699.5,3238.5C 3607.23,3056.63 3515.4,2874.3 3424,2691.5C 3423.51,2690.21 3423.34,2688.87 3423.5,2687.5C 3425.09,2669.51 3426.59,2651.51 3428,2633.5C 3435.1,2570.47 3442.43,2507.47 3450,2444.5C 3454,2418.5 3458,2392.5 3462,2366.5C 3464.17,2355.72 3466.34,2345.05 3468.5,2334.5 Z"/></g>
<g><path style="opacity:1" fill="#ec7d2b" d="M 3103.5,2769.5 C 3054.65,2694.46 3004.32,2620.46 2952.5,2547.5C 3009.52,2503.91 3062.19,2455.25 3110.5,2401.5C 3119.44,2475.2 3123.27,2549.2 3122,2623.5C 3120.35,2672.35 3114.68,2720.69 3105,2768.5C 3104.62,2769.06 3104.12,2769.39 3103.5,2769.5 Z"/></g>
<g><path style="opacity:1" fill="#ec975f" d="M 2542.5,2506.5 C 2554.09,2545.69 2571.09,2582.35 2593.5,2616.5C 2555.91,2619.46 2518.24,2621.29 2480.5,2622C 2418.17,2623.26 2355.84,2623.76 2293.5,2623.5C 2291.83,2623.5 2290.17,2623.5 2288.5,2623.5C 2285.25,2605.43 2288.08,2588.43 2297,2572.5C 2298.71,2570.96 2300.21,2569.3 2301.5,2567.5C 2303.66,2565.59 2305.99,2563.92 2308.5,2562.5C 2311.74,2561.54 2314.74,2560.2 2317.5,2558.5C 2329.69,2554.36 2342.02,2550.52 2354.5,2547C 2416.76,2531.36 2479.43,2517.86 2542.5,2506.5 Z"/></g>
<g><path style="opacity:1" fill="#1d4589" d="M 2952.5,2547.5 C 3004.32,2620.46 3054.65,2694.46 3103.5,2769.5C 3161.29,2858.82 3218.13,2948.82 3274,3039.5C 3285.5,3058.66 3298.16,3076.99 3312,3094.5C 3336.11,3129.59 3335.28,3163.92 3309.5,3197.5C 3283.44,3208.16 3256.44,3215.99 3228.5,3221C 3156.15,3232.35 3083.32,3237.85 3010,3237.5C 2982.16,3236.9 2954.33,3236.24 2926.5,3235.5C 2890.86,3217.7 2860.69,3193.04 2836,3161.5C 2825.28,3147.11 2814.94,3132.44 2805,3117.5C 2712.38,2970.62 2628.21,2818.62 2552.5,2661.5C 2531.5,2709.3 2509,2756.3 2485,2802.5C 2454.51,2859.18 2423.01,2915.18 2390.5,2970.5C 2352.69,3033.44 2313.86,3095.77 2274,3157.5C 2267.62,3164.27 2259.79,3168.27 2250.5,3169.5C 2242.49,3169.67 2234.49,3169.5 2226.5,3169C 2205.03,3163.95 2184.7,3155.95 2165.5,3145C 2154.81,3139.33 2144.47,3133.16 2134.5,3126.5C 2133.2,3125.17 2131.87,3123.84 2130.5,3122.5C 2175.09,2984.38 2220.09,2846.38 2265.5,2708.5C 2275.63,2680.44 2284.96,2652.11 2293.5,2623.5C 2355.84,2623.76 2418.17,2623.26 2480.5,2622C 2518.24,2621.29 2555.91,2619.46 2593.5,2616.5C 2602.5,2629.13 2612,2641.46 2622,2653.5C 2632.67,2664.84 2644.5,2674.67 2657.5,2683C 2675.64,2693.81 2694.97,2696.47 2715.5,2691C 2750.91,2678.13 2784.58,2661.79 2816.5,2642C 2863.64,2613.01 2908.98,2581.51 2952.5,2547.5 Z"/></g>
<g><path style="opacity:1" fill="#fdb17e" d="M 2301.5,2567.5 C 2300.21,2569.3 2298.71,2570.96 2297,2572.5C 2288.08,2588.43 2285.25,2605.43 2288.5,2623.5C 2290.17,2623.5 2291.83,2623.5 2293.5,2623.5C 2284.96,2652.11 2275.63,2680.44 2265.5,2708.5C 2262.88,2703.84 2260.71,2698.84 2259,2693.5C 2252.55,2672.23 2250.89,2650.56 2254,2628.5C 2261.19,2601.45 2277.03,2581.12 2301.5,2567.5 Z"/></g>
<g><path style="opacity:1" fill="#163561" d="M 2926.5,3235.5 C 2887.02,3233.85 2847.68,3230.51 2808.5,3225.5C 2760.22,3202.39 2721.39,3168.39 2692,3123.5C 2659.27,3064.05 2628.11,3003.72 2598.5,2942.5C 2598.01,2941.53 2597.51,2940.53 2597,2939.5C 2596.17,2952.34 2596.34,2965.01 2597.5,2977.5C 2597.87,3026.83 2598.04,3076.17 2598,3125.5C 2596.46,3133.53 2592.63,3140.19 2586.5,3145.5C 2573.85,3155.12 2559.51,3160.95 2543.5,3163C 2513.22,3166.58 2482.89,3167.41 2452.5,3165.5C 2450.15,3165.16 2447.81,3164.66 2445.5,3164C 2425.85,3099.97 2407.52,3035.47 2390.5,2970.5C 2423.01,2915.18 2454.51,2859.18 2485,2802.5C 2509,2756.3 2531.5,2709.3 2552.5,2661.5C 2628.21,2818.62 2712.38,2970.62 2805,3117.5C 2814.94,3132.44 2825.28,3147.11 2836,3161.5C 2860.69,3193.04 2890.86,3217.7 2926.5,3235.5 Z"/></g>
<g><path style="opacity:1" fill="#d3e4fe" d="M 2123.5,2694.5 C 2134.45,2700.58 2144.28,2708.25 2153,2717.5C 2158.05,2725.13 2157.55,2732.3 2151.5,2739C 2142.39,2742.72 2135.23,2740.56 2130,2732.5C 2126.3,2720.09 2124.13,2707.42 2123.5,2694.5 Z"/></g>
<g><path style="opacity:1" fill="#2b468b" d="M 3423.5,2687.5 C 3423.34,2688.87 3423.51,2690.21 3424,2691.5C 3515.4,2874.3 3607.23,3056.63 3699.5,3238.5C 3697.45,3251.96 3695.45,3265.46 3693.5,3279C 3702.23,3318.67 3705.73,3358.84 3704,3399.5C 3699.75,3472.61 3686.42,3543.94 3664,3613.5C 3634.97,3703.7 3597.8,3790.7 3552.5,3874.5C 3552.5,3681.17 3552.5,3487.83 3552.5,3294.5C 3552.5,3293.83 3552.5,3293.17 3552.5,3292.5C 3519.32,3263.89 3483.32,3239.23 3444.5,3218.5C 3437.68,3170.63 3431.85,3122.63 3427,3074.5C 3414.65,2945.44 3413.48,2816.44 3423.5,2687.5 Z"/></g>
<g><path style="opacity:1" fill="#1d458a" d="M 5424.5,2847.5 C 5422.19,2888.33 5422.02,2929.33 5424,2970.5C 5424.83,3001.79 5428.16,3032.79 5434,3063.5C 5436,3073.5 5439.67,3082.83 5445,3091.5C 5451.59,3099.14 5458.59,3099.47 5466,3092.5C 5473.2,3079.86 5476.87,3066.19 5477,3051.5C 5478.29,3019.06 5476.95,2986.73 5473,2954.5C 5468.9,2917.98 5463.74,2881.65 5457.5,2845.5C 5459.29,2845.37 5460.96,2845.7 5462.5,2846.5C 5487.75,2855.62 5511.09,2868.12 5532.5,2884C 5564.55,2908.64 5594.05,2936.14 5621,2966.5C 5653.91,3012.61 5661.24,3062.61 5643,3116.5C 5628.14,3151.38 5606.98,3181.88 5579.5,3208C 5558.1,3228.19 5534.77,3245.69 5509.5,3260.5C 5502.03,3237.56 5490.86,3216.56 5476,3197.5C 5450.76,3166.26 5422.26,3138.43 5390.5,3114C 5334.4,3072.6 5275.4,3035.6 5213.5,3003C 5097.24,2943.81 4977.57,2892.81 4854.5,2850C 4846.46,2847.43 4838.46,2845.09 4830.5,2843C 4957.1,2893.3 5079.77,2951.64 5198.5,3018C 5260.35,3053.25 5318.35,3093.92 5372.5,3140C 5405.52,3168.33 5433.35,3200.83 5456,3237.5C 5465.56,3254.06 5472.22,3271.72 5476,3290.5C 5479.67,3310.76 5477.17,3330.1 5468.5,3348.5C 5462.6,3359.67 5455.27,3369.67 5446.5,3378.5C 5415.69,3401.01 5381.36,3416.01 5343.5,3423.5C 5335.54,3425.06 5327.54,3426.56 5319.5,3428C 5317.68,3428.2 5316.35,3429.03 5315.5,3430.5C 5314.78,3430.08 5314.28,3429.42 5314,3428.5C 5282.59,3433.57 5250.92,3436.24 5219,3436.5C 5193.78,3435.97 5168.61,3434.47 5143.5,3432C 5119.1,3428.45 5095.1,3423.12 5071.5,3416C 5061.52,3412.69 5053.02,3407.19 5046,3399.5C 5041.43,3388.6 5043.26,3378.93 5051.5,3370.5C 5062.17,3358.83 5073.51,3347.83 5085.5,3337.5C 5098.05,3326.78 5111.05,3316.62 5124.5,3307C 5137.69,3299.89 5151.36,3294.05 5165.5,3289.5C 5185.68,3285.1 5206.01,3281.26 5226.5,3278C 5259.03,3274.98 5291.36,3270.65 5323.5,3265C 5332.31,3262.68 5339.81,3258.18 5346,3251.5C 5347.65,3246.15 5346.15,3241.99 5341.5,3239C 5329.8,3232.24 5317.13,3228.24 5303.5,3227C 5279.5,3223.67 5255.5,3223.67 5231.5,3227C 5213.27,3231.23 5195.93,3237.9 5179.5,3247C 5155.34,3261.86 5131.68,3276.36 5108.5,3290.5C 5091.14,3297.95 5073.48,3304.62 5055.5,3310.5C 5046.25,3312.65 5036.92,3314.49 5027.5,3316C 4995.39,3323.24 4965.39,3318.24 4937.5,3301C 4917.55,3288.05 4899.71,3272.55 4884,3254.5C 4845.96,3207.97 4815.13,3156.8 4791.5,3101C 4801.62,3103.62 4811.96,3105.62 4822.5,3107C 4877.86,3110.9 4931.53,3103.23 4983.5,3084C 4999.89,3078.56 5014.73,3070.39 5028,3059.5C 5031.34,3056.16 5032.67,3052.16 5032,3047.5C 5027.84,3043.5 5023.01,3040.67 5017.5,3039C 4984.25,3031.6 4950.58,3027.27 4916.5,3026C 4875.15,3023.96 4833.81,3021.63 4792.5,3019C 4779.38,3017.94 4767.71,3013.27 4757.5,3005C 4742.82,2991.99 4731.65,2976.49 4724,2958.5C 4711.59,2924.97 4707.26,2890.31 4711,2854.5C 4713.11,2840.48 4715.45,2826.48 4718,2812.5C 4722.83,2786.01 4734.66,2763.18 4753.5,2744C 4778.52,2722.82 4807.19,2709.16 4839.5,2703C 4891.47,2694.39 4943.47,2694.39 4995.5,2703C 5020.22,2740.38 5045.72,2777.22 5072,2813.5C 5096.14,2846.99 5121.81,2879.32 5149,2910.5C 5157.83,2919.33 5166.67,2928.17 5175.5,2937C 5183.21,2944.7 5192.37,2949.86 5203,2952.5C 5205.41,2952.3 5207.41,2951.3 5209,2949.5C 5210.42,2944.57 5210.75,2939.57 5210,2934.5C 5206.25,2917.9 5200.91,2901.9 5194,2886.5C 5167.11,2828.72 5137.61,2772.38 5105.5,2717.5C 5135.39,2716.89 5164.72,2720.72 5193.5,2729C 5272.87,2752.69 5349.87,2782.52 5424.5,2818.5C 5424.59,2828.04 5424.59,2837.7 5424.5,2847.5 Z"/></g>
<g><path style="opacity:1" fill="#c2d9fb" d="M 5934.5,3010.5 C 5901.95,3023.21 5869.62,3037.21 5837.5,3052.5C 5837.99,3097.83 5837.49,3143.16 5836,3188.5C 5834.52,3207.35 5831.85,3226.02 5828,3244.5C 5826.08,3252.17 5822.25,3258.67 5816.5,3264C 5810.26,3265.46 5805.76,3263.3 5803,3257.5C 5799.56,3249.18 5797.56,3240.51 5797,3231.5C 5796.25,3213.15 5796.58,3194.81 5798,3176.5C 5801.11,3141.98 5805.61,3107.65 5811.5,3073.5C 5796.9,3077.47 5783.23,3083.63 5770.5,3092C 5737.69,3113.13 5708.86,3138.96 5684,3169.5C 5656.67,3214.8 5656.67,3260.14 5684,3305.5C 5693.86,3320.53 5705.03,3334.53 5717.5,3347.5C 5702.34,3357.58 5687.01,3367.41 5671.5,3377C 5688.81,3376.77 5706.14,3376.44 5723.5,3376C 5730.95,3374.08 5738.29,3372.25 5745.5,3370.5C 5753.9,3377.06 5762.74,3383.06 5772,3388.5C 5770.28,3437.19 5759.28,3483.52 5739,3527.5C 5725.97,3550.55 5714.31,3574.22 5704,3598.5C 5687.59,3644.14 5681.76,3691.14 5686.5,3739.5C 5664.17,3739.5 5641.83,3739.5 5619.5,3739.5C 5625.8,3698.89 5626.13,3658.23 5620.5,3617.5C 5629.55,3609.95 5637.38,3601.28 5644,3591.5C 5647.33,3584.14 5645,3580.47 5637,3580.5C 5630.18,3581.08 5623.51,3582.41 5617,3584.5C 5616.23,3584.36 5615.56,3584.02 5615,3583.5C 5614.72,3584.42 5614.22,3585.08 5613.5,3585.5C 5607.42,3563.09 5600.25,3541.09 5592,3519.5C 5579.53,3493.88 5566.53,3468.55 5553,3443.5C 5548,3431.77 5543.17,3420.1 5538.5,3408.5C 5545.25,3407.45 5551.91,3405.95 5558.5,3404C 5560.83,3403.33 5563.17,3403.33 5565.5,3404C 5584.76,3419.93 5604.6,3435.1 5625,3449.5C 5633.46,3438.7 5642.96,3428.87 5653.5,3420C 5645.02,3411.6 5636.36,3403.44 5627.5,3395.5C 5608.69,3401.77 5589.35,3404.27 5569.5,3403C 5556.47,3400.65 5544.47,3395.82 5533.5,3388.5C 5532.89,3388.62 5532.56,3388.96 5532.5,3389.5C 5518.08,3347.89 5510.41,3304.89 5509.5,3260.5C 5534.77,3245.69 5558.1,3228.19 5579.5,3208C 5606.98,3181.88 5628.14,3151.38 5643,3116.5C 5661.24,3062.61 5653.91,3012.61 5621,2966.5C 5594.05,2936.14 5564.55,2908.64 5532.5,2884C 5511.09,2868.12 5487.75,2855.62 5462.5,2846.5C 5501.09,2839.72 5539.76,2840.22 5578.5,2848C 5612.29,2903.07 5647.95,2956.91 5685.5,3009.5C 5694.45,3020.95 5703.61,3032.29 5713,3043.5C 5722.65,3054.49 5733.48,3063.99 5745.5,3072C 5748.17,3072.67 5750.83,3072.67 5753.5,3072C 5754.7,3071.1 5755.53,3069.93 5756,3068.5C 5755.91,3054.05 5753.24,3040.05 5748,3026.5C 5725.35,2969.67 5699.19,2914.67 5669.5,2861.5C 5682.24,2860.06 5694.9,2860.56 5707.5,2863C 5728.54,2867.54 5749.21,2873.2 5769.5,2880C 5826.07,2900.45 5881.07,2924.45 5934.5,2952C 5934.32,2971.59 5934.32,2991.09 5934.5,3010.5 Z"/></g>
<g><path style="opacity:1" fill="#c1d8fa" d="M 5457.5,2845.5 C 5463.74,2881.65 5468.9,2917.98 5473,2954.5C 5476.95,2986.73 5478.29,3019.06 5477,3051.5C 5476.87,3066.19 5473.2,3079.86 5466,3092.5C 5458.59,3099.47 5451.59,3099.14 5445,3091.5C 5439.67,3082.83 5436,3073.5 5434,3063.5C 5428.16,3032.79 5424.83,3001.79 5424,2970.5C 5422.02,2929.33 5422.19,2888.33 5424.5,2847.5C 5424.34,2850.19 5424.5,2852.85 5425,2855.5C 5435.79,2851.6 5446.62,2848.27 5457.5,2845.5 Z"/></g>
<g><path style="opacity:1" fill="#163561" d="M 5509.5,3260.5 C 5510.41,3304.89 5518.08,3347.89 5532.5,3389.5C 5534.12,3396.01 5536.12,3402.34 5538.5,3408.5C 5543.17,3420.1 5548,3431.77 5553,3443.5C 5566.53,3468.55 5579.53,3493.88 5592,3519.5C 5600.25,3541.09 5607.42,3563.09 5613.5,3585.5C 5615.34,3596.4 5617.68,3607.07 5620.5,3617.5C 5626.13,3658.23 5625.8,3698.89 5619.5,3739.5C 5608.83,3739.5 5598.17,3739.5 5587.5,3739.5C 5588.11,3729.51 5588.45,3719.51 5588.5,3709.5C 5589.92,3683.66 5589.58,3657.99 5587.5,3632.5C 5587.22,3619.77 5586.22,3607.1 5584.5,3594.5C 5581.83,3569.66 5576.67,3545.33 5569,3521.5C 5560.88,3501.93 5552.22,3482.6 5543,3463.5C 5535.24,3446.96 5526.74,3430.96 5517.5,3415.5C 5506.37,3392.74 5492.37,3371.91 5475.5,3353C 5473.27,3351.25 5470.93,3349.75 5468.5,3348.5C 5477.17,3330.1 5479.67,3310.76 5476,3290.5C 5472.22,3271.72 5465.56,3254.06 5456,3237.5C 5433.35,3200.83 5405.52,3168.33 5372.5,3140C 5318.35,3093.92 5260.35,3053.25 5198.5,3018C 5079.77,2951.64 4957.1,2893.3 4830.5,2843C 4838.46,2845.09 4846.46,2847.43 4854.5,2850C 4977.57,2892.81 5097.24,2943.81 5213.5,3003C 5275.4,3035.6 5334.4,3072.6 5390.5,3114C 5422.26,3138.43 5450.76,3166.26 5476,3197.5C 5490.86,3216.56 5502.03,3237.56 5509.5,3260.5 Z"/></g>
<g><path style="opacity:1" fill="#d3e4fe" d="M 2144.5,2877.5 C 2155.09,2884.06 2164.92,2891.73 2174,2900.5C 2179.35,2908.76 2178.51,2916.26 2171.5,2923C 2162.63,2926.04 2155.79,2923.54 2151,2915.5C 2147.04,2903.13 2144.87,2890.46 2144.5,2877.5 Z"/></g>
<g><path style="opacity:1" fill="#d2e4fe" d="M 1896.5,2926.5 C 1910.77,2935.39 1923.6,2946.06 1935,2958.5C 1938.33,2965.83 1938.33,2973.17 1935,2980.5C 1924.54,2988.93 1914.88,2987.93 1906,2977.5C 1899.56,2961.15 1896.39,2944.15 1896.5,2926.5 Z"/></g>
<g><path style="opacity:1" fill="#bbd7fd" d="M 2598.5,2942.5 C 2628.11,3003.72 2659.27,3064.05 2692,3123.5C 2721.39,3168.39 2760.22,3202.39 2808.5,3225.5C 2784.64,3222.29 2760.64,3220.96 2736.5,3221.5C 2695.49,3222.25 2654.49,3223.25 2613.5,3224.5C 2612.69,3209.66 2609.53,3195.33 2604,3181.5C 2597.35,3169.87 2591.52,3157.87 2586.5,3145.5C 2592.63,3140.19 2596.46,3133.53 2598,3125.5C 2598.04,3076.17 2597.87,3026.83 2597.5,2977.5C 2597.17,2965.65 2597.51,2953.99 2598.5,2942.5 Z"/></g>
<g><path style="opacity:1" fill="#6b88b0" d="M 2598.5,2942.5 C 2597.51,2953.99 2597.17,2965.65 2597.5,2977.5C 2596.34,2965.01 2596.17,2952.34 2597,2939.5C 2597.51,2940.53 2598.01,2941.53 2598.5,2942.5 Z"/></g>
<g><path style="opacity:1" fill="#163561" d="M 6378.5,3115.5 C 6377,3136.53 6370.84,3156.19 6360,3174.5C 6351.67,3189.17 6339.5,3199.01 6323.5,3204C 6308.17,3205.39 6292.84,3206.55 6277.5,3207.5C 6269.49,3207.57 6261.49,3207.9 6253.5,3208.5C 6234.97,3209.22 6216.64,3210.56 6198.5,3212.5C 6178.77,3213.37 6159.44,3216.54 6140.5,3222C 6135.54,3223.94 6133.71,3227.44 6135,3232.5C 6143.22,3241.19 6153.05,3247.19 6164.5,3250.5C 6166.24,3251.96 6168.24,3253.12 6170.5,3254C 6195.11,3262.92 6220.45,3268.76 6246.5,3271.5C 6256.47,3272.37 6266.47,3272.7 6276.5,3272.5C 6289.25,3272.68 6301.75,3271.01 6314,3267.5C 6314.83,3267.83 6315.67,3268.17 6316.5,3268.5C 6299.56,3307.74 6278.06,3344.07 6252,3377.5C 6238.3,3394.2 6222.47,3408.37 6204.5,3420C 6196.83,3424.34 6188.83,3427.84 6180.5,3430.5C 6153.1,3433.85 6126.43,3430.68 6100.5,3421C 6075.31,3410.62 6051.64,3397.62 6029.5,3382C 6022.09,3377.63 6014.42,3373.79 6006.5,3370.5C 5997.33,3366.39 5987.66,3363.56 5977.5,3362C 5963.17,3361.33 5948.83,3361.33 5934.5,3362C 5922.59,3362.89 5911.25,3365.89 5900.5,3371C 5893.58,3377.09 5894.24,3382.43 5902.5,3387C 5909.15,3390.33 5916.15,3392.67 5923.5,3394C 5952.62,3397.27 5981.62,3401.1 6010.5,3405.5C 6031.29,3408.26 6050.63,3415.1 6068.5,3426C 6086.52,3439.35 6103.35,3454.18 6119,3470.5C 6129.82,3484.54 6127.32,3495.37 6111.5,3503C 6089.93,3511.15 6067.6,3516.32 6044.5,3518.5C 6038.46,3518.99 6032.46,3519.65 6026.5,3520.5C 6004.17,3521.81 5981.83,3521.81 5959.5,3520.5C 5926.65,3518.6 5894.65,3512.44 5863.5,3502C 5845.35,3495.35 5829.18,3485.51 5815,3472.5C 5810.78,3467.28 5806.94,3461.78 5803.5,3456C 5802.09,3455.68 5800.76,3456.02 5799.5,3457C 5785.33,3472.52 5773.49,3489.68 5764,3508.5C 5750.35,3535.15 5737.68,3562.15 5726,3589.5C 5713.94,3634.86 5709.44,3680.86 5712.5,3727.5C 5712.5,3731.5 5712.5,3735.5 5712.5,3739.5C 5703.83,3739.5 5695.17,3739.5 5686.5,3739.5C 5681.76,3691.14 5687.59,3644.14 5704,3598.5C 5714.31,3574.22 5725.97,3550.55 5739,3527.5C 5759.28,3483.52 5770.28,3437.19 5772,3388.5C 5762.74,3383.06 5753.9,3377.06 5745.5,3370.5C 5736.17,3362.83 5726.83,3355.17 5717.5,3347.5C 5705.03,3334.53 5693.86,3320.53 5684,3305.5C 5656.67,3260.14 5656.67,3214.8 5684,3169.5C 5708.86,3138.96 5737.69,3113.13 5770.5,3092C 5783.23,3083.63 5796.9,3077.47 5811.5,3073.5C 5805.61,3107.65 5801.11,3141.98 5798,3176.5C 5796.58,3194.81 5796.25,3213.15 5797,3231.5C 5797.56,3240.51 5799.56,3249.18 5803,3257.5C 5805.76,3263.3 5810.26,3265.46 5816.5,3264C 5822.25,3258.67 5826.08,3252.17 5828,3244.5C 5831.85,3226.02 5834.52,3207.35 5836,3188.5C 5837.49,3143.16 5837.99,3097.83 5837.5,3052.5C 5869.62,3037.21 5901.95,3023.21 5934.5,3010.5C 5952.96,3003.71 5971.62,2997.21 5990.5,2991C 6009.5,2985.08 6028.83,2980.42 6048.5,2977C 6058.46,2975.74 6068.46,2975.24 6078.5,2975.5C 6068.14,2993.89 6058.14,3012.56 6048.5,3031.5C 6028.58,3065.07 6012.42,3100.41 6000,3137.5C 5999.11,3142.62 5999.45,3147.62 6001,3152.5C 6003.24,3154.28 6005.74,3154.78 6008.5,3154C 6015.02,3150.81 6021.02,3146.81 6026.5,3142C 6048.65,3120.7 6068.32,3097.54 6085.5,3072.5C 6112.47,3037.68 6138.13,3001.85 6162.5,2965C 6181.14,2961.37 6199.98,2959.87 6219,2960.5C 6256.04,2958.13 6291.2,2964.96 6324.5,2981C 6343.53,2991.03 6357.36,3005.86 6366,3025.5C 6375.96,3054.68 6380.13,3084.68 6378.5,3115.5 Z"/></g>
<g><path style="opacity:1" fill="#e9f2f9" d="M 2390.5,2970.5 C 2407.52,3035.47 2425.85,3099.97 2445.5,3164C 2447.81,3164.66 2450.15,3165.16 2452.5,3165.5C 2449,3172.83 2444.5,3179.5 2439,3185.5C 2432.61,3193.93 2424.45,3199.77 2414.5,3203C 2394.24,3206.93 2374.24,3211.93 2354.5,3218C 2342.7,3222.48 2332.53,3229.32 2324,3238.5C 2322.61,3240.39 2321.44,3242.39 2320.5,3244.5C 2301.91,3246.52 2283.25,3248.19 2264.5,3249.5C 2265.1,3234.07 2264.26,3218.73 2262,3203.5C 2258.88,3191.9 2255.04,3180.56 2250.5,3169.5C 2259.79,3168.27 2267.62,3164.27 2274,3157.5C 2313.86,3095.77 2352.69,3033.44 2390.5,2970.5 Z"/></g>
<g><path style="opacity:1" fill="#c1d8fa" d="M 6048.5,3031.5 C 6048.37,3032.24 6048.54,3032.91 6049,3033.5C 6059.67,3042.83 6069.67,3052.83 6079,3063.5C 6081.41,3066.4 6083.58,3069.4 6085.5,3072.5C 6068.32,3097.54 6048.65,3120.7 6026.5,3142C 6021.02,3146.81 6015.02,3150.81 6008.5,3154C 6005.74,3154.78 6003.24,3154.28 6001,3152.5C 5999.45,3147.62 5999.11,3142.62 6000,3137.5C 6012.42,3100.41 6028.58,3065.07 6048.5,3031.5 Z"/></g>
<g><path style="opacity:1" fill="#c2d9fb" d="M 6352.5,4159.5 C 6211.1,4159.83 6069.76,4159.5 5928.5,4158.5C 5921.88,4133.88 5905.88,4120.54 5880.5,4118.5C 5865.68,4117.5 5850.68,4117.17 5835.5,4117.5C 5816.09,4105.44 5798.09,4091.44 5781.5,4075.5C 5874.56,3999.39 5927.9,3901.39 5941.5,3781.5C 5969.17,3781.5 5996.83,3781.5 6024.5,3781.5C 6017.49,3761.8 6007.66,3743.8 5995,3727.5C 5975.46,3704.62 5953.96,3683.79 5930.5,3665C 5926.4,3662.64 5922.24,3660.47 5918,3658.5C 5915.3,3672.24 5909.63,3684.57 5901,3695.5C 5884.25,3713.11 5865.41,3727.78 5844.5,3739.5C 5802.83,3739.5 5761.17,3739.5 5719.5,3739.5C 5726.26,3721.05 5736.59,3704.88 5750.5,3691C 5759.48,3683.84 5768.81,3677.18 5778.5,3671C 5793.66,3663.25 5808.66,3655.25 5823.5,3647C 5845.71,3628.57 5842.37,3621.41 5813.5,3625.5C 5798.58,3629.64 5784.58,3635.8 5771.5,3644C 5766,3648.17 5761.17,3653 5757,3658.5C 5748.01,3670.83 5739.01,3683.16 5730,3695.5C 5724.65,3701.35 5719.15,3707.01 5713.5,3712.5C 5712.51,3717.46 5712.17,3722.46 5712.5,3727.5C 5709.44,3680.86 5713.94,3634.86 5726,3589.5C 5737.68,3562.15 5750.35,3535.15 5764,3508.5C 5773.49,3489.68 5785.33,3472.52 5799.5,3457C 5800.76,3456.02 5802.09,3455.68 5803.5,3456C 5806.94,3461.78 5810.78,3467.28 5815,3472.5C 5829.18,3485.51 5845.35,3495.35 5863.5,3502C 5894.65,3512.44 5926.65,3518.6 5959.5,3520.5C 5957.31,3535.23 5952.81,3549.23 5946,3562.5C 5939.32,3576.7 5931.49,3590.2 5922.5,3603C 5934.47,3636.31 5952.3,3666.14 5976,3692.5C 5990.34,3705.17 6003.67,3718.84 6016,3733.5C 6027.43,3748.02 6037.1,3763.68 6045,3780.5C 6053.08,3781.48 6061.25,3781.82 6069.5,3781.5C 6072.05,3732.36 6070.55,3683.36 6065,3634.5C 6062.02,3613.67 6057.02,3593.34 6050,3573.5C 6042.06,3555.84 6034.23,3538.17 6026.5,3520.5C 6032.46,3519.65 6038.46,3518.99 6044.5,3518.5C 6044.2,3519.15 6043.86,3519.82 6043.5,3520.5C 6049.81,3534.45 6056.64,3548.11 6064,3561.5C 6088.11,3616.23 6100.28,3673.56 6100.5,3733.5C 6099.77,3749.43 6098.43,3765.26 6096.5,3781C 6114.83,3781.5 6133.16,3781.67 6151.5,3781.5C 6146.75,3731.36 6153.91,3683.03 6173,3636.5C 6187.19,3610.27 6198.86,3582.93 6208,3554.5C 6217.29,3525.51 6221.79,3495.84 6221.5,3465.5C 6206.36,3455.56 6192.7,3443.89 6180.5,3430.5C 6188.83,3427.84 6196.83,3424.34 6204.5,3420C 6222.47,3408.37 6238.3,3394.2 6252,3377.5C 6278.06,3344.07 6299.56,3307.74 6316.5,3268.5C 6315.67,3268.17 6314.83,3267.83 6314,3267.5C 6301.75,3271.01 6289.25,3272.68 6276.5,3272.5C 6277.11,3250.84 6277.44,3229.17 6277.5,3207.5C 6292.84,3206.55 6308.17,3205.39 6323.5,3204C 6339.5,3199.01 6351.67,3189.17 6360,3174.5C 6370.84,3156.19 6377,3136.53 6378.5,3115.5C 6378.56,3116.04 6378.89,3116.38 6379.5,3116.5C 6405.31,3105.91 6431.97,3098.41 6459.5,3094C 6465.25,3093.15 6470.92,3093.48 6476.5,3095C 6454.94,3135.28 6435.44,3176.45 6418,3218.5C 6414.81,3227.77 6412.64,3237.27 6411.5,3247C 6411.33,3254.3 6414.66,3256.3 6421.5,3253C 6435.73,3241.77 6448.23,3228.94 6459,3214.5C 6489.92,3172.4 6519.09,3129.07 6546.5,3084.5C 6580.18,3077.7 6613.84,3077.87 6647.5,3085C 6678.55,3091.74 6701.05,3109.24 6715,3137.5C 6727.59,3175.07 6729.26,3213.07 6720,3251.5C 6714.43,3271.49 6702.93,3286.99 6685.5,3298C 6677,3300.31 6668.33,3301.65 6659.5,3302C 6631.16,3303.63 6602.83,3305.3 6574.5,3307C 6558.56,3308.6 6542.89,3311.6 6527.5,3316C 6523.87,3318.25 6522.71,3321.42 6524,3325.5C 6528.59,3331.05 6534.09,3335.55 6540.5,3339C 6570.97,3353.1 6603.13,3360.6 6637,3361.5C 6649.07,3361.23 6660.91,3359.57 6672.5,3356.5C 6673.17,3356.83 6673.83,3357.17 6674.5,3357.5C 6667.5,3374.16 6660,3390.5 6652,3406.5C 6641.3,3426.54 6628.97,3445.54 6615,3463.5C 6601.25,3481.27 6584.08,3494.43 6563.5,3503C 6532.4,3507.23 6503.06,3501.56 6475.5,3486C 6459.9,3476.39 6444.56,3466.39 6429.5,3456C 6423.5,3453 6417.5,3450 6411.5,3447C 6385.06,3439.36 6358.73,3439.69 6332.5,3448C 6328.97,3450.03 6326.31,3452.86 6324.5,3456.5C 6327.39,3461.88 6331.72,3465.72 6337.5,3468C 6367.18,3472.59 6396.84,3477.26 6426.5,3482C 6439.39,3485.28 6451.72,3489.95 6463.5,3496C 6481.28,3509.45 6497.45,3524.61 6512,3541.5C 6518.66,3552.04 6516.83,3560.87 6506.5,3568C 6499.15,3571.78 6491.48,3574.78 6483.5,3577C 6441.87,3586.29 6399.87,3588.29 6357.5,3583C 6329.32,3579.27 6302.65,3570.94 6277.5,3558C 6264.54,3550.04 6254.71,3539.21 6248,3525.5C 6243.96,3529.2 6240.3,3533.2 6237,3537.5C 6229.63,3549.22 6222.63,3561.22 6216,3573.5C 6208.15,3591.26 6200.15,3608.93 6192,3626.5C 6182.51,3651.29 6176.84,3676.96 6175,3703.5C 6173.65,3729.48 6173.15,3755.48 6173.5,3781.5C 6241.17,3781.5 6308.83,3781.5 6376.5,3781.5C 6376.5,3785.83 6376.5,3790.17 6376.5,3794.5C 6372.5,3794.5 6368.5,3794.5 6364.5,3794.5C 6363.1,3846.94 6352.26,3897.28 6332,3945.5C 6299.17,4021.64 6247,4080.8 6175.5,4123C 6223.5,4123.33 6271.5,4123.67 6319.5,4124C 6337.57,4129.24 6348.57,4141.07 6352.5,4159.5 Z"/></g>
<g><path style="opacity:1" fill="#233863" d="M 2134.5,3126.5 C 2144.47,3133.16 2154.81,3139.33 2165.5,3145C 2184.7,3155.95 2205.03,3163.95 2226.5,3169C 2234.49,3169.5 2242.49,3169.67 2250.5,3169.5C 2255.04,3180.56 2258.88,3191.9 2262,3203.5C 2264.26,3218.73 2265.1,3234.07 2264.5,3249.5C 2165.65,3257.67 2067.15,3269 1969,3283.5C 1967.62,3283.32 1966.79,3282.65 1966.5,3281.5C 1969.07,3269.36 1974.57,3258.69 1983,3249.5C 1999.09,3234.86 2017.25,3223.36 2037.5,3215C 2051.95,3209.63 2065.95,3203.29 2079.5,3196C 2087.37,3187.8 2094.87,3179.3 2102,3170.5C 2112.7,3155.65 2123.53,3140.98 2134.5,3126.5 Z"/></g>
<g><path style="opacity:1" fill="#d2e3fe" d="M 4104.5,4159.5 C 4106.25,4133.94 4101.09,4109.94 4089,4087.5C 4080.58,4074.99 4072.91,4061.99 4066,4048.5C 4064.41,4043.9 4063.08,4039.24 4062,4034.5C 4061.67,4026.63 4061.5,4018.96 4061.5,4011.5C 4073.75,3953.38 4082.92,3894.71 4089,3835.5C 4095.26,3766.88 4095.93,3698.21 4091,3629.5C 4084.02,3522.9 4056.52,3422.23 4008.5,3327.5C 4006.35,3307.02 4003.35,3286.68 3999.5,3266.5C 4005.41,3229.12 4011.58,3191.79 4018,3154.5C 4019.34,3149.15 4020.67,3143.81 4022,3138.5C 4034.21,3186.8 4048.21,3234.46 4064,3281.5C 4077.58,3322.58 4095.58,3361.58 4118,3398.5C 4121.33,3405.83 4124.67,3413.17 4128,3420.5C 4141.75,3456.55 4153.75,3493.22 4164,3530.5C 4207.88,3697.28 4244.88,3865.61 4275,4035.5C 4261.57,4057.85 4246.07,4078.68 4228.5,4098C 4223.94,4101.45 4218.94,4104.11 4213.5,4106C 4197.61,4110.09 4181.61,4113.76 4165.5,4117C 4151.53,4120.87 4138.86,4127.2 4127.5,4136C 4120.4,4142.37 4116.07,4150.21 4114.5,4159.5C 4111.17,4159.5 4107.83,4159.5 4104.5,4159.5 Z"/></g>
<g><path style="opacity:1" fill="#233863" d="M 2586.5,3145.5 C 2591.52,3157.87 2597.35,3169.87 2604,3181.5C 2609.53,3195.33 2612.69,3209.66 2613.5,3224.5C 2515.72,3229.49 2418.05,3236.15 2320.5,3244.5C 2321.44,3242.39 2322.61,3240.39 2324,3238.5C 2332.53,3229.32 2342.7,3222.48 2354.5,3218C 2374.24,3211.93 2394.24,3206.93 2414.5,3203C 2424.45,3199.77 2432.61,3193.93 2439,3185.5C 2444.5,3179.5 2449,3172.83 2452.5,3165.5C 2482.89,3167.41 2513.22,3166.58 2543.5,3163C 2559.51,3160.95 2573.85,3155.12 2586.5,3145.5 Z"/></g>
<g><path style="opacity:1" fill="#c2d9fb" d="M 3715.5,3147.5 C 3723.88,3176.64 3732.05,3205.98 3740,3235.5C 3747.8,3259.89 3755.8,3284.22 3764,3308.5C 3776.34,3342.19 3791.68,3374.52 3810,3405.5C 3814.9,3414.62 3819.23,3423.96 3823,3433.5C 3841.5,3483.01 3857.17,3533.34 3870,3584.5C 3900.44,3705.12 3927.61,3826.45 3951.5,3948.5C 3950.17,3990.5 3950.17,4032.5 3951.5,4074.5C 3942.17,4089.3 3930.83,4102.47 3917.5,4114C 3902.15,4119.14 3886.49,4123.14 3870.5,4126C 3854.33,4129.61 3839.33,4135.94 3825.5,4145C 3820.51,4149.14 3816.51,4153.98 3813.5,4159.5C 3726.5,4159.5 3639.5,4159.5 3552.5,4159.5C 3552.5,4064.5 3552.5,3969.5 3552.5,3874.5C 3597.8,3790.7 3634.97,3703.7 3664,3613.5C 3686.42,3543.94 3699.75,3472.61 3704,3399.5C 3705.73,3358.84 3702.23,3318.67 3693.5,3279C 3695.45,3265.46 3697.45,3251.96 3699.5,3238.5C 3705.39,3208.39 3710.73,3178.06 3715.5,3147.5 Z"/></g>
<g><path style="opacity:1" fill="#61844f" d="M 3444.5,3218.5 C 3483.32,3239.23 3519.32,3263.89 3552.5,3292.5C 3418.57,3293.5 3284.57,3293.83 3150.5,3293.5C 3068.83,3293.5 2987.17,3293.5 2905.5,3293.5C 2878.17,3292.17 2850.51,3291.5 2822.5,3291.5C 2794.66,3291.5 2767,3291.83 2739.5,3292.5C 2738.04,3292.43 2736.71,3292.77 2735.5,3293.5C 2463.83,3292.67 2192.17,3292.33 1920.5,3292.5C 1935.29,3289.34 1950.29,3286.68 1965.5,3284.5C 1965.26,3283.21 1965.6,3282.21 1966.5,3281.5C 1966.79,3282.65 1967.62,3283.32 1969,3283.5C 2067.15,3269 2165.65,3257.67 2264.5,3249.5C 2283.25,3248.19 2301.91,3246.52 2320.5,3244.5C 2418.05,3236.15 2515.72,3229.49 2613.5,3224.5C 2654.49,3223.25 2695.49,3222.25 2736.5,3221.5C 2760.64,3220.96 2784.64,3222.29 2808.5,3225.5C 2847.68,3230.51 2887.02,3233.85 2926.5,3235.5C 2954.33,3236.24 2982.16,3236.9 3010,3237.5C 3083.32,3237.85 3156.15,3232.35 3228.5,3221C 3256.44,3215.99 3283.44,3208.16 3309.5,3197.5C 3311.58,3197.03 3313.58,3196.36 3315.5,3195.5C 3336.65,3190.69 3357.98,3190.19 3379.5,3194C 3402.1,3199.7 3423.77,3207.87 3444.5,3218.5 Z"/></g>
<g><path style="opacity:1" fill="#d1e2fd" d="M 6277.5,3207.5 C 6277.44,3229.17 6277.11,3250.84 6276.5,3272.5C 6266.47,3272.7 6256.47,3272.37 6246.5,3271.5C 6245.34,3265.4 6245.34,3259.23 6246.5,3253C 6247.88,3240.49 6249.38,3227.99 6251,3215.5C 6251.17,3212.82 6252,3210.49 6253.5,3208.5C 6261.49,3207.9 6269.49,3207.57 6277.5,3207.5 Z"/></g>
<g><path style="opacity:1" fill="#c1d8fa" d="M 6253.5,3208.5 C 6252,3210.49 6251.17,3212.82 6251,3215.5C 6249.38,3227.99 6247.88,3240.49 6246.5,3253C 6245.34,3259.23 6245.34,3265.4 6246.5,3271.5C 6220.45,3268.76 6195.11,3262.92 6170.5,3254C 6168.24,3253.12 6166.24,3251.96 6164.5,3250.5C 6176,3236.84 6188.66,3224.34 6202.5,3213C 6201.21,3212.51 6199.87,3212.34 6198.5,3212.5C 6216.64,3210.56 6234.97,3209.22 6253.5,3208.5 Z"/></g>
<g><path style="opacity:1" fill="#d0e1fc" d="M 6198.5,3212.5 C 6199.87,3212.34 6201.21,3212.51 6202.5,3213C 6188.66,3224.34 6176,3236.84 6164.5,3250.5C 6153.05,3247.19 6143.22,3241.19 6135,3232.5C 6133.71,3227.44 6135.54,3223.94 6140.5,3222C 6159.44,3216.54 6178.77,3213.37 6198.5,3212.5 Z"/></g>
<g><path style="opacity:1" fill="#d2e4fe" d="M 1756.5,3213.5 C 1759.94,3215.05 1763.27,3216.89 1766.5,3219C 1776.95,3226.45 1786.45,3234.95 1795,3244.5C 1798.33,3251.83 1798.33,3259.17 1795,3266.5C 1784.56,3275.16 1774.89,3274.16 1766,3263.5C 1763.94,3259.31 1762.27,3254.98 1761,3250.5C 1758.92,3238.23 1757.42,3225.9 1756.5,3213.5 Z"/></g>
<g><path style="opacity:1" fill="#d0e2fd" d="M 5165.5,3289.5 C 5146.49,3289.43 5127.49,3289.76 5108.5,3290.5C 5131.68,3276.36 5155.34,3261.86 5179.5,3247C 5195.93,3237.9 5213.27,3231.23 5231.5,3227C 5255.5,3223.67 5279.5,3223.67 5303.5,3227C 5317.13,3228.24 5329.8,3232.24 5341.5,3239C 5346.15,3241.99 5347.65,3246.15 5346,3251.5C 5339.81,3258.18 5332.31,3262.68 5323.5,3265C 5291.36,3270.65 5259.03,3274.98 5226.5,3278C 5206.01,3281.26 5185.68,3285.1 5165.5,3289.5 Z"/></g>
<g><path style="opacity:1" fill="#163561" d="M 5165.5,3289.5 C 5151.36,3294.05 5137.69,3299.89 5124.5,3307C 5111.05,3316.62 5098.05,3326.78 5085.5,3337.5C 5075.5,3328.5 5065.5,3319.5 5055.5,3310.5C 5073.48,3304.62 5091.14,3297.95 5108.5,3290.5C 5127.49,3289.76 5146.49,3289.43 5165.5,3289.5 Z"/></g>
<g><path style="opacity:1" fill="#c9e4b9" d="M 1920.5,3292.5 C 2192.17,3292.33 2463.83,3292.67 2735.5,3293.5C 2735.25,3299.24 2734.42,3304.91 2733,3310.5C 2689.13,3487.81 2596.63,3633.98 2455.5,3749C 2377.86,3808.96 2292.52,3854.63 2199.5,3886C 2108.77,3915.47 2015.77,3932.97 1920.5,3938.5C 1920.5,3723.17 1920.5,3507.83 1920.5,3292.5 Z"/></g>
<g><path style="opacity:1" fill="#acd299" d="M 2739.5,3292.5 C 2794.5,3292.5 2849.5,3292.5 2904.5,3292.5C 2904.5,3581.5 2904.5,3870.5 2904.5,4159.5C 2576.5,4159.5 2248.5,4159.5 1920.5,4159.5C 1920.5,4085.83 1920.5,4012.17 1920.5,3938.5C 2015.77,3932.97 2108.77,3915.47 2199.5,3886C 2292.52,3854.63 2377.86,3808.96 2455.5,3749C 2596.63,3633.98 2689.13,3487.81 2733,3310.5C 2734.42,3304.91 2735.25,3299.24 2735.5,3293.5C 2736.71,3292.77 2738.04,3292.43 2739.5,3292.5 Z"/></g>
<g><path style="opacity:1" fill="#97bf84" d="M 2739.5,3292.5 C 2767,3291.83 2794.66,3291.5 2822.5,3291.5C 2850.51,3291.5 2878.17,3292.17 2905.5,3293.5C 2905.5,3582.17 2905.5,3870.83 2905.5,4159.5C 2905.17,4159.5 2904.83,4159.5 2904.5,4159.5C 2904.5,3870.5 2904.5,3581.5 2904.5,3292.5C 2849.5,3292.5 2794.5,3292.5 2739.5,3292.5 Z"/></g>
<g><path style="opacity:1" fill="#88b373" d="M 2905.5,3293.5 C 2987.17,3293.5 3068.83,3293.5 3150.5,3293.5C 3284.33,3294.5 3418.33,3294.83 3552.5,3294.5C 3552.5,3487.83 3552.5,3681.17 3552.5,3874.5C 3552.5,3969.5 3552.5,4064.5 3552.5,4159.5C 3336.83,4159.5 3121.17,4159.5 2905.5,4159.5C 2905.5,3870.83 2905.5,3582.17 2905.5,3293.5 Z"/></g>
<g><path style="opacity:1" fill="#759c62" d="M 3552.5,3292.5 C 3552.5,3293.17 3552.5,3293.83 3552.5,3294.5C 3418.33,3294.83 3284.33,3294.5 3150.5,3293.5C 3284.57,3293.83 3418.57,3293.5 3552.5,3292.5 Z"/></g>
<g><path style="opacity:1" fill="#d2e4fe" d="M 1185.5,3312.5 C 1194.79,3318.49 1203.79,3324.99 1212.5,3332C 1221.75,3339.37 1224.25,3348.53 1220,3359.5C 1210.96,3367.32 1202.29,3366.65 1194,3357.5C 1189.01,3342.92 1186.18,3327.92 1185.5,3312.5 Z"/></g>
<g><path style="opacity:1" fill="#163561" d="M 5051.5,3370.5 C 5043.26,3378.93 5041.43,3388.6 5046,3399.5C 5053.02,3407.19 5061.52,3412.69 5071.5,3416C 5095.1,3423.12 5119.1,3428.45 5143.5,3432C 5168.61,3434.47 5193.78,3435.97 5219,3436.5C 5250.92,3436.24 5282.59,3433.57 5314,3428.5C 5314.28,3429.42 5314.78,3430.08 5315.5,3430.5C 5320.16,3439.67 5326.5,3447.5 5334.5,3454C 5343.46,3455.38 5347.8,3451.38 5347.5,3442C 5346.86,3435.66 5345.52,3429.5 5343.5,3423.5C 5381.36,3416.01 5415.69,3401.01 5446.5,3378.5C 5457.59,3402.15 5460.09,3426.81 5454,3452.5C 5445.69,3485.29 5430.86,3514.79 5409.5,3541C 5422.4,3572.99 5440.23,3601.82 5463,3627.5C 5482.14,3646.4 5501.47,3665.06 5521,3683.5C 5535.74,3700.64 5548.24,3719.31 5558.5,3739.5C 5550.5,3739.5 5542.5,3739.5 5534.5,3739.5C 5525.29,3718.73 5513.79,3699.4 5500,3681.5C 5474.58,3654.4 5447.08,3629.9 5417.5,3608C 5413.02,3605.46 5408.36,3603.62 5403.5,3602.5C 5403.63,3607.33 5402.79,3612 5401,3616.5C 5397.76,3623.99 5393.76,3630.99 5389,3637.5C 5377.85,3650.97 5365.02,3662.47 5350.5,3672C 5298.98,3705.84 5242.48,3725.34 5181,3730.5C 5177.25,3729.7 5173.42,3729.2 5169.5,3729C 5158.65,3726.81 5154.81,3720.31 5158,3709.5C 5165.42,3691.32 5174.42,3673.98 5185,3657.5C 5198.15,3641.35 5213.99,3628.51 5232.5,3619C 5254.61,3608.45 5276.27,3597.11 5297.5,3585C 5301.71,3581.79 5305.21,3577.96 5308,3573.5C 5309.62,3568.91 5308.12,3566.08 5303.5,3565C 5294.78,3564.16 5286.11,3564.49 5277.5,3566C 5269.74,3568.05 5262.08,3570.38 5254.5,3573C 5239.55,3578.23 5226.38,3586.4 5215,3597.5C 5203.85,3610.47 5193.19,3623.8 5183,3637.5C 5162.89,3661.95 5138.06,3679.78 5108.5,3691C 5086.96,3694.07 5066.3,3691.07 5046.5,3682C 5007.49,3662.14 4973.16,3635.97 4943.5,3603.5C 4991.51,3594.58 5032.67,3572.92 5067,3538.5C 5071.66,3533.34 5075.16,3527.5 5077.5,3521C 5074.74,3517.18 5070.9,3515.68 5066,3516.5C 5057.44,3517.2 5048.94,3518.37 5040.5,3520C 5001.18,3531.33 4961.84,3542.66 4922.5,3554C 4917.17,3554.67 4911.83,3554.67 4906.5,3554C 4892.34,3549.85 4880.17,3542.35 4870,3531.5C 4853.97,3511.45 4843.31,3488.78 4838,3463.5C 4826.55,3421.96 4837.72,3388.12 4871.5,3362C 4904.03,3339.07 4940.03,3325.07 4979.5,3320C 5003.1,3337.44 5027.1,3354.28 5051.5,3370.5 Z"/></g>
<g><path style="opacity:1" fill="#d2e4fe" d="M 1477.5,3343.5 C 1489.98,3350.81 1501.15,3359.81 1511,3370.5C 1516.42,3379.72 1515.25,3387.89 1507.5,3395C 1498.91,3397.69 1491.75,3395.53 1486,3388.5C 1480.68,3373.99 1477.85,3358.99 1477.5,3343.5 Z"/></g>
<g><path style="opacity:1" fill="#d1e3fe" d="M 5717.5,3347.5 C 5726.83,3355.17 5736.17,3362.83 5745.5,3370.5C 5738.29,3372.25 5730.95,3374.08 5723.5,3376C 5706.14,3376.44 5688.81,3376.77 5671.5,3377C 5687.01,3367.41 5702.34,3357.58 5717.5,3347.5 Z"/></g>
<g><path style="opacity:1" fill="#d1e3fd" d="M 5468.5,3348.5 C 5470.93,3349.75 5473.27,3351.25 5475.5,3353C 5492.37,3371.91 5506.37,3392.74 5517.5,3415.5C 5517.63,3416.38 5517.3,3417.04 5516.5,3417.5C 5494.89,3425.93 5476.39,3438.93 5461,3456.5C 5450.15,3470.2 5444.65,3485.87 5444.5,3503.5C 5445.21,3531.21 5452.05,3557.21 5465,3581.5C 5473.83,3597.34 5486.67,3608.51 5503.5,3615C 5511.67,3615.99 5519.67,3615.32 5527.5,3613C 5546.25,3606.14 5565.25,3599.97 5584.5,3594.5C 5586.22,3607.1 5587.22,3619.77 5587.5,3632.5C 5588.21,3636.89 5586.87,3640.39 5583.5,3643C 5568.47,3651.26 5552.47,3656.76 5535.5,3659.5C 5551.32,3678.33 5568.99,3694.99 5588.5,3709.5C 5588.45,3719.51 5588.11,3729.51 5587.5,3739.5C 5577.83,3739.5 5568.17,3739.5 5558.5,3739.5C 5548.24,3719.31 5535.74,3700.64 5521,3683.5C 5501.47,3665.06 5482.14,3646.4 5463,3627.5C 5440.23,3601.82 5422.4,3572.99 5409.5,3541C 5430.86,3514.79 5445.69,3485.29 5454,3452.5C 5460.09,3426.81 5457.59,3402.15 5446.5,3378.5C 5455.27,3369.67 5462.6,3359.67 5468.5,3348.5 Z"/></g>
<g><path style="opacity:1" fill="#c1d8fa" d="M 6006.5,3370.5 C 6006.56,3382.04 6007.9,3393.71 6010.5,3405.5C 5981.62,3401.1 5952.62,3397.27 5923.5,3394C 5916.15,3392.67 5909.15,3390.33 5902.5,3387C 5894.24,3382.43 5893.58,3377.09 5900.5,3371C 5911.25,3365.89 5922.59,3362.89 5934.5,3362C 5948.83,3361.33 5963.17,3361.33 5977.5,3362C 5987.66,3363.56 5997.33,3366.39 6006.5,3370.5 Z"/></g>
<g><path style="opacity:1" fill="#d2e3fe" d="M 6006.5,3370.5 C 6014.42,3373.79 6022.09,3377.63 6029.5,3382C 6051.64,3397.62 6075.31,3410.62 6100.5,3421C 6126.43,3430.68 6153.1,3433.85 6180.5,3430.5C 6192.7,3443.89 6206.36,3455.56 6221.5,3465.5C 6221.79,3495.84 6217.29,3525.51 6208,3554.5C 6198.86,3582.93 6187.19,3610.27 6173,3636.5C 6153.91,3683.03 6146.75,3731.36 6151.5,3781.5C 6133.16,3781.67 6114.83,3781.5 6096.5,3781C 6098.43,3765.26 6099.77,3749.43 6100.5,3733.5C 6100.28,3673.56 6088.11,3616.23 6064,3561.5C 6056.64,3548.11 6049.81,3534.45 6043.5,3520.5C 6043.86,3519.82 6044.2,3519.15 6044.5,3518.5C 6067.6,3516.32 6089.93,3511.15 6111.5,3503C 6127.32,3495.37 6129.82,3484.54 6119,3470.5C 6103.35,3454.18 6086.52,3439.35 6068.5,3426C 6050.63,3415.1 6031.29,3408.26 6010.5,3405.5C 6007.9,3393.71 6006.56,3382.04 6006.5,3370.5 Z"/></g>
<g><path style="opacity:1" fill="#d2e3fe" d="M 5538.5,3408.5 C 5536.12,3402.34 5534.12,3396.01 5532.5,3389.5C 5532.56,3388.96 5532.89,3388.62 5533.5,3388.5C 5544.47,3395.82 5556.47,3400.65 5569.5,3403C 5589.35,3404.27 5608.69,3401.77 5627.5,3395.5C 5636.36,3403.44 5645.02,3411.6 5653.5,3420C 5642.96,3428.87 5633.46,3438.7 5625,3449.5C 5604.6,3435.1 5584.76,3419.93 5565.5,3404C 5563.17,3403.33 5560.83,3403.33 5558.5,3404C 5551.91,3405.95 5545.25,3407.45 5538.5,3408.5 Z"/></g>
<g><path style="opacity:1" fill="#c2d9fb" d="M 5517.5,3415.5 C 5526.74,3430.96 5535.24,3446.96 5543,3463.5C 5552.22,3482.6 5560.88,3501.93 5569,3521.5C 5576.67,3545.33 5581.83,3569.66 5584.5,3594.5C 5565.25,3599.97 5546.25,3606.14 5527.5,3613C 5519.67,3615.32 5511.67,3615.99 5503.5,3615C 5486.67,3608.51 5473.83,3597.34 5465,3581.5C 5452.05,3557.21 5445.21,3531.21 5444.5,3503.5C 5444.65,3485.87 5450.15,3470.2 5461,3456.5C 5476.39,3438.93 5494.89,3425.93 5516.5,3417.5C 5517.3,3417.04 5517.63,3416.38 5517.5,3415.5 Z"/></g>
<g><path style="opacity:1" fill="#cedffb" d="M 5343.5,3423.5 C 5345.52,3429.5 5346.86,3435.66 5347.5,3442C 5347.8,3451.38 5343.46,3455.38 5334.5,3454C 5326.5,3447.5 5320.16,3439.67 5315.5,3430.5C 5316.35,3429.03 5317.68,3428.2 5319.5,3428C 5327.54,3426.56 5335.54,3425.06 5343.5,3423.5 Z"/></g>
<g><path style="opacity:1" fill="#a0c1f4" d="M 902.5,4010.5 C 901.596,4011.21 901.263,4012.21 901.5,4013.5C 890.909,4014.1 880.575,4013.44 870.5,4011.5C 857.467,3926.91 847.967,3841.91 842,3756.5C 838.083,3695.78 838.75,3635.11 844,3574.5C 846.769,3545.87 853.436,3518.2 864,3491.5C 870.172,3477.66 879.006,3465.83 890.5,3456C 920.408,3438.64 943.908,3444.81 961,3474.5C 968.725,3494.46 973.392,3515.12 975,3536.5C 975.667,3561.5 975.667,3586.5 975,3611.5C 970.895,3666.57 963.895,3721.24 954,3775.5C 939.003,3854.32 921.836,3932.66 902.5,4010.5 Z"/></g>
<g><path style="opacity:1" fill="#d2e4fe" d="M 1760.5,3513.5 C 1770.75,3520.91 1780.58,3528.91 1790,3537.5C 1793.46,3544.45 1793.29,3551.28 1789.5,3558C 1781.11,3562.36 1773.95,3560.86 1768,3553.5C 1764.1,3540.44 1761.6,3527.11 1760.5,3513.5 Z"/></g>
<g><path style="opacity:1" fill="#d2e3fe" d="M 5959.5,3520.5 C 5981.83,3521.81 6004.17,3521.81 6026.5,3520.5C 6034.23,3538.17 6042.06,3555.84 6050,3573.5C 6057.02,3593.34 6062.02,3613.67 6065,3634.5C 6070.55,3683.36 6072.05,3732.36 6069.5,3781.5C 6061.25,3781.82 6053.08,3781.48 6045,3780.5C 6037.1,3763.68 6027.43,3748.02 6016,3733.5C 6003.67,3718.84 5990.34,3705.17 5976,3692.5C 5952.3,3666.14 5934.47,3636.31 5922.5,3603C 5931.49,3590.2 5939.32,3576.7 5946,3562.5C 5952.81,3549.23 5957.31,3535.23 5959.5,3520.5 Z"/></g>
<g><path style="opacity:1" fill="#d3e4fe" d="M 1203.5,3522.5 C 1216.91,3530.14 1228.75,3539.8 1239,3551.5C 1243.28,3571.9 1235.78,3578.73 1216.5,3572C 1211.38,3566.92 1208.55,3560.76 1208,3553.5C 1206.09,3543.21 1204.59,3532.87 1203.5,3522.5 Z"/></g>
<g><path style="opacity:1" fill="#d0e1fc" d="M 5620.5,3617.5 C 5617.68,3607.07 5615.34,3596.4 5613.5,3585.5C 5614.22,3585.08 5614.72,3584.42 5615,3583.5C 5615.56,3584.02 5616.23,3584.36 5617,3584.5C 5623.51,3582.41 5630.18,3581.08 5637,3580.5C 5645,3580.47 5647.33,3584.14 5644,3591.5C 5637.38,3601.28 5629.55,3609.95 5620.5,3617.5 Z"/></g>
<g><path style="opacity:1" fill="#d2e3fe" d="M 5719.5,3739.5 C 5717.17,3739.5 5714.83,3739.5 5712.5,3739.5C 5712.5,3735.5 5712.5,3731.5 5712.5,3727.5C 5712.17,3722.46 5712.51,3717.46 5713.5,3712.5C 5719.15,3707.01 5724.65,3701.35 5730,3695.5C 5739.01,3683.16 5748.01,3670.83 5757,3658.5C 5761.17,3653 5766,3648.17 5771.5,3644C 5784.58,3635.8 5798.58,3629.64 5813.5,3625.5C 5842.37,3621.41 5845.71,3628.57 5823.5,3647C 5808.66,3655.25 5793.66,3663.25 5778.5,3671C 5768.81,3677.18 5759.48,3683.84 5750.5,3691C 5736.59,3704.88 5726.26,3721.05 5719.5,3739.5 Z"/></g>
<g><path style="opacity:1" fill="#c0d7f9" d="M 5587.5,3632.5 C 5589.58,3657.99 5589.92,3683.66 5588.5,3709.5C 5568.99,3694.99 5551.32,3678.33 5535.5,3659.5C 5552.47,3656.76 5568.47,3651.26 5583.5,3643C 5586.87,3640.39 5588.21,3636.89 5587.5,3632.5 Z"/></g>
<g><path style="opacity:1" fill="#d2e4fe" d="M 1546.5,3651.5 C 1550.61,3653.73 1554.61,3656.23 1558.5,3659C 1564.09,3663.72 1569.59,3668.55 1575,3673.5C 1580.12,3681.14 1579.62,3688.31 1573.5,3695C 1559.93,3698.79 1552.1,3693.63 1550,3679.5C 1548.18,3670.24 1547.01,3660.91 1546.5,3651.5 Z"/></g>
<g><path style="opacity:1" fill="#d2e3fe" d="M 5941.5,3781.5 C 5942.25,3772.18 5942.92,3762.84 5943.5,3753.5C 5943.5,3753.17 5943.5,3752.83 5943.5,3752.5C 5947.18,3752.67 5950.85,3752.5 5954.5,3752C 5957.29,3749.83 5958.12,3747 5957,3743.5C 5956.5,3741.67 5955.33,3740.5 5953.5,3740C 5917.17,3739.5 5880.83,3739.33 5844.5,3739.5C 5865.41,3727.78 5884.25,3713.11 5901,3695.5C 5909.63,3684.57 5915.3,3672.24 5918,3658.5C 5922.24,3660.47 5926.4,3662.64 5930.5,3665C 5953.96,3683.79 5975.46,3704.62 5995,3727.5C 6007.66,3743.8 6017.49,3761.8 6024.5,3781.5C 5996.83,3781.5 5969.17,3781.5 5941.5,3781.5 Z"/></g>
<g><path style="opacity:1" fill="#a0c1f4" d="M 1006.5,4012.5 C 988.402,4013.82 970.402,4013.82 952.5,4012.5C 979.934,3968.23 1008.77,3924.9 1039,3882.5C 1072.42,3835.73 1110.25,3792.56 1152.5,3753C 1170.65,3737.18 1190.65,3724.18 1212.5,3714C 1221.77,3710.1 1231.44,3708.27 1241.5,3708.5C 1266.4,3707.29 1275.23,3718.62 1268,3742.5C 1260.45,3758.61 1251.11,3773.61 1240,3787.5C 1227.81,3802.54 1215.14,3817.21 1202,3831.5C 1139.34,3895.01 1074.18,3955.34 1006.5,4012.5 Z"/></g>
<g><path style="opacity:1" fill="#c6601a" d="M 5534.5,3739.5 C 5542.5,3739.5 5550.5,3739.5 5558.5,3739.5C 5568.17,3739.5 5577.83,3739.5 5587.5,3739.5C 5598.17,3739.5 5608.83,3739.5 5619.5,3739.5C 5641.83,3739.5 5664.17,3739.5 5686.5,3739.5C 5695.17,3739.5 5703.83,3739.5 5712.5,3739.5C 5714.83,3739.5 5717.17,3739.5 5719.5,3739.5C 5761.17,3739.5 5802.83,3739.5 5844.5,3739.5C 5880.83,3739.33 5917.17,3739.5 5953.5,3740C 5955.33,3740.5 5956.5,3741.67 5957,3743.5C 5958.12,3747 5957.29,3749.83 5954.5,3752C 5950.85,3752.5 5947.18,3752.67 5943.5,3752.5C 5659.17,3752.5 5374.83,3752.5 5090.5,3752.5C 5088.5,3752.5 5086.5,3752.5 5084.5,3752.5C 5083.5,3752.59 5082.67,3752.25 5082,3751.5C 5079.34,3746.72 5080.17,3742.89 5084.5,3740C 5234.5,3739.5 5384.5,3739.33 5534.5,3739.5 Z"/></g>
<g><path style="opacity:1" fill="#e68a37" d="M 5090.5,3752.5 C 5374.83,3752.5 5659.17,3752.5 5943.5,3752.5C 5943.5,3752.83 5943.5,3753.17 5943.5,3753.5C 5926.17,3753.5 5908.83,3753.5 5891.5,3753.5C 5855.83,3753.5 5820.17,3753.5 5784.5,3753.5C 5778.55,3883.24 5725.88,3989.4 5626.5,4072C 5605.04,4089.24 5582.04,4104.24 5557.5,4117C 5593.5,4117.5 5629.5,4117.67 5665.5,4117.5C 5682.17,4117.5 5698.83,4117.5 5715.5,4117.5C 5715.5,4117.83 5715.5,4118.17 5715.5,4118.5C 5582.83,4118.5 5450.17,4118.5 5317.5,4118.5C 5317.17,4117.5 5316.5,4116.83 5315.5,4116.5C 5288.8,4102.15 5263.8,4085.32 5240.5,4066C 5148.77,3985.71 5098.77,3884.54 5090.5,3762.5C 5090.5,3759.17 5090.5,3755.83 5090.5,3752.5 Z"/></g>
<g><path style="opacity:1" fill="#e68b38" d="M 5891.5,3753.5 C 5908.83,3753.5 5926.17,3753.5 5943.5,3753.5C 5942.92,3762.84 5942.25,3772.18 5941.5,3781.5C 5927.9,3901.39 5874.56,3999.39 5781.5,4075.5C 5761.24,4090.74 5739.91,4104.41 5717.5,4116.5C 5716.83,4116.83 5716.17,4117.17 5715.5,4117.5C 5698.83,4117.5 5682.17,4117.5 5665.5,4117.5C 5796.47,4043.23 5871.3,3930.89 5890,3780.5C 5890.97,3771.52 5891.47,3762.52 5891.5,3753.5 Z"/></g>
<g><path style="opacity:1" fill="#d8b094" d="M 5084.5,3752.5 C 5086.5,3752.5 5088.5,3752.5 5090.5,3752.5C 5090.5,3755.83 5090.5,3759.17 5090.5,3762.5C 5089.52,3759.71 5089.19,3756.71 5089.5,3753.5C 5087.59,3753.78 5085.92,3753.45 5084.5,3752.5 Z"/></g>
<g><path style="opacity:1" fill="#ea9c5e" d="M 5891.5,3753.5 C 5891.47,3762.52 5890.97,3771.52 5890,3780.5C 5871.3,3930.89 5796.47,4043.23 5665.5,4117.5C 5629.5,4117.67 5593.5,4117.5 5557.5,4117C 5582.04,4104.24 5605.04,4089.24 5626.5,4072C 5725.88,3989.4 5778.55,3883.24 5784.5,3753.5C 5820.17,3753.5 5855.83,3753.5 5891.5,3753.5 Z"/></g>
<g><path style="opacity:1" fill="#d2e4fe" d="M 1793.5,3761.5 C 1804.58,3767.4 1814.42,3775.07 1823,3784.5C 1826.75,3791.93 1825.91,3798.77 1820.5,3805C 1809.63,3808.65 1802.13,3805.15 1798,3794.5C 1795.32,3783.66 1793.82,3772.66 1793.5,3761.5 Z"/></g>
<g><path style="opacity:1" fill="#cfe1fc" d="M 3951.5,3948.5 C 3958.16,3981.12 3964.49,4013.79 3970.5,4046.5C 3964.18,4055.8 3957.85,4065.13 3951.5,4074.5C 3950.17,4032.5 3950.17,3990.5 3951.5,3948.5 Z"/></g>
<g><path style="opacity:1" fill="#bcd8fe" d="M 902.5,4010.5 C 918.8,4012.49 935.466,4013.15 952.5,4012.5C 970.402,4013.82 988.402,4013.82 1006.5,4012.5C 1310.83,4012.5 1615.17,4012.5 1919.5,4012.5C 1919.5,4061.5 1919.5,4110.5 1919.5,4159.5C 1526.83,4159.5 1134.17,4159.5 741.5,4159.5C 718.252,4112.43 699.918,4063.43 686.5,4012.5C 748.002,4012.83 809.336,4012.5 870.5,4011.5C 880.575,4013.44 890.909,4014.1 901.5,4013.5C 901.263,4012.21 901.596,4011.21 902.5,4010.5 Z"/></g>
<g><path style="opacity:1" fill="#233863" d="M 4061.5,4011.5 C 4061.5,4018.96 4061.67,4026.63 4062,4034.5C 4063.08,4039.24 4064.41,4043.9 4066,4048.5C 4072.91,4061.99 4080.58,4074.99 4089,4087.5C 4101.09,4109.94 4106.25,4133.94 4104.5,4159.5C 4007.5,4159.5 3910.5,4159.5 3813.5,4159.5C 3816.51,4153.98 3820.51,4149.14 3825.5,4145C 3839.33,4135.94 3854.33,4129.61 3870.5,4126C 3886.49,4123.14 3902.15,4119.14 3917.5,4114C 3930.83,4102.47 3942.17,4089.3 3951.5,4074.5C 3957.85,4065.13 3964.18,4055.8 3970.5,4046.5C 4006.76,4049.97 4037.09,4038.31 4061.5,4011.5 Z"/></g>
<g><path style="opacity:1" fill="#d2e3fd" d="M 5781.5,4075.5 C 5798.09,4091.44 5816.09,4105.44 5835.5,4117.5C 5796,4117.83 5756.66,4117.5 5717.5,4116.5C 5739.91,4104.41 5761.24,4090.74 5781.5,4075.5 Z"/></g>
<g><path style="opacity:1" fill="#cca28c" d="M 5315.5,4116.5 C 5316.5,4116.83 5317.17,4117.5 5317.5,4118.5C 5263.5,4118.5 5209.5,4118.5 5155.5,4118.5C 5208.83,4117.83 5262.17,4117.17 5315.5,4116.5 Z"/></g>
<g><path style="opacity:1" fill="#caa08b" d="M 5717.5,4116.5 C 5756.66,4117.5 5796,4117.83 5835.5,4117.5C 5850.68,4117.17 5865.68,4117.5 5880.5,4118.5C 5825.5,4118.5 5770.5,4118.5 5715.5,4118.5C 5715.5,4118.17 5715.5,4117.83 5715.5,4117.5C 5716.17,4117.17 5716.83,4116.83 5717.5,4116.5 Z"/></g>
<g><path style="opacity:1" fill="#c55f1c" d="M 5155.5,4118.5 C 5209.5,4118.5 5263.5,4118.5 5317.5,4118.5C 5450.17,4118.5 5582.83,4118.5 5715.5,4118.5C 5770.5,4118.5 5825.5,4118.5 5880.5,4118.5C 5905.88,4120.54 5921.88,4133.88 5928.5,4158.5C 5928.5,4159.17 5928.5,4159.83 5928.5,4160.5C 5654.5,4160.5 5380.5,4160.5 5106.5,4160.5C 5106.5,4160.17 5106.5,4159.83 5106.5,4159.5C 5112.77,4133.9 5129.1,4120.24 5155.5,4118.5 Z"/></g>
<g><path style="opacity:1" fill="#848fa8" d="M 5928.5,4158.5 C 6069.76,4159.5 6211.1,4159.83 6352.5,4159.5C 6454.83,4159.5 6557.17,4159.5 6659.5,4159.5C 6809,4159.17 6958.33,4159.5 7107.5,4160.5C 6714.5,4160.5 6321.5,4160.5 5928.5,4160.5C 5928.5,4159.83 5928.5,4159.17 5928.5,4158.5 Z"/></g>
<g><path style="opacity:1" fill="#2f3653" d="M 741.5,4159.5 C 1134.17,4159.5 1526.83,4159.5 1919.5,4159.5C 1919.83,4159.5 1920.17,4159.5 1920.5,4159.5C 2248.5,4159.5 2576.5,4159.5 2904.5,4159.5C 2904.83,4159.5 2905.17,4159.5 2905.5,4159.5C 3121.17,4159.5 3336.83,4159.5 3552.5,4159.5C 3639.5,4159.5 3726.5,4159.5 3813.5,4159.5C 3910.5,4159.5 4007.5,4159.5 4104.5,4159.5C 4438.33,4160.5 4772.33,4160.83 5106.5,4160.5C 5380.5,4160.5 5654.5,4160.5 5928.5,4160.5C 6321.5,4160.5 6714.5,4160.5 7107.5,4160.5C 7111.4,4161.74 7113.4,4164.4 7113.5,4168.5C 7113.96,4173.37 7111.96,4176.54 7107.5,4178C 4868.83,4178.67 2630.17,4178.67 391.5,4178C 387.043,4176.54 385.043,4173.37 385.5,4168.5C 385.686,4164.47 387.686,4161.63 391.5,4160C 508.166,4159.5 624.833,4159.33 741.5,4159.5 Z"/></g>
</svg>
