<?xml version="1.0" encoding="UTF-8"?>
<!DOCTYPE svg PUBLIC "-//W3C//DTD SVG 1.1//EN" "http://www.w3.org/Graphics/SVG/1.1/DTD/svg11.dtd">
<svg xmlns="http://www.w3.org/2000/svg" version="1.1" width="8000px" height="5000px" style="shape-rendering:geometricPrecision; text-rendering:geometricPrecision; image-rendering:optimizeQuality; fill-rule:evenodd; clip-rule:evenodd" xmlns:xlink="http://www.w3.org/1999/xlink">
<g><path style="opacity:0.161" fill="#fefefe" d="M -0.5,-0.5 C 2666.17,-0.5 5332.83,-0.5 7999.5,-0.5C 7999.5,1666.17 7999.5,3332.83 7999.5,4999.5C 5332.83,4999.5 2666.17,4999.5 -0.5,4999.5C -0.5,3332.83 -0.5,1666.17 -0.5,-0.5 Z"/></g>
<g><path style="opacity:1" fill="#eaf2f9" d="M 7069.5,4415.5 C 6930.17,4415.5 6790.83,4415.5 6651.5,4415.5C 6651.5,4049.17 6651.5,3682.83 6651.5,3316.5C 6667.5,3316.67 6683.5,3316.5 6699.5,3316C 6702.87,3312.56 6704.71,3308.39 6705,3303.5C 6705.67,3290.17 6705.67,3276.83 6705,3263.5C 6704.89,3259.46 6703.72,3255.8 6701.5,3252.5C 6701.59,3251.5 6701.25,3250.67 6700.5,3250C 6615,3249.17 6529.67,3249.33 6444.5,3250.5C 6444.17,3250.5 6443.83,3250.5 6443.5,3250.5C 6443.5,3142.83 6443.5,3035.17 6443.5,2927.5C 6437.83,2927.5 6432.17,2927.5 6426.5,2927.5C 6432.51,2892.46 6438.84,2857.46 6445.5,2822.5C 6446.15,2821.55 6446.49,2820.38 6446.5,2819C 6444.81,2799.2 6443.65,2779.37 6443,2759.5C 6434.47,2778.56 6425.97,2797.56 6417.5,2816.5C 6410.65,2853.45 6403.98,2890.45 6397.5,2927.5C 6389.5,2927.5 6381.5,2927.5 6373.5,2927.5C 6385.18,2859.75 6397.52,2792.08 6410.5,2724.5C 6410.03,2704.12 6408.86,2683.79 6407,2663.5C 6398.55,2682.07 6390.38,2700.74 6382.5,2719.5C 6369.5,2788.85 6356.5,2858.18 6343.5,2927.5C 6339.17,2927.5 6334.83,2927.5 6330.5,2927.5C 6275.17,2927.5 6219.83,2927.5 6164.5,2927.5C 6157.15,2880.68 6149.49,2834.02 6141.5,2787.5C 6135.62,2772.07 6129.46,2756.74 6123,2741.5C 6121.75,2738.67 6120.25,2736 6118.5,2733.5C 6116.75,2753.16 6115.08,2772.83 6113.5,2792.5C 6120.91,2837.48 6128.25,2882.48 6135.5,2927.5C 6125.83,2927.5 6116.17,2927.5 6106.5,2927.5C 6106.33,2980.83 6106.5,3034.17 6107,3087.5C 6120.66,3093 6134.49,3098 6148.5,3102.5C 6148.92,3103.26 6149.26,3104.1 6149.5,3105C 6146.45,3115.26 6141.95,3124.76 6136,3133.5C 6133.12,3131.41 6130.45,3129.08 6128,3126.5C 6118.31,3113.97 6108.81,3101.31 6099.5,3088.5C 6098.64,3087.42 6097.64,3087.25 6096.5,3088C 6078.86,3106.96 6061.52,3126.13 6044.5,3145.5C 6046.89,3177.57 6051.39,3209.57 6058,3241.5C 6058.64,3243.76 6059.48,3245.93 6060.5,3248C 6059.26,3248.23 6058.26,3248.73 6057.5,3249.5C 5916.17,3249.33 5774.83,3249.5 5633.5,3250C 5630.72,3253.33 5628.88,3257.16 5628,3261.5C 5627.33,3275.5 5627.33,3289.5 5628,3303.5C 5628.53,3307.77 5629.87,3311.77 5632,3315.5C 5649.76,3316.49 5667.59,3316.83 5685.5,3316.5C 5685.5,3682.83 5685.5,4049.17 5685.5,4415.5C 5596.17,4415.5 5506.83,4415.5 5417.5,4415.5C 5420.01,4409.96 5421.34,4404.12 5421.5,4398C 5384.47,4023.49 5347.14,3648.99 5309.5,3274.5C 5309.83,3272.83 5310.17,3271.17 5310.5,3269.5C 5334.84,3263.33 5350,3248 5356,3223.5C 5356.5,3177.83 5356.67,3132.17 5356.5,3086.5C 5424.3,2752.2 5492.14,2417.87 5560,2083.5C 5572.79,1986.25 5537.95,1911.42 5455.5,1859C 5413.5,1834.76 5368.17,1823.93 5319.5,1826.5C 5292.84,1827.06 5266.17,1827.39 5239.5,1827.5C 5199.51,1826.57 5159.51,1826.74 5119.5,1828C 5010.17,1830.64 4900.83,1833.3 4791.5,1836C 4738.47,1841.45 4689.81,1858.78 4645.5,1888C 4644.18,1888.82 4643.51,1889.98 4643.5,1891.5C 4631.5,1878.83 4619.17,1866.5 4606.5,1854.5C 4631.15,1822.38 4641.98,1786.05 4639,1745.5C 4632.21,1715.75 4616.71,1691.58 4592.5,1673C 4583.44,1666.28 4574.11,1659.94 4564.5,1654C 4528.21,1638.12 4496.38,1615.95 4469,1587.5C 4443.43,1557.72 4423.43,1524.38 4409,1487.5C 4394.52,1445.74 4379.86,1404.07 4365,1362.5C 4340.84,1313.05 4307.68,1270.55 4265.5,1235C 4180.68,1166.53 4096.02,1166.53 4011.5,1235C 3970.81,1243.22 3933.81,1259.55 3900.5,1284C 3892.03,1291.47 3883.86,1299.3 3876,1307.5C 3857.24,1333.69 3841.57,1361.69 3829,1391.5C 3762.15,1551.22 3722.82,1717.55 3711,1890.5C 3708.95,1935.81 3711.61,1980.81 3719,2025.5C 3724.52,2053.72 3734.18,2080.39 3748,2105.5C 3759.71,2124.04 3774.88,2139.04 3793.5,2150.5C 3766.77,2227.21 3753.77,2306.21 3754.5,2387.5C 3724.29,2380.2 3693.96,2373.36 3663.5,2367C 3651.21,2365.01 3638.88,2363.34 3626.5,2362C 3614.78,2361.09 3603.11,2361.42 3591.5,2363C 3582.39,2366.39 3574.06,2371.05 3566.5,2377C 3545.93,2394.33 3527.77,2413.83 3512,2435.5C 3510.38,2441.08 3511.88,2445.41 3516.5,2448.5C 3489.5,2448.5 3462.5,2448.5 3435.5,2448.5C 3434.92,2429.87 3425.59,2418.04 3407.5,2413C 3318.26,2412.83 3229.1,2412.33 3140,2411.5C 3086.25,2257.41 3032.41,2103.41 2978.5,1949.5C 2738.33,1948.17 2498,1948.17 2257.5,1949.5C 2314.49,2115.79 2371.15,2282.12 2427.5,2448.5C 2367.5,2448.33 2307.5,2448.5 2247.5,2449C 2228.74,2453.43 2216.91,2464.93 2212,2483.5C 2211.33,2498.17 2211.33,2512.83 2212,2527.5C 2216.5,2545.33 2227.67,2556.5 2245.5,2561C 2327.83,2561.5 2410.17,2561.67 2492.5,2561.5C 2460.99,2812.28 2428.65,3062.94 2395.5,3313.5C 2390.84,3308.51 2388.01,3302.51 2387,3295.5C 2385.21,3282.56 2384.05,3269.56 2383.5,3256.5C 2385.3,3200.6 2391.64,3145.27 2402.5,3090.5C 2402,3090.17 2401.5,3089.83 2401,3089.5C 2373.14,3099.67 2347.64,3113.84 2324.5,3132C 2296.62,3154.88 2271.12,3180.05 2248,3207.5C 2234,3230.8 2226.5,3256.13 2225.5,3283.5C 2225.78,3301.5 2228.94,3318.84 2235,3335.5C 2240.15,3347.14 2245.82,3358.48 2252,3369.5C 2279.05,3408.72 2313.22,3440.06 2354.5,3463.5C 2352.14,3538.46 2331.64,3607.8 2293,3671.5C 2259.21,3737.79 2246.05,3808.13 2253.5,3882.5C 2226.83,3882.5 2200.17,3882.5 2173.5,3882.5C 2189.46,3766.08 2167.63,3657.75 2108,3557.5C 2075.13,3494.41 2054.13,3427.41 2045,3356.5C 2043.57,3341.53 2042.74,3326.53 2042.5,3311.5C 2045.02,3311.24 2047.35,3310.41 2049.5,3309C 2058.21,3302.63 2067.21,3296.63 2076.5,3291C 2106.57,3267.93 2134.07,3242.09 2159,3213.5C 2180.54,3186.24 2196.54,3155.91 2207,3122.5C 2220.12,3064.1 2209.45,3010.76 2175,2962.5C 2165.05,2951.56 2154.88,2940.89 2144.5,2930.5C 2143.61,2929.68 2143.28,2928.68 2143.5,2927.5C 2130.48,2916.66 2117.81,2905.16 2105.5,2893C 2078.33,2869.83 2049,2849.83 2017.5,2833C 2005.31,2827.71 1992.98,2822.87 1980.5,2818.5C 1991.58,2881.07 1999.42,2944.07 2004,3007.5C 2005.12,3032.58 2004.29,3057.58 2001.5,3082.5C 2000.05,3092.73 1996.89,3102.39 1992,3111.5C 1984.92,3119.63 1976.92,3120.63 1968,3114.5C 1959.31,3101.45 1953.65,3087.11 1951,3071.5C 1943.35,3023.82 1939.69,2975.82 1940,2927.5C 1939.13,2885.32 1939.63,2843.15 1941.5,2801C 1941.17,2796.17 1940.83,2791.33 1940.5,2786.5C 1852.68,2744.44 1762.02,2709.27 1668.5,2681C 1633.51,2671.06 1597.85,2665.89 1561.5,2665.5C 1599.77,2730.69 1634.93,2797.69 1667,2866.5C 1674.95,2885 1681.28,2904 1686,2923.5C 1686.67,2928.5 1686.67,2933.5 1686,2938.5C 1684.36,2945.06 1680.2,2947.56 1673.5,2946C 1659.27,2939.39 1646.6,2930.55 1635.5,2919.5C 1617.17,2900 1599.33,2880 1582,2859.5C 1529.6,2792.6 1480.1,2723.6 1433.5,2652.5C 1431.61,2649.72 1428.94,2648.22 1425.5,2648C 1366.09,2639.01 1306.76,2639.34 1247.5,2649C 1212.44,2655.38 1180.77,2669.04 1152.5,2690C 1129.24,2709.69 1113.4,2734.19 1105,2763.5C 1093.11,2806.79 1089.28,2850.79 1093.5,2895.5C 1098.03,2936.71 1114.03,2972.54 1141.5,3003C 1151.31,3012.12 1162.64,3018.79 1175.5,3023C 1236.75,3028 1298.09,3032 1359.5,3035C 1383.57,3037.01 1407.57,3039.68 1431.5,3043C 1442.16,3045.66 1452.83,3048.33 1463.5,3051C 1467.84,3053.12 1471.67,3055.95 1475,3059.5C 1475.96,3064.24 1474.63,3068.24 1471,3071.5C 1464.27,3078.9 1456.44,3084.74 1447.5,3089C 1421.51,3101.98 1394.17,3111.64 1365.5,3118C 1316.15,3130.39 1266.15,3134.06 1215.5,3129C 1206.88,3127.21 1198.38,3125.04 1190,3122.5C 1189.5,3122.83 1189,3123.17 1188.5,3123.5C 1215.9,3188.36 1251.73,3248.03 1296,3302.5C 1308.91,3316.75 1322.41,3330.25 1336.5,3343C 1346.23,3349.38 1355.9,3356.05 1365.5,3363C 1373.27,3366.52 1380.94,3370.19 1388.5,3374C 1406.24,3380.68 1424.57,3383.34 1443.5,3382C 1463.29,3379.48 1482.96,3376.31 1502.5,3372.5C 1514.47,3382.8 1526.47,3393.14 1538.5,3403.5C 1532.66,3410.42 1525.99,3416.42 1518.5,3421.5C 1511.48,3428.68 1504.65,3436.02 1498,3443.5C 1497.33,3442.75 1496.5,3442.41 1495.5,3442.5C 1466.77,3423.28 1438.44,3403.45 1410.5,3383C 1405.13,3383.01 1399.79,3383.67 1394.5,3385C 1352.67,3393.93 1314.67,3410.93 1280.5,3436C 1263.22,3449.74 1250.72,3466.91 1243,3487.5C 1236.89,3530.41 1243.89,3571.08 1264,3609.5C 1277.31,3634.49 1297.15,3651.99 1323.5,3662C 1330.17,3662.67 1336.83,3662.67 1343.5,3662C 1385.09,3649.52 1426.76,3637.18 1468.5,3625C 1480.88,3622.54 1493.21,3619.87 1505.5,3617C 1511.17,3616.33 1516.83,3616.33 1522.5,3617C 1525.47,3617.97 1527.14,3619.97 1527.5,3623C 1527.11,3625.95 1526.28,3628.79 1525,3631.5C 1516.21,3643.96 1505.71,3654.79 1493.5,3664C 1470.02,3681.74 1444.69,3696.41 1417.5,3708C 1401.68,3714.04 1385.35,3718.04 1368.5,3720C 1403.04,3757.57 1442.71,3788.24 1487.5,3812C 1502.21,3818.68 1517.54,3823.35 1533.5,3826C 1547.83,3827.13 1561.83,3825.46 1575.5,3821C 1594.66,3811.92 1612.33,3800.59 1628.5,3787C 1635.64,3779.86 1642.81,3772.69 1650,3765.5C 1662.62,3748.88 1675.62,3732.55 1689,3716.5C 1707.26,3697.85 1729.09,3685.35 1754.5,3679C 1761.5,3677.33 1768.5,3675.67 1775.5,3674C 1782.5,3673.33 1789.5,3673.33 1796.5,3674C 1802.79,3674.95 1804.95,3678.45 1803,3684.5C 1799.73,3689.94 1795.57,3694.6 1790.5,3698.5C 1769.56,3711.09 1747.89,3722.26 1725.5,3732C 1706.12,3742.02 1688.12,3754.02 1671.5,3768C 1664.59,3774.58 1658.42,3781.74 1653,3789.5C 1643.62,3806.28 1634.62,3823.28 1626,3840.5C 1618.4,3857.47 1623.56,3867.63 1641.5,3871C 1665.17,3871.46 1688.5,3868.79 1711.5,3863C 1769.51,3848.82 1822.51,3824.16 1870.5,3789C 1886.79,3776.6 1899.96,3761.43 1910,3743.5C 1913.1,3735.75 1915.27,3727.75 1916.5,3719.5C 1919.89,3720.02 1923.22,3720.86 1926.5,3722C 1947.58,3735.4 1967.24,3750.73 1985.5,3768C 1997.75,3780.58 2010.25,3792.75 2023,3804.5C 2031.13,3813.43 2038.8,3822.76 2046,3832.5C 2050.3,3840.45 2054.97,3848.12 2060,3855.5C 2064.52,3864.19 2068.35,3873.19 2071.5,3882.5C 1891.5,3882.5 1711.5,3882.5 1531.5,3882.5C 1531.5,3887.83 1531.5,3893.17 1531.5,3898.5C 1535.5,3898.5 1539.5,3898.5 1543.5,3898.5C 1548.35,4022.07 1591.19,4129.74 1672,4221.5C 1683.5,4232.01 1694.34,4243.17 1704.5,4255C 1713.65,4262.42 1722.65,4270.09 1731.5,4278C 1770.1,4308.91 1812.43,4333.91 1858.5,4353C 1768.83,4353.33 1679.17,4353.67 1589.5,4354C 1565.87,4358.3 1549.37,4371.47 1540,4393.5C 1537.55,4400.63 1536.38,4407.97 1536.5,4415.5C 1380.17,4415.5 1223.83,4415.5 1067.5,4415.5C 925.572,4224.03 809.739,4017.36 720,3795.5C 677.971,3689.74 643.304,3581.41 616,3470.5C 572.589,3292.17 554.922,3111.17 563,2927.5C 573.473,2734.12 617.139,2549.12 694,2372.5C 770.874,2213.55 877.707,2078.38 1014.5,1967C 1036.22,1947.62 1058.89,1929.29 1082.5,1912C 1278.36,1768.81 1497.03,1677.48 1738.5,1638C 1856.37,1619.93 1974.37,1618.93 2092.5,1635C 2207.3,1651.43 2314.63,1688.6 2414.5,1746.5C 2432.87,1758.01 2451.2,1769.51 2469.5,1781C 2515.83,1802.32 2564.49,1815.32 2615.5,1820C 2666.15,1824.6 2716.82,1824.6 2767.5,1820C 2865.4,1809.69 2960.73,1788.36 3053.5,1756C 3289.66,1671 3492,1536.33 3660.5,1352C 3661.45,1351.52 3662.45,1351.35 3663.5,1351.5C 3663.35,1350.45 3663.52,1349.45 3664,1348.5C 3712.47,1294.71 3757.14,1238.04 3798,1178.5C 3827.67,1129.82 3859.34,1082.49 3893,1036.5C 3988.55,914.267 4102.72,813.433 4235.5,734C 4371.24,654.324 4516.57,597.657 4671.5,564C 4837.66,528.32 5005.66,515.32 5175.5,525C 5514.23,545.533 5828.56,641.533 6118.5,813C 6219.15,874.17 6313.15,944.337 6400.5,1023.5C 6410.24,1033.67 6420.41,1043.34 6431,1052.5C 6431.48,1053.45 6431.65,1054.45 6431.5,1055.5C 6434.19,1056.34 6436.52,1057.84 6438.5,1060C 6592.96,1210.16 6709.46,1385.66 6788,1586.5C 6860.63,1781.55 6890.96,1983.22 6879,2191.5C 6871.6,2321.89 6850.6,2449.89 6816,2575.5C 6794.79,2661.71 6783.62,2749.21 6782.5,2838C 6782.94,2955.16 6805.77,3067.66 6851,3175.5C 6890.11,3262.4 6935.94,3345.4 6988.5,3424.5C 7015.33,3467.49 7042.16,3510.49 7069,3553.5C 7104.6,3612.36 7134.6,3674.03 7159,3738.5C 7201.53,3858.61 7209.53,3981.27 7183,4106.5C 7170.36,4163.76 7153.69,4219.76 7133,4274.5C 7113.27,4322.21 7092.1,4369.21 7069.5,4415.5 Z"/></g>
<g><path style="opacity:1" fill="#c0d8fb" d="M 5028.5,896.5 C 5177.17,896.333 5325.83,896.5 5474.5,897C 5489.69,899.859 5499.53,908.692 5504,923.5C 5504.67,1067.83 5504.67,1212.17 5504,1356.5C 5502.35,1364.83 5498.19,1371.66 5491.5,1377C 5487.29,1380.29 5482.63,1382.62 5477.5,1384C 5327.83,1384.67 5178.17,1384.67 5028.5,1384C 5014.12,1379.62 5005.29,1370.12 5002,1355.5C 5001.33,1211.83 5001.33,1068.17 5002,924.5C 5005.9,910.436 5014.73,901.102 5028.5,896.5 Z"/></g>
<g><path style="opacity:1" fill="#dfeafc" d="M 5047.5,917.5 C 5183.5,917.333 5319.5,917.5 5455.5,918C 5463,919.417 5469.34,922.917 5474.5,928.5C 5477.84,933.175 5480.67,938.175 5483,943.5C 5483.67,1074.5 5483.67,1205.5 5483,1336.5C 5479.93,1347.52 5473.43,1355.68 5463.5,1361C 5460.83,1361.67 5458.17,1362.33 5455.5,1363C 5319.5,1363.67 5183.5,1363.67 5047.5,1363C 5035.26,1359.1 5027.43,1350.93 5024,1338.5C 5023.33,1206.83 5023.33,1075.17 5024,943.5C 5026.04,934.455 5030.88,927.288 5038.5,922C 5041.61,920.583 5044.61,919.083 5047.5,917.5 Z"/></g>
<g><path style="opacity:1" fill="#b8d3f2" d="M 5248.5,951.5 C 5259.39,950.888 5264.22,955.888 5263,966.5C 5256.43,974.483 5249.76,974.483 5243,966.5C 5242.33,963.5 5242.33,960.5 5243,957.5C 5244.7,955.304 5246.53,953.304 5248.5,951.5 Z"/></g>
<g><path style="opacity:1" fill="#b8d3f2" d="M 5165.5,971.5 C 5175.29,970.458 5180.12,974.791 5180,984.5C 5178.32,989.846 5174.65,992.513 5169,992.5C 5164.27,992.435 5161.27,990.102 5160,985.5C 5158.02,979.177 5159.86,974.51 5165.5,971.5 Z"/></g>
<g><path style="opacity:1" fill="#b8d3f2" d="M 5330.5,971.5 C 5336.51,970.376 5341.51,972.043 5345.5,976.5C 5347.61,987.887 5342.94,993.053 5331.5,992C 5325.95,988.268 5324.12,983.101 5326,976.5C 5327.71,974.963 5329.21,973.296 5330.5,971.5 Z"/></g>
<g><path style="opacity:1" fill="#b7d3f2" d="M 5400.5,1032.5 C 5411.51,1031.67 5416.01,1036.67 5414,1047.5C 5410.28,1053.57 5405.12,1055.07 5398.5,1052C 5394.7,1047.91 5393.53,1043.08 5395,1037.5C 5396.73,1035.6 5398.56,1033.93 5400.5,1032.5 Z"/></g>
<g><path style="opacity:1" fill="#b8d3f2" d="M 5096.5,1032.5 C 5102.23,1031.45 5106.9,1033.12 5110.5,1037.5C 5113.28,1049.46 5108.61,1054.63 5096.5,1053C 5088.64,1046.11 5088.64,1039.28 5096.5,1032.5 Z"/></g>
<g><path style="opacity:1" fill="#b9d4f2" d="M 5258.5,1002.5 C 5259.83,1002.5 5261.17,1002.5 5262.5,1002.5C 5262.5,1042.5 5262.5,1082.5 5262.5,1122.5C 5265.52,1122.16 5268.18,1120.99 5270.5,1119C 5288.45,1103.87 5306.78,1089.37 5325.5,1075.5C 5326.99,1077.13 5328.49,1078.79 5330,1080.5C 5330.67,1081.5 5330.67,1082.5 5330,1083.5C 5311.1,1098.7 5291.94,1113.53 5272.5,1128C 5272.73,1139.78 5267.06,1144.78 5255.5,1143C 5250.68,1138.95 5249.18,1133.78 5251,1127.5C 5252.88,1124.98 5255.38,1123.64 5258.5,1123.5C 5258.5,1083.17 5258.5,1042.83 5258.5,1002.5 Z"/></g>
<g><path style="opacity:1" fill="#b8d4f2" d="M 5429.5,1122.5 C 5442.33,1121.53 5447.16,1127.2 5444,1139.5C 5436.18,1145.65 5429.51,1144.65 5424,1136.5C 5423.35,1133.41 5423.68,1130.41 5425,1127.5C 5426.71,1125.96 5428.21,1124.3 5429.5,1122.5 Z"/></g>
<g><path style="opacity:1" fill="#b7d3f2" d="M 5067.5,1122.5 C 5080.2,1123.01 5084.03,1129.01 5079,1140.5C 5069.21,1146.45 5063.04,1143.95 5060.5,1133C 5061.11,1128.25 5063.44,1124.75 5067.5,1122.5 Z"/></g>
<g><path style="opacity:1" fill="#163561" d="M 4606.5,1854.5 C 4589.14,1837.99 4570.47,1823.16 4550.5,1810C 4504.51,1786 4455.85,1770 4404.5,1762C 4373.33,1757.53 4341.99,1755.7 4310.5,1756.5C 4279,1710.24 4255.83,1659.9 4241,1605.5C 4232.03,1591.52 4221.2,1579.02 4208.5,1568C 4194.19,1556.84 4179.52,1546.18 4164.5,1536C 4123.63,1500.97 4094.96,1457.64 4078.5,1406C 4071.34,1383.18 4065.84,1360.02 4062,1336.5C 4036.44,1345.7 4011.94,1357.2 3988.5,1371C 3969.17,1384.01 3955.34,1401.51 3947,1423.5C 3944.6,1429.36 3942.6,1435.36 3941,1441.5C 3934.58,1481.24 3931.08,1521.24 3930.5,1561.5C 3926.19,1561.9 3922.36,1563.57 3919,1566.5C 3910.83,1577.99 3905.17,1590.65 3902,1604.5C 3900.33,1613.5 3898.67,1622.5 3897,1631.5C 3893.31,1649.01 3896.97,1664.68 3908,1678.5C 3921.39,1695.72 3934.56,1713.05 3947.5,1730.5C 3913.51,1819.3 3880.01,1908.3 3847,1997.5C 3828.66,2048.35 3810.83,2099.35 3793.5,2150.5C 3774.88,2139.04 3759.71,2124.04 3748,2105.5C 3734.18,2080.39 3724.52,2053.72 3719,2025.5C 3711.61,1980.81 3708.95,1935.81 3711,1890.5C 3722.82,1717.55 3762.15,1551.22 3829,1391.5C 3841.57,1361.69 3857.24,1333.69 3876,1307.5C 3883.86,1299.3 3892.03,1291.47 3900.5,1284C 3933.81,1259.55 3970.81,1243.22 4011.5,1235C 4096.02,1166.53 4180.68,1166.53 4265.5,1235C 4307.68,1270.55 4340.84,1313.05 4365,1362.5C 4379.86,1404.07 4394.52,1445.74 4409,1487.5C 4423.43,1524.38 4443.43,1557.72 4469,1587.5C 4496.38,1615.95 4528.21,1638.12 4564.5,1654C 4574.11,1659.94 4583.44,1666.28 4592.5,1673C 4616.71,1691.58 4632.21,1715.75 4639,1745.5C 4641.98,1786.05 4631.15,1822.38 4606.5,1854.5 Z"/></g>
<g><path style="opacity:1" fill="#b7d3f2" d="M 5092.5,1222.5 C 5102.36,1221.53 5107.19,1225.86 5107,1235.5C 5104.43,1242.15 5099.59,1244.65 5092.5,1243C 5087.15,1239.63 5085.32,1234.8 5087,1228.5C 5088.36,1225.98 5090.19,1223.98 5092.5,1222.5 Z"/></g>
<g><path style="opacity:1" fill="#b7d3f2" d="M 5404.5,1222.5 C 5415.99,1221.16 5420.82,1226.16 5419,1237.5C 5412.13,1245.36 5405.46,1245.36 5399,1237.5C 5397.51,1231.16 5399.35,1226.16 5404.5,1222.5 Z"/></g>
<g><path style="opacity:1" fill="#b8d3f2" d="M 5156.5,1288.5 C 5168.56,1286.73 5173.73,1291.73 5172,1303.5C 5166.6,1310.56 5160.6,1311.23 5154,1305.5C 5150.28,1299.13 5151.12,1293.47 5156.5,1288.5 Z"/></g>
<g><path style="opacity:1" fill="#b8d3f2" d="M 5338.5,1288.5 C 5349.99,1287.16 5354.82,1292.16 5353,1303.5C 5345.96,1311.71 5339.29,1311.37 5333,1302.5C 5331.79,1296.59 5333.63,1291.92 5338.5,1288.5 Z"/></g>
<g><path style="opacity:1" fill="#b8d3f2" d="M 5248.5,1314.5 C 5261,1313.83 5265.5,1319.5 5262,1331.5C 5257.91,1335.3 5253.08,1336.47 5247.5,1335C 5240.59,1327.7 5240.93,1320.86 5248.5,1314.5 Z"/></g>
<g><path style="opacity:1" fill="#feb17d" d="M 4310.5,1756.5 C 4314.73,1763.28 4319.23,1769.95 4324,1776.5C 4326.92,1781.34 4329.59,1786.34 4332,1791.5C 4333.59,1806.14 4330.59,1819.81 4323,1832.5C 4292.92,1876.31 4253.75,1909.47 4205.5,1932C 4185.09,1940.89 4163.75,1944.22 4141.5,1942C 4107.56,1935.9 4091.39,1915.74 4093,1881.5C 4094.74,1876.37 4096.74,1871.37 4099,1866.5C 4100.14,1857.87 4100.64,1849.2 4100.5,1840.5C 4100.12,1816.16 4097.12,1792.16 4091.5,1768.5C 4122.16,1759.34 4147.99,1742.68 4169,1718.5C 4186.51,1697.3 4199.51,1673.63 4208,1647.5C 4194.33,1665.6 4176.83,1678.77 4155.5,1687C 4128.44,1696.98 4100.77,1702.48 4072.5,1703.5C 4059.34,1702.5 4046.01,1702.17 4032.5,1702.5C 4011,1700.99 3989.67,1698.15 3968.5,1694C 3956.2,1689.03 3948.04,1680.2 3944,1667.5C 3936.44,1644.12 3932.1,1620.12 3931,1595.5C 3930.5,1584.17 3930.33,1572.84 3930.5,1561.5C 3931.08,1521.24 3934.58,1481.24 3941,1441.5C 3942.6,1435.36 3944.6,1429.36 3947,1423.5C 3955.34,1401.51 3969.17,1384.01 3988.5,1371C 4011.94,1357.2 4036.44,1345.7 4062,1336.5C 4065.84,1360.02 4071.34,1383.18 4078.5,1406C 4094.96,1457.64 4123.63,1500.97 4164.5,1536C 4179.52,1546.18 4194.19,1556.84 4208.5,1568C 4221.2,1579.02 4232.03,1591.52 4241,1605.5C 4255.83,1659.9 4279,1710.24 4310.5,1756.5 Z"/></g>
<g><path style="opacity:1" fill="#e4925b" d="M 3930.5,1561.5 C 3930.33,1572.84 3930.5,1584.17 3931,1595.5C 3932.1,1620.12 3936.44,1644.12 3944,1667.5C 3948.04,1680.2 3956.2,1689.03 3968.5,1694C 3989.67,1698.15 4011,1700.99 4032.5,1702.5C 4033.95,1714.19 4033.45,1725.85 4031,1737.5C 4000.31,1860.6 3971.98,1984.26 3946,2108.5C 3943.19,2121.74 3941.02,2135.07 3939.5,2148.5C 3940.59,2195.85 3959.26,2234.68 3995.5,2265C 4010.92,2276.37 4027.92,2284.54 4046.5,2289.5C 4045.23,2290.29 4044.23,2291.29 4043.5,2292.5C 4028.25,2307.44 4012.25,2321.44 3995.5,2334.5C 3994.32,2335.5 3992.98,2336.34 3991.5,2337C 3916.33,2354.47 3841.33,2372.63 3766.5,2391.5C 3762.35,2390.28 3758.35,2388.95 3754.5,2387.5C 3753.77,2306.21 3766.77,2227.21 3793.5,2150.5C 3810.83,2099.35 3828.66,2048.35 3847,1997.5C 3880.01,1908.3 3913.51,1819.3 3947.5,1730.5C 3934.56,1713.05 3921.39,1695.72 3908,1678.5C 3896.97,1664.68 3893.31,1649.01 3897,1631.5C 3898.67,1622.5 3900.33,1613.5 3902,1604.5C 3905.17,1590.65 3910.83,1577.99 3919,1566.5C 3922.36,1563.57 3926.19,1561.9 3930.5,1561.5 Z"/></g>
<g><path style="opacity:1" fill="#f3a26a" d="M 4091.5,1768.5 C 4085.34,1746.89 4079.01,1725.22 4072.5,1703.5C 4100.77,1702.48 4128.44,1696.98 4155.5,1687C 4176.83,1678.77 4194.33,1665.6 4208,1647.5C 4199.51,1673.63 4186.51,1697.3 4169,1718.5C 4147.99,1742.68 4122.16,1759.34 4091.5,1768.5 Z"/></g>
<g><path style="opacity:1" fill="#183560" d="M 4032.5,1702.5 C 4046.01,1702.17 4059.34,1702.5 4072.5,1703.5C 4079.01,1725.22 4085.34,1746.89 4091.5,1768.5C 4097.12,1792.16 4100.12,1816.16 4100.5,1840.5C 4066.57,1862.71 4040.73,1892.04 4023,1928.5C 3998.27,1981.7 3977.27,2036.37 3960,2092.5C 3954.54,2110.15 3949.21,2127.81 3944,2145.5C 3943.08,2147.38 3941.58,2148.38 3939.5,2148.5C 3941.02,2135.07 3943.19,2121.74 3946,2108.5C 3971.98,1984.26 4000.31,1860.6 4031,1737.5C 4033.45,1725.85 4033.95,1714.19 4032.5,1702.5 Z"/></g>
<g><path style="opacity:1" fill="#fefefe" d="M 4310.5,1756.5 C 4341.99,1755.7 4373.33,1757.53 4404.5,1762C 4455.85,1770 4504.51,1786 4550.5,1810C 4570.47,1823.16 4589.14,1837.99 4606.5,1854.5C 4619.17,1866.5 4631.5,1878.83 4643.5,1891.5C 4689.26,1941.1 4729.09,1995.1 4763,2053.5C 4822.51,2157.33 4867.17,2267.33 4897,2383.5C 4938.34,2547.56 4957.67,2714.22 4955,2883.5C 4951.81,2906.52 4939.65,2922.85 4918.5,2932.5C 4917.83,2933.95 4917.16,2935.28 4916.5,2936.5C 4916.53,2935.5 4916.03,2934.84 4915,2934.5C 4890.76,2944.01 4865.59,2949.18 4839.5,2950C 4764.77,2951.33 4691.1,2942.99 4618.5,2925C 4573.02,2914.67 4528.68,2900.84 4485.5,2883.5C 4471.51,2776.21 4457.84,2668.88 4444.5,2561.5C 4513.17,2561.67 4581.83,2561.5 4650.5,2561C 4670.33,2557.17 4682.17,2545.33 4686,2525.5C 4686.67,2511.17 4686.67,2496.83 4686,2482.5C 4680.44,2463.61 4667.94,2452.44 4648.5,2449C 4549.17,2448.5 4449.83,2448.33 4350.5,2448.5C 4362.49,2436.34 4374.33,2424.01 4386,2411.5C 4419.91,2367.04 4448.24,2319.04 4471,2267.5C 4502.7,2193.57 4526.87,2117.24 4543.5,2038.5C 4543.17,2038.17 4542.83,2037.83 4542.5,2037.5C 4542.17,2038.17 4541.83,2038.83 4541.5,2039.5C 4537.26,2050.32 4532.76,2060.98 4528,2071.5C 4513.93,2100.43 4499.26,2129.1 4484,2157.5C 4477.14,2167.17 4470.97,2177.17 4465.5,2187.5C 4390.92,2175.7 4321.09,2150.7 4256,2112.5C 4227.69,2172.96 4199.52,2233.46 4171.5,2294C 4127.42,2304.31 4083.42,2314.81 4039.5,2325.5C 4041.38,2315.34 4043.38,2305.18 4045.5,2295C 4045.32,2293.62 4044.65,2292.79 4043.5,2292.5C 4044.23,2291.29 4045.23,2290.29 4046.5,2289.5C 4027.92,2284.54 4010.92,2276.37 3995.5,2265C 3959.26,2234.68 3940.59,2195.85 3939.5,2148.5C 3941.58,2148.38 3943.08,2147.38 3944,2145.5C 3949.21,2127.81 3954.54,2110.15 3960,2092.5C 3977.27,2036.37 3998.27,1981.7 4023,1928.5C 4040.73,1892.04 4066.57,1862.71 4100.5,1840.5C 4100.64,1849.2 4100.14,1857.87 4099,1866.5C 4096.74,1871.37 4094.74,1876.37 4093,1881.5C 4091.39,1915.74 4107.56,1935.9 4141.5,1942C 4163.75,1944.22 4185.09,1940.89 4205.5,1932C 4253.75,1909.47 4292.92,1876.31 4323,1832.5C 4330.59,1819.81 4333.59,1806.14 4332,1791.5C 4329.59,1786.34 4326.92,1781.34 4324,1776.5C 4319.23,1769.95 4314.73,1763.28 4310.5,1756.5 Z"/></g>
<g><path style="opacity:1" fill="#adc7ec" d="M 5239.5,1827.5 C 5320.4,1839.61 5380.56,1881.28 5420,1952.5C 5443.79,2004.56 5446.96,2057.89 5429.5,2112.5C 5429.99,2113.45 5430.32,2114.45 5430.5,2115.5C 5364.96,2439.18 5299.3,2762.84 5233.5,3086.5C 5063.69,3086.52 4894.02,3086.52 4724.5,3086.5C 4767.34,3077.16 4808.34,3062.33 4847.5,3042C 4877.7,3025.49 4897.87,3000.65 4908,2967.5C 4911.55,2957.34 4914.39,2947.01 4916.5,2936.5C 4917.16,2935.28 4917.83,2933.95 4918.5,2932.5C 4939.65,2922.85 4951.81,2906.52 4955,2883.5C 4957.67,2714.22 4938.34,2547.56 4897,2383.5C 4867.17,2267.33 4822.51,2157.33 4763,2053.5C 4729.09,1995.1 4689.26,1941.1 4643.5,1891.5C 4643.51,1889.98 4644.18,1888.82 4645.5,1888C 4689.81,1858.78 4738.47,1841.45 4791.5,1836C 4900.83,1833.3 5010.17,1830.64 5119.5,1828C 5159.51,1826.74 5199.51,1826.57 5239.5,1827.5 Z"/></g>
<g><path style="opacity:1" fill="#bad4f3" d="M 5356.5,3086.5 C 5315.5,3086.5 5274.5,3086.5 5233.5,3086.5C 5299.3,2762.84 5364.96,2439.18 5430.5,2115.5C 5430.32,2114.45 5429.99,2113.45 5429.5,2112.5C 5446.96,2057.89 5443.79,2004.56 5420,1952.5C 5380.56,1881.28 5320.4,1839.61 5239.5,1827.5C 5266.17,1827.39 5292.84,1827.06 5319.5,1826.5C 5368.17,1823.93 5413.5,1834.76 5455.5,1859C 5537.95,1911.42 5572.79,1986.25 5560,2083.5C 5492.14,2417.87 5424.3,2752.2 5356.5,3086.5 Z"/></g>
<g><path style="opacity:1" fill="#f99746" d="M 2978.5,1949.5 C 2974.82,1949.33 2971.15,1949.5 2967.5,1950C 3026.37,2116.01 3084.71,2282.17 3142.5,2448.5C 2904.17,2448.5 2665.83,2448.5 2427.5,2448.5C 2371.15,2282.12 2314.49,2115.79 2257.5,1949.5C 2498,1948.17 2738.33,1948.17 2978.5,1949.5 Z"/></g>
<g><path style="opacity:1" fill="#eaf2f9" d="M 4350.5,2448.5 C 4293.5,2448.5 4236.5,2448.5 4179.5,2448.5C 4219.6,2442.62 4255.6,2427.12 4287.5,2402C 4312.53,2382.31 4335.7,2360.47 4357,2336.5C 4397.58,2289.99 4433.75,2240.33 4465.5,2187.5C 4470.97,2177.17 4477.14,2167.17 4484,2157.5C 4499.26,2129.1 4513.93,2100.43 4528,2071.5C 4532.76,2060.98 4537.26,2050.32 4541.5,2039.5C 4541.83,2038.83 4542.17,2038.17 4542.5,2037.5C 4542.83,2037.83 4543.17,2038.17 4543.5,2038.5C 4526.87,2117.24 4502.7,2193.57 4471,2267.5C 4448.24,2319.04 4419.91,2367.04 4386,2411.5C 4374.33,2424.01 4362.49,2436.34 4350.5,2448.5 Z"/></g>
<g><path style="opacity:1" fill="#feb27e" d="M 4465.5,2187.5 C 4433.75,2240.33 4397.58,2289.99 4357,2336.5C 4335.7,2360.47 4312.53,2382.31 4287.5,2402C 4255.6,2427.12 4219.6,2442.62 4179.5,2448.5C 4007.48,2448.6 3835.48,2448.6 3663.5,2448.5C 3650.48,2445.16 3637.48,2441.32 3624.5,2437C 3617.57,2435.49 3610.57,2435.16 3603.5,2436C 3586.77,2443.17 3569.44,2447.34 3551.5,2448.5C 3539.78,2449.01 3528.12,2449.01 3516.5,2448.5C 3511.88,2445.41 3510.38,2441.08 3512,2435.5C 3527.77,2413.83 3545.93,2394.33 3566.5,2377C 3574.06,2371.05 3582.39,2366.39 3591.5,2363C 3603.11,2361.42 3614.78,2361.09 3626.5,2362C 3638.88,2363.34 3651.21,2365.01 3663.5,2367C 3693.96,2373.36 3724.29,2380.2 3754.5,2387.5C 3758.35,2388.95 3762.35,2390.28 3766.5,2391.5C 3841.33,2372.63 3916.33,2354.47 3991.5,2337C 3992.98,2336.34 3994.32,2335.5 3995.5,2334.5C 3995.74,2335.1 3996.24,2335.43 3997,2335.5C 4011.13,2331.93 4025.3,2328.59 4039.5,2325.5C 4083.42,2314.81 4127.42,2304.31 4171.5,2294C 4199.52,2233.46 4227.69,2172.96 4256,2112.5C 4321.09,2150.7 4390.92,2175.7 4465.5,2187.5 Z"/></g>
<g><path style="opacity:1" fill="#fefefd" d="M 2659.5,2159.5 C 2684.95,2158.79 2701.79,2170.46 2710,2194.5C 2712.89,2216.1 2703.56,2227.44 2682,2228.5C 2660.01,2226.5 2646.01,2214.83 2640,2193.5C 2637.45,2176.9 2643.95,2165.57 2659.5,2159.5 Z"/></g>
<g><path style="opacity:1" fill="#eaf2f8" d="M 4043.5,2292.5 C 4044.65,2292.79 4045.32,2293.62 4045.5,2295C 4043.38,2305.18 4041.38,2315.34 4039.5,2325.5C 4025.3,2328.59 4011.13,2331.93 3997,2335.5C 3996.24,2335.43 3995.74,2335.1 3995.5,2334.5C 4012.25,2321.44 4028.25,2307.44 4043.5,2292.5 Z"/></g>
<g><path style="opacity:1" fill="#ec7d2b" d="M 2978.5,1949.5 C 3032.41,2103.41 3086.25,2257.41 3140,2411.5C 3229.1,2412.33 3318.26,2412.83 3407.5,2413C 3425.59,2418.04 3434.92,2429.87 3435.5,2448.5C 3337.83,2448.5 3240.17,2448.5 3142.5,2448.5C 3084.71,2282.17 3026.37,2116.01 2967.5,1950C 2971.15,1949.5 2974.82,1949.33 2978.5,1949.5 Z"/></g>
<g><path style="opacity:1" fill="#ebf1f7" d="M 3663.5,2448.5 C 3626.17,2448.5 3588.83,2448.5 3551.5,2448.5C 3569.44,2447.34 3586.77,2443.17 3603.5,2436C 3610.57,2435.16 3617.57,2435.49 3624.5,2437C 3637.48,2441.32 3650.48,2445.16 3663.5,2448.5 Z"/></g>
<g><path style="opacity:1" fill="#2a4f96" d="M 2427.5,2448.5 C 2665.83,2448.5 2904.17,2448.5 3142.5,2448.5C 3240.17,2448.5 3337.83,2448.5 3435.5,2448.5C 3462.5,2448.5 3489.5,2448.5 3516.5,2448.5C 3528.12,2449.01 3539.78,2449.01 3551.5,2448.5C 3588.83,2448.5 3626.17,2448.5 3663.5,2448.5C 3835.48,2448.6 4007.48,2448.6 4179.5,2448.5C 4236.5,2448.5 4293.5,2448.5 4350.5,2448.5C 4449.83,2448.33 4549.17,2448.5 4648.5,2449C 4667.94,2452.44 4680.44,2463.61 4686,2482.5C 4686.67,2496.83 4686.67,2511.17 4686,2525.5C 4682.17,2545.33 4670.33,2557.17 4650.5,2561C 4581.83,2561.5 4513.17,2561.67 4444.5,2561.5C 4457.84,2668.88 4471.51,2776.21 4485.5,2883.5C 4495.27,2959.33 4505.27,3035 4515.5,3110.5C 4522.17,3163.83 4528.83,3217.16 4535.5,3270.5C 4583.08,3640.16 4630.92,4009.82 4679,4379.5C 4681.18,4398.78 4673.01,4410.78 4654.5,4415.5C 4650.83,4415.5 4647.17,4415.5 4643.5,4415.5C 4632.97,4411.46 4627.14,4403.8 4626,4392.5C 4568.26,4059.83 4510.76,3727.16 4453.5,3394.5C 4436.98,3300.53 4420.65,3206.53 4404.5,3112.5C 4404.77,3110.9 4404.43,3109.57 4403.5,3108.5C 4386.39,3008.85 4369.39,2909.18 4352.5,2809.5C 4337.92,2727.2 4323.59,2644.86 4309.5,2562.5C 3749,2561.5 3188.33,2561.17 2627.5,2561.5C 2601.5,2712.5 2575.5,2863.5 2549.5,3014.5C 2515.43,3207.25 2482.1,3400.25 2449.5,3593.5C 2432.08,3689.7 2415.41,3786.03 2399.5,3882.5C 2398.5,3887.83 2397.5,3893.16 2396.5,3898.5C 2372.67,4035.48 2349,4172.48 2325.5,4309.5C 2323.02,4323.1 2320.69,4336.76 2318.5,4350.5C 2315.47,4366.66 2312.64,4383 2310,4399.5C 2300.69,4416.04 2287.53,4419.88 2270.5,4411C 2262.4,4405.3 2258.06,4397.46 2257.5,4387.5C 2278.17,4225.5 2298.83,4063.5 2319.5,3901.5C 2320.32,3895.26 2321.32,3888.93 2322.5,3882.5C 2335.66,3782.57 2348.32,3682.57 2360.5,3582.5C 2372.4,3493.01 2384.06,3403.34 2395.5,3313.5C 2428.65,3062.94 2460.99,2812.28 2492.5,2561.5C 2410.17,2561.67 2327.83,2561.5 2245.5,2561C 2227.67,2556.5 2216.5,2545.33 2212,2527.5C 2211.33,2512.83 2211.33,2498.17 2212,2483.5C 2216.91,2464.93 2228.74,2453.43 2247.5,2449C 2307.5,2448.5 2367.5,2448.33 2427.5,2448.5 Z"/></g>
<g><path style="opacity:1" fill="#fefefe" d="M 4309.5,2562.5 C 4323.59,2644.86 4337.92,2727.2 4352.5,2809.5C 4327.35,2791.03 4304.35,2770.03 4283.5,2746.5C 4273.39,2734.21 4264.22,2721.21 4256,2707.5C 4247.99,2693.14 4240.82,2678.47 4234.5,2663.5C 4224.12,2630.75 4219.78,2597.09 4221.5,2562.5C 4250.83,2562.5 4280.17,2562.5 4309.5,2562.5 Z"/></g>
<g><path style="opacity:1" fill="#e9f2f9" d="M 4309.5,2562.5 C 4280.17,2562.5 4250.83,2562.5 4221.5,2562.5C 4219.78,2597.09 4224.12,2630.75 4234.5,2663.5C 4077.02,2663.17 3919.69,2667.67 3762.5,2677C 3690.89,2680.9 3619.89,2689.56 3549.5,2703C 3531.59,2706.97 3514.59,2713.3 3498.5,2722C 3491.8,2727.9 3486.96,2735.07 3484,2743.5C 3476.87,2764.92 3472.54,2786.92 3471,2809.5C 3469.1,2854.83 3469.1,2900.16 3471,2945.5C 3475.57,3017.66 3481.9,3089.66 3490,3161.5C 3504.28,3276.77 3520.45,3391.77 3538.5,3506.5C 3519.63,3690.5 3500.97,3874.67 3482.5,4059C 3482.51,4060.38 3482.85,4061.55 3483.5,4062.5C 3480.04,4073.32 3477.04,4084.32 3474.5,4095.5C 3475.44,4097.29 3476.77,4098.62 3478.5,4099.5C 3477.32,4112.85 3475.99,4126.18 3474.5,4139.5C 3466.56,4157.28 3456.72,4173.94 3445,4189.5C 3431.34,4202.16 3418,4215.16 3405,4228.5C 3387.91,4249.68 3370.57,4270.68 3353,4291.5C 3341.36,4304.48 3328.53,4315.98 3314.5,4326C 3289.24,4336.86 3264.58,4348.86 3240.5,4362C 3229.87,4367.97 3222.03,4376.47 3217,4387.5C 3215.8,4393.52 3216.64,4399.18 3219.5,4404.5C 3227.7,4408.44 3236.36,4410.61 3245.5,4411C 3263.27,4413.12 3280.94,4414.62 3298.5,4415.5C 3218.17,4415.5 3137.83,4415.5 3057.5,4415.5C 3063.26,4413.7 3068.43,4410.7 3073,4406.5C 3077.92,4400.73 3081.92,4394.4 3085,4387.5C 3087.33,4372.9 3089.33,4358.23 3091,4343.5C 3091.67,4338.17 3091.67,4332.83 3091,4327.5C 3087,4304.83 3083,4282.17 3079,4259.5C 3078.58,4255.36 3077.41,4251.52 3075.5,4248C 3070.75,4247.8 3066.08,4248.46 3061.5,4250C 3048.35,4255.74 3035.35,4261.74 3022.5,4268C 3018.01,4276.79 3013.51,4285.62 3009,4294.5C 3008.28,4295.06 3007.44,4295.39 3006.5,4295.5C 3003.93,4294.44 3001.77,4292.77 3000,4290.5C 2990.28,4276.96 2980.78,4263.29 2971.5,4249.5C 2966.81,4252.7 2962.64,4256.37 2959,4260.5C 2944.58,4275.09 2930.08,4289.42 2915.5,4303.5C 2916.39,4334.8 2919.23,4366.13 2924,4397.5C 2924.66,4401.65 2925.83,4405.65 2927.5,4409.5C 2951.41,4410.07 2975.24,4408.74 2999,4405.5C 3001.53,4405.73 3004.03,4406.06 3006.5,4406.5C 3016.11,4409.98 3025.78,4412.98 3035.5,4415.5C 2879.17,4415.5 2722.83,4415.5 2566.5,4415.5C 2565.17,4391.85 2554.34,4373.85 2534,4361.5C 2528.32,4358.91 2522.49,4356.74 2516.5,4355C 2450.54,4353.52 2384.54,4353.02 2318.5,4353.5C 2318.5,4352.5 2318.5,4351.5 2318.5,4350.5C 2320.69,4336.76 2323.02,4323.1 2325.5,4309.5C 2404.28,4258.87 2464.78,4191.54 2507,4107.5C 2539.07,4041.71 2556.23,3972.05 2558.5,3898.5C 2564.17,3898.5 2569.83,3898.5 2575.5,3898.5C 2575.5,3893.17 2575.5,3887.83 2575.5,3882.5C 2516.83,3882.5 2458.17,3882.5 2399.5,3882.5C 2415.41,3786.03 2432.08,3689.7 2449.5,3593.5C 2472.64,3603.45 2496.64,3610.62 2521.5,3615C 2565.9,3622.27 2610.57,3624.6 2655.5,3622C 2685.3,3619.61 2714.64,3614.61 2743.5,3607C 2753.97,3603.52 2763.47,3598.35 2772,3591.5C 2775.22,3586.64 2776.22,3581.3 2775,3575.5C 2773.33,3572.17 2771.67,3568.83 2770,3565.5C 2761.86,3556.03 2753.03,3547.19 2743.5,3539C 2732.87,3530.71 2722.54,3522.04 2712.5,3513C 2704.33,3508.08 2695.99,3503.41 2687.5,3499C 2677.88,3495.35 2668.21,3492.01 2658.5,3489C 2624.88,3481.71 2590.88,3477.05 2556.5,3475C 2545.52,3472.92 2534.52,3470.92 2523.5,3469C 2515.84,3467.09 2509.34,3463.25 2504,3457.5C 2502.1,3453.86 2502.1,3450.2 2504,3446.5C 2510.21,3441.94 2517.05,3438.78 2524.5,3437C 2552.72,3431.81 2581.05,3431.14 2609.5,3435C 2619.77,3437.54 2629.77,3440.87 2639.5,3445C 2658.67,3455.51 2677.34,3466.84 2695.5,3479C 2729.05,3499.91 2765.72,3512.58 2805.5,3517C 2827.65,3518.96 2848.32,3514.3 2867.5,3503C 2884.26,3492.59 2899.59,3480.26 2913.5,3466C 2950.29,3422.34 2979.96,3374.17 3002.5,3321.5C 3002,3321.17 3001.5,3320.83 3001,3320.5C 2976.86,3326.31 2952.36,3328.14 2927.5,3326C 2881.5,3323.34 2838.17,3311.34 2797.5,3290C 2793.33,3287.17 2789.83,3283.67 2787,3279.5C 2785.58,3276.97 2785.25,3274.3 2786,3271.5C 2788.34,3268.99 2791.18,3267.16 2794.5,3266C 2811.81,3260.93 2829.47,3257.59 2847.5,3256C 2900.13,3252.09 2952.79,3248.75 3005.5,3246C 3021.64,3243.18 3034.81,3235.35 3045,3222.5C 3060.99,3202.58 3070.65,3179.92 3074,3154.5C 3079.47,3111.69 3074.81,3070.02 3060,3029.5C 3046.48,3003.64 3026.32,2985.14 2999.5,2974C 2964.84,2960.66 2928.84,2954.5 2891.5,2955.5C 2866.99,2955.05 2842.65,2956.89 2818.5,2961C 2782.02,3016.82 2743.19,3070.98 2702,3123.5C 2688.54,3139.63 2674.38,3155.13 2659.5,3170C 2655.14,3174.02 2650.48,3177.68 2645.5,3181C 2626.93,3190.79 2620.43,3185.29 2626,3164.5C 2629.46,3153.78 2633.13,3143.11 2637,3132.5C 2661.57,3078.37 2689.07,3025.7 2719.5,2974.5C 2696.11,2973.13 2673.11,2975.63 2650.5,2982C 2615.91,2991.37 2582.24,3002.2 2549.5,3014.5C 2575.5,2863.5 2601.5,2712.5 2627.5,2561.5C 3188.33,2561.17 3749,2561.5 4309.5,2562.5 Z"/></g>
<g><path style="opacity:1" fill="#d4e4f8" d="M 2173.5,3882.5 C 2160.83,3882.5 2148.17,3882.5 2135.5,3882.5C 2138.45,3830.8 2137.95,3779.14 2134,3727.5C 2130.92,3689.87 2123.42,3653.2 2111.5,3617.5C 2098.86,3591.88 2087.03,3565.88 2076,3539.5C 2064.53,3518.58 2053.03,3497.58 2041.5,3476.5C 2030,3455.83 2016,3436.99 1999.5,3420C 1997.99,3419.15 1996.49,3418.32 1995,3417.5C 1990.93,3421.95 1987.6,3426.95 1985,3432.5C 1980.27,3438.56 1974.94,3443.89 1969,3448.5C 1968.21,3449.74 1967.71,3451.08 1967.5,3452.5C 1944.88,3470.06 1920.21,3483.23 1893.5,3492C 1879.16,3497.46 1863.83,3502.12 1847.5,3506C 1846.66,3507.01 1846.33,3508.18 1846.5,3509.5C 1845.6,3508.79 1845.26,3507.79 1845.5,3506.5C 1833.68,3508.71 1822.01,3511.04 1810.5,3513.5C 1733.75,3524.61 1657.08,3524.11 1580.5,3512C 1556.75,3508.19 1533.75,3501.85 1511.5,3493C 1506.39,3490.07 1501.39,3486.9 1496.5,3483.5C 1495.57,3482.31 1495.24,3480.98 1495.5,3479.5C 1494.17,3479.5 1492.83,3479.5 1491.5,3479.5C 1485.72,3467.58 1487.22,3456.58 1496,3446.5C 1496.58,3445.07 1496.41,3443.74 1495.5,3442.5C 1496.5,3442.41 1497.33,3442.75 1498,3443.5C 1504.65,3436.02 1511.48,3428.68 1518.5,3421.5C 1525.99,3416.42 1532.66,3410.42 1538.5,3403.5C 1542.91,3400.87 1547.08,3397.87 1551,3394.5C 1551.48,3393.55 1551.65,3392.55 1551.5,3391.5C 1553.31,3391.51 1554.98,3391.01 1556.5,3390C 1578.26,3370.43 1603.26,3356.6 1631.5,3348.5C 1618.18,3347.5 1604.85,3347.17 1591.5,3347.5C 1607.33,3346.67 1623.33,3346.17 1639.5,3346C 1653.42,3342.69 1667.42,3339.69 1681.5,3337C 1718.06,3331.89 1754.73,3327.55 1791.5,3324C 1808.4,3322.21 1824.4,3317.54 1839.5,3310C 1846.04,3306.29 1849.21,3300.79 1849,3293.5C 1842.27,3286.21 1834.1,3281.04 1824.5,3278C 1792.55,3270.92 1760.22,3268.58 1727.5,3271C 1707.4,3272.82 1688.06,3277.82 1669.5,3286C 1641.29,3301.05 1613.95,3317.38 1587.5,3335C 1579.23,3339.48 1570.89,3343.81 1562.5,3348C 1563.45,3348.48 1564.45,3348.65 1565.5,3348.5C 1562.77,3349.21 1559.94,3349.87 1557,3350.5C 1542.68,3357.71 1527.51,3363.55 1511.5,3368C 1508.35,3369.42 1505.35,3370.92 1502.5,3372.5C 1482.96,3376.31 1463.29,3379.48 1443.5,3382C 1424.57,3383.34 1406.24,3380.68 1388.5,3374C 1380.94,3370.19 1373.27,3366.52 1365.5,3363C 1355.9,3356.05 1346.23,3349.38 1336.5,3343C 1322.41,3330.25 1308.91,3316.75 1296,3302.5C 1251.73,3248.03 1215.9,3188.36 1188.5,3123.5C 1189,3123.17 1189.5,3122.83 1190,3122.5C 1198.38,3125.04 1206.88,3127.21 1215.5,3129C 1266.15,3134.06 1316.15,3130.39 1365.5,3118C 1394.17,3111.64 1421.51,3101.98 1447.5,3089C 1456.44,3084.74 1464.27,3078.9 1471,3071.5C 1474.63,3068.24 1475.96,3064.24 1475,3059.5C 1471.67,3055.95 1467.84,3053.12 1463.5,3051C 1452.83,3048.33 1442.16,3045.66 1431.5,3043C 1407.57,3039.68 1383.57,3037.01 1359.5,3035C 1298.09,3032 1236.75,3028 1175.5,3023C 1162.64,3018.79 1151.31,3012.12 1141.5,3003C 1114.03,2972.54 1098.03,2936.71 1093.5,2895.5C 1089.28,2850.79 1093.11,2806.79 1105,2763.5C 1113.4,2734.19 1129.24,2709.69 1152.5,2690C 1180.77,2669.04 1212.44,2655.38 1247.5,2649C 1306.76,2639.34 1366.09,2639.01 1425.5,2648C 1428.94,2648.22 1431.61,2649.72 1433.5,2652.5C 1480.1,2723.6 1529.6,2792.6 1582,2859.5C 1599.33,2880 1617.17,2900 1635.5,2919.5C 1646.6,2930.55 1659.27,2939.39 1673.5,2946C 1680.2,2947.56 1684.36,2945.06 1686,2938.5C 1686.67,2933.5 1686.67,2928.5 1686,2923.5C 1681.28,2904 1674.95,2885 1667,2866.5C 1634.93,2797.69 1599.77,2730.69 1561.5,2665.5C 1597.85,2665.89 1633.51,2671.06 1668.5,2681C 1762.02,2709.27 1852.68,2744.44 1940.5,2786.5C 1940.83,2791.33 1941.17,2796.17 1941.5,2801C 1939.63,2843.15 1939.13,2885.32 1940,2927.5C 1939.69,2975.82 1943.35,3023.82 1951,3071.5C 1953.65,3087.11 1959.31,3101.45 1968,3114.5C 1976.92,3120.63 1984.92,3119.63 1992,3111.5C 1996.89,3102.39 2000.05,3092.73 2001.5,3082.5C 2004.29,3057.58 2005.12,3032.58 2004,3007.5C 1999.42,2944.07 1991.58,2881.07 1980.5,2818.5C 1992.98,2822.87 2005.31,2827.71 2017.5,2833C 2049,2849.83 2078.33,2869.83 2105.5,2893C 2117.81,2905.16 2130.48,2916.66 2143.5,2927.5C 2143.28,2928.68 2143.61,2929.68 2144.5,2930.5C 2154.88,2940.89 2165.05,2951.56 2175,2962.5C 2209.45,3010.76 2220.12,3064.1 2207,3122.5C 2196.54,3155.91 2180.54,3186.24 2159,3213.5C 2134.07,3242.09 2106.57,3267.93 2076.5,3291C 2067.21,3296.63 2058.21,3302.63 2049.5,3309C 2047.35,3310.41 2045.02,3311.24 2042.5,3311.5C 2042.74,3326.53 2043.57,3341.53 2045,3356.5C 2054.13,3427.41 2075.13,3494.41 2108,3557.5C 2167.63,3657.75 2189.46,3766.08 2173.5,3882.5 Z"/></g>
<g><path style="opacity:1" fill="#ec7d2b" d="M 4234.5,2663.5 C 4240.82,2678.47 4247.99,2693.14 4256,2707.5C 4264.22,2721.21 4273.39,2734.21 4283.5,2746.5C 4182.87,2766.12 4083.2,2789.62 3984.5,2817C 3950.35,2826.53 3917.02,2838.2 3884.5,2852C 3869.94,2857.86 3857.11,2866.36 3846,2877.5C 3831.55,2902.41 3819.21,2928.41 3809,2955.5C 3784.47,3022.27 3761.47,3089.61 3740,3157.5C 3718.21,3227.67 3696.87,3298 3676,3368.5C 3642.42,3485.61 3608.92,3602.61 3575.5,3719.5C 3562.52,3648.72 3550.18,3577.72 3538.5,3506.5C 3520.45,3391.77 3504.28,3276.77 3490,3161.5C 3481.9,3089.66 3475.57,3017.66 3471,2945.5C 3469.1,2900.16 3469.1,2854.83 3471,2809.5C 3472.54,2786.92 3476.87,2764.92 3484,2743.5C 3486.96,2735.07 3491.8,2727.9 3498.5,2722C 3514.59,2713.3 3531.59,2706.97 3549.5,2703C 3619.89,2689.56 3690.89,2680.9 3762.5,2677C 3919.69,2667.67 4077.02,2663.17 4234.5,2663.5 Z"/></g>
<g><path style="opacity:1" fill="#eecbab" d="M 6410.5,2724.5 C 6401.23,2722.52 6391.9,2720.85 6382.5,2719.5C 6390.38,2700.74 6398.55,2682.07 6407,2663.5C 6408.86,2683.79 6410.03,2704.12 6410.5,2724.5 Z"/></g>
<g><path style="opacity:1" fill="#b6453d" d="M 6382.5,2719.5 C 6391.9,2720.85 6401.23,2722.52 6410.5,2724.5C 6397.52,2792.08 6385.18,2859.75 6373.5,2927.5C 6363.5,2927.5 6353.5,2927.5 6343.5,2927.5C 6356.5,2858.18 6369.5,2788.85 6382.5,2719.5 Z"/></g>
<g><path style="opacity:1" fill="#eecbab" d="M 6141.5,2787.5 C 6132.19,2789.16 6122.86,2790.83 6113.5,2792.5C 6115.08,2772.83 6116.75,2753.16 6118.5,2733.5C 6120.25,2736 6121.75,2738.67 6123,2741.5C 6129.46,2756.74 6135.62,2772.07 6141.5,2787.5 Z"/></g>
<g><path style="opacity:1" fill="#f99746" d="M 4283.5,2746.5 C 4304.35,2770.03 4327.35,2791.03 4352.5,2809.5C 4369.39,2909.18 4386.39,3008.85 4403.5,3108.5C 4403.5,3109.5 4403.5,3110.5 4403.5,3111.5C 4399.5,3111.5 4395.5,3111.5 4391.5,3111.5C 4360.15,3111.47 4328.81,3110.64 4297.5,3109C 4239.45,3105.66 4181.45,3102 4123.5,3098C 4121.62,3100.98 4120.12,3104.14 4119,3107.5C 4106.62,3161.58 4095.45,3215.91 4085.5,3270.5C 4074.24,3322.2 4061.41,3373.53 4047,3424.5C 4036.23,3460.69 4023.23,3496.03 4008,3530.5C 4001.1,3545.31 3993.43,3559.64 3985,3573.5C 3931.21,3641.76 3881.38,3712.76 3835.5,3786.5C 3823.44,3804.26 3811.61,3822.26 3800,3840.5C 3798.59,3842.65 3797.76,3844.98 3797.5,3847.5C 3796.5,3847.41 3795.67,3847.75 3795,3848.5C 3760.65,3903.19 3726.82,3958.19 3693.5,4013.5C 3676.44,4041.27 3659.61,4069.27 3643,4097.5C 3641.83,4099.33 3640.33,4100.83 3638.5,4102C 3634.74,4103.88 3631.07,4105.71 3627.5,4107.5C 3597.44,4119.46 3566.44,4122.63 3534.5,4117C 3520.21,4114.1 3506.21,4110.26 3492.5,4105.5C 3488.13,4102.99 3483.47,4100.99 3478.5,4099.5C 3476.77,4098.62 3475.44,4097.29 3474.5,4095.5C 3477.04,4084.32 3480.04,4073.32 3483.5,4062.5C 3512.91,3949.86 3543.41,3837.52 3575,3725.5C 3575.5,3723.53 3575.66,3721.53 3575.5,3719.5C 3608.92,3602.61 3642.42,3485.61 3676,3368.5C 3696.87,3298 3718.21,3227.67 3740,3157.5C 3761.47,3089.61 3784.47,3022.27 3809,2955.5C 3819.21,2928.41 3831.55,2902.41 3846,2877.5C 3857.11,2866.36 3869.94,2857.86 3884.5,2852C 3917.02,2838.2 3950.35,2826.53 3984.5,2817C 4083.2,2789.62 4182.87,2766.12 4283.5,2746.5 Z"/></g>
<g><path style="opacity:1" fill="#eecbab" d="M 6445.5,2822.5 C 6445.21,2821.35 6444.38,2820.68 6443,2820.5C 6434.56,2818.71 6426.06,2817.38 6417.5,2816.5C 6425.97,2797.56 6434.47,2778.56 6443,2759.5C 6443.65,2779.37 6444.81,2799.2 6446.5,2819C 6446.49,2820.38 6446.15,2821.55 6445.5,2822.5 Z"/></g>
<g><path style="opacity:1" fill="#b6463d" d="M 6141.5,2787.5 C 6149.49,2834.02 6157.15,2880.68 6164.5,2927.5C 6154.83,2927.5 6145.17,2927.5 6135.5,2927.5C 6128.25,2882.48 6120.91,2837.48 6113.5,2792.5C 6122.86,2790.83 6132.19,2789.16 6141.5,2787.5 Z"/></g>
<g><path style="opacity:1" fill="#b6453d" d="M 6417.5,2816.5 C 6426.06,2817.38 6434.56,2818.71 6443,2820.5C 6444.38,2820.68 6445.21,2821.35 6445.5,2822.5C 6438.84,2857.46 6432.51,2892.46 6426.5,2927.5C 6416.83,2927.5 6407.17,2927.5 6397.5,2927.5C 6403.98,2890.45 6410.65,2853.45 6417.5,2816.5 Z"/></g>
<g><path style="opacity:1" fill="#f99746" d="M 4485.5,2883.5 C 4528.68,2900.84 4573.02,2914.67 4618.5,2925C 4691.1,2942.99 4764.77,2951.33 4839.5,2950C 4865.59,2949.18 4890.76,2944.01 4915,2934.5C 4916.03,2934.84 4916.53,2935.5 4916.5,2936.5C 4914.39,2947.01 4911.55,2957.34 4908,2967.5C 4897.87,3000.65 4877.7,3025.49 4847.5,3042C 4808.34,3062.33 4767.34,3077.16 4724.5,3086.5C 4685.66,3094.36 4646.66,3100.36 4607.5,3104.5C 4576.88,3107.24 4546.22,3109.24 4515.5,3110.5C 4505.27,3035 4495.27,2959.33 4485.5,2883.5 Z"/></g>
<g><path style="opacity:1" fill="#f99746" d="M 6135.5,2927.5 C 6145.17,2927.5 6154.83,2927.5 6164.5,2927.5C 6219.83,2927.5 6275.17,2927.5 6330.5,2927.5C 6330.5,3035.17 6330.5,3142.83 6330.5,3250.5C 6285.83,3250.5 6241.17,3250.5 6196.5,3250.5C 6202.99,3247.52 6208.49,3243.19 6213,3237.5C 6217.06,3230.05 6220.56,3222.38 6223.5,3214.5C 6230.37,3194.7 6234.53,3174.37 6236,3153.5C 6231.32,3133.47 6224.66,3114.13 6216,3095.5C 6213.46,3090.24 6210.29,3085.41 6206.5,3081C 6203.44,3079.34 6200.44,3079.17 6197.5,3080.5C 6194.43,3081.02 6191.43,3081.86 6188.5,3083C 6176.5,3089.33 6164.5,3095.67 6152.5,3102C 6151.21,3102.49 6149.87,3102.66 6148.5,3102.5C 6134.49,3098 6120.66,3093 6107,3087.5C 6106.5,3034.17 6106.33,2980.83 6106.5,2927.5C 6116.17,2927.5 6125.83,2927.5 6135.5,2927.5 Z"/></g>
<g><path style="opacity:1" fill="#ed7d2b" d="M 6330.5,2927.5 C 6334.83,2927.5 6339.17,2927.5 6343.5,2927.5C 6353.5,2927.5 6363.5,2927.5 6373.5,2927.5C 6381.5,2927.5 6389.5,2927.5 6397.5,2927.5C 6407.17,2927.5 6416.83,2927.5 6426.5,2927.5C 6432.17,2927.5 6437.83,2927.5 6443.5,2927.5C 6443.5,3035.17 6443.5,3142.83 6443.5,3250.5C 6405.83,3250.5 6368.17,3250.5 6330.5,3250.5C 6330.5,3142.83 6330.5,3035.17 6330.5,2927.5 Z"/></g>
<g><path style="opacity:1" fill="#c8daf3" d="M 2449.5,3593.5 C 2482.1,3400.25 2515.43,3207.25 2549.5,3014.5C 2582.24,3002.2 2615.91,2991.37 2650.5,2982C 2673.11,2975.63 2696.11,2973.13 2719.5,2974.5C 2689.07,3025.7 2661.57,3078.37 2637,3132.5C 2633.13,3143.11 2629.46,3153.78 2626,3164.5C 2620.43,3185.29 2626.93,3190.79 2645.5,3181C 2650.48,3177.68 2655.14,3174.02 2659.5,3170C 2674.38,3155.13 2688.54,3139.63 2702,3123.5C 2743.19,3070.98 2782.02,3016.82 2818.5,2961C 2842.65,2956.89 2866.99,2955.05 2891.5,2955.5C 2928.84,2954.5 2964.84,2960.66 2999.5,2974C 3026.32,2985.14 3046.48,3003.64 3060,3029.5C 3074.81,3070.02 3079.47,3111.69 3074,3154.5C 3070.65,3179.92 3060.99,3202.58 3045,3222.5C 3034.81,3235.35 3021.64,3243.18 3005.5,3246C 2952.79,3248.75 2900.13,3252.09 2847.5,3256C 2829.47,3257.59 2811.81,3260.93 2794.5,3266C 2791.18,3267.16 2788.34,3268.99 2786,3271.5C 2785.25,3274.3 2785.58,3276.97 2787,3279.5C 2789.83,3283.67 2793.33,3287.17 2797.5,3290C 2838.17,3311.34 2881.5,3323.34 2927.5,3326C 2952.36,3328.14 2976.86,3326.31 3001,3320.5C 3001.5,3320.83 3002,3321.17 3002.5,3321.5C 2979.96,3374.17 2950.29,3422.34 2913.5,3466C 2899.59,3480.26 2884.26,3492.59 2867.5,3503C 2848.32,3514.3 2827.65,3518.96 2805.5,3517C 2765.72,3512.58 2729.05,3499.91 2695.5,3479C 2677.34,3466.84 2658.67,3455.51 2639.5,3445C 2629.77,3440.87 2619.77,3437.54 2609.5,3435C 2581.05,3431.14 2552.72,3431.81 2524.5,3437C 2517.05,3438.78 2510.21,3441.94 2504,3446.5C 2502.1,3450.2 2502.1,3453.86 2504,3457.5C 2509.34,3463.25 2515.84,3467.09 2523.5,3469C 2534.52,3470.92 2545.52,3472.92 2556.5,3475C 2590.88,3477.05 2624.88,3481.71 2658.5,3489C 2668.21,3492.01 2677.88,3495.35 2687.5,3499C 2695.99,3503.41 2704.33,3508.08 2712.5,3513C 2722.54,3522.04 2732.87,3530.71 2743.5,3539C 2753.03,3547.19 2761.86,3556.03 2770,3565.5C 2771.67,3568.83 2773.33,3572.17 2775,3575.5C 2776.22,3581.3 2775.22,3586.64 2772,3591.5C 2763.47,3598.35 2753.97,3603.52 2743.5,3607C 2714.64,3614.61 2685.3,3619.61 2655.5,3622C 2610.57,3624.6 2565.9,3622.27 2521.5,3615C 2496.64,3610.62 2472.64,3603.45 2449.5,3593.5 Z"/></g>
<g><path style="opacity:1" fill="#fefefe" d="M 6197.5,3080.5 C 6200.08,3080.08 6202.25,3080.75 6204,3082.5C 6204.33,3082.17 6204.67,3081.83 6205,3081.5C 6211.57,3108.45 6217.9,3135.79 6224,3163.5C 6223.97,3175.41 6224.14,3187.24 6224.5,3199C 6223.23,3201.38 6222.57,3204.05 6222.5,3207C 6222.5,3209.69 6222.84,3212.19 6223.5,3214.5C 6220.56,3222.38 6217.06,3230.05 6213,3237.5C 6208.49,3243.19 6202.99,3247.52 6196.5,3250.5C 6190.86,3251.35 6185.2,3252.02 6179.5,3252.5C 6172.85,3251.61 6166.18,3250.95 6159.5,3250.5C 6152.27,3248.2 6144.94,3245.87 6137.5,3243.5C 6135.87,3244.05 6134.2,3244.38 6132.5,3244.5C 6130.83,3241.66 6131.49,3241 6134.5,3242.5C 6135.71,3241.73 6135.71,3240.89 6134.5,3240C 6117.83,3225.99 6101.16,3211.99 6084.5,3198C 6076.86,3199.09 6069.2,3200.26 6061.5,3201.5C 6055.86,3182.88 6050.2,3164.21 6044.5,3145.5C 6061.52,3126.13 6078.86,3106.96 6096.5,3088C 6097.64,3087.25 6098.64,3087.42 6099.5,3088.5C 6108.81,3101.31 6118.31,3113.97 6128,3126.5C 6130.45,3129.08 6133.12,3131.41 6136,3133.5C 6141.95,3124.76 6146.45,3115.26 6149.5,3105C 6149.26,3104.1 6148.92,3103.26 6148.5,3102.5C 6149.87,3102.66 6151.21,3102.49 6152.5,3102C 6164.5,3095.67 6176.5,3089.33 6188.5,3083C 6191.43,3081.86 6194.43,3081.02 6197.5,3080.5 Z"/></g>
<g><path style="opacity:1" fill="#c8daf3" d="M 4724.5,3086.5 C 4894.02,3086.52 5063.69,3086.52 5233.5,3086.5C 5274.5,3086.5 5315.5,3086.5 5356.5,3086.5C 5356.67,3132.17 5356.5,3177.83 5356,3223.5C 5350,3248 5334.84,3263.33 5310.5,3269.5C 5310.17,3271.17 5309.83,3272.83 5309.5,3274.5C 5347.14,3648.99 5384.47,4023.49 5421.5,4398C 5421.34,4404.12 5420.01,4409.96 5417.5,4415.5C 5402.17,4415.5 5386.83,4415.5 5371.5,4415.5C 5317.75,4033.83 5263.42,3652.16 5208.5,3270.5C 4997.5,3270.5 4786.5,3270.5 4575.5,3270.5C 4598.08,3267.42 4611.91,3254.76 4617,3232.5C 4617.67,3196.17 4617.67,3159.83 4617,3123.5C 4615.92,3116 4612.75,3109.66 4607.5,3104.5C 4646.66,3100.36 4685.66,3094.36 4724.5,3086.5 Z"/></g>
<g><path style="opacity:1" fill="#c8daf3" d="M 2395.5,3313.5 C 2384.06,3403.34 2372.4,3493.01 2360.5,3582.5C 2358.35,3585.43 2356.19,3588.43 2354,3591.5C 2335.09,3625.99 2317.75,3661.33 2302,3697.5C 2290.61,3733.24 2284.61,3769.91 2284,3807.5C 2283.5,3832.5 2283.33,3857.5 2283.5,3882.5C 2273.5,3882.5 2263.5,3882.5 2253.5,3882.5C 2246.05,3808.13 2259.21,3737.79 2293,3671.5C 2331.64,3607.8 2352.14,3538.46 2354.5,3463.5C 2313.22,3440.06 2279.05,3408.72 2252,3369.5C 2245.82,3358.48 2240.15,3347.14 2235,3335.5C 2228.94,3318.84 2225.78,3301.5 2225.5,3283.5C 2226.5,3256.13 2234,3230.8 2248,3207.5C 2271.12,3180.05 2296.62,3154.88 2324.5,3132C 2347.64,3113.84 2373.14,3099.67 2401,3089.5C 2401.5,3089.83 2402,3090.17 2402.5,3090.5C 2391.64,3145.27 2385.3,3200.6 2383.5,3256.5C 2384.05,3269.56 2385.21,3282.56 2387,3295.5C 2388.01,3302.51 2390.84,3308.51 2395.5,3313.5 Z"/></g>
<g><path style="opacity:1" fill="#adc7ec" d="M 4607.5,3104.5 C 4612.75,3109.66 4615.92,3116 4617,3123.5C 4617.67,3159.83 4617.67,3196.17 4617,3232.5C 4611.91,3254.76 4598.08,3267.42 4575.5,3270.5C 4562.17,3270.5 4548.83,3270.5 4535.5,3270.5C 4528.83,3217.16 4522.17,3163.83 4515.5,3110.5C 4546.22,3109.24 4576.88,3107.24 4607.5,3104.5 Z"/></g>
<g><path style="opacity:1" fill="#f2f7fd" d="M 6203.5,3108.5 C 6204.55,3108.35 6205.55,3108.52 6206.5,3109C 6205.83,3116 6205.17,3123 6204.5,3130C 6204.46,3137.71 6204.63,3145.55 6205,3153.5C 6209.47,3165.44 6213.64,3177.44 6217.5,3189.5C 6197.98,3182.71 6179.64,3173.55 6162.5,3162C 6161.43,3161.26 6160.76,3160.26 6160.5,3159C 6162.96,3154.59 6165.79,3150.42 6169,3146.5C 6181.22,3134.14 6192.72,3121.47 6203.5,3108.5 Z"/></g>
<g><path style="opacity:1" fill="#d0aa92" d="M 4403.5,3108.5 C 4404.43,3109.57 4404.77,3110.9 4404.5,3112.5C 4399.97,3112.82 4395.63,3112.48 4391.5,3111.5C 4395.5,3111.5 4399.5,3111.5 4403.5,3111.5C 4403.5,3110.5 4403.5,3109.5 4403.5,3108.5 Z"/></g>
<g><path style="opacity:1" fill="#f2f6fb" d="M 6197.5,3080.5 C 6200.44,3079.17 6203.44,3079.34 6206.5,3081C 6210.29,3085.41 6213.46,3090.24 6216,3095.5C 6224.66,3114.13 6231.32,3133.47 6236,3153.5C 6234.53,3174.37 6230.37,3194.7 6223.5,3214.5C 6222.84,3212.19 6222.5,3209.69 6222.5,3207C 6222.57,3204.05 6223.23,3201.38 6224.5,3199C 6224.14,3187.24 6223.97,3175.41 6224,3163.5C 6217.9,3135.79 6211.57,3108.45 6205,3081.5C 6204.67,3081.83 6204.33,3082.17 6204,3082.5C 6202.25,3080.75 6200.08,3080.08 6197.5,3080.5 Z"/></g>
<g><path style="opacity:1" fill="#fefefe" d="M 5827.5,3131.5 C 5832.22,3149.51 5837.06,3167.51 5842,3185.5C 5842.21,3194.5 5842.05,3203.5 5841.5,3212.5C 5841.18,3234.15 5830.18,3245.82 5808.5,3247.5C 5795.74,3247.75 5783.74,3245.08 5772.5,3239.5C 5760.13,3230.13 5747.46,3220.96 5734.5,3212C 5729.38,3212.66 5724.21,3213.49 5719,3214.5C 5718.17,3214.17 5717.33,3213.83 5716.5,3213.5C 5712.8,3203.33 5708.8,3193.33 5704.5,3183.5C 5703.74,3180.86 5703.57,3178.19 5704,3175.5C 5714.53,3164.97 5725.03,3154.47 5735.5,3144C 5738.63,3141.87 5741.46,3139.37 5744,3136.5C 5744.38,3137.06 5744.88,3137.39 5745.5,3137.5C 5754.36,3147.85 5763.7,3157.85 5773.5,3167.5C 5777.92,3161.67 5781.59,3155.33 5784.5,3148.5C 5793.38,3143.58 5802.38,3138.75 5811.5,3134C 5815.55,3132.93 5819.55,3131.76 5823.5,3130.5C 5824.92,3130.62 5826.26,3130.96 5827.5,3131.5 Z"/></g>
<g><path style="opacity:1" fill="#c4d9e7" d="M 5745.5,3137.5 C 5745.92,3136.88 5746.58,3136.54 5747.5,3136.5C 5760.33,3139.78 5772.66,3143.78 5784.5,3148.5C 5781.59,3155.33 5777.92,3161.67 5773.5,3167.5C 5763.7,3157.85 5754.36,3147.85 5745.5,3137.5 Z"/></g>
<g><path style="opacity:1" fill="#dfecf4" d="M 5826.5,3149.5 C 5827.75,3150.33 5828.41,3151.67 5828.5,3153.5C 5827.45,3162.48 5827.28,3171.48 5828,3180.5C 5831.14,3188.44 5833.98,3196.44 5836.5,3204.5C 5822.73,3200.29 5809.4,3194.79 5796.5,3188C 5794.94,3187.06 5793.61,3185.89 5792.5,3184.5C 5803.43,3172.38 5814.77,3160.72 5826.5,3149.5 Z"/></g>
<g><path style="opacity:1" fill="#f2f6fd" d="M 6044.5,3145.5 C 6050.2,3164.21 6055.86,3182.88 6061.5,3201.5C 6069.2,3200.26 6076.86,3199.09 6084.5,3198C 6101.16,3211.99 6117.83,3225.99 6134.5,3240C 6135.71,3240.89 6135.71,3241.73 6134.5,3242.5C 6131.49,3241 6130.83,3241.66 6132.5,3244.5C 6123.56,3245.42 6114.89,3247.09 6106.5,3249.5C 6094.65,3250.29 6082.82,3251.29 6071,3252.5C 6068.17,3252.33 6065.33,3252.17 6062.5,3252C 6061.35,3250.12 6059.68,3249.28 6057.5,3249.5C 6058.26,3248.73 6059.26,3248.23 6060.5,3248C 6059.48,3245.93 6058.64,3243.76 6058,3241.5C 6051.39,3209.57 6046.89,3177.57 6044.5,3145.5 Z"/></g>
<g><path style="opacity:1" fill="#c5d9e7" d="M 5827.5,3131.5 C 5829.02,3131.51 5830.18,3132.18 5831,3133.5C 5839.83,3147.16 5846.5,3161.83 5851,3177.5C 5850.3,3191.95 5847.3,3205.95 5842,3219.5C 5841.5,3217.19 5841.34,3214.86 5841.5,3212.5C 5842.05,3203.5 5842.21,3194.5 5842,3185.5C 5837.06,3167.51 5832.22,3149.51 5827.5,3131.5 Z"/></g>
<g><path style="opacity:1" fill="#dfebf4" d="M 5704.5,3183.5 C 5708.8,3193.33 5712.8,3203.33 5716.5,3213.5C 5717.33,3213.83 5718.17,3214.17 5719,3214.5C 5724.21,3213.49 5729.38,3212.66 5734.5,3212C 5747.46,3220.96 5760.13,3230.13 5772.5,3239.5C 5772.59,3240.5 5772.25,3241.33 5771.5,3242C 5753.34,3245.83 5735.01,3247.83 5716.5,3248C 5710.4,3227.94 5706.07,3207.44 5703.5,3186.5C 5703.52,3185.27 5703.85,3184.27 5704.5,3183.5 Z"/></g>
<g><path style="opacity:1" fill="#fa9848" d="M 6159.5,3250.5 C 6141.66,3250.83 6123.99,3250.5 6106.5,3249.5C 6114.89,3247.09 6123.56,3245.42 6132.5,3244.5C 6134.2,3244.38 6135.87,3244.05 6137.5,3243.5C 6144.94,3245.87 6152.27,3248.2 6159.5,3250.5 Z"/></g>
<g><path style="opacity:1" fill="#d4e6f4" d="M 6444.5,3250.5 C 6529.67,3249.33 6615,3249.17 6700.5,3250C 6701.25,3250.67 6701.59,3251.5 6701.5,3252.5C 6700.71,3252.22 6700.04,3251.72 6699.5,3251C 6626.5,3250.5 6553.5,3250.33 6480.5,3250.5C 6468.5,3250.5 6456.5,3250.5 6444.5,3250.5 Z"/></g>
<g><path style="opacity:1" fill="#9bbfe3" d="M 6480.5,3250.5 C 6553.5,3250.33 6626.5,3250.5 6699.5,3251C 6700.04,3251.72 6700.71,3252.22 6701.5,3252.5C 6703.72,3255.8 6704.89,3259.46 6705,3263.5C 6705.67,3276.83 6705.67,3290.17 6705,3303.5C 6704.71,3308.39 6702.87,3312.56 6699.5,3316C 6683.5,3316.5 6667.5,3316.67 6651.5,3316.5C 6650.17,3316.5 6648.83,3316.5 6647.5,3316.5C 6591.83,3316.5 6536.17,3316.5 6480.5,3316.5C 6482.49,3313.51 6483.65,3310.18 6484,3306.5C 6484.67,3290.5 6484.67,3274.5 6484,3258.5C 6483.08,3255.66 6481.91,3253 6480.5,3250.5 Z"/></g>
<g><path style="opacity:1" fill="#bad5f3" d="M 6057.5,3249.5 C 6059.68,3249.28 6061.35,3250.12 6062.5,3252C 6065.33,3252.17 6068.17,3252.33 6071,3252.5C 6082.82,3251.29 6094.65,3250.29 6106.5,3249.5C 6123.99,3250.5 6141.66,3250.83 6159.5,3250.5C 6166.18,3250.95 6172.85,3251.61 6179.5,3252.5C 6185.2,3252.02 6190.86,3251.35 6196.5,3250.5C 6241.17,3250.5 6285.83,3250.5 6330.5,3250.5C 6368.17,3250.5 6405.83,3250.5 6443.5,3250.5C 6443.83,3250.5 6444.17,3250.5 6444.5,3250.5C 6456.5,3250.5 6468.5,3250.5 6480.5,3250.5C 6481.91,3253 6483.08,3255.66 6484,3258.5C 6484.67,3274.5 6484.67,3290.5 6484,3306.5C 6483.65,3310.18 6482.49,3313.51 6480.5,3316.5C 6466.83,3316.5 6453.17,3316.5 6439.5,3316.5C 6188.17,3316.5 5936.83,3316.5 5685.5,3316.5C 5667.59,3316.83 5649.76,3316.49 5632,3315.5C 5629.87,3311.77 5628.53,3307.77 5628,3303.5C 5627.33,3289.5 5627.33,3275.5 5628,3261.5C 5628.88,3257.16 5630.72,3253.33 5633.5,3250C 5774.83,3249.5 5916.17,3249.33 6057.5,3249.5 Z"/></g>
<g><path style="opacity:1" fill="#eaf2fa" d="M 1591.5,3347.5 C 1582.82,3347.52 1574.15,3347.85 1565.5,3348.5C 1564.45,3348.65 1563.45,3348.48 1562.5,3348C 1570.89,3343.81 1579.23,3339.48 1587.5,3335C 1613.95,3317.38 1641.29,3301.05 1669.5,3286C 1688.06,3277.82 1707.4,3272.82 1727.5,3271C 1760.22,3268.58 1792.55,3270.92 1824.5,3278C 1834.1,3281.04 1842.27,3286.21 1849,3293.5C 1849.21,3300.79 1846.04,3306.29 1839.5,3310C 1824.4,3317.54 1808.4,3322.21 1791.5,3324C 1754.73,3327.55 1718.06,3331.89 1681.5,3337C 1667.42,3339.69 1653.42,3342.69 1639.5,3346C 1623.33,3346.17 1607.33,3346.67 1591.5,3347.5 Z"/></g>
<g><path style="opacity:1" fill="#adc7ec" d="M 4391.5,3111.5 C 4395.63,3112.48 4399.97,3112.82 4404.5,3112.5C 4420.65,3206.53 4436.98,3300.53 4453.5,3394.5C 4451.92,3399.95 4450.75,3405.61 4450,3411.5C 4402.47,3746.27 4354.63,4080.94 4306.5,4415.5C 4291.5,4415.5 4276.5,4415.5 4261.5,4415.5C 4258.27,4410.51 4256.6,4405.01 4256.5,4399C 4294.02,4022.83 4331.68,3646.66 4369.5,3270.5C 4274.83,3270.5 4180.17,3270.5 4085.5,3270.5C 4095.45,3215.91 4106.62,3161.58 4119,3107.5C 4120.12,3104.14 4121.62,3100.98 4123.5,3098C 4181.45,3102 4239.45,3105.66 4297.5,3109C 4328.81,3110.64 4360.15,3111.47 4391.5,3111.5 Z"/></g>
<g><path style="opacity:1" fill="#e9f2f9" d="M 4535.5,3270.5 C 4548.83,3270.5 4562.17,3270.5 4575.5,3270.5C 4786.5,3270.5 4997.5,3270.5 5208.5,3270.5C 5263.42,3652.16 5317.75,4033.83 5371.5,4415.5C 5132.5,4415.5 4893.5,4415.5 4654.5,4415.5C 4673.01,4410.78 4681.18,4398.78 4679,4379.5C 4630.92,4009.82 4583.08,3640.16 4535.5,3270.5 Z"/></g>
<g><path style="opacity:1" fill="#e9f2f9" d="M 4085.5,3270.5 C 4180.17,3270.5 4274.83,3270.5 4369.5,3270.5C 4331.68,3646.66 4294.02,4022.83 4256.5,4399C 4256.6,4405.01 4258.27,4410.51 4261.5,4415.5C 4007.17,4415.5 3752.83,4415.5 3498.5,4415.5C 3502.06,4390.48 3505.73,4365.48 3509.5,4340.5C 3536.94,4316.59 3567.61,4297.42 3601.5,4283C 3633.45,4263.24 3645.95,4234.74 3639,4197.5C 3636.62,4189.74 3633.95,4182.07 3631,4174.5C 3629.13,4167.6 3627.8,4160.6 3627,4153.5C 3626.49,4138.16 3626.66,4122.83 3627.5,4107.5C 3631.07,4105.71 3634.74,4103.88 3638.5,4102C 3640.33,4100.83 3641.83,4099.33 3643,4097.5C 3659.61,4069.27 3676.44,4041.27 3693.5,4013.5C 3691.68,4024.78 3690.18,4036.11 3689,4047.5C 3688.67,4084.5 3688.33,4121.5 3688,4158.5C 3687.37,4172.59 3684.7,4186.26 3680,4199.5C 3668.31,4221.88 3657.98,4244.88 3649,4268.5C 3645.89,4278.63 3644.89,4288.97 3646,4299.5C 3650.63,4316.06 3660.13,4319.56 3674.5,4310C 3726.4,4277.11 3773.24,4237.95 3815,4192.5C 3817.92,4188.33 3820.58,4184 3823,4179.5C 3828.99,4145.9 3834.66,4112.23 3840,4078.5C 3845.79,4043.12 3856.79,4009.45 3873,3977.5C 3886.42,3930.69 3871.26,3896.69 3827.5,3875.5C 3833.53,3872.13 3837.7,3867.13 3840,3860.5C 3838.69,3835.83 3837.19,3811.17 3835.5,3786.5C 3881.38,3712.76 3931.21,3641.76 3985,3573.5C 3993.43,3559.64 4001.1,3545.31 4008,3530.5C 4023.23,3496.03 4036.23,3460.69 4047,3424.5C 4061.41,3373.53 4074.24,3322.2 4085.5,3270.5 Z"/></g>
<g><path style="opacity:1" fill="#dfeafc" d="M 5685.5,3316.5 C 5936.83,3316.5 6188.17,3316.5 6439.5,3316.5C 6439.5,3682.83 6439.5,4049.17 6439.5,4415.5C 6285.5,4415.5 6131.5,4415.5 5977.5,4415.5C 5985.65,4414 5992.49,4410 5998,4403.5C 6002.29,4397.25 6005.79,4390.59 6008.5,4383.5C 6012.93,4374.12 6016.59,4364.46 6019.5,4354.5C 6146,4355.5 6272.67,4355.83 6399.5,4355.5C 6399.83,4019.33 6399.5,3683.33 6398.5,3347.5C 6174.5,3347.5 5950.5,3347.5 5726.5,3347.5C 5726.5,3683.5 5726.5,4019.5 5726.5,4355.5C 5764.5,4355.5 5802.5,4355.5 5840.5,4355.5C 5840.5,4354.17 5840.5,4352.83 5840.5,4351.5C 5841.84,4369.52 5844.34,4387.52 5848,4405.5C 5848.64,4406.97 5849.47,4408.3 5850.5,4409.5C 5857.48,4410.66 5864.48,4410.83 5871.5,4410C 5889.49,4408.33 5907.49,4406.83 5925.5,4405.5C 5936.59,4410.07 5947.92,4413.4 5959.5,4415.5C 5868.17,4415.5 5776.83,4415.5 5685.5,4415.5C 5685.5,4049.17 5685.5,3682.83 5685.5,3316.5 Z"/></g>
<g><path style="opacity:1" fill="#c8daf4" d="M 6439.5,3316.5 C 6453.17,3316.5 6466.83,3316.5 6480.5,3316.5C 6536.17,3316.5 6591.83,3316.5 6647.5,3316.5C 6648.21,3317.4 6649.21,3317.74 6650.5,3317.5C 6650.5,3683.5 6650.5,4049.5 6650.5,4415.5C 6580.17,4415.5 6509.83,4415.5 6439.5,4415.5C 6439.5,4049.17 6439.5,3682.83 6439.5,3316.5 Z"/></g>
<g><path style="opacity:1" fill="#d1e0f3" d="M 6647.5,3316.5 C 6648.83,3316.5 6650.17,3316.5 6651.5,3316.5C 6651.5,3682.83 6651.5,4049.17 6651.5,4415.5C 6651.17,4415.5 6650.83,4415.5 6650.5,4415.5C 6650.5,4049.5 6650.5,3683.5 6650.5,3317.5C 6649.21,3317.74 6648.21,3317.4 6647.5,3316.5 Z"/></g>
<g><path style="opacity:1" fill="#c8daf3" d="M 1591.5,3347.5 C 1604.85,3347.17 1618.18,3347.5 1631.5,3348.5C 1603.26,3356.6 1578.26,3370.43 1556.5,3390C 1554.98,3391.01 1553.31,3391.51 1551.5,3391.5C 1551.65,3392.55 1551.48,3393.55 1551,3394.5C 1547.08,3397.87 1542.91,3400.87 1538.5,3403.5C 1526.47,3393.14 1514.47,3382.8 1502.5,3372.5C 1505.35,3370.92 1508.35,3369.42 1511.5,3368C 1527.51,3363.55 1542.68,3357.71 1557,3350.5C 1559.94,3349.87 1562.77,3349.21 1565.5,3348.5C 1574.15,3347.85 1582.82,3347.52 1591.5,3347.5 Z"/></g>
<g><path style="opacity:1" fill="#c8daf3" d="M 1495.5,3442.5 C 1496.41,3443.74 1496.58,3445.07 1496,3446.5C 1487.22,3456.58 1485.72,3467.58 1491.5,3479.5C 1492.83,3479.5 1494.17,3479.5 1495.5,3479.5C 1495.24,3480.98 1495.57,3482.31 1496.5,3483.5C 1501.39,3486.9 1506.39,3490.07 1511.5,3493C 1533.75,3501.85 1556.75,3508.19 1580.5,3512C 1657.08,3524.11 1733.75,3524.61 1810.5,3513.5C 1816.12,3524.29 1823.45,3533.79 1832.5,3542C 1840.4,3545.72 1845.56,3543.55 1848,3535.5C 1848.74,3526.74 1848.24,3518.08 1846.5,3509.5C 1846.33,3508.18 1846.66,3507.01 1847.5,3506C 1863.83,3502.12 1879.16,3497.46 1893.5,3492C 1920.21,3483.23 1944.88,3470.06 1967.5,3452.5C 1981.9,3483.45 1984.4,3515.45 1975,3548.5C 1963.74,3584.35 1946.57,3616.85 1923.5,3646C 1946.96,3704.24 1983.29,3752.91 2032.5,3792C 2060.92,3818.07 2083.58,3848.24 2100.5,3882.5C 2090.83,3882.5 2081.17,3882.5 2071.5,3882.5C 2068.35,3873.19 2064.52,3864.19 2060,3855.5C 2054.97,3848.12 2050.3,3840.45 2046,3832.5C 2038.8,3822.76 2031.13,3813.43 2023,3804.5C 2010.25,3792.75 1997.75,3780.58 1985.5,3768C 1967.24,3750.73 1947.58,3735.4 1926.5,3722C 1923.22,3720.86 1919.89,3720.02 1916.5,3719.5C 1915.27,3727.75 1913.1,3735.75 1910,3743.5C 1899.96,3761.43 1886.79,3776.6 1870.5,3789C 1822.51,3824.16 1769.51,3848.82 1711.5,3863C 1688.5,3868.79 1665.17,3871.46 1641.5,3871C 1623.56,3867.63 1618.4,3857.47 1626,3840.5C 1634.62,3823.28 1643.62,3806.28 1653,3789.5C 1658.42,3781.74 1664.59,3774.58 1671.5,3768C 1688.12,3754.02 1706.12,3742.02 1725.5,3732C 1747.89,3722.26 1769.56,3711.09 1790.5,3698.5C 1795.57,3694.6 1799.73,3689.94 1803,3684.5C 1804.95,3678.45 1802.79,3674.95 1796.5,3674C 1789.5,3673.33 1782.5,3673.33 1775.5,3674C 1768.5,3675.67 1761.5,3677.33 1754.5,3679C 1729.09,3685.35 1707.26,3697.85 1689,3716.5C 1675.62,3732.55 1662.62,3748.88 1650,3765.5C 1642.81,3772.69 1635.64,3779.86 1628.5,3787C 1612.33,3800.59 1594.66,3811.92 1575.5,3821C 1561.83,3825.46 1547.83,3827.13 1533.5,3826C 1517.54,3823.35 1502.21,3818.68 1487.5,3812C 1442.71,3788.24 1403.04,3757.57 1368.5,3720C 1385.35,3718.04 1401.68,3714.04 1417.5,3708C 1444.69,3696.41 1470.02,3681.74 1493.5,3664C 1505.71,3654.79 1516.21,3643.96 1525,3631.5C 1526.28,3628.79 1527.11,3625.95 1527.5,3623C 1527.14,3619.97 1525.47,3617.97 1522.5,3617C 1516.83,3616.33 1511.17,3616.33 1505.5,3617C 1493.21,3619.87 1480.88,3622.54 1468.5,3625C 1426.76,3637.18 1385.09,3649.52 1343.5,3662C 1336.83,3662.67 1330.17,3662.67 1323.5,3662C 1297.15,3651.99 1277.31,3634.49 1264,3609.5C 1243.89,3571.08 1236.89,3530.41 1243,3487.5C 1250.72,3466.91 1263.22,3449.74 1280.5,3436C 1314.67,3410.93 1352.67,3393.93 1394.5,3385C 1399.79,3383.67 1405.13,3383.01 1410.5,3383C 1438.44,3403.45 1466.77,3423.28 1495.5,3442.5 Z"/></g>
<g><path style="opacity:1" fill="#e9f2fa" d="M 2135.5,3882.5 C 2123.83,3882.5 2112.17,3882.5 2100.5,3882.5C 2083.58,3848.24 2060.92,3818.07 2032.5,3792C 1983.29,3752.91 1946.96,3704.24 1923.5,3646C 1946.57,3616.85 1963.74,3584.35 1975,3548.5C 1984.4,3515.45 1981.9,3483.45 1967.5,3452.5C 1967.71,3451.08 1968.21,3449.74 1969,3448.5C 1974.94,3443.89 1980.27,3438.56 1985,3432.5C 1987.6,3426.95 1990.93,3421.95 1995,3417.5C 1996.49,3418.32 1997.99,3419.15 1999.5,3420C 2016,3436.99 2030,3455.83 2041.5,3476.5C 2053.03,3497.58 2064.53,3518.58 2076,3539.5C 2087.03,3565.88 2098.86,3591.88 2111.5,3617.5C 2123.42,3653.2 2130.92,3689.87 2134,3727.5C 2137.95,3779.14 2138.45,3830.8 2135.5,3882.5 Z"/></g>
<g><path style="opacity:1" fill="#e9f2f9" d="M 4453.5,3394.5 C 4510.76,3727.16 4568.26,4059.83 4626,4392.5C 4627.14,4403.8 4632.97,4411.46 4643.5,4415.5C 4531.17,4415.5 4418.83,4415.5 4306.5,4415.5C 4354.63,4080.94 4402.47,3746.27 4450,3411.5C 4450.75,3405.61 4451.92,3399.95 4453.5,3394.5 Z"/></g>
<g><path style="opacity:1" fill="#e9f2fa" d="M 1846.5,3509.5 C 1848.24,3518.08 1848.74,3526.74 1848,3535.5C 1845.56,3543.55 1840.4,3545.72 1832.5,3542C 1823.45,3533.79 1816.12,3524.29 1810.5,3513.5C 1822.01,3511.04 1833.68,3508.71 1845.5,3506.5C 1845.26,3507.79 1845.6,3508.79 1846.5,3509.5 Z"/></g>
<g><path style="opacity:1" fill="#bad4f2" d="M 3538.5,3506.5 C 3550.18,3577.72 3562.52,3648.72 3575.5,3719.5C 3575.66,3721.53 3575.5,3723.53 3575,3725.5C 3543.41,3837.52 3512.91,3949.86 3483.5,4062.5C 3482.85,4061.55 3482.51,4060.38 3482.5,4059C 3500.97,3874.67 3519.63,3690.5 3538.5,3506.5 Z"/></g>
<g><path style="opacity:1" fill="#e9f2f9" d="M 2360.5,3582.5 C 2348.32,3682.57 2335.66,3782.57 2322.5,3882.5C 2309.5,3882.5 2296.5,3882.5 2283.5,3882.5C 2283.33,3857.5 2283.5,3832.5 2284,3807.5C 2284.61,3769.91 2290.61,3733.24 2302,3697.5C 2317.75,3661.33 2335.09,3625.99 2354,3591.5C 2356.19,3588.43 2358.35,3585.43 2360.5,3582.5 Z"/></g>
<g><path style="opacity:1" fill="#b7d3f2" d="M 6398.5,3347.5 C 6398.5,3683.17 6398.5,4018.83 6398.5,4354.5C 6272.5,4354.67 6146.5,4354.5 6020.5,4354C 6021.31,4353.69 6021.97,4353.19 6022.5,4352.5C 6021.41,4351.39 6021.41,4350.39 6022.5,4349.5C 6145.7,4350.17 6268.86,4350.83 6392,4351.5C 6392.67,4243.17 6392.67,4134.83 6392,4026.5C 6172.4,4027.17 5952.9,4027.83 5733.5,4028.5C 5733.5,4134.83 5733.5,4241.17 5733.5,4347.5C 5769.17,4347.5 5804.83,4347.5 5840.5,4347.5C 5840.5,4348.83 5840.5,4350.17 5840.5,4351.5C 5840.5,4352.83 5840.5,4354.17 5840.5,4355.5C 5802.5,4355.5 5764.5,4355.5 5726.5,4355.5C 5726.5,4019.5 5726.5,3683.5 5726.5,3347.5C 5950.5,3347.5 6174.5,3347.5 6398.5,3347.5 Z"/></g>
<g><path style="opacity:1" fill="#dfebfc" d="M 5733.5,3355.5 C 5952.83,3355.5 6172.17,3355.5 6391.5,3355.5C 6391.5,3463.83 6391.5,3572.17 6391.5,3680.5C 6172.17,3680.5 5952.83,3680.5 5733.5,3680.5C 5733.5,3572.17 5733.5,3463.83 5733.5,3355.5 Z"/></g>
<g><path style="opacity:1" fill="#b6d3f2" d="M 5991.5,3390.5 C 6034.17,3390.33 6076.83,3390.5 6119.5,3391C 6125.64,3391.56 6128.64,3394.89 6128.5,3401C 6129.09,3406.61 6126.75,3410.28 6121.5,3412C 6077.83,3412.67 6034.17,3412.67 5990.5,3412C 5983.45,3408.38 5981.62,3402.88 5985,3395.5C 5986.8,3393.17 5988.97,3391.51 5991.5,3390.5 Z"/></g>
<g><path style="opacity:1" fill="#dfeafc" d="M 5733.5,3688.5 C 5952.83,3688.5 6172.17,3688.5 6391.5,3688.5C 6391.5,3799.17 6391.5,3909.83 6391.5,4020.5C 6172.17,4020.5 5952.83,4020.5 5733.5,4020.5C 5733.5,3909.83 5733.5,3799.17 5733.5,3688.5 Z"/></g>
<g><path style="opacity:1" fill="#b6d3f2" d="M 5991.5,3722.5 C 6034.83,3722.33 6078.17,3722.5 6121.5,3723C 6128.61,3727.04 6130.44,3732.87 6127,3740.5C 6125.68,3742.49 6123.85,3743.65 6121.5,3744C 6077.5,3744.67 6033.5,3744.67 5989.5,3744C 5983.4,3739.85 5981.9,3734.35 5985,3727.5C 5986.97,3725.45 5989.13,3723.78 5991.5,3722.5 Z"/></g>
<g><path style="opacity:1" fill="#ec7d2c" d="M 3835.5,3786.5 C 3837.19,3811.17 3838.69,3835.83 3840,3860.5C 3837.7,3867.13 3833.53,3872.13 3827.5,3875.5C 3815.92,3867.92 3805.92,3858.58 3797.5,3847.5C 3797.76,3844.98 3798.59,3842.65 3800,3840.5C 3811.61,3822.26 3823.44,3804.26 3835.5,3786.5 Z"/></g>
<g><path style="opacity:1" fill="#163561" d="M 3797.5,3847.5 C 3805.92,3858.58 3815.92,3867.92 3827.5,3875.5C 3871.26,3896.69 3886.42,3930.69 3873,3977.5C 3856.79,4009.45 3845.79,4043.12 3840,4078.5C 3834.66,4112.23 3828.99,4145.9 3823,4179.5C 3820.58,4184 3817.92,4188.33 3815,4192.5C 3773.24,4237.95 3726.4,4277.11 3674.5,4310C 3660.13,4319.56 3650.63,4316.06 3646,4299.5C 3644.89,4288.97 3645.89,4278.63 3649,4268.5C 3657.98,4244.88 3668.31,4221.88 3680,4199.5C 3684.7,4186.26 3687.37,4172.59 3688,4158.5C 3688.33,4121.5 3688.67,4084.5 3689,4047.5C 3690.18,4036.11 3691.68,4024.78 3693.5,4013.5C 3726.82,3958.19 3760.65,3903.19 3795,3848.5C 3795.67,3847.75 3796.5,3847.41 3797.5,3847.5 Z"/></g>
<g><path style="opacity:1" fill="#9fc1f4" d="M 2071.5,3882.5 C 2081.17,3882.5 2090.83,3882.5 2100.5,3882.5C 2112.17,3882.5 2123.83,3882.5 2135.5,3882.5C 2148.17,3882.5 2160.83,3882.5 2173.5,3882.5C 2200.17,3882.5 2226.83,3882.5 2253.5,3882.5C 2263.5,3882.5 2273.5,3882.5 2283.5,3882.5C 2296.5,3882.5 2309.5,3882.5 2322.5,3882.5C 2321.32,3888.93 2320.32,3895.26 2319.5,3901.5C 2319.5,3900.5 2319.5,3899.5 2319.5,3898.5C 2060.83,3898.5 1802.17,3898.5 1543.5,3898.5C 1539.5,3898.5 1535.5,3898.5 1531.5,3898.5C 1531.5,3893.17 1531.5,3887.83 1531.5,3882.5C 1711.5,3882.5 1891.5,3882.5 2071.5,3882.5 Z"/></g>
<g><path style="opacity:1" fill="#9fc0f3" d="M 2399.5,3882.5 C 2458.17,3882.5 2516.83,3882.5 2575.5,3882.5C 2575.5,3887.83 2575.5,3893.17 2575.5,3898.5C 2569.83,3898.5 2564.17,3898.5 2558.5,3898.5C 2504.5,3898.5 2450.5,3898.5 2396.5,3898.5C 2397.5,3893.16 2398.5,3887.83 2399.5,3882.5 Z"/></g>
<g><path style="opacity:1" fill="#d3e4f8" d="M 1543.5,3898.5 C 1802.17,3898.5 2060.83,3898.5 2319.5,3898.5C 2319.5,3899.5 2319.5,3900.5 2319.5,3901.5C 2298.83,4063.5 2278.17,4225.5 2257.5,4387.5C 2258.06,4397.46 2262.4,4405.3 2270.5,4411C 2287.53,4419.88 2300.69,4416.04 2310,4399.5C 2312.64,4383 2315.47,4366.66 2318.5,4350.5C 2318.5,4351.5 2318.5,4352.5 2318.5,4353.5C 2384.54,4353.02 2450.54,4353.52 2516.5,4355C 2522.49,4356.74 2528.32,4358.91 2534,4361.5C 2554.34,4373.85 2565.17,4391.85 2566.5,4415.5C 2223.17,4416.83 1879.83,4416.83 1536.5,4415.5C 1536.38,4407.97 1537.55,4400.63 1540,4393.5C 1549.37,4371.47 1565.87,4358.3 1589.5,4354C 1679.17,4353.67 1768.83,4353.33 1858.5,4353C 1812.43,4333.91 1770.1,4308.91 1731.5,4278C 1722.65,4270.09 1713.65,4262.42 1704.5,4255C 1694.34,4243.17 1683.5,4232.01 1672,4221.5C 1591.19,4129.74 1548.35,4022.07 1543.5,3898.5 Z"/></g>
<g><path style="opacity:1" fill="#d3e4f8" d="M 2396.5,3898.5 C 2450.5,3898.5 2504.5,3898.5 2558.5,3898.5C 2556.23,3972.05 2539.07,4041.71 2507,4107.5C 2464.78,4191.54 2404.28,4258.87 2325.5,4309.5C 2349,4172.48 2372.67,4035.48 2396.5,3898.5 Z"/></g>
<g><path style="opacity:1" fill="#dfeafc" d="M 5733.5,4028.5 C 5952.83,4028.5 6172.17,4028.5 6391.5,4028.5C 6391.5,4134.83 6391.5,4241.17 6391.5,4347.5C 6268.17,4347.5 6144.83,4347.5 6021.5,4347.5C 6023.08,4340.34 6024.75,4333.17 6026.5,4326C 6022.42,4300.76 6014.92,4276.6 6004,4253.5C 6002.48,4251.76 6000.98,4250.09 5999.5,4248.5C 5993.01,4247.53 5986.68,4248.36 5980.5,4251C 5970.22,4255.81 5959.88,4260.64 5949.5,4265.5C 5945.49,4266.61 5941.49,4266.61 5937.5,4265.5C 5924.49,4260 5911.49,4254.5 5898.5,4249C 5896.5,4248.33 5894.5,4248.33 5892.5,4249C 5891.94,4249.38 5891.61,4249.88 5891.5,4250.5C 5874.26,4267.24 5857.09,4284.24 5840,4301.5C 5838.56,4302.9 5837.73,4304.57 5837.5,4306.5C 5838.17,4320.21 5839.17,4333.88 5840.5,4347.5C 5804.83,4347.5 5769.17,4347.5 5733.5,4347.5C 5733.5,4241.17 5733.5,4134.83 5733.5,4028.5 Z"/></g>
<g><path style="opacity:1" fill="#b6d3f2" d="M 5989.5,4069.5 C 6033.83,4069.33 6078.17,4069.5 6122.5,4070C 6126.8,4071.94 6128.8,4075.27 6128.5,4080C 6128.46,4086.04 6125.46,4089.71 6119.5,4091C 6076.83,4091.67 6034.17,4091.67 5991.5,4091C 5984.89,4087.94 5982.39,4082.78 5984,4075.5C 5985.36,4072.98 5987.19,4070.98 5989.5,4069.5 Z"/></g>
<g><path style="opacity:1" fill="#bad3f2" d="M 3478.5,4099.5 C 3483.47,4100.99 3488.13,4102.99 3492.5,4105.5C 3486.5,4116.83 3480.5,4128.17 3474.5,4139.5C 3475.99,4126.18 3477.32,4112.85 3478.5,4099.5 Z"/></g>
<g><path style="opacity:1" fill="#2a4f96" d="M 3492.5,4105.5 C 3506.21,4110.26 3520.21,4114.1 3534.5,4117C 3566.44,4122.63 3597.44,4119.46 3627.5,4107.5C 3626.66,4122.83 3626.49,4138.16 3627,4153.5C 3627.8,4160.6 3629.13,4167.6 3631,4174.5C 3633.95,4182.07 3636.62,4189.74 3639,4197.5C 3645.95,4234.74 3633.45,4263.24 3601.5,4283C 3567.61,4297.42 3536.94,4316.59 3509.5,4340.5C 3487.55,4358.11 3466.22,4376.45 3445.5,4395.5C 3437.76,4403.21 3428.42,4408.04 3417.5,4410C 3403.1,4412.5 3388.77,4414.34 3374.5,4415.5C 3349.17,4415.5 3323.83,4415.5 3298.5,4415.5C 3280.94,4414.62 3263.27,4413.12 3245.5,4411C 3236.36,4410.61 3227.7,4408.44 3219.5,4404.5C 3216.64,4399.18 3215.8,4393.52 3217,4387.5C 3222.03,4376.47 3229.87,4367.97 3240.5,4362C 3264.58,4348.86 3289.24,4336.86 3314.5,4326C 3328.53,4315.98 3341.36,4304.48 3353,4291.5C 3370.57,4270.68 3387.91,4249.68 3405,4228.5C 3418,4215.16 3431.34,4202.16 3445,4189.5C 3456.72,4173.94 3466.56,4157.28 3474.5,4139.5C 3480.5,4128.17 3486.5,4116.83 3492.5,4105.5 Z"/></g>
<g><path style="opacity:1" fill="#fefefe" d="M 3057.5,4415.5 C 3050.17,4415.5 3042.83,4415.5 3035.5,4415.5C 3025.78,4412.98 3016.11,4409.98 3006.5,4406.5C 2988.24,4391.3 2970.58,4375.14 2953.5,4358C 2952.27,4357.22 2950.94,4356.72 2949.5,4356.5C 2943.31,4358.97 2936.97,4359.64 2930.5,4358.5C 2925.34,4340.2 2920.34,4321.86 2915.5,4303.5C 2930.08,4289.42 2944.58,4275.09 2959,4260.5C 2962.64,4256.37 2966.81,4252.7 2971.5,4249.5C 2980.78,4263.29 2990.28,4276.96 3000,4290.5C 3001.77,4292.77 3003.93,4294.44 3006.5,4295.5C 3007.44,4295.39 3008.28,4295.06 3009,4294.5C 3013.51,4285.62 3018.01,4276.79 3022.5,4268C 3035.35,4261.74 3048.35,4255.74 3061.5,4250C 3066.08,4248.46 3070.75,4247.8 3075.5,4248C 3077.41,4251.52 3078.58,4255.36 3079,4259.5C 3083,4282.17 3087,4304.83 3091,4327.5C 3091.67,4332.83 3091.67,4338.17 3091,4343.5C 3089.33,4358.23 3087.33,4372.9 3085,4387.5C 3081.92,4394.4 3077.92,4400.73 3073,4406.5C 3068.43,4410.7 3063.26,4413.7 3057.5,4415.5 Z"/></g>
<g><path style="opacity:1" fill="#fefefe" d="M 5999.5,4248.5 C 6003.4,4274.95 6007.9,4301.28 6013,4327.5C 6012.63,4346.24 6011.13,4364.91 6008.5,4383.5C 6005.79,4390.59 6002.29,4397.25 5998,4403.5C 5992.49,4410 5985.65,4414 5977.5,4415.5C 5971.5,4415.5 5965.5,4415.5 5959.5,4415.5C 5947.92,4413.4 5936.59,4410.07 5925.5,4405.5C 5908.67,4389.17 5891.67,4373.01 5874.5,4357C 5867.27,4358.27 5859.94,4359.11 5852.5,4359.5C 5847.94,4341.58 5842.94,4323.92 5837.5,4306.5C 5837.73,4304.57 5838.56,4302.9 5840,4301.5C 5857.09,4284.24 5874.26,4267.24 5891.5,4250.5C 5892.97,4249.71 5894.3,4249.71 5895.5,4250.5C 5902.19,4261.89 5909.35,4272.89 5917,4283.5C 5920.68,4288.01 5924.51,4292.34 5928.5,4296.5C 5930.46,4295.25 5931.96,4293.59 5933,4291.5C 5936.92,4283.99 5940.59,4276.32 5944,4268.5C 5945.88,4267.39 5947.71,4266.39 5949.5,4265.5C 5959.88,4260.64 5970.22,4255.81 5980.5,4251C 5986.68,4248.36 5993.01,4247.53 5999.5,4248.5 Z"/></g>
<g><path style="opacity:1" fill="#f2f7fd" d="M 5949.5,4265.5 C 5947.71,4266.39 5945.88,4267.39 5944,4268.5C 5940.59,4276.32 5936.92,4283.99 5933,4291.5C 5931.96,4293.59 5930.46,4295.25 5928.5,4296.5C 5924.51,4292.34 5920.68,4288.01 5917,4283.5C 5909.35,4272.89 5902.19,4261.89 5895.5,4250.5C 5894.3,4249.71 5892.97,4249.71 5891.5,4250.5C 5891.61,4249.88 5891.94,4249.38 5892.5,4249C 5894.5,4248.33 5896.5,4248.33 5898.5,4249C 5911.49,4254.5 5924.49,4260 5937.5,4265.5C 5941.49,4266.61 5945.49,4266.61 5949.5,4265.5 Z"/></g>
<g><path style="opacity:1" fill="#f2f6fd" d="M 5999.5,4248.5 C 6000.98,4250.09 6002.48,4251.76 6004,4253.5C 6014.92,4276.6 6022.42,4300.76 6026.5,4326C 6024.75,4333.17 6023.08,4340.34 6021.5,4347.5C 6020.39,4349.6 6019.72,4351.93 6019.5,4354.5C 6016.59,4364.46 6012.93,4374.12 6008.5,4383.5C 6011.13,4364.91 6012.63,4346.24 6013,4327.5C 6007.9,4301.28 6003.4,4274.95 5999.5,4248.5 Z"/></g>
<g><path style="opacity:1" fill="#f2f7fd" d="M 3074.5,4275.5 C 3075.59,4275.62 3076.25,4276.29 3076.5,4277.5C 3075.35,4290.18 3074.01,4302.84 3072.5,4315.5C 3075.67,4328.83 3079.33,4341.99 3083.5,4355C 3083,4355.5 3082.5,4356 3082,4356.5C 3064.63,4348.23 3048.13,4338.57 3032.5,4327.5C 3028.77,4324.73 3028.6,4321.73 3032,4318.5C 3046.16,4304.19 3060.33,4289.85 3074.5,4275.5 Z"/></g>
<g><path style="opacity:1" fill="#f2f7fd" d="M 5997.5,4275.5 C 5998.14,4276.1 5998.47,4276.93 5998.5,4278C 5997.62,4290.54 5996.29,4303.04 5994.5,4315.5C 5997.78,4328.78 6001.44,4341.95 6005.5,4355C 6004.97,4355.69 6004.31,4356.19 6003.5,4356.5C 5987.2,4348.35 5971.53,4339.19 5956.5,4329C 5954.62,4327.29 5952.95,4325.46 5951.5,4323.5C 5953.42,4319.34 5956.09,4315.68 5959.5,4312.5C 5972.21,4300.12 5984.88,4287.78 5997.5,4275.5 Z"/></g>
<g><path style="opacity:1" fill="#f2f7fd" d="M 2915.5,4303.5 C 2920.34,4321.86 2925.34,4340.2 2930.5,4358.5C 2936.97,4359.64 2943.31,4358.97 2949.5,4356.5C 2950.94,4356.72 2952.27,4357.22 2953.5,4358C 2970.58,4375.14 2988.24,4391.3 3006.5,4406.5C 3004.03,4406.06 3001.53,4405.73 2999,4405.5C 2975.24,4408.74 2951.41,4410.07 2927.5,4409.5C 2925.83,4405.65 2924.66,4401.65 2924,4397.5C 2919.23,4366.13 2916.39,4334.8 2915.5,4303.5 Z"/></g>
<g><path style="opacity:1" fill="#f2f6fd" d="M 5837.5,4306.5 C 5842.94,4323.92 5847.94,4341.58 5852.5,4359.5C 5859.94,4359.11 5867.27,4358.27 5874.5,4357C 5891.67,4373.01 5908.67,4389.17 5925.5,4405.5C 5907.49,4406.83 5889.49,4408.33 5871.5,4410C 5864.48,4410.83 5857.48,4410.66 5850.5,4409.5C 5849.47,4408.3 5848.64,4406.97 5848,4405.5C 5844.34,4387.52 5841.84,4369.52 5840.5,4351.5C 5840.5,4350.17 5840.5,4348.83 5840.5,4347.5C 5839.17,4333.88 5838.17,4320.21 5837.5,4306.5 Z"/></g>
<g><path style="opacity:1" fill="#bfd7f4" d="M 6398.5,3347.5 C 6399.5,3683.33 6399.83,4019.33 6399.5,4355.5C 6272.67,4355.83 6146,4355.5 6019.5,4354.5C 6019.72,4351.93 6020.39,4349.6 6021.5,4347.5C 6144.83,4347.5 6268.17,4347.5 6391.5,4347.5C 6391.5,4241.17 6391.5,4134.83 6391.5,4028.5C 6172.17,4028.5 5952.83,4028.5 5733.5,4028.5C 5952.9,4027.83 6172.4,4027.17 6392,4026.5C 6392.67,4134.83 6392.67,4243.17 6392,4351.5C 6268.86,4350.83 6145.7,4350.17 6022.5,4349.5C 6021.41,4350.39 6021.41,4351.39 6022.5,4352.5C 6021.97,4353.19 6021.31,4353.69 6020.5,4354C 6146.5,4354.5 6272.5,4354.67 6398.5,4354.5C 6398.5,4018.83 6398.5,3683.17 6398.5,3347.5 Z"/></g>
<g><path style="opacity:1" fill="#bad4f3" d="M 3509.5,4340.5 C 3505.73,4365.48 3502.06,4390.48 3498.5,4415.5C 3483.5,4415.5 3468.5,4415.5 3453.5,4415.5C 3450.06,4409.31 3448.39,4402.65 3448.5,4395.5C 3447.5,4395.5 3446.5,4395.5 3445.5,4395.5C 3466.22,4376.45 3487.55,4358.11 3509.5,4340.5 Z"/></g>
<g><path style="opacity:1" fill="#e8f1f9" d="M 3445.5,4395.5 C 3446.5,4395.5 3447.5,4395.5 3448.5,4395.5C 3448.39,4402.65 3450.06,4409.31 3453.5,4415.5C 3427.17,4415.5 3400.83,4415.5 3374.5,4415.5C 3388.77,4414.34 3403.1,4412.5 3417.5,4410C 3428.42,4408.04 3437.76,4403.21 3445.5,4395.5 Z"/></g>
<g><path style="opacity:1" fill="#2e3552" d="M 1067.5,4415.5 C 1223.83,4415.5 1380.17,4415.5 1536.5,4415.5C 1879.83,4416.83 2223.17,4416.83 2566.5,4415.5C 2722.83,4415.5 2879.17,4415.5 3035.5,4415.5C 3042.83,4415.5 3050.17,4415.5 3057.5,4415.5C 3137.83,4415.5 3218.17,4415.5 3298.5,4415.5C 3323.83,4415.5 3349.17,4415.5 3374.5,4415.5C 3400.83,4415.5 3427.17,4415.5 3453.5,4415.5C 3468.5,4415.5 3483.5,4415.5 3498.5,4415.5C 3752.83,4415.5 4007.17,4415.5 4261.5,4415.5C 4276.5,4415.5 4291.5,4415.5 4306.5,4415.5C 4418.83,4415.5 4531.17,4415.5 4643.5,4415.5C 4647.17,4415.5 4650.83,4415.5 4654.5,4415.5C 4893.5,4415.5 5132.5,4415.5 5371.5,4415.5C 5386.83,4415.5 5402.17,4415.5 5417.5,4415.5C 5506.83,4415.5 5596.17,4415.5 5685.5,4415.5C 5776.83,4415.5 5868.17,4415.5 5959.5,4415.5C 5965.5,4415.5 5971.5,4415.5 5977.5,4415.5C 6131.5,4415.5 6285.5,4415.5 6439.5,4415.5C 6509.83,4415.5 6580.17,4415.5 6650.5,4415.5C 6650.83,4415.5 6651.17,4415.5 6651.5,4415.5C 6790.83,4415.5 6930.17,4415.5 7069.5,4415.5C 7208.5,4415.33 7347.5,4415.5 7486.5,4416C 7492.72,4418.59 7495.06,4423.26 7493.5,4430C 7493.33,4432.83 7493.17,4435.67 7493,4438.5C 7491.92,4441.08 7490.09,4442.75 7487.5,4443.5C 5194.33,4442.33 2901,4442.17 607.5,4443C 2899.67,4443.17 5191.67,4443.67 7483.5,4444.5C 5190.5,4444.67 2897.5,4444.5 604.5,4444C 599.055,4441.18 597.055,4436.68 598.5,4430.5C 597.087,4424.1 599.087,4419.27 604.5,4416C 758.833,4415.5 913.166,4415.33 1067.5,4415.5 Z"/></g>
<g><path style="opacity:1" fill="#2c364f" d="M 7487.5,4443.5 C 7486.29,4444.23 7484.96,4444.57 7483.5,4444.5C 5191.67,4443.67 2899.67,4443.17 607.5,4443C 2901,4442.17 5194.33,4442.33 7487.5,4443.5 Z"/></g>
</svg>
