<?xml version="1.0" encoding="UTF-8"?>
<!DOCTYPE svg PUBLIC "-//W3C//DTD SVG 1.1//EN" "http://www.w3.org/Graphics/SVG/1.1/DTD/svg11.dtd">
<svg xmlns="http://www.w3.org/2000/svg" version="1.1" width="8000px" height="5000px" style="shape-rendering:geometricPrecision; text-rendering:geometricPrecision; image-rendering:optimizeQuality; fill-rule:evenodd; clip-rule:evenodd" xmlns:xlink="http://www.w3.org/1999/xlink">
<g><path style="opacity:0.278" fill="#fefefe" d="M -0.5,-0.5 C 2666.17,-0.5 5332.83,-0.5 7999.5,-0.5C 7999.5,1666.17 7999.5,3332.83 7999.5,4999.5C 5332.83,4999.5 2666.17,4999.5 -0.5,4999.5C -0.5,3332.83 -0.5,1666.17 -0.5,-0.5 Z"/></g>
<g><path style="opacity:1" fill="#bcd8fe" d="M 4832.5,814.5 C 4840.5,814.5 4848.5,814.5 4856.5,814.5C 4856.5,914.167 4856.5,1013.83 4856.5,1113.5C 4656.83,1113.5 4457.17,1113.5 4257.5,1113.5C 4257.5,1051.5 4257.5,989.5 4257.5,927.5C 4441.94,855.319 4633.61,817.653 4832.5,814.5 Z"/></g>
<g><path style="opacity:1" fill="#d2e4fe" d="M 4832.5,814.5 C 4847.69,813.223 4863.02,813.223 4878.5,814.5C 4878.5,921.5 4878.5,1028.5 4878.5,1135.5C 4664.5,1135.5 4450.5,1135.5 4236.5,1135.5C 4236.83,1069 4236.5,1002.66 4235.5,936.5C 4242.6,933.129 4249.93,930.129 4257.5,927.5C 4257.5,989.5 4257.5,1051.5 4257.5,1113.5C 4457.17,1113.5 4656.83,1113.5 4856.5,1113.5C 4856.5,1013.83 4856.5,914.167 4856.5,814.5C 4848.5,814.5 4840.5,814.5 4832.5,814.5 Z"/></g>
<g><path style="opacity:1" fill="#bcd7fe" d="M 4878.5,814.5 C 4884.5,814.5 4890.5,814.5 4896.5,814.5C 4897.57,815.434 4898.9,815.768 4900.5,815.5C 4900.5,929.5 4900.5,1043.5 4900.5,1157.5C 4671.83,1157.5 4443.17,1157.5 4214.5,1157.5C 4214.5,1086.5 4214.5,1015.5 4214.5,944.5C 4221.32,941.447 4228.32,938.78 4235.5,936.5C 4236.5,1002.66 4236.83,1069 4236.5,1135.5C 4450.5,1135.5 4664.5,1135.5 4878.5,1135.5C 4878.5,1028.5 4878.5,921.5 4878.5,814.5 Z"/></g>
<g><path style="opacity:1" fill="#d2e3fe" d="M 4896.5,814.5 C 4982.09,817.454 5066.76,827.121 5150.5,843.5C 5149.5,1544.67 5149.17,2246 5149.5,2947.5C 5139.71,2952.19 5129.38,2954.85 5118.5,2955.5C 5111.88,2953.47 5107.21,2955.81 5104.5,2962.5C 5088.96,2983.94 5083.8,3007.94 5089,3034.5C 5093.02,3054.21 5102.02,3071.21 5116,3085.5C 5120.42,3089.85 5124.75,3094.18 5129,3098.5C 5132.48,3108.68 5133.14,3119.01 5131,3129.5C 5127.55,3135.29 5128.55,3135.95 5134,3131.5C 5133.12,3140.43 5129.62,3148.26 5123.5,3155C 5124.83,3155.33 5126.17,3155.67 5127.5,3156C 5112.77,3174.97 5102.43,3196.13 5096.5,3219.5C 5063.06,3212.39 5030.06,3203.56 4997.5,3193C 4988.35,3189.76 4979.68,3185.42 4971.5,3180C 4968.46,3177.3 4965.8,3174.3 4963.5,3171C 4967.32,3161.9 4968.48,3152.4 4967,3142.5C 4963.82,3135.33 4958.32,3131.16 4950.5,3130C 4945.16,3128.34 4939.82,3128.18 4934.5,3129.5C 4934.5,3108.17 4934.5,3086.83 4934.5,3065.5C 4933.5,3065.5 4932.5,3065.5 4931.5,3065.5C 4914.04,3062.66 4896.71,3059.66 4879.5,3056.5C 4880.5,3056.5 4881.5,3056.5 4882.5,3056.5C 4878.89,3037.04 4869.22,3021.21 4853.5,3009C 4845.18,3002.84 4836.51,2997.17 4827.5,2992C 4803.8,2980.99 4780.13,2969.99 4756.5,2959C 4745.92,2948.43 4736.09,2937.26 4727,2925.5C 4716.33,2910.83 4705.67,2896.17 4695,2881.5C 4694.52,2880.55 4694.35,2879.55 4694.5,2878.5C 4696.2,2877.98 4697.53,2876.98 4698.5,2875.5C 4647.44,2720.65 4596.77,2565.65 4546.5,2410.5C 4548.6,2407.07 4550.44,2403.4 4552,2399.5C 4554.98,2388.25 4557.64,2376.92 4560,2365.5C 4566.65,2315.81 4548.82,2277.81 4506.5,2251.5C 4503.46,2250.32 4500.79,2248.65 4498.5,2246.5C 4509.8,2160.71 4511.63,2074.71 4504,1988.5C 4500.19,1951.91 4490.19,1917.25 4474,1884.5C 4466.67,1870.84 4456.84,1859.34 4444.5,1850C 4431.12,1843.98 4417.12,1840.31 4402.5,1839C 4385.16,1837.29 4367.83,1837.12 4350.5,1838.5C 4335.09,1802.95 4308.09,1782.12 4269.5,1776C 4245.34,1772.09 4222.01,1774.59 4199.5,1783.5C 4201.82,1779.53 4204.16,1775.53 4206.5,1771.5C 4240.89,1747.28 4268.39,1716.95 4289,1680.5C 4298.38,1660.91 4302.38,1640.24 4301,1618.5C 4300.26,1612.84 4299.59,1607.18 4299,1601.5C 4294.25,1588.76 4290.42,1575.76 4287.5,1562.5C 4293.61,1535.29 4294.44,1507.96 4290,1480.5C 4278.43,1454.26 4260.93,1432.76 4237.5,1416C 4230,1410.75 4222.34,1405.75 4214.5,1401C 4221.06,1400.12 4227.4,1400.96 4233.5,1403.5C 4235.37,1403.52 4235.71,1403.02 4234.5,1402C 4218.35,1393.83 4201.35,1388.17 4183.5,1385C 4164.96,1357.91 4141.3,1336.58 4112.5,1321C 4082.59,1308.23 4051.59,1304.89 4019.5,1311C 3980.8,1321.02 3945.46,1338.02 3913.5,1362C 3859.05,1403.45 3812.55,1452.28 3774,1508.5C 3757.79,1539.6 3738.12,1568.27 3715,1594.5C 3677.05,1634.17 3630.55,1656 3575.5,1660C 3550.17,1660.33 3524.83,1660.67 3499.5,1661C 3447.72,1662.97 3401.72,1679.8 3361.5,1711.5C 3323,1663.78 3274,1648.28 3214.5,1665C 3178.61,1677.77 3146.28,1696.44 3117.5,1721C 3065.97,1764.61 3023.81,1815.78 2991,1874.5C 2970.99,1905.39 2944.82,1929.55 2912.5,1947C 2904.25,1950.53 2895.91,1953.86 2887.5,1957C 2877.28,1959.84 2866.95,1962.18 2856.5,1964C 2829.52,1965.19 2802.52,1965.86 2775.5,1966C 2669.39,1975.44 2606.22,2032.6 2586,2137.5C 2576.82,2192.63 2580.16,2246.96 2596,2300.5C 2599.22,2309.73 2602.88,2318.73 2607,2327.5C 2620.69,2351.72 2634.53,2375.88 2648.5,2400C 2647.94,2400.38 2647.61,2400.88 2647.5,2401.5C 2641.61,2401.48 2635.95,2402.48 2630.5,2404.5C 2585.7,2472.44 2538.2,2538.44 2488,2602.5C 2467.92,2627.92 2445.75,2651.42 2421.5,2673C 2414.44,2678.92 2406.44,2682.75 2397.5,2684.5C 2393.9,2684.45 2391.4,2682.78 2390,2679.5C 2389.56,2677.15 2389.06,2674.82 2388.5,2672.5C 2391.47,2656.1 2395.97,2640.1 2402,2624.5C 2432.69,2554.11 2467.86,2486.11 2507.5,2420.5C 2498.18,2419.33 2488.85,2419.17 2479.5,2420C 2448.63,2423.74 2418.3,2430.08 2388.5,2439C 2306.59,2464.96 2226.92,2496.46 2149.5,2533.5C 2148.67,2547.49 2148.67,2561.49 2149.5,2575.5C 2137.17,2572.17 2124.84,2568.83 2112.5,2565.5C 2112.63,2564.76 2112.46,2564.09 2112,2563.5C 2110.99,2564.34 2109.82,2564.67 2108.5,2564.5C 2072.59,2559.79 2036.59,2559.29 2000.5,2563C 1992.04,2563.9 1983.71,2565.4 1975.5,2567.5C 1938.92,2627.67 1900.08,2686.33 1859,2743.5C 1842.04,2766.21 1823.54,2787.71 1803.5,2808C 1799.19,2811.82 1794.52,2815.16 1789.5,2818C 1780.42,2821.97 1775.76,2819.14 1775.5,2809.5C 1775.84,2804.82 1776.34,2800.15 1777,2795.5C 1779.73,2784.31 1783.06,2773.31 1787,2762.5C 1805.42,2717.22 1825.75,2672.88 1848,2629.5C 1856.51,2613.8 1865.01,2598.13 1873.5,2582.5C 1855.95,2580.58 1838.61,2581.75 1821.5,2586C 1796.42,2591.77 1771.75,2599.11 1747.5,2608C 1689.08,2629.88 1632.08,2655.04 1576.5,2683.5C 1575.44,2700.49 1575.44,2717.49 1576.5,2734.5C 1576.49,2739.88 1575.83,2744.88 1574.5,2749.5C 1563.43,2745.8 1552.43,2741.8 1541.5,2737.5C 1543.39,2728.84 1544.39,2720.17 1544.5,2711.5C 1532.31,2715.55 1520.64,2720.55 1509.5,2726.5C 1490.63,2721.43 1471.63,2716.93 1452.5,2713C 1439.53,2711.02 1426.53,2710.52 1413.5,2711.5C 1425.98,2732.13 1437.65,2753.13 1448.5,2774.5C 1433.4,2788.94 1418.73,2803.6 1404.5,2818.5C 1375.28,2779.74 1347.28,2740.07 1320.5,2699.5C 1272.72,2689.81 1225.06,2690.31 1177.5,2701C 1157.21,2706.21 1138.54,2714.87 1121.5,2727C 1108.08,2737.69 1097.91,2750.85 1091,2766.5C 1080.46,2797.59 1075.62,2829.59 1076.5,2862.5C 1076.66,2864.86 1076.5,2867.19 1076,2869.5C 1047.75,2857.97 1018.58,2849.47 988.5,2844C 981.174,2843.5 973.841,2843.33 966.5,2843.5C 989.916,2888 1011.42,2933.33 1031,2979.5C 1035.29,2991.87 1038.46,3004.54 1040.5,3017.5C 1040.53,3021.13 1038.86,3023.47 1035.5,3024.5C 1032.73,3023.97 1030.06,3023.14 1027.5,3022C 1019.4,3015.9 1011.9,3009.07 1005,3001.5C 962.345,2948.35 923.845,2892.35 889.5,2833.5C 872.285,2829.37 854.785,2827.37 837,2827.5C 820.073,2827.59 803.24,2828.75 786.5,2831C 756.261,2835.2 731.094,2848.7 711,2871.5C 702.917,2882.67 697.25,2895 694,2908.5C 686.639,2937.42 684.639,2966.75 688,2996.5C 690.967,3024.27 702.467,3047.77 722.5,3067C 727.511,3071.01 733.178,3073.67 739.5,3075C 778.458,3078.15 817.458,3080.81 856.5,3083C 873.154,3084.4 889.487,3087.4 905.5,3092C 909.54,3093.17 912.54,3095.5 914.5,3099C 913.461,3104.05 910.794,3108.05 906.5,3111C 888.261,3122.42 868.594,3130.76 847.5,3136C 818.583,3143.36 789.25,3145.36 759.5,3142C 754.823,3140.83 750.156,3139.66 745.5,3138.5C 744.417,3139.36 744.251,3140.36 745,3141.5C 761.585,3183.62 783.585,3222.62 811,3258.5C 824.243,3275.18 840.076,3288.68 858.5,3299C 877.225,3307.41 896.558,3308.75 916.5,3303C 933.985,3299.26 950.652,3293.26 966.5,3285C 983.519,3274.49 1000.19,3263.49 1016.5,3252C 1043.12,3234.96 1072.12,3229.29 1103.5,3235C 1113.76,3236.31 1123.43,3239.31 1132.5,3244C 1137.92,3249.23 1137.58,3254.23 1131.5,3259C 1123.38,3263.53 1114.71,3266.53 1105.5,3268C 1078.66,3270.45 1052,3274.12 1025.5,3279C 1006.22,3282.92 988.557,3290.42 972.5,3301.5C 957.878,3314.62 943.711,3328.29 930,3342.5C 923.382,3349.34 921.048,3357.34 923,3366.5C 928.631,3374.24 936.131,3379.41 945.5,3382C 967.627,3389.03 990.294,3393.36 1013.5,3395C 1063.35,3399.5 1112.01,3394.17 1159.5,3379C 1179.62,3372.36 1197.12,3361.53 1212,3346.5C 1216.09,3341.57 1219.59,3336.24 1222.5,3330.5C 1223.36,3329.42 1224.36,3329.25 1225.5,3330C 1229.67,3334.83 1233.83,3339.67 1238,3344.5C 1260.82,3382.94 1279.82,3423.28 1295,3465.5C 1300.72,3488.14 1304.38,3511.14 1306,3534.5C 1307.35,3561.81 1307.85,3589.15 1307.5,3616.5C 1231.5,3616.5 1155.5,3616.5 1079.5,3616.5C 1079.5,3621.17 1079.5,3625.83 1079.5,3630.5C 1083.83,3630.5 1088.17,3630.5 1092.5,3630.5C 1097.21,3767.07 1151.54,3879.24 1255.5,3967C 1270.82,3978.66 1286.82,3989.33 1303.5,3999C 1249.8,3999.03 1196.14,3999.69 1142.5,4001C 1118.37,4009.05 1105.7,4025.89 1104.5,4051.5C 991.5,4051.5 878.5,4051.5 765.5,4051.5C 659.419,3787.84 591.919,3514.51 563,3231.5C 548.592,3080.93 550.592,2930.6 569,2780.5C 587.348,2642.23 625.682,2510.23 684,2384.5C 752.695,2241.11 847.862,2117.94 969.5,2015C 984.682,2002.58 1000.01,1990.42 1015.5,1978.5C 1015.5,2097.5 1015.5,2216.5 1015.5,2335.5C 1321.83,2335.5 1628.17,2335.5 1934.5,2335.5C 1934.5,2093.83 1934.5,1852.17 1934.5,1610.5C 1970.49,1604.56 2006.49,1598.73 2042.5,1593C 2078.51,1588 2114.51,1583 2150.5,1578C 2318.22,1558.22 2485.89,1538.22 2653.5,1518C 2795.56,1500.47 2936.56,1476.8 3076.5,1447C 3247.72,1409.92 3413.72,1357.26 3574.5,1289C 3678.08,1243.55 3777.41,1190.89 3872.5,1131C 3980.06,1057.71 4094.06,995.542 4214.5,944.5C 4214.5,1015.5 4214.5,1086.5 4214.5,1157.5C 4443.17,1157.5 4671.83,1157.5 4900.5,1157.5C 4900.5,1043.5 4900.5,929.5 4900.5,815.5C 4898.9,815.768 4897.57,815.434 4896.5,814.5 Z"/></g>
<g><path style="opacity:1" fill="#bbd7fe" d="M 5150.5,843.5 C 5224.97,858.279 5297.63,878.946 5368.5,905.5C 5368.5,1102.5 5368.5,1299.5 5368.5,1496.5C 5369.79,1496.26 5370.79,1496.6 5371.5,1497.5C 5370.5,1497.5 5369.5,1497.5 5368.5,1497.5C 5368.5,2090.5 5368.5,2683.5 5368.5,3276.5C 5364.38,3263.37 5360.55,3250.04 5357,3236.5C 5354.29,3230.08 5351.29,3223.74 5348,3217.5C 5336.72,3201.95 5324.72,3186.95 5312,3172.5C 5308.91,3168.32 5306.91,3163.65 5306,3158.5C 5302.78,3140.97 5301.45,3123.3 5302,3105.5C 5309.25,3099.34 5314.25,3091.67 5317,3082.5C 5317.21,3085.33 5317.38,3088 5317.5,3090.5C 5322.87,3085.62 5326.37,3079.62 5328,3072.5C 5328.39,3066.14 5329.06,3059.8 5330,3053.5C 5331.56,3055.96 5332.56,3058.62 5333,3061.5C 5336.79,3032.79 5330.29,3006.63 5313.5,2983C 5314.64,2977.92 5314.8,2972.75 5314,2967.5C 5309.9,2933.69 5300.06,2901.69 5284.5,2871.5C 5281.8,2873.22 5279.13,2874.89 5276.5,2876.5C 5274.12,2870.48 5271.79,2864.48 5269.5,2858.5C 5247.01,2872.12 5230.01,2890.79 5218.5,2914.5C 5194.42,2915.87 5174.09,2925.37 5157.5,2943C 5154.97,2944.77 5152.3,2946.27 5149.5,2947.5C 5149.17,2246 5149.5,1544.67 5150.5,843.5 Z"/></g>
<g><path style="opacity:1" fill="#a0c1f4" d="M 5368.5,905.5 C 5510.58,956.528 5638.25,1031.7 5751.5,1131C 5790.24,1166.07 5825.74,1203.9 5858,1244.5C 5871.83,1262.16 5884.66,1280.5 5896.5,1299.5C 5896.53,1300.5 5896.03,1301.16 5895,1301.5C 5851.24,1314.8 5810.74,1334.63 5773.5,1361C 5761.56,1370.93 5750.23,1381.6 5739.5,1393C 5706.57,1420.91 5669.91,1442.58 5629.5,1458C 5572.12,1479.34 5512.78,1492.01 5451.5,1496C 5424.85,1497.33 5398.19,1497.83 5371.5,1497.5C 5370.79,1496.6 5369.79,1496.26 5368.5,1496.5C 5368.5,1299.5 5368.5,1102.5 5368.5,905.5 Z"/></g>
<g><path style="opacity:1" fill="#e9f2f9" d="M 5896.5,1299.5 C 5950.49,1379.63 5982.66,1467.96 5993,1564.5C 5998.58,1689.01 6011.58,1812.68 6032,1935.5C 6049.69,2039.61 6077.36,2140.94 6115,2239.5C 6148.14,2322.81 6192.81,2399.15 6249,2468.5C 6332.64,2566.6 6436.14,2635.1 6559.5,2674C 6606.41,2688.11 6654.07,2698.78 6702.5,2706C 6748.22,2710.24 6793.88,2714.91 6839.5,2720C 6963.37,2740.29 7074.04,2789.29 7171.5,2867C 7278.05,2955.18 7359.88,3062.01 7417,3187.5C 7510.92,3397 7532.58,3614 7482,3838.5C 7479.11,3852.06 7475.61,3865.39 7471.5,3878.5C 7403.17,3876.5 7334.51,3875.84 7265.5,3876.5C 7265.5,3875.5 7265.5,3874.5 7265.5,3873.5C 7279.48,3781.6 7289.98,3689.27 7297,3596.5C 7301.91,3527.46 7301.57,3458.46 7296,3389.5C 7292.74,3359.18 7286.4,3329.51 7277,3300.5C 7270.19,3281.03 7259.02,3264.53 7243.5,3251C 7221.19,3235.41 7199.19,3235.75 7177.5,3252C 7163.45,3268.95 7154.95,3288.45 7152,3310.5C 7147.77,3344.03 7146.44,3377.69 7148,3411.5C 7149.62,3440.57 7151.95,3469.57 7155,3498.5C 7165.81,3581.21 7180.48,3663.21 7199,3744.5C 7209.34,3788.18 7219.84,3831.85 7230.5,3875.5C 7211.67,3876.5 7192.67,3876.83 7173.5,3876.5C 7121.28,3788.41 7061.44,3705.74 6994,3628.5C 6967.78,3599.59 6938.62,3574.43 6906.5,3553C 6888.67,3541.22 6869,3534.72 6847.5,3533.5C 6838.45,3533.21 6830.12,3535.37 6822.5,3540C 6817.28,3544.29 6815.28,3549.79 6816.5,3556.5C 6817.48,3567.93 6820.98,3578.6 6827,3588.5C 6834.61,3600.44 6842.61,3612.11 6851,3623.5C 6882.33,3660.51 6915.5,3696.01 6950.5,3730C 7004.17,3780.18 7058.84,3829.02 7114.5,3876.5C 6633.17,3876.5 6151.83,3876.5 5670.5,3876.5C 5674.84,3851.26 5678.01,3825.93 5680,3800.5C 5677.83,3795 5674.83,3790 5671,3785.5C 5658.26,3772.76 5646.26,3759.43 5635,3745.5C 5626.21,3734.64 5622.21,3722.31 5623,3708.5C 5624.22,3704.38 5626.22,3700.72 5629,3697.5C 5633.8,3677.38 5634.8,3657.05 5632,3636.5C 5630.55,3624.55 5628.05,3612.89 5624.5,3601.5C 5662.16,3586.34 5697.83,3567.5 5731.5,3545C 5750.7,3530.84 5767.53,3514.34 5782,3495.5C 5799.45,3469.28 5802.45,3441.61 5791,3412.5C 5777.88,3390.27 5767.54,3366.93 5760,3342.5C 5758.01,3332.58 5757.34,3322.58 5758,3312.5C 5759.68,3303.3 5763.85,3295.46 5770.5,3289C 5794.19,3275.64 5802.02,3255.8 5794,3229.5C 5788.5,3216 5778.66,3207.5 5764.5,3204C 5747.61,3200.67 5731.27,3202.34 5715.5,3209C 5669.83,3233.95 5653.67,3271.78 5667,3322.5C 5672.31,3341.76 5679.98,3360.09 5690,3377.5C 5711.03,3426.56 5701.53,3468.73 5661.5,3504C 5641.38,3520.74 5619.04,3533.9 5594.5,3543.5C 5570.72,3508.87 5543.39,3477.03 5512.5,3448C 5492.17,3430.33 5471.83,3412.67 5451.5,3395C 5426.63,3372.48 5405.13,3347.31 5387,3319.5C 5379.13,3305.78 5372.97,3291.45 5368.5,3276.5C 5368.5,2683.5 5368.5,2090.5 5368.5,1497.5C 5369.5,1497.5 5370.5,1497.5 5371.5,1497.5C 5398.19,1497.83 5424.85,1497.33 5451.5,1496C 5512.78,1492.01 5572.12,1479.34 5629.5,1458C 5669.91,1442.58 5706.57,1420.91 5739.5,1393C 5750.23,1381.6 5761.56,1370.93 5773.5,1361C 5810.74,1334.63 5851.24,1314.8 5895,1301.5C 5896.03,1301.16 5896.53,1300.5 5896.5,1299.5 Z"/></g>
<g><path style="opacity:1" fill="#b6453d" d="M 4199.5,1783.5 C 4198.17,1783.83 4196.83,1784.17 4195.5,1784.5C 4198.29,1780.54 4201.29,1776.71 4204.5,1773C 4200.66,1769.16 4199,1764.49 4199.5,1759C 4199.74,1751.98 4200.91,1745.15 4203,1738.5C 4210.85,1716.48 4219.52,1694.81 4229,1673.5C 4236.55,1653.42 4238.89,1632.76 4236,1611.5C 4234.7,1598.51 4232.2,1585.84 4228.5,1573.5C 4188.81,1599.02 4146.48,1618.52 4101.5,1632C 4089.2,1634.59 4076.87,1636.93 4064.5,1639C 4045.92,1640.61 4027.58,1639.28 4009.5,1635C 3987.18,1627.73 3965.85,1618.23 3945.5,1606.5C 3932.24,1626.03 3919.74,1646.03 3908,1666.5C 3903.13,1679.35 3900.3,1692.68 3899.5,1706.5C 3890,1722.17 3880,1737.51 3869.5,1752.5C 3866.87,1743.94 3861.2,1741.1 3852.5,1744C 3838.82,1751.94 3826.98,1762.1 3817,1774.5C 3806.83,1787.33 3796.67,1800.17 3786.5,1813C 3779.34,1818.58 3771.34,1822.58 3762.5,1825C 3750.53,1826.47 3738.53,1826.81 3726.5,1826C 3699.46,1820.03 3672.13,1818.03 3644.5,1820C 3624.2,1822.98 3606.2,1830.98 3590.5,1844C 3556.4,1876.36 3530.9,1914.53 3514,1958.5C 3493.74,2010.85 3479.08,2064.85 3470,2120.5C 3458.92,2188.83 3450.75,2257.49 3445.5,2326.5C 3397.99,2258.2 3355.49,2186.53 3318,2111.5C 3302.59,2077.52 3292.92,2041.86 3289,2004.5C 3280.58,1947.59 3281.91,1890.92 3293,1834.5C 3303.35,1786.46 3326.18,1745.46 3361.5,1711.5C 3401.72,1679.8 3447.72,1662.97 3499.5,1661C 3524.83,1660.67 3550.17,1660.33 3575.5,1660C 3630.55,1656 3677.05,1634.17 3715,1594.5C 3738.12,1568.27 3757.79,1539.6 3774,1508.5C 3812.55,1452.28 3859.05,1403.45 3913.5,1362C 3945.46,1338.02 3980.8,1321.02 4019.5,1311C 4051.59,1304.89 4082.59,1308.23 4112.5,1321C 4141.3,1336.58 4164.96,1357.91 4183.5,1385C 4201.35,1388.17 4218.35,1393.83 4234.5,1402C 4235.71,1403.02 4235.37,1403.52 4233.5,1403.5C 4227.4,1400.96 4221.06,1400.12 4214.5,1401C 4222.34,1405.75 4230,1410.75 4237.5,1416C 4260.93,1432.76 4278.43,1454.26 4290,1480.5C 4294.44,1507.96 4293.61,1535.29 4287.5,1562.5C 4290.42,1575.76 4294.25,1588.76 4299,1601.5C 4299.59,1607.18 4300.26,1612.84 4301,1618.5C 4302.38,1640.24 4298.38,1660.91 4289,1680.5C 4268.39,1716.95 4240.89,1747.28 4206.5,1771.5C 4204.16,1775.53 4201.82,1779.53 4199.5,1783.5 Z"/></g>
<g><path style="opacity:1" fill="#feb17d" d="M 4195.5,1784.5 C 4171.12,1796.06 4148.12,1809.89 4126.5,1826C 4098.14,1848.18 4071.14,1872.02 4045.5,1897.5C 4040.58,1896.92 4035.91,1895.42 4031.5,1893C 4025.62,1888.28 4019.62,1883.78 4013.5,1879.5C 3978.39,1853.22 3948.56,1821.89 3924,1785.5C 3908.73,1761.51 3900.56,1735.18 3899.5,1706.5C 3900.3,1692.68 3903.13,1679.35 3908,1666.5C 3919.74,1646.03 3932.24,1626.03 3945.5,1606.5C 3965.85,1618.23 3987.18,1627.73 4009.5,1635C 4027.58,1639.28 4045.92,1640.61 4064.5,1639C 4076.87,1636.93 4089.2,1634.59 4101.5,1632C 4146.48,1618.52 4188.81,1599.02 4228.5,1573.5C 4232.2,1585.84 4234.7,1598.51 4236,1611.5C 4238.89,1632.76 4236.55,1653.42 4229,1673.5C 4219.52,1694.81 4210.85,1716.48 4203,1738.5C 4200.91,1745.15 4199.74,1751.98 4199.5,1759C 4199,1764.49 4200.66,1769.16 4204.5,1773C 4201.29,1776.71 4198.29,1780.54 4195.5,1784.5 Z"/></g>
<g><path style="opacity:1" fill="#bcd7fe" d="M 1934.5,1610.5 C 1934.5,1852.17 1934.5,2093.83 1934.5,2335.5C 1628.17,2335.5 1321.83,2335.5 1015.5,2335.5C 1015.5,2216.5 1015.5,2097.5 1015.5,1978.5C 1024.8,1971.51 1034.13,1964.51 1043.5,1957.5C 1044.17,2073.57 1044.83,2189.74 1045.5,2306C 1332.17,2306.5 1618.83,2306.67 1905.5,2306.5C 1905.5,2076.17 1905.5,1845.83 1905.5,1615.5C 1915.18,1613.75 1924.84,1612.08 1934.5,1610.5 Z"/></g>
<g><path style="opacity:1" fill="#d2e3fe" d="M 1905.5,1615.5 C 1905.5,1845.83 1905.5,2076.17 1905.5,2306.5C 1618.83,2306.67 1332.17,2306.5 1045.5,2306C 1044.83,2189.74 1044.17,2073.57 1043.5,1957.5C 1052.86,1950.14 1062.53,1943.14 1072.5,1936.5C 1072.5,2049.83 1072.5,2163.17 1072.5,2276.5C 1340.17,2276.5 1607.83,2276.5 1875.5,2276.5C 1875.83,2058 1875.5,1839.67 1874.5,1621.5C 1884.73,1619.55 1895.06,1617.55 1905.5,1615.5 Z"/></g>
<g><path style="opacity:1" fill="#bcd8fe" d="M 1874.5,1621.5 C 1875.5,1839.67 1875.83,2058 1875.5,2276.5C 1607.83,2276.5 1340.17,2276.5 1072.5,2276.5C 1072.5,2163.17 1072.5,2049.83 1072.5,1936.5C 1181.74,1859.53 1298.74,1796.36 1423.5,1747C 1569.63,1690.71 1719.96,1648.88 1874.5,1621.5 Z"/></g>
<g><path style="opacity:1" fill="#d2e4fe" d="M 5640.5,1643.5 C 5641.38,1643.37 5642.04,1643.7 5642.5,1644.5C 5640.34,1657.43 5638.51,1670.43 5637,1683.5C 5635.76,1692.15 5633.42,1700.48 5630,1708.5C 5621.27,1721.52 5609.77,1725.02 5595.5,1719C 5584.26,1707.03 5583.76,1694.53 5594,1681.5C 5598.04,1677.29 5602.21,1673.29 5606.5,1669.5C 5617.9,1660.81 5629.24,1652.15 5640.5,1643.5 Z"/></g>
<g><path style="opacity:1" fill="#c2d9fb" d="M 3361.5,1711.5 C 3326.18,1745.46 3303.35,1786.46 3293,1834.5C 3281.91,1890.92 3280.58,1947.59 3289,2004.5C 3292.92,2041.86 3302.59,2077.52 3318,2111.5C 3355.49,2186.53 3397.99,2258.2 3445.5,2326.5C 3442.51,2371.05 3437.68,2415.38 3431,2459.5C 3429.03,2475.09 3423.36,2489.09 3414,2501.5C 3370.15,2576.17 3339.48,2656.17 3322,2741.5C 3314.05,2784.12 3313.71,2826.78 3321,2869.5C 3324.24,2882.91 3328.4,2895.91 3333.5,2908.5C 3326.43,2923.65 3319.09,2938.65 3311.5,2953.5C 3286.33,2957.09 3262.33,2964.26 3239.5,2975C 3190.52,2998.3 3145.85,3027.8 3105.5,3063.5C 3104.19,3064.48 3102.85,3065.48 3101.5,3066.5C 3100.5,3394.83 3100.17,3723.17 3100.5,4051.5C 2902.83,4051.5 2705.17,4051.5 2507.5,4051.5C 2505.74,4024.79 2492.4,4006.63 2467.5,3997C 2464.77,3996.59 2462.1,3995.92 2459.5,3995C 2449.17,3994.5 2438.84,3994.33 2428.5,3994.5C 2428.83,3949.33 2428.5,3904.33 2427.5,3859.5C 2488.16,3778.19 2520.5,3686.53 2524.5,3584.5C 2528.44,3584.79 2532.27,3584.46 2536,3583.5C 2536.5,3578.85 2536.67,3574.18 2536.5,3569.5C 2366,3569.83 2195.67,3569.5 2025.5,3568.5C 2159.83,3568.5 2294.17,3568.5 2428.5,3568.5C 2428.5,3565.17 2428.5,3561.83 2428.5,3558.5C 2448.73,3556.74 2454.56,3546.41 2446,3527.5C 2440.08,3515.98 2433.91,3504.65 2427.5,3493.5C 2428.49,3483.68 2428.83,3473.68 2428.5,3463.5C 2448.33,3485.42 2472,3501.92 2499.5,3513C 2519.46,3517.09 2539.13,3516.09 2558.5,3510C 2583.66,3500.09 2607,3487.09 2628.5,3471C 2650.21,3454.13 2670.54,3435.63 2689.5,3415.5C 2672.53,3413.67 2656.19,3409.5 2640.5,3403C 2606.08,3388.37 2575.58,3367.87 2549,3341.5C 2545.61,3337.1 2542.61,3332.44 2540,3327.5C 2539.23,3324.9 2539.4,3322.4 2540.5,3320C 2551.86,3318.1 2563.19,3318.43 2574.5,3321C 2615.79,3331.86 2656.79,3343.86 2697.5,3357C 2713.32,3363.27 2728.99,3362.94 2744.5,3356C 2767.69,3342.48 2784.52,3323.31 2795,3298.5C 2808.12,3267.44 2813.12,3235.11 2810,3201.5C 2804.25,3180.84 2793.09,3163.68 2776.5,3150C 2755.04,3133.1 2731.37,3120.1 2705.5,3111C 2687.74,3105.23 2669.74,3100.39 2651.5,3096.5C 2624.11,3115.88 2596.45,3134.88 2568.5,3153.5C 2557.18,3142.18 2545.52,3131.18 2533.5,3120.5C 2555.66,3108.47 2579,3099.8 2603.5,3094.5C 2636.05,3100.23 2666.38,3094.39 2694.5,3077C 2721.05,3060.13 2744.22,3039.29 2764,3014.5C 2802.71,2964.79 2834.54,2910.79 2859.5,2852.5C 2858.83,2852.17 2858.17,2851.83 2857.5,2851.5C 2844.11,2855.51 2830.45,2858.01 2816.5,2859C 2764.28,2861.08 2713.28,2854.41 2663.5,2839C 2655.5,2836.62 2647.83,2833.78 2640.5,2830.5C 2642.34,2829.88 2643.5,2828.54 2644,2826.5C 2650.27,2808.62 2657.11,2790.95 2664.5,2773.5C 2663.68,2772.61 2662.68,2772.28 2661.5,2772.5C 2681.62,2770.05 2701.96,2768.21 2722.5,2767C 2771.22,2764.73 2819.89,2761.73 2868.5,2758C 2887.14,2753.02 2902.31,2742.86 2914,2727.5C 2937.25,2695.43 2949.58,2659.43 2951,2619.5C 2952.33,2577.79 2946.66,2537.12 2934,2497.5C 2919.75,2464.59 2896.59,2440.09 2864.5,2424C 2830.12,2408.74 2794.12,2400.07 2756.5,2398C 2720.02,2395.21 2683.69,2396.38 2647.5,2401.5C 2647.61,2400.88 2647.94,2400.38 2648.5,2400C 2634.53,2375.88 2620.69,2351.72 2607,2327.5C 2602.88,2318.73 2599.22,2309.73 2596,2300.5C 2580.16,2246.96 2576.82,2192.63 2586,2137.5C 2606.22,2032.6 2669.39,1975.44 2775.5,1966C 2802.52,1965.86 2829.52,1965.19 2856.5,1964C 2866.95,1962.18 2877.28,1959.84 2887.5,1957C 2895.91,1953.86 2904.25,1950.53 2912.5,1947C 2944.82,1929.55 2970.99,1905.39 2991,1874.5C 3023.81,1815.78 3065.97,1764.61 3117.5,1721C 3146.28,1696.44 3178.61,1677.77 3214.5,1665C 3274,1648.28 3323,1663.78 3361.5,1711.5 Z"/></g>
<g><path style="opacity:1" fill="#f3a169" d="M 3899.5,1706.5 C 3900.56,1735.18 3908.73,1761.51 3924,1785.5C 3948.56,1821.89 3978.39,1853.22 4013.5,1879.5C 4010.16,1881.53 4007.83,1884.53 4006.5,1888.5C 4007.24,1889.18 4007.91,1889.85 4008.5,1890.5C 4001.26,1889.05 3994.59,1886.21 3988.5,1882C 3946.23,1849.73 3909.39,1812.23 3878,1769.5C 3874.61,1764.05 3871.78,1758.39 3869.5,1752.5C 3880,1737.51 3890,1722.17 3899.5,1706.5 Z"/></g>
<g><path style="opacity:1" fill="#f99646" d="M 3869.5,1752.5 C 3871.78,1758.39 3874.61,1764.05 3878,1769.5C 3909.39,1812.23 3946.23,1849.73 3988.5,1882C 3994.59,1886.21 4001.26,1889.05 4008.5,1890.5C 4017.01,1890.79 4025.01,1892.96 4032.5,1897C 4036.26,1899.76 4037.26,1903.26 4035.5,1907.5C 4033.5,1910.17 4031.17,1912.5 4028.5,1914.5C 4002.42,1912.52 3976.76,1908.02 3951.5,1901C 3918.09,1890.98 3885.43,1878.98 3853.5,1865C 3841.43,1859.17 3829.43,1859.17 3817.5,1865C 3812.59,1868.08 3808.92,1872.24 3806.5,1877.5C 3861.12,1910.3 3913.46,1946.3 3963.5,1985.5C 3998.56,2014.39 4033.23,2043.89 4067.5,2074C 4086.14,2092.31 4104.47,2110.97 4122.5,2130C 4130.67,2137.25 4139.67,2143.25 4149.5,2148C 4169.93,2151.78 4189.93,2157.11 4209.5,2164C 4215.96,2167.06 4222.29,2170.4 4228.5,2174C 4231.09,2176.09 4233.09,2178.59 4234.5,2181.5C 4234.52,2185.56 4234.02,2189.56 4233,2193.5C 4219.01,2233.82 4200.51,2271.82 4177.5,2307.5C 4162.59,2329.59 4145.26,2349.75 4125.5,2368C 4110.72,2380.75 4093.72,2389.09 4074.5,2393C 4066.5,2393.67 4058.5,2393.67 4050.5,2393C 4034.57,2389.24 4019.23,2383.91 4004.5,2377C 3953.59,2351.89 3904.93,2323.22 3858.5,2291C 3830.06,2271.05 3802.06,2250.55 3774.5,2229.5C 3720.97,2188.39 3670.47,2143.39 3623,2094.5C 3614.57,2084.64 3605.9,2074.98 3597,2065.5C 3584.46,2165.83 3581.13,2266.5 3587,2367.5C 3590.41,2405.51 3595.91,2443.18 3603.5,2480.5C 3534.27,2588.6 3465.77,2697.27 3398,2806.5C 3388.78,2821.06 3378.78,2835.06 3368,2848.5C 3344.47,2886.94 3346.31,2923.94 3373.5,2959.5C 3371.11,2958.99 3368.77,2958.32 3366.5,2957.5C 3352.76,2943.03 3341.76,2926.7 3333.5,2908.5C 3328.4,2895.91 3324.24,2882.91 3321,2869.5C 3313.71,2826.78 3314.05,2784.12 3322,2741.5C 3339.48,2656.17 3370.15,2576.17 3414,2501.5C 3423.36,2489.09 3429.03,2475.09 3431,2459.5C 3437.68,2415.38 3442.51,2371.05 3445.5,2326.5C 3450.75,2257.49 3458.92,2188.83 3470,2120.5C 3479.08,2064.85 3493.74,2010.85 3514,1958.5C 3530.9,1914.53 3556.4,1876.36 3590.5,1844C 3606.2,1830.98 3624.2,1822.98 3644.5,1820C 3672.13,1818.03 3699.46,1820.03 3726.5,1826C 3738.53,1826.81 3750.53,1826.47 3762.5,1825C 3771.34,1822.58 3779.34,1818.58 3786.5,1813C 3796.67,1800.17 3806.83,1787.33 3817,1774.5C 3826.98,1762.1 3838.82,1751.94 3852.5,1744C 3861.2,1741.1 3866.87,1743.94 3869.5,1752.5 Z"/></g>
<g><path style="opacity:1" fill="#1d4589" d="M 4350.5,1838.5 C 4371.1,1891.71 4390.6,1945.38 4409,1999.5C 4435.68,2080.38 4462.85,2161.05 4490.5,2241.5C 4490.38,2242.11 4490.04,2242.44 4489.5,2242.5C 4460.86,2233.26 4431.86,2225.09 4402.5,2218C 4349.98,2206.63 4297.31,2195.63 4244.5,2185C 4241.07,2184.02 4237.74,2182.85 4234.5,2181.5C 4233.09,2178.59 4231.09,2176.09 4228.5,2174C 4222.29,2170.4 4215.96,2167.06 4209.5,2164C 4189.93,2157.11 4169.93,2151.78 4149.5,2148C 4139.67,2143.25 4130.67,2137.25 4122.5,2130C 4104.47,2110.97 4086.14,2092.31 4067.5,2074C 4033.23,2043.89 3998.56,2014.39 3963.5,1985.5C 3984.77,1961.56 4006.44,1937.89 4028.5,1914.5C 4031.17,1912.5 4033.5,1910.17 4035.5,1907.5C 4039.17,1904.5 4042.5,1901.17 4045.5,1897.5C 4071.14,1872.02 4098.14,1848.18 4126.5,1826C 4148.12,1809.89 4171.12,1796.06 4195.5,1784.5C 4196.83,1784.17 4198.17,1783.83 4199.5,1783.5C 4222.01,1774.59 4245.34,1772.09 4269.5,1776C 4308.09,1782.12 4335.09,1802.95 4350.5,1838.5 Z"/></g>
<g><path style="opacity:1" fill="#163561" d="M 4498.5,2246.5 C 4495.09,2245.93 4492.09,2244.59 4489.5,2242.5C 4490.04,2242.44 4490.38,2242.11 4490.5,2241.5C 4462.85,2161.05 4435.68,2080.38 4409,1999.5C 4390.6,1945.38 4371.1,1891.71 4350.5,1838.5C 4367.83,1837.12 4385.16,1837.29 4402.5,1839C 4417.12,1840.31 4431.12,1843.98 4444.5,1850C 4456.84,1859.34 4466.67,1870.84 4474,1884.5C 4490.19,1917.25 4500.19,1951.91 4504,1988.5C 4511.63,2074.71 4509.8,2160.71 4498.5,2246.5 Z"/></g>
<g><path style="opacity:1" fill="#ec7d2b" d="M 4028.5,1914.5 C 4006.44,1937.89 3984.77,1961.56 3963.5,1985.5C 3913.46,1946.3 3861.12,1910.3 3806.5,1877.5C 3808.92,1872.24 3812.59,1868.08 3817.5,1865C 3829.43,1859.17 3841.43,1859.17 3853.5,1865C 3885.43,1878.98 3918.09,1890.98 3951.5,1901C 3976.76,1908.02 4002.42,1912.52 4028.5,1914.5 Z"/></g>
<g><path style="opacity:1" fill="#b5473c" d="M 4013.5,1879.5 C 4019.62,1883.78 4025.62,1888.28 4031.5,1893C 4035.91,1895.42 4040.58,1896.92 4045.5,1897.5C 4042.5,1901.17 4039.17,1904.5 4035.5,1907.5C 4037.26,1903.26 4036.26,1899.76 4032.5,1897C 4025.01,1892.96 4017.01,1890.79 4008.5,1890.5C 4007.91,1889.85 4007.24,1889.18 4006.5,1888.5C 4007.83,1884.53 4010.16,1881.53 4013.5,1879.5 Z"/></g>
<g><path style="opacity:1" fill="#d2e4fe" d="M 5836.5,1942.5 C 5837.59,1942.62 5838.25,1943.29 5838.5,1944.5C 5836.67,1958.48 5834.84,1972.48 5833,1986.5C 5831.28,1994.04 5828.95,2001.38 5826,2008.5C 5817.78,2020.19 5806.95,2023.69 5793.5,2019C 5784.78,2011.53 5781.95,2002.03 5785,1990.5C 5788.95,1982.53 5794.45,1975.7 5801.5,1970C 5813.35,1960.97 5825.02,1951.8 5836.5,1942.5 Z"/></g>
<g><path style="opacity:1" fill="#ec7d2b" d="M 3774.5,2229.5 C 3716.25,2312.34 3659.25,2396 3603.5,2480.5C 3595.91,2443.18 3590.41,2405.51 3587,2367.5C 3581.13,2266.5 3584.46,2165.83 3597,2065.5C 3605.9,2074.98 3614.57,2084.64 3623,2094.5C 3670.47,2143.39 3720.97,2188.39 3774.5,2229.5 Z"/></g>
<g><path style="opacity:1" fill="#ec975f" d="M 4234.5,2181.5 C 4237.74,2182.85 4241.07,2184.02 4244.5,2185C 4297.31,2195.63 4349.98,2206.63 4402.5,2218C 4431.86,2225.09 4460.86,2233.26 4489.5,2242.5C 4492.09,2244.59 4495.09,2245.93 4498.5,2246.5C 4500.79,2248.65 4503.46,2250.32 4506.5,2251.5C 4519.97,2269.9 4524.8,2290.57 4521,2313.5C 4519.25,2315.25 4517.08,2315.92 4514.5,2315.5C 4402.07,2316.32 4289.74,2313.66 4177.5,2307.5C 4200.51,2271.82 4219.01,2233.82 4233,2193.5C 4234.02,2189.56 4234.52,2185.56 4234.5,2181.5 Z"/></g>
<g><path style="opacity:1" fill="#1d4589" d="M 3774.5,2229.5 C 3802.06,2250.55 3830.06,2271.05 3858.5,2291C 3904.93,2323.22 3953.59,2351.89 4004.5,2377C 4019.23,2383.91 4034.57,2389.24 4050.5,2393C 4058.5,2393.67 4066.5,2393.67 4074.5,2393C 4093.72,2389.09 4110.72,2380.75 4125.5,2368C 4145.26,2349.75 4162.59,2329.59 4177.5,2307.5C 4289.74,2313.66 4402.07,2316.32 4514.5,2315.5C 4525.01,2347.17 4535.67,2378.84 4546.5,2410.5C 4596.77,2565.65 4647.44,2720.65 4698.5,2875.5C 4697.53,2876.98 4696.2,2877.98 4694.5,2878.5C 4671.4,2894.88 4646.73,2908.38 4620.5,2919C 4602.25,2926.48 4583.25,2929.64 4563.5,2928.5C 4552.58,2926.79 4543.42,2921.79 4536,2913.5C 4491.78,2844.79 4448.62,2775.46 4406.5,2705.5C 4352.51,2615.45 4302.34,2523.12 4256,2428.5C 4244.94,2404.67 4234.28,2380.67 4224,2356.5C 4137.44,2536.64 4040.77,2710.97 3934,2879.5C 3915.29,2909 3893.13,2935.84 3867.5,2960C 3848.18,2976.66 3827.18,2990.83 3804.5,3002.5C 3751.89,3004.52 3699.22,3005.02 3646.5,3004C 3581.28,3002.61 3516.61,2995.94 3452.5,2984C 3425.17,2978.75 3398.83,2970.59 3373.5,2959.5C 3346.31,2923.94 3344.47,2886.94 3368,2848.5C 3378.78,2835.06 3388.78,2821.06 3398,2806.5C 3465.77,2697.27 3534.27,2588.6 3603.5,2480.5C 3659.25,2396 3716.25,2312.34 3774.5,2229.5 Z"/></g>
<g><path style="opacity:1" fill="#d2e4fe" d="M 5557.5,2255.5 C 5558.75,2256.33 5559.41,2257.67 5559.5,2259.5C 5557.82,2276.28 5555.32,2292.95 5552,2309.5C 5546.69,2327.56 5534.86,2335.06 5516.5,2332C 5507.55,2325.83 5504.05,2317.33 5506,2306.5C 5506.48,2302.53 5507.82,2298.87 5510,2295.5C 5514.5,2289.67 5519.67,2284.5 5525.5,2280C 5536.35,2271.97 5547.02,2263.8 5557.5,2255.5 Z"/></g>
<g><path style="opacity:1" fill="#feb17e" d="M 4506.5,2251.5 C 4548.82,2277.81 4566.65,2315.81 4560,2365.5C 4557.64,2376.92 4554.98,2388.25 4552,2399.5C 4550.44,2403.4 4548.6,2407.07 4546.5,2410.5C 4535.67,2378.84 4525.01,2347.17 4514.5,2315.5C 4517.08,2315.92 4519.25,2315.25 4521,2313.5C 4524.8,2290.57 4519.97,2269.9 4506.5,2251.5 Z"/></g>
<g><path style="opacity:1" fill="#163561" d="M 4406.5,2705.5 C 4387.23,2777.05 4367.07,2848.38 4346,2919.5C 4343.96,2923.13 4340.79,2924.46 4336.5,2923.5C 4302.07,2926.73 4267.74,2925.9 4233.5,2921C 4215.38,2918.7 4199.38,2911.86 4185.5,2900.5C 4176.41,2892.48 4171.74,2882.31 4171.5,2870C 4173.07,2803.53 4173.9,2737.03 4174,2670.5C 4140.79,2739.27 4105.79,2806.93 4069,2873.5C 4043.45,2915.38 4009.62,2948.88 3967.5,2974C 3956.9,2980.13 3946.23,2985.96 3935.5,2991.5C 3892.08,2997.7 3848.41,3001.37 3804.5,3002.5C 3827.18,2990.83 3848.18,2976.66 3867.5,2960C 3893.13,2935.84 3915.29,2909 3934,2879.5C 4040.77,2710.97 4137.44,2536.64 4224,2356.5C 4234.28,2380.67 4244.94,2404.67 4256,2428.5C 4302.34,2523.12 4352.51,2615.45 4406.5,2705.5 Z"/></g>
<g><path style="opacity:1" fill="#d2e4fe" d="M 5857.5,2393.5 C 5857.2,2408.61 5854.7,2423.61 5850,2438.5C 5843.4,2446.96 5835.23,2448.79 5825.5,2444C 5820.74,2436.87 5820.24,2429.37 5824,2421.5C 5834.41,2411.08 5845.57,2401.74 5857.5,2393.5 Z"/></g>
<g><path style="opacity:1" fill="#9fc1f4" d="M 2661.5,2772.5 C 2645.06,2774.21 2628.73,2776.71 2612.5,2780C 2603.74,2781.63 2596.24,2785.46 2590,2791.5C 2589.33,2793.83 2589.33,2796.17 2590,2798.5C 2592.05,2801.42 2594.21,2804.26 2596.5,2807C 2609.93,2817.22 2624.6,2825.05 2640.5,2830.5C 2647.83,2833.78 2655.5,2836.62 2663.5,2839C 2713.28,2854.41 2764.28,2861.08 2816.5,2859C 2830.45,2858.01 2844.11,2855.51 2857.5,2851.5C 2858.17,2851.83 2858.83,2852.17 2859.5,2852.5C 2834.54,2910.79 2802.71,2964.79 2764,3014.5C 2744.22,3039.29 2721.05,3060.13 2694.5,3077C 2666.38,3094.39 2636.05,3100.23 2603.5,3094.5C 2590.04,3092.48 2576.71,3089.82 2563.5,3086.5C 2543.16,3080.52 2523.5,3073.18 2504.5,3064.5C 2478.21,3048.8 2451.54,3032.64 2424.5,3016C 2391.67,2996.7 2356.17,2988.2 2318,2990.5C 2301.32,2990.73 2284.82,2992.56 2268.5,2996C 2256.3,2997.94 2245.8,3003.11 2237,3011.5C 2235.63,3013.7 2235.29,3016.03 2236,3018.5C 2240,3024.83 2245.5,3029.33 2252.5,3032C 2261.68,3035.29 2271.01,3037.96 2280.5,3040C 2312.41,3044.32 2344.41,3047.99 2376.5,3051C 2394.98,3053.91 2413.32,3057.58 2431.5,3062C 2447.01,3062.17 2462.34,3062.67 2477.5,3063.5C 2464.5,3063.33 2451.5,3063.5 2438.5,3064C 2455.72,3068.52 2472.06,3075.18 2487.5,3084C 2501.68,3094.69 2515.68,3105.52 2529.5,3116.5C 2530.33,3118.26 2531.66,3119.6 2533.5,3120.5C 2545.52,3131.18 2557.18,3142.18 2568.5,3153.5C 2571.58,3158.46 2574.08,3163.79 2576,3169.5C 2577.6,3176.83 2576.27,3183.5 2572,3189.5C 2562.01,3198.41 2550.51,3204.58 2537.5,3208C 2500.59,3218.4 2462.92,3224.73 2424.5,3227C 2373.29,3229.25 2322.29,3227.09 2271.5,3220.5C 2260.91,3217.96 2250.24,3215.62 2239.5,3213.5C 2197,3205.13 2158.34,3188.47 2123.5,3163.5C 2123.61,3162.88 2123.94,3162.38 2124.5,3162C 2113.75,3153.42 2105.42,3142.92 2099.5,3130.5C 2099,3129.48 2098.33,3129.31 2097.5,3130C 2089.29,3136.54 2082.13,3144.04 2076,3152.5C 2064.13,3169.59 2053.29,3187.26 2043.5,3205.5C 2023.48,3242.71 2004.98,3280.71 1988,3319.5C 1978.12,3348.73 1971.62,3378.73 1968.5,3409.5C 1967.06,3422.79 1966.06,3436.13 1965.5,3449.5C 1963.37,3478 1963.04,3506.67 1964.5,3535.5C 1965.21,3546.49 1965.54,3557.49 1965.5,3568.5C 1976.17,3568.5 1986.83,3568.5 1997.5,3568.5C 1949.67,3569.5 1901.67,3569.83 1853.5,3569.5C 1853.33,3568.51 1853.66,3567.84 1854.5,3567.5C 1878.99,3568.5 1903.66,3568.83 1928.5,3568.5C 1924.75,3534.6 1923.58,3500.6 1925,3466.5C 1925.97,3455.07 1927.47,3443.74 1929.5,3432.5C 1930.94,3419.99 1933.27,3407.65 1936.5,3395.5C 1946.23,3355.7 1960.73,3317.7 1980,3281.5C 1996.14,3254.89 2009.31,3226.89 2019.5,3197.5C 2022.73,3190.47 2025.4,3183.14 2027.5,3175.5C 2043.01,3128.8 2051.51,3080.8 2053,3031.5C 2014.37,3007.48 1979.7,2978.48 1949,2944.5C 1926.38,2918.28 1909.72,2888.61 1899,2855.5C 1882.62,2789.37 1897.62,2731.7 1944,2682.5C 1970.08,2654.74 1998.25,2629.57 2028.5,2607C 2053.09,2588.87 2079.76,2574.7 2108.5,2564.5C 2109.82,2564.67 2110.99,2564.34 2112,2563.5C 2112.46,2564.09 2112.63,2564.76 2112.5,2565.5C 2099.13,2633.31 2091.13,2701.81 2088.5,2771C 2088.33,2790.12 2090.5,2808.95 2095,2827.5C 2097.16,2835.65 2101.66,2842.15 2108.5,2847C 2115.74,2848.63 2121.57,2846.47 2126,2840.5C 2134.15,2824.05 2139.48,2806.72 2142,2788.5C 2148.24,2738.54 2151.08,2688.38 2150.5,2638C 2150.35,2617.16 2150.02,2596.33 2149.5,2575.5C 2148.67,2561.49 2148.67,2547.49 2149.5,2533.5C 2226.92,2496.46 2306.59,2464.96 2388.5,2439C 2418.3,2430.08 2448.63,2423.74 2479.5,2420C 2488.85,2419.17 2498.18,2419.33 2507.5,2420.5C 2467.86,2486.11 2432.69,2554.11 2402,2624.5C 2395.97,2640.1 2391.47,2656.1 2388.5,2672.5C 2389.06,2674.82 2389.56,2677.15 2390,2679.5C 2391.4,2682.78 2393.9,2684.45 2397.5,2684.5C 2406.44,2682.75 2414.44,2678.92 2421.5,2673C 2445.75,2651.42 2467.92,2627.92 2488,2602.5C 2538.2,2538.44 2585.7,2472.44 2630.5,2404.5C 2635.95,2402.48 2641.61,2401.48 2647.5,2401.5C 2683.69,2396.38 2720.02,2395.21 2756.5,2398C 2794.12,2400.07 2830.12,2408.74 2864.5,2424C 2896.59,2440.09 2919.75,2464.59 2934,2497.5C 2946.66,2537.12 2952.33,2577.79 2951,2619.5C 2949.58,2659.43 2937.25,2695.43 2914,2727.5C 2902.31,2742.86 2887.14,2753.02 2868.5,2758C 2819.89,2761.73 2771.22,2764.73 2722.5,2767C 2701.96,2768.21 2681.62,2770.05 2661.5,2772.5 Z"/></g>
<g><path style="opacity:1" fill="#c2d9fb" d="M 2108.5,2564.5 C 2079.76,2574.7 2053.09,2588.87 2028.5,2607C 1998.25,2629.57 1970.08,2654.74 1944,2682.5C 1897.62,2731.7 1882.62,2789.37 1899,2855.5C 1909.72,2888.61 1926.38,2918.28 1949,2944.5C 1979.7,2978.48 2014.37,3007.48 2053,3031.5C 2051.51,3080.8 2043.01,3128.8 2027.5,3175.5C 2027.57,3175.06 2027.4,3174.73 2027,3174.5C 2004.85,3188.73 1980.69,3193.9 1954.5,3190C 1943.34,3188.29 1932.34,3185.79 1921.5,3182.5C 1910.93,3190.73 1900.93,3199.73 1891.5,3209.5C 1902.89,3220.05 1913.72,3231.05 1924,3242.5C 1946.72,3226.45 1968.89,3209.62 1990.5,3192C 1993.17,3191.33 1995.83,3191.33 1998.5,3192C 2005.45,3194.02 2012.45,3195.86 2019.5,3197.5C 2009.31,3226.89 1996.14,3254.89 1980,3281.5C 1960.73,3317.7 1946.23,3355.7 1936.5,3395.5C 1927.52,3393.06 1918.35,3391.4 1909,3390.5C 1906.24,3390.92 1903.57,3391.58 1901,3392.5C 1900.33,3394.83 1900.33,3397.17 1901,3399.5C 1907.78,3412.78 1917.28,3423.78 1929.5,3432.5C 1927.47,3443.74 1925.97,3455.07 1925,3466.5C 1923.58,3500.6 1924.75,3534.6 1928.5,3568.5C 1903.66,3568.83 1878.99,3568.5 1854.5,3567.5C 1859.95,3506.54 1850.78,3447.88 1827,3391.5C 1816.51,3369.98 1805.51,3348.64 1794,3327.5C 1772.61,3280.02 1760.44,3230.19 1757.5,3178C 1757.51,3176.62 1757.85,3175.45 1758.5,3174.5C 1769.11,3167.89 1779.44,3160.89 1789.5,3153.5C 1789.97,3154.69 1790.97,3155.36 1792.5,3155.5C 1798.82,3156.99 1805.16,3158.49 1811.5,3160C 1831.57,3160.33 1851.57,3161 1871.5,3162C 1853.43,3151.34 1835.77,3140.18 1818.5,3128.5C 1837.39,3110.71 1852.89,3090.38 1865,3067.5C 1885.92,3023.36 1884.92,2979.69 1862,2936.5C 1846.03,2914.78 1827.86,2894.95 1807.5,2877C 1785.51,2857.68 1761.51,2841.34 1735.5,2828C 1728.39,2824.8 1721.06,2822.3 1713.5,2820.5C 1719.73,2858.64 1724.9,2896.98 1729,2935.5C 1730.29,2956.82 1730.63,2978.15 1730,2999.5C 1729.11,3009.97 1726.44,3019.97 1722,3029.5C 1715.57,3037.33 1709.24,3037.33 1703,3029.5C 1697.01,3017.91 1693.01,3005.58 1691,2992.5C 1686.53,2954.15 1684.36,2915.65 1684.5,2877C 1684.83,2850.97 1685.5,2824.97 1686.5,2799C 1676.66,2792.91 1666.33,2787.58 1655.5,2783C 1628.43,2771.71 1601.43,2760.54 1574.5,2749.5C 1575.83,2744.88 1576.49,2739.88 1576.5,2734.5C 1575.44,2717.49 1575.44,2700.49 1576.5,2683.5C 1632.08,2655.04 1689.08,2629.88 1747.5,2608C 1771.75,2599.11 1796.42,2591.77 1821.5,2586C 1838.61,2581.75 1855.95,2580.58 1873.5,2582.5C 1865.01,2598.13 1856.51,2613.8 1848,2629.5C 1825.75,2672.88 1805.42,2717.22 1787,2762.5C 1783.06,2773.31 1779.73,2784.31 1777,2795.5C 1776.34,2800.15 1775.84,2804.82 1775.5,2809.5C 1775.76,2819.14 1780.42,2821.97 1789.5,2818C 1794.52,2815.16 1799.19,2811.82 1803.5,2808C 1823.54,2787.71 1842.04,2766.21 1859,2743.5C 1900.08,2686.33 1938.92,2627.67 1975.5,2567.5C 1983.71,2565.4 1992.04,2563.9 2000.5,2563C 2036.59,2559.29 2072.59,2559.79 2108.5,2564.5 Z"/></g>
<g><path style="opacity:1" fill="#c2d9fb" d="M 2112.5,2565.5 C 2124.84,2568.83 2137.17,2572.17 2149.5,2575.5C 2150.02,2596.33 2150.35,2617.16 2150.5,2638C 2151.08,2688.38 2148.24,2738.54 2142,2788.5C 2139.48,2806.72 2134.15,2824.05 2126,2840.5C 2121.57,2846.47 2115.74,2848.63 2108.5,2847C 2101.66,2842.15 2097.16,2835.65 2095,2827.5C 2090.5,2808.95 2088.33,2790.12 2088.5,2771C 2091.13,2701.81 2099.13,2633.31 2112.5,2565.5 Z"/></g>
<g><path style="opacity:1" fill="#d2e4fe" d="M 5833.5,2599.5 C 5834.1,2599.74 5834.43,2600.24 5834.5,2601C 5833.64,2614.38 5831.47,2627.54 5828,2640.5C 5823.49,2650.34 5815.99,2654.17 5805.5,2652C 5801.5,2650 5799,2646.84 5798,2642.5C 5797.3,2638.09 5797.64,2633.76 5799,2629.5C 5803.68,2623.66 5808.84,2618.32 5814.5,2613.5C 5821.08,2609.06 5827.41,2604.39 5833.5,2599.5 Z"/></g>
<g><path style="opacity:1" fill="#d2e4fe" d="M 6112.5,2654.5 C 6113.16,2655.79 6113.49,2657.29 6113.5,2659C 6111.76,2671.51 6109.93,2684.01 6108,2696.5C 6107.03,2707.75 6101.53,2715.91 6091.5,2721C 6072.78,2724.62 6064.61,2716.78 6067,2697.5C 6069.31,2690.38 6073.48,2684.55 6079.5,2680C 6090.57,2671.48 6101.57,2662.98 6112.5,2654.5 Z"/></g>
<g><path style="opacity:1" fill="#d1e2fd" d="M 4185.5,2900.5 C 4185.66,2901.87 4185.49,2903.21 4185,2904.5C 4175.92,2921.16 4168.08,2938.33 4161.5,2956C 4157.71,2967.19 4155.71,2978.69 4155.5,2990.5C 4107.85,2988.79 4060.18,2987.46 4012.5,2986.5C 3986.7,2986.5 3961.04,2988.17 3935.5,2991.5C 3946.23,2985.96 3956.9,2980.13 3967.5,2974C 4009.62,2948.88 4043.45,2915.38 4069,2873.5C 4105.79,2806.93 4140.79,2739.27 4174,2670.5C 4173.9,2737.03 4173.07,2803.53 4171.5,2870C 4171.74,2882.31 4176.41,2892.48 4185.5,2900.5 Z"/></g>
<g><path style="opacity:1" fill="#d2e4fe" d="M 5626.5,2688.5 C 5626.51,2701.12 5625.01,2713.79 5622,2726.5C 5618.08,2739.77 5609.58,2744.27 5596.5,2740C 5589.63,2732.52 5588.8,2724.35 5594,2715.5C 5604.26,2705.65 5615.09,2696.65 5626.5,2688.5 Z"/></g>
<g><path style="opacity:1" fill="#77a4e5" d="M 1404.5,2818.5 C 1423.81,2845.21 1445.14,2870.38 1468.5,2894C 1474.14,2899.15 1480.14,2903.82 1486.5,2908C 1498.68,2914.67 1504.18,2911.17 1503,2897.5C 1501.01,2887.18 1498.01,2877.18 1494,2867.5C 1480.95,2835.41 1465.79,2804.41 1448.5,2774.5C 1437.65,2753.13 1425.98,2732.13 1413.5,2711.5C 1426.53,2710.52 1439.53,2711.02 1452.5,2713C 1471.63,2716.93 1490.63,2721.43 1509.5,2726.5C 1520.08,2730.14 1530.74,2733.8 1541.5,2737.5C 1552.43,2741.8 1563.43,2745.8 1574.5,2749.5C 1601.43,2760.54 1628.43,2771.71 1655.5,2783C 1666.33,2787.58 1676.66,2792.91 1686.5,2799C 1685.5,2824.97 1684.83,2850.97 1684.5,2877C 1684.36,2915.65 1686.53,2954.15 1691,2992.5C 1693.01,3005.58 1697.01,3017.91 1703,3029.5C 1709.24,3037.33 1715.57,3037.33 1722,3029.5C 1726.44,3019.97 1729.11,3009.97 1730,2999.5C 1730.63,2978.15 1730.29,2956.82 1729,2935.5C 1724.9,2896.98 1719.73,2858.64 1713.5,2820.5C 1721.06,2822.3 1728.39,2824.8 1735.5,2828C 1761.51,2841.34 1785.51,2857.68 1807.5,2877C 1827.86,2894.95 1846.03,2914.78 1862,2936.5C 1884.92,2979.69 1885.92,3023.36 1865,3067.5C 1852.89,3090.38 1837.39,3110.71 1818.5,3128.5C 1809.1,3137.24 1799.44,3145.57 1789.5,3153.5C 1779.44,3160.89 1769.11,3167.89 1758.5,3174.5C 1752.79,3157.75 1744.96,3142.09 1735,3127.5C 1708.27,3092.44 1676.77,3062.6 1640.5,3038C 1620.27,3022.58 1599.27,3008.25 1577.5,2995C 1494.54,2946.52 1408.54,2904.52 1319.5,2869C 1294.48,2859.49 1269.48,2849.82 1244.5,2840C 1222.61,2832.04 1200.61,2824.71 1178.5,2818C 1222.77,2836.14 1266.77,2854.81 1310.5,2874C 1384.34,2907.75 1456,2945.42 1525.5,2987C 1571.4,3015.28 1614.4,3047.45 1654.5,3083.5C 1675.75,3104.24 1694.59,3126.91 1711,3151.5C 1716.95,3162.31 1721.95,3173.65 1726,3185.5C 1733,3207.74 1731.83,3229.4 1722.5,3250.5C 1712.94,3267.89 1699.28,3281.06 1681.5,3290C 1674.81,3293.49 1668.15,3296.65 1661.5,3299.5C 1657.83,3300.83 1654.17,3302.17 1650.5,3303.5C 1624.43,3311.91 1597.77,3317.74 1570.5,3321C 1559.99,3321.55 1549.66,3322.38 1539.5,3323.5C 1517.15,3323.73 1494.82,3323.4 1472.5,3322.5C 1465.48,3321.95 1458.48,3321.29 1451.5,3320.5C 1426.44,3318.12 1402.1,3312.62 1378.5,3304C 1357.62,3294.88 1354.79,3281.72 1370,3264.5C 1387.28,3247.55 1405.45,3231.71 1424.5,3217C 1445.53,3205 1467.87,3196.84 1491.5,3192.5C 1524.81,3188.15 1558.14,3183.98 1591.5,3180C 1600.98,3178.18 1609.48,3174.34 1617,3168.5C 1619.92,3165.46 1620.26,3162.12 1618,3158.5C 1615.09,3155.91 1611.92,3153.75 1608.5,3152C 1598.34,3148.84 1588.01,3146.5 1577.5,3145C 1559.83,3144.33 1542.17,3144.33 1524.5,3145C 1513.85,3146.5 1503.85,3149.66 1494.5,3154.5C 1485.94,3158.11 1477.61,3162.28 1469.5,3167C 1445.68,3183.17 1420.68,3197.17 1394.5,3209C 1380.72,3213.82 1366.72,3217.82 1352.5,3221C 1341.21,3222.62 1329.88,3223.78 1318.5,3224.5C 1312.14,3223.71 1305.8,3222.71 1299.5,3221.5C 1279.74,3214.95 1262.08,3204.79 1246.5,3191C 1215.61,3160.79 1190.11,3126.62 1170,3088.5C 1161.59,3072.35 1153.76,3056.02 1146.5,3039.5C 1147.33,3039.17 1148.17,3038.83 1149,3038.5C 1162.89,3042.29 1177.06,3043.96 1191.5,3043.5C 1203.1,3044.78 1214.77,3044.44 1226.5,3042.5C 1258.26,3039.64 1288.6,3031.98 1317.5,3019.5C 1330.12,3015.77 1340.96,3009.1 1350,2999.5C 1351.37,2997.3 1351.71,2994.97 1351,2992.5C 1343.23,2986.46 1334.4,2982.96 1324.5,2982C 1308.63,2979.02 1292.63,2977.18 1276.5,2976.5C 1257.69,2974.48 1238.69,2973.14 1219.5,2972.5C 1210.85,2971.75 1202.19,2971.41 1193.5,2971.5C 1177.33,2970.19 1161,2969.02 1144.5,2968C 1133.96,2966.73 1124.63,2962.73 1116.5,2956C 1095.73,2936.64 1083.23,2912.8 1079,2884.5C 1078.14,2877.02 1077.31,2869.69 1076.5,2862.5C 1075.62,2829.59 1080.46,2797.59 1091,2766.5C 1097.91,2750.85 1108.08,2737.69 1121.5,2727C 1138.54,2714.87 1157.21,2706.21 1177.5,2701C 1225.06,2690.31 1272.72,2689.81 1320.5,2699.5C 1347.28,2740.07 1375.28,2779.74 1404.5,2818.5 Z"/></g>
<g><path style="opacity:1" fill="#d2e3fe" d="M 4406.5,2705.5 C 4448.62,2775.46 4491.78,2844.79 4536,2913.5C 4543.42,2921.79 4552.58,2926.79 4563.5,2928.5C 4560.92,2937.01 4557.75,2945.34 4554,2953.5C 4548.25,2974.77 4546.09,2996.44 4547.5,3018.5C 4526.45,3016.89 4505.45,3014.89 4484.5,3012.5C 4480.82,3006.31 4476.15,3000.81 4470.5,2996C 4457.43,2986.97 4443.1,2980.64 4427.5,2977C 4412.45,2973.77 4397.45,2970.44 4382.5,2967C 4376.67,2965.06 4371.01,2962.72 4365.5,2960C 4358.3,2953.14 4351.47,2945.97 4345,2938.5C 4341.64,2933.77 4338.8,2928.77 4336.5,2923.5C 4340.79,2924.46 4343.96,2923.13 4346,2919.5C 4367.07,2848.38 4387.23,2777.05 4406.5,2705.5 Z"/></g>
<g><path style="opacity:1" fill="#c2d9fb" d="M 1541.5,2737.5 C 1530.74,2733.8 1520.08,2730.14 1509.5,2726.5C 1520.64,2720.55 1532.31,2715.55 1544.5,2711.5C 1544.39,2720.17 1543.39,2728.84 1541.5,2737.5 Z"/></g>
<g><path style="opacity:1" fill="#d2e3fe" d="M 2661.5,2772.5 C 2662.68,2772.28 2663.68,2772.61 2664.5,2773.5C 2657.11,2790.95 2650.27,2808.62 2644,2826.5C 2643.5,2828.54 2642.34,2829.88 2640.5,2830.5C 2624.6,2825.05 2609.93,2817.22 2596.5,2807C 2594.21,2804.26 2592.05,2801.42 2590,2798.5C 2589.33,2796.17 2589.33,2793.83 2590,2791.5C 2596.24,2785.46 2603.74,2781.63 2612.5,2780C 2628.73,2776.71 2645.06,2774.21 2661.5,2772.5 Z"/></g>
<g><path style="opacity:1" fill="#c2d9fb" d="M 1448.5,2774.5 C 1465.79,2804.41 1480.95,2835.41 1494,2867.5C 1498.01,2877.18 1501.01,2887.18 1503,2897.5C 1504.18,2911.17 1498.68,2914.67 1486.5,2908C 1480.14,2903.82 1474.14,2899.15 1468.5,2894C 1445.14,2870.38 1423.81,2845.21 1404.5,2818.5C 1418.73,2803.6 1433.4,2788.94 1448.5,2774.5 Z"/></g>
<g><path style="opacity:1" fill="#c2d9fb" d="M 1076.5,2862.5 C 1077.31,2869.69 1078.14,2877.02 1079,2884.5C 1083.23,2912.8 1095.73,2936.64 1116.5,2956C 1124.63,2962.73 1133.96,2966.73 1144.5,2968C 1161,2969.02 1177.33,2970.19 1193.5,2971.5C 1192.5,2971.5 1191.5,2971.5 1190.5,2971.5C 1190.41,2995.51 1190.74,3019.51 1191.5,3043.5C 1177.06,3043.96 1162.89,3042.29 1149,3038.5C 1148.17,3038.83 1147.33,3039.17 1146.5,3039.5C 1153.76,3056.02 1161.59,3072.35 1170,3088.5C 1190.11,3126.62 1215.61,3160.79 1246.5,3191C 1262.08,3204.79 1279.74,3214.95 1299.5,3221.5C 1285.61,3236.84 1270.11,3250.17 1253,3261.5C 1252.81,3286.16 1255.48,3310.49 1261,3334.5C 1270.43,3373.12 1284.76,3409.79 1304,3444.5C 1328.28,3498.98 1337.45,3555.98 1331.5,3615.5C 1352.16,3616.5 1372.82,3616.83 1393.5,3616.5C 1382.05,3530.54 1394.22,3448.2 1430,3369.5C 1438.35,3354.14 1446.18,3338.48 1453.5,3322.5C 1452.76,3321.82 1452.09,3321.15 1451.5,3320.5C 1458.48,3321.29 1465.48,3321.95 1472.5,3322.5C 1462.7,3344.43 1453.2,3366.43 1444,3388.5C 1433.47,3422.7 1427.13,3457.7 1425,3493.5C 1421.87,3534.49 1421.7,3575.49 1424.5,3616.5C 1433.42,3616.82 1442.25,3616.48 1451,3615.5C 1462.6,3591.95 1476.93,3570.28 1494,3550.5C 1532.47,3517.05 1562.47,3477.39 1584,3431.5C 1585.65,3427.21 1587.32,3422.88 1589,3418.5C 1589.67,3417.17 1589.67,3415.83 1589,3414.5C 1568.71,3387.25 1554.88,3356.92 1547.5,3323.5C 1544.83,3323.5 1542.17,3323.5 1539.5,3323.5C 1549.66,3322.38 1559.99,3321.55 1570.5,3321C 1597.77,3317.74 1624.43,3311.91 1650.5,3303.5C 1647.62,3311.45 1647.95,3319.29 1651.5,3327C 1653.7,3328.37 1656.03,3328.71 1658.5,3328C 1662.61,3326.22 1665.78,3323.39 1668,3319.5C 1671.8,3314.2 1674.97,3308.53 1677.5,3302.5C 1672.23,3301.13 1666.9,3300.13 1661.5,3299.5C 1668.15,3296.65 1674.81,3293.49 1681.5,3290C 1699.28,3281.06 1712.94,3267.89 1722.5,3250.5C 1723.79,3249.5 1725.12,3249.67 1726.5,3251C 1739.5,3264.83 1750.66,3280 1760,3296.5C 1777.65,3328.46 1793.65,3361.13 1808,3394.5C 1814.88,3415.34 1819.54,3436.68 1822,3458.5C 1824.66,3486.29 1825.82,3513.95 1825.5,3541.5C 1818.56,3533.39 1811.4,3525.39 1804,3517.5C 1794.25,3503.67 1784.25,3490 1774,3476.5C 1765.19,3466.01 1754.69,3457.85 1742.5,3452C 1732.7,3447.73 1722.7,3444.07 1712.5,3441C 1704.2,3439.65 1695.87,3439.32 1687.5,3440C 1684.11,3443.37 1683.61,3447.21 1686,3451.5C 1689.27,3455.73 1693.1,3459.39 1697.5,3462.5C 1714.8,3472.96 1732.47,3482.79 1750.5,3492C 1771.24,3503.12 1788.4,3518.29 1802,3537.5C 1807.2,3547.9 1812.37,3558.24 1817.5,3568.5C 1770.17,3568.5 1722.83,3568.5 1675.5,3568.5C 1653.6,3556.13 1633.76,3540.79 1616,3522.5C 1605.15,3509.47 1597.49,3494.81 1593,3478.5C 1590.89,3479.47 1588.72,3480.31 1586.5,3481C 1576.26,3487.9 1566.6,3495.56 1557.5,3504C 1537.23,3523.12 1518.23,3543.28 1500.5,3564.5C 1495.92,3572.67 1491.08,3580.67 1486,3588.5C 1481.61,3597.55 1477.44,3606.72 1473.5,3616C 1504.83,3616.5 1536.16,3616.67 1567.5,3616.5C 1583,3751.53 1643.33,3861.53 1748.5,3946.5C 1728.59,3964.09 1707.59,3980.09 1685.5,3994.5C 1667.5,3994.33 1649.5,3994.5 1631.5,3995C 1607.36,3998.98 1591.19,4012.48 1583,4035.5C 1581.62,4040.76 1580.79,4046.09 1580.5,4051.5C 1422.17,4051.5 1263.83,4051.5 1105.5,4051.5C 1105.17,4051.5 1104.83,4051.5 1104.5,4051.5C 1105.7,4025.89 1118.37,4009.05 1142.5,4001C 1196.14,3999.69 1249.8,3999.03 1303.5,3999C 1286.82,3989.33 1270.82,3978.66 1255.5,3967C 1151.54,3879.24 1097.21,3767.07 1092.5,3630.5C 1088.17,3630.5 1083.83,3630.5 1079.5,3630.5C 1079.5,3625.83 1079.5,3621.17 1079.5,3616.5C 1155.5,3616.5 1231.5,3616.5 1307.5,3616.5C 1307.85,3589.15 1307.35,3561.81 1306,3534.5C 1304.38,3511.14 1300.72,3488.14 1295,3465.5C 1279.82,3423.28 1260.82,3382.94 1238,3344.5C 1233.83,3339.67 1229.67,3334.83 1225.5,3330C 1224.36,3329.25 1223.36,3329.42 1222.5,3330.5C 1219.59,3336.24 1216.09,3341.57 1212,3346.5C 1197.12,3361.53 1179.62,3372.36 1159.5,3379C 1112.01,3394.17 1063.35,3399.5 1013.5,3395C 990.294,3393.36 967.627,3389.03 945.5,3382C 936.131,3379.41 928.631,3374.24 923,3366.5C 921.048,3357.34 923.382,3349.34 930,3342.5C 943.711,3328.29 957.878,3314.62 972.5,3301.5C 988.557,3290.42 1006.22,3282.92 1025.5,3279C 1052,3274.12 1078.66,3270.45 1105.5,3268C 1114.71,3266.53 1123.38,3263.53 1131.5,3259C 1137.58,3254.23 1137.92,3249.23 1132.5,3244C 1123.43,3239.31 1113.76,3236.31 1103.5,3235C 1072.12,3229.29 1043.12,3234.96 1016.5,3252C 1000.19,3263.49 983.519,3274.49 966.5,3285C 950.652,3293.26 933.985,3299.26 916.5,3303C 896.558,3308.75 877.225,3307.41 858.5,3299C 840.076,3288.68 824.243,3275.18 811,3258.5C 783.585,3222.62 761.585,3183.62 745,3141.5C 744.251,3140.36 744.417,3139.36 745.5,3138.5C 750.156,3139.66 754.823,3140.83 759.5,3142C 789.25,3145.36 818.583,3143.36 847.5,3136C 868.594,3130.76 888.261,3122.42 906.5,3111C 910.794,3108.05 913.461,3104.05 914.5,3099C 912.54,3095.5 909.54,3093.17 905.5,3092C 889.487,3087.4 873.154,3084.4 856.5,3083C 817.458,3080.81 778.458,3078.15 739.5,3075C 733.178,3073.67 727.511,3071.01 722.5,3067C 702.467,3047.77 690.967,3024.27 688,2996.5C 684.639,2966.75 686.639,2937.42 694,2908.5C 697.25,2895 702.917,2882.67 711,2871.5C 731.094,2848.7 756.261,2835.2 786.5,2831C 803.24,2828.75 820.073,2827.59 837,2827.5C 854.785,2827.37 872.285,2829.37 889.5,2833.5C 923.845,2892.35 962.345,2948.35 1005,3001.5C 1011.9,3009.07 1019.4,3015.9 1027.5,3022C 1030.06,3023.14 1032.73,3023.97 1035.5,3024.5C 1038.86,3023.47 1040.53,3021.13 1040.5,3017.5C 1038.46,3004.54 1035.29,2991.87 1031,2979.5C 1011.42,2933.33 989.916,2888 966.5,2843.5C 973.841,2843.33 981.174,2843.5 988.5,2844C 1018.58,2849.47 1047.75,2857.97 1076,2869.5C 1076.5,2867.19 1076.66,2864.86 1076.5,2862.5 Z"/></g>
<g><path style="opacity:1" fill="#699ad3" d="M 1758.5,3174.5 C 1757.85,3175.45 1757.51,3176.62 1757.5,3178C 1760.44,3230.19 1772.61,3280.02 1794,3327.5C 1805.51,3348.64 1816.51,3369.98 1827,3391.5C 1850.78,3447.88 1859.95,3506.54 1854.5,3567.5C 1853.66,3567.84 1853.33,3568.51 1853.5,3569.5C 1844.17,3569.5 1834.83,3569.5 1825.5,3569.5C 1825.5,3566.5 1825.5,3563.5 1825.5,3560.5C 1825.5,3554.17 1825.5,3547.83 1825.5,3541.5C 1825.82,3513.95 1824.66,3486.29 1822,3458.5C 1819.54,3436.68 1814.88,3415.34 1808,3394.5C 1793.65,3361.13 1777.65,3328.46 1760,3296.5C 1750.66,3280 1739.5,3264.83 1726.5,3251C 1725.12,3249.67 1723.79,3249.5 1722.5,3250.5C 1731.83,3229.4 1733,3207.74 1726,3185.5C 1721.95,3173.65 1716.95,3162.31 1711,3151.5C 1694.59,3126.91 1675.75,3104.24 1654.5,3083.5C 1614.4,3047.45 1571.4,3015.28 1525.5,2987C 1456,2945.42 1384.34,2907.75 1310.5,2874C 1266.77,2854.81 1222.77,2836.14 1178.5,2818C 1200.61,2824.71 1222.61,2832.04 1244.5,2840C 1269.48,2849.82 1294.48,2859.49 1319.5,2869C 1408.54,2904.52 1494.54,2946.52 1577.5,2995C 1599.27,3008.25 1620.27,3022.58 1640.5,3038C 1676.77,3062.6 1708.27,3092.44 1735,3127.5C 1744.96,3142.09 1752.79,3157.75 1758.5,3174.5 Z"/></g>
<g><path style="opacity:1" fill="#233863" d="M 5276.5,2876.5 C 5262.21,2888.63 5249.87,2902.46 5239.5,2918C 5232.15,2917.65 5225.15,2916.49 5218.5,2914.5C 5230.01,2890.79 5247.01,2872.12 5269.5,2858.5C 5271.79,2864.48 5274.12,2870.48 5276.5,2876.5 Z"/></g>
<g><path style="opacity:1" fill="#2b468b" d="M 5368.5,3276.5 C 5372.97,3291.45 5379.13,3305.78 5387,3319.5C 5405.13,3347.31 5426.63,3372.48 5451.5,3395C 5471.83,3412.67 5492.17,3430.33 5512.5,3448C 5543.39,3477.03 5570.72,3508.87 5594.5,3543.5C 5619.04,3533.9 5641.38,3520.74 5661.5,3504C 5701.53,3468.73 5711.03,3426.56 5690,3377.5C 5679.98,3360.09 5672.31,3341.76 5667,3322.5C 5653.67,3271.78 5669.83,3233.95 5715.5,3209C 5731.27,3202.34 5747.61,3200.67 5764.5,3204C 5778.66,3207.5 5788.5,3216 5794,3229.5C 5802.02,3255.8 5794.19,3275.64 5770.5,3289C 5763.85,3295.46 5759.68,3303.3 5758,3312.5C 5757.34,3322.58 5758.01,3332.58 5760,3342.5C 5767.54,3366.93 5777.88,3390.27 5791,3412.5C 5802.45,3441.61 5799.45,3469.28 5782,3495.5C 5767.53,3514.34 5750.7,3530.84 5731.5,3545C 5697.83,3567.5 5662.16,3586.34 5624.5,3601.5C 5615.08,3605.25 5605.58,3608.92 5596,3612.5C 5597.27,3650.41 5589.94,3686.41 5574,3720.5C 5570.38,3726.46 5565.71,3731.46 5560,3735.5C 5554.54,3741.56 5552.04,3748.72 5552.5,3757C 5553.05,3763.2 5553.89,3769.37 5555,3775.5C 5561.16,3793.49 5568.16,3811.16 5576,3828.5C 5577.75,3833.19 5578.92,3838.02 5579.5,3843C 5577.84,3849.48 5575.5,3855.65 5572.5,3861.5C 5569.07,3866.02 5566.41,3871.02 5564.5,3876.5C 5530.57,3935.09 5496.24,3993.42 5461.5,4051.5C 5430.17,4051.5 5398.83,4051.5 5367.5,4051.5C 5367.67,4050.51 5367.34,4049.84 5366.5,4049.5C 5360.22,4037.59 5357.72,4024.93 5359,4011.5C 5360.56,4008.27 5363.06,4006.1 5366.5,4005C 5382.91,4003.98 5398.91,4006.15 5414.5,4011.5C 5418.12,4009.96 5420.62,4007.29 5422,4003.5C 5438.15,3967.07 5451.15,3929.4 5461,3890.5C 5461.72,3885.78 5461.55,3881.11 5460.5,3876.5C 5459.25,3868.33 5456.08,3861 5451,3854.5C 5435.36,3839.86 5420.03,3824.86 5405,3809.5C 5392.16,3795.51 5380.33,3780.85 5369.5,3765.5C 5346.4,3733.3 5331.57,3697.63 5325,3658.5C 5246.02,3602.84 5187.19,3530.84 5148.5,3442.5C 5144.63,3430.71 5140.46,3419.04 5136,3407.5C 5133.21,3396.16 5130.04,3385 5126.5,3374C 5075.47,3351.49 5024.81,3327.83 4974.5,3303C 4962.92,3288.25 4949.59,3275.42 4934.5,3264.5C 4933.2,3256.57 4932.53,3248.4 4932.5,3240C 4932.87,3223.83 4933.21,3207.67 4933.5,3191.5C 4963,3190.99 4974.33,3204.99 4967.5,3233.5C 4966.4,3234.6 4966.24,3235.93 4967,3237.5C 4973.07,3243.11 4980.23,3246.45 4988.5,3247.5C 5000,3250.02 5011.67,3251.85 5023.5,3253C 5046.49,3254.04 5069.49,3254.54 5092.5,3254.5C 5091.68,3242.52 5093.01,3230.85 5096.5,3219.5C 5102.43,3196.13 5112.77,3174.97 5127.5,3156C 5126.17,3155.67 5124.83,3155.33 5123.5,3155C 5129.62,3148.26 5133.12,3140.43 5134,3131.5C 5128.55,3135.95 5127.55,3135.29 5131,3129.5C 5133.14,3119.01 5132.48,3108.68 5129,3098.5C 5124.75,3094.18 5120.42,3089.85 5116,3085.5C 5102.02,3071.21 5093.02,3054.21 5089,3034.5C 5083.8,3007.94 5088.96,2983.94 5104.5,2962.5C 5103.03,2965.95 5101.69,2969.45 5100.5,2973C 5111.56,2972.44 5117.56,2966.61 5118.5,2955.5C 5129.38,2954.85 5139.71,2952.19 5149.5,2947.5C 5152.3,2946.27 5154.97,2944.77 5157.5,2943C 5174.09,2925.37 5194.42,2915.87 5218.5,2914.5C 5225.15,2916.49 5232.15,2917.65 5239.5,2918C 5249.87,2902.46 5262.21,2888.63 5276.5,2876.5C 5279.13,2874.89 5281.8,2873.22 5284.5,2871.5C 5300.06,2901.69 5309.9,2933.69 5314,2967.5C 5314.8,2972.75 5314.64,2977.92 5313.5,2983C 5330.29,3006.63 5336.79,3032.79 5333,3061.5C 5332.56,3058.62 5331.56,3055.96 5330,3053.5C 5329.06,3059.8 5328.39,3066.14 5328,3072.5C 5326.37,3079.62 5322.87,3085.62 5317.5,3090.5C 5317.38,3088 5317.21,3085.33 5317,3082.5C 5314.25,3091.67 5309.25,3099.34 5302,3105.5C 5301.45,3123.3 5302.78,3140.97 5306,3158.5C 5306.91,3163.65 5308.91,3168.32 5312,3172.5C 5324.72,3186.95 5336.72,3201.95 5348,3217.5C 5351.29,3223.74 5354.29,3230.08 5357,3236.5C 5360.55,3250.04 5364.38,3263.37 5368.5,3276.5 Z"/></g>
<g><path style="opacity:1" fill="#233862" d="M 4694.5,2878.5 C 4694.35,2879.55 4694.52,2880.55 4695,2881.5C 4705.67,2896.17 4716.33,2910.83 4727,2925.5C 4736.09,2937.26 4745.92,2948.43 4756.5,2959C 4780.13,2969.99 4803.8,2980.99 4827.5,2992C 4836.51,2997.17 4845.18,3002.84 4853.5,3009C 4869.22,3021.21 4878.89,3037.04 4882.5,3056.5C 4881.5,3056.5 4880.5,3056.5 4879.5,3056.5C 4769.18,3040.88 4658.51,3028.21 4547.5,3018.5C 4546.09,2996.44 4548.25,2974.77 4554,2953.5C 4557.75,2945.34 4560.92,2937.01 4563.5,2928.5C 4583.25,2929.64 4602.25,2926.48 4620.5,2919C 4646.73,2908.38 4671.4,2894.88 4694.5,2878.5 Z"/></g>
<g><path style="opacity:1" fill="#243862" d="M 4185.5,2900.5 C 4199.38,2911.86 4215.38,2918.7 4233.5,2921C 4267.74,2925.9 4302.07,2926.73 4336.5,2923.5C 4338.8,2928.77 4341.64,2933.77 4345,2938.5C 4351.47,2945.97 4358.3,2953.14 4365.5,2960C 4371.01,2962.72 4376.67,2965.06 4382.5,2967C 4397.45,2970.44 4412.45,2973.77 4427.5,2977C 4443.1,2980.64 4457.43,2986.97 4470.5,2996C 4476.15,3000.81 4480.82,3006.31 4484.5,3012.5C 4374.92,3004.02 4265.26,2996.68 4155.5,2990.5C 4155.71,2978.69 4157.71,2967.19 4161.5,2956C 4168.08,2938.33 4175.92,2921.16 4185,2904.5C 4185.49,2903.21 4185.66,2901.87 4185.5,2900.5 Z"/></g>
<g><path style="opacity:1" fill="#d3e2fb" d="M 3333.5,2908.5 C 3341.76,2926.7 3352.76,2943.03 3366.5,2957.5C 3348.44,2952.75 3330.11,2951.42 3311.5,2953.5C 3319.09,2938.65 3326.43,2923.65 3333.5,2908.5 Z"/></g>
<g><path style="opacity:1" fill="#d2e4fe" d="M 5782.5,2939.5 C 5783.38,2939.37 5784.04,2939.7 5784.5,2940.5C 5782.7,2955.93 5780.2,2971.27 5777,2986.5C 5772.54,3003.33 5762.04,3009.5 5745.5,3005C 5735.99,2996.76 5734.16,2986.93 5740,2975.5C 5745.99,2969.35 5752.15,2963.35 5758.5,2957.5C 5766.83,2951.83 5774.83,2945.83 5782.5,2939.5 Z"/></g>
<g><path style="opacity:1" fill="#d3671e" d="M 3366.5,2957.5 C 3368.77,2958.32 3371.11,2958.99 3373.5,2959.5C 3398.83,2970.59 3425.17,2978.75 3452.5,2984C 3516.61,2995.94 3581.28,3002.61 3646.5,3004C 3699.22,3005.02 3751.89,3004.52 3804.5,3002.5C 3848.41,3001.37 3892.08,2997.7 3935.5,2991.5C 3961.04,2988.17 3986.7,2986.5 4012.5,2986.5C 4060.18,2987.46 4107.85,2988.79 4155.5,2990.5C 4265.26,2996.68 4374.92,3004.02 4484.5,3012.5C 4505.45,3014.89 4526.45,3016.89 4547.5,3018.5C 4658.51,3028.21 4769.18,3040.88 4879.5,3056.5C 4896.71,3059.66 4914.04,3062.66 4931.5,3065.5C 4627.17,3067.5 4322.5,3068.17 4017.5,3067.5C 3954.54,3066.51 3891.54,3066.17 3828.5,3066.5C 3828.5,3394.83 3828.5,3723.17 3828.5,4051.5C 3827.5,3724 3827.17,3396.33 3827.5,3068.5C 3586.5,3068.83 3345.5,3068.5 3104.5,3067.5C 3106.18,3066.27 3106.51,3064.94 3105.5,3063.5C 3145.85,3027.8 3190.52,2998.3 3239.5,2975C 3262.33,2964.26 3286.33,2957.09 3311.5,2953.5C 3330.11,2951.42 3348.44,2952.75 3366.5,2957.5 Z"/></g>
<g><path style="opacity:1" fill="#163561" d="M 5118.5,2955.5 C 5117.56,2966.61 5111.56,2972.44 5100.5,2973C 5101.69,2969.45 5103.03,2965.95 5104.5,2962.5C 5107.21,2955.81 5111.88,2953.47 5118.5,2955.5 Z"/></g>
<g><path style="opacity:1" fill="#d2e3fe" d="M 1193.5,2971.5 C 1202.19,2971.41 1210.85,2971.75 1219.5,2972.5C 1223.15,2995.68 1225.48,3019.01 1226.5,3042.5C 1214.77,3044.44 1203.1,3044.78 1191.5,3043.5C 1190.74,3019.51 1190.41,2995.51 1190.5,2971.5C 1191.5,2971.5 1192.5,2971.5 1193.5,2971.5 Z"/></g>
<g><path style="opacity:1" fill="#c2d9fb" d="M 1219.5,2972.5 C 1238.69,2973.14 1257.69,2974.48 1276.5,2976.5C 1275.76,2976.37 1275.09,2976.54 1274.5,2977C 1290.06,2990.06 1304.39,3004.23 1317.5,3019.5C 1288.6,3031.98 1258.26,3039.64 1226.5,3042.5C 1225.48,3019.01 1223.15,2995.68 1219.5,2972.5 Z"/></g>
<g><path style="opacity:1" fill="#d1e3fe" d="M 1276.5,2976.5 C 1292.63,2977.18 1308.63,2979.02 1324.5,2982C 1334.4,2982.96 1343.23,2986.46 1351,2992.5C 1351.71,2994.97 1351.37,2997.3 1350,2999.5C 1340.96,3009.1 1330.12,3015.77 1317.5,3019.5C 1304.39,3004.23 1290.06,2990.06 1274.5,2977C 1275.09,2976.54 1275.76,2976.37 1276.5,2976.5 Z"/></g>
<g><path style="opacity:1" fill="#d2e4fe" d="M 6269.5,2976.5 C 6270.24,2976.37 6270.91,2976.54 6271.5,2977C 6269.19,2992.48 6266.69,3007.98 6264,3023.5C 6258.92,3040.28 6248.08,3046.45 6231.5,3042C 6224.87,3037.1 6222.37,3030.6 6224,3022.5C 6225.56,3013.56 6230.06,3006.39 6237.5,3001C 6248.06,2992.57 6258.72,2984.4 6269.5,2976.5 Z"/></g>
<g><path style="opacity:1" fill="#d2e3fe" d="M 2504.5,3064.5 C 2495.49,3064.3 2486.49,3063.97 2477.5,3063.5C 2462.34,3062.67 2447.01,3062.17 2431.5,3062C 2413.32,3057.58 2394.98,3053.91 2376.5,3051C 2344.41,3047.99 2312.41,3044.32 2280.5,3040C 2271.01,3037.96 2261.68,3035.29 2252.5,3032C 2245.5,3029.33 2240,3024.83 2236,3018.5C 2235.29,3016.03 2235.63,3013.7 2237,3011.5C 2245.8,3003.11 2256.3,2997.94 2268.5,2996C 2284.82,2992.56 2301.32,2990.73 2318,2990.5C 2356.17,2988.2 2391.67,2996.7 2424.5,3016C 2451.54,3032.64 2478.21,3048.8 2504.5,3064.5 Z"/></g>
<g><path style="opacity:1" fill="#173664" d="M 5141.5,2992.5 C 5163.26,3001.38 5183.59,3012.88 5202.5,3027C 5188.68,3019.08 5174.68,3011.08 5160.5,3003C 5153.8,2999.98 5147.14,2996.98 5140.5,2994C 5141.06,2993.62 5141.39,2993.12 5141.5,2992.5 Z"/></g>
<g><path style="opacity:1" fill="#173664" d="M 5135.5,2996.5 C 5136.92,2996.71 5138.26,2997.21 5139.5,2998C 5166.37,3019.2 5190.2,3043.37 5211,3070.5C 5212.29,3072.05 5212.96,3073.72 5213,3075.5C 5191.46,3046.96 5166.29,3022.13 5137.5,3001C 5135.96,2999.89 5135.3,2998.39 5135.5,2996.5 Z"/></g>
<g><path style="opacity:1" fill="#699ad3" d="M 2477.5,3063.5 C 2486.49,3063.97 2495.49,3064.3 2504.5,3064.5C 2523.5,3073.18 2543.16,3080.52 2563.5,3086.5C 2552.49,3096.84 2541.16,3106.84 2529.5,3116.5C 2515.68,3105.52 2501.68,3094.69 2487.5,3084C 2472.06,3075.18 2455.72,3068.52 2438.5,3064C 2451.5,3063.5 2464.5,3063.33 2477.5,3063.5 Z"/></g>
<g><path style="opacity:1" fill="#193766" d="M 5128.5,3002.5 C 5131.06,3003.54 5133.22,3005.21 5135,3007.5C 5152.42,3029.32 5167.09,3052.99 5179,3078.5C 5179.67,3079.5 5179.67,3080.5 5179,3081.5C 5166.26,3053.46 5149.6,3028.13 5129,3005.5C 5128.52,3004.55 5128.35,3003.55 5128.5,3002.5 Z"/></g>
<g><path style="opacity:1" fill="#e68b37" d="M 4017.5,3067.5 C 4056.72,3247.46 4142.38,3401.29 4274.5,3529C 4369.12,3616.89 4477.46,3682.56 4599.5,3726C 4707.97,3763.86 4819.63,3786.03 4934.5,3792.5C 4934.5,3878.83 4934.5,3965.17 4934.5,4051.5C 4565.83,4051.5 4197.17,4051.5 3828.5,4051.5C 3828.5,3723.17 3828.5,3394.83 3828.5,3066.5C 3891.54,3066.17 3954.54,3066.51 4017.5,3067.5 Z"/></g>
<g><path style="opacity:1" fill="#f0a24f" d="M 4931.5,3065.5 C 4932.5,3065.5 4933.5,3065.5 4934.5,3065.5C 4934.5,3086.83 4934.5,3108.17 4934.5,3129.5C 4933.5,3149.99 4933.17,3170.66 4933.5,3191.5C 4933.21,3207.67 4932.87,3223.83 4932.5,3240C 4932.53,3248.4 4933.2,3256.57 4934.5,3264.5C 4934.5,3440.5 4934.5,3616.5 4934.5,3792.5C 4819.63,3786.03 4707.97,3763.86 4599.5,3726C 4477.46,3682.56 4369.12,3616.89 4274.5,3529C 4142.38,3401.29 4056.72,3247.46 4017.5,3067.5C 4322.5,3068.17 4627.17,3067.5 4931.5,3065.5 Z"/></g>
<g><path style="opacity:1" fill="#c65f1b" d="M 3105.5,3063.5 C 3106.51,3064.94 3106.18,3066.27 3104.5,3067.5C 3345.5,3068.5 3586.5,3068.83 3827.5,3068.5C 3827.17,3396.33 3827.5,3724 3828.5,4051.5C 4197.17,4051.5 4565.83,4051.5 4934.5,4051.5C 4323.17,4052.83 3711.83,4052.83 3100.5,4051.5C 3100.17,3723.17 3100.5,3394.83 3101.5,3066.5C 3102.85,3065.48 3104.19,3064.48 3105.5,3063.5 Z"/></g>
<g><path style="opacity:1" fill="#d1e3fe" d="M 2563.5,3086.5 C 2576.71,3089.82 2590.04,3092.48 2603.5,3094.5C 2579,3099.8 2555.66,3108.47 2533.5,3120.5C 2531.66,3119.6 2530.33,3118.26 2529.5,3116.5C 2541.16,3106.84 2552.49,3096.84 2563.5,3086.5 Z"/></g>
<g><path style="opacity:1" fill="#d2e4fe" d="M 6909.5,3088.5 C 6911.25,3088.42 6912.25,3089.25 6912.5,3091C 6910.48,3102.46 6908.65,3113.96 6907,3125.5C 6904.49,3142.38 6894.99,3149.55 6878.5,3147C 6871.7,3142.23 6869.2,3135.73 6871,3127.5C 6871.77,3123.95 6873.11,3120.62 6875,3117.5C 6886.15,3107.16 6897.65,3097.5 6909.5,3088.5 Z"/></g>
<g><path style="opacity:1" fill="#699ad3" d="M 2428.5,3463.5 C 2414.5,3446.66 2400.67,3429.66 2387,3412.5C 2374.59,3399.04 2359.76,3389.21 2342.5,3383C 2331.69,3379.06 2320.69,3375.73 2309.5,3373C 2300.04,3370.72 2290.7,3371.05 2281.5,3374C 2280.1,3375.06 2279.1,3376.39 2278.5,3378C 2281.58,3386.76 2287.25,3393.42 2295.5,3398C 2315.4,3409.12 2335.73,3419.45 2356.5,3429C 2378.07,3439.87 2397.24,3454.04 2414,3471.5C 2419.26,3478.36 2423.76,3485.69 2427.5,3493.5C 2433.91,3504.65 2440.08,3515.98 2446,3527.5C 2454.56,3546.41 2448.73,3556.74 2428.5,3558.5C 2352.19,3553.5 2282.85,3529 2220.5,3485C 2203.11,3471.95 2188.94,3456.12 2178,3437.5C 2175.45,3430.8 2173.28,3423.96 2171.5,3417C 2171.16,3415.97 2170.5,3415.47 2169.5,3415.5C 2170.21,3414.6 2171.21,3414.26 2172.5,3414.5C 2170.48,3403.36 2171.98,3392.7 2177,3382.5C 2186.87,3362.63 2201.04,3346.46 2219.5,3334C 2245.23,3317.13 2272.57,3303.47 2301.5,3293C 2354.6,3275.2 2408.94,3262.2 2464.5,3254C 2548.1,3242.48 2632.1,3235.14 2716.5,3232C 2593.8,3227.11 2472.14,3235.77 2351.5,3258C 2311.62,3266.41 2272.95,3278.41 2235.5,3294C 2208.63,3306.05 2185.3,3322.89 2165.5,3344.5C 2138.67,3312.51 2121.17,3275.84 2113,3234.5C 2109.56,3209.65 2113.06,3185.99 2123.5,3163.5C 2158.34,3188.47 2197,3205.13 2239.5,3213.5C 2236.71,3222.63 2235.88,3231.96 2237,3241.5C 2237.77,3246.31 2240.6,3248.98 2245.5,3249.5C 2249.97,3248.19 2253.81,3245.86 2257,3242.5C 2262.6,3235.62 2267.43,3228.29 2271.5,3220.5C 2322.29,3227.09 2373.29,3229.25 2424.5,3227C 2462.92,3224.73 2500.59,3218.4 2537.5,3208C 2550.51,3204.58 2562.01,3198.41 2572,3189.5C 2576.27,3183.5 2577.6,3176.83 2576,3169.5C 2574.08,3163.79 2571.58,3158.46 2568.5,3153.5C 2596.45,3134.88 2624.11,3115.88 2651.5,3096.5C 2669.74,3100.39 2687.74,3105.23 2705.5,3111C 2731.37,3120.1 2755.04,3133.1 2776.5,3150C 2793.09,3163.68 2804.25,3180.84 2810,3201.5C 2813.12,3235.11 2808.12,3267.44 2795,3298.5C 2784.52,3323.31 2767.69,3342.48 2744.5,3356C 2728.99,3362.94 2713.32,3363.27 2697.5,3357C 2656.79,3343.86 2615.79,3331.86 2574.5,3321C 2563.19,3318.43 2551.86,3318.1 2540.5,3320C 2539.4,3322.4 2539.23,3324.9 2540,3327.5C 2542.61,3332.44 2545.61,3337.1 2549,3341.5C 2575.58,3367.87 2606.08,3388.37 2640.5,3403C 2656.19,3409.5 2672.53,3413.67 2689.5,3415.5C 2670.54,3435.63 2650.21,3454.13 2628.5,3471C 2607,3487.09 2583.66,3500.09 2558.5,3510C 2539.13,3516.09 2519.46,3517.09 2499.5,3513C 2472,3501.92 2448.33,3485.42 2428.5,3463.5 Z"/></g>
<g><path style="opacity:1" fill="#d2e4fe" d="M 6582.5,3123.5 C 6583.15,3124.45 6583.49,3125.62 6583.5,3127C 6582.19,3138.19 6580.69,3149.36 6579,3160.5C 6577.38,3173.79 6570.04,3181.45 6557,3183.5C 6544.83,3181.19 6540.16,3173.86 6543,3161.5C 6543.67,3159.5 6544.33,3157.5 6545,3155.5C 6549.01,3150.32 6553.51,3145.66 6558.5,3141.5C 6566.83,3135.83 6574.83,3129.83 6582.5,3123.5 Z"/></g>
<g><path style="opacity:1" fill="#d2e3fe" d="M 1818.5,3128.5 C 1835.77,3140.18 1853.43,3151.34 1871.5,3162C 1851.57,3161 1831.57,3160.33 1811.5,3160C 1805.16,3158.49 1798.82,3156.99 1792.5,3155.5C 1790.97,3155.36 1789.97,3154.69 1789.5,3153.5C 1799.44,3145.57 1809.1,3137.24 1818.5,3128.5 Z"/></g>
<g><path style="opacity:1" fill="#163561" d="M 5096.5,3219.5 C 5093.01,3230.85 5091.68,3242.52 5092.5,3254.5C 5069.49,3254.54 5046.49,3254.04 5023.5,3253C 5011.67,3251.85 5000,3250.02 4988.5,3247.5C 4982.67,3243.86 4976.67,3240.36 4970.5,3237C 4969.36,3235.85 4968.36,3234.69 4967.5,3233.5C 4974.33,3204.99 4963,3190.99 4933.5,3191.5C 4933.17,3170.66 4933.5,3149.99 4934.5,3129.5C 4939.82,3128.18 4945.16,3128.34 4950.5,3130C 4958.32,3131.16 4963.82,3135.33 4967,3142.5C 4968.48,3152.4 4967.32,3161.9 4963.5,3171C 4965.8,3174.3 4968.46,3177.3 4971.5,3180C 4979.68,3185.42 4988.35,3189.76 4997.5,3193C 5030.06,3203.56 5063.06,3212.39 5096.5,3219.5 Z"/></g>
<g><path style="opacity:1" fill="#d2e3fe" d="M 2123.5,3163.5 C 2113.06,3185.99 2109.56,3209.65 2113,3234.5C 2121.17,3275.84 2138.67,3312.51 2165.5,3344.5C 2162.21,3354.86 2158.05,3364.86 2153,3374.5C 2129.05,3418.86 2097.22,3456.69 2057.5,3488C 2033.34,3511.64 2013.67,3538.47 1998.5,3568.5C 1998.17,3568.5 1997.83,3568.5 1997.5,3568.5C 1986.83,3568.5 1976.17,3568.5 1965.5,3568.5C 1965.54,3557.49 1965.21,3546.49 1964.5,3535.5C 1986.32,3518.69 2006.32,3499.69 2024.5,3478.5C 2003.49,3475.38 1983.99,3468.38 1966,3457.5C 1965.5,3454.85 1965.34,3452.19 1965.5,3449.5C 1966.06,3436.13 1967.06,3422.79 1968.5,3409.5C 1969.16,3408.28 1969.83,3406.95 1970.5,3405.5C 1995.5,3414.59 2020.83,3422.75 2046.5,3430C 2052.31,3430.72 2057.98,3430.06 2063.5,3428C 2080.18,3419.65 2093.35,3407.48 2103,3391.5C 2120.76,3359.1 2128.1,3324.44 2125,3287.5C 2120.04,3269.21 2110.88,3253.38 2097.5,3240C 2091.17,3235 2084.83,3230 2078.5,3225C 2066.99,3218.02 2055.32,3211.52 2043.5,3205.5C 2053.29,3187.26 2064.13,3169.59 2076,3152.5C 2082.13,3144.04 2089.29,3136.54 2097.5,3130C 2098.33,3129.31 2099,3129.48 2099.5,3130.5C 2105.42,3142.92 2113.75,3153.42 2124.5,3162C 2123.94,3162.38 2123.61,3162.88 2123.5,3163.5 Z"/></g>
<g><path style="opacity:1" fill="#c2d9fb" d="M 1491.5,3192.5 C 1493.54,3180.93 1494.87,3169.26 1495.5,3157.5C 1495.48,3156.27 1495.15,3155.27 1494.5,3154.5C 1503.85,3149.66 1513.85,3146.5 1524.5,3145C 1542.17,3144.33 1559.83,3144.33 1577.5,3145C 1588.01,3146.5 1598.34,3148.84 1608.5,3152C 1611.92,3153.75 1615.09,3155.91 1618,3158.5C 1620.26,3162.12 1619.92,3165.46 1617,3168.5C 1609.48,3174.34 1600.98,3178.18 1591.5,3180C 1558.14,3183.98 1524.81,3188.15 1491.5,3192.5 Z"/></g>
<g><path style="opacity:1" fill="#d2e3fe" d="M 1494.5,3154.5 C 1495.15,3155.27 1495.48,3156.27 1495.5,3157.5C 1494.87,3169.26 1493.54,3180.93 1491.5,3192.5C 1467.87,3196.84 1445.53,3205 1424.5,3217C 1405.45,3231.71 1387.28,3247.55 1370,3264.5C 1354.79,3281.72 1357.62,3294.88 1378.5,3304C 1402.1,3312.62 1426.44,3318.12 1451.5,3320.5C 1452.09,3321.15 1452.76,3321.82 1453.5,3322.5C 1446.18,3338.48 1438.35,3354.14 1430,3369.5C 1394.22,3448.2 1382.05,3530.54 1393.5,3616.5C 1372.82,3616.83 1352.16,3616.5 1331.5,3615.5C 1337.45,3555.98 1328.28,3498.98 1304,3444.5C 1284.76,3409.79 1270.43,3373.12 1261,3334.5C 1255.48,3310.49 1252.81,3286.16 1253,3261.5C 1270.11,3250.17 1285.61,3236.84 1299.5,3221.5C 1305.8,3222.71 1312.14,3223.71 1318.5,3224.5C 1329.88,3223.78 1341.21,3222.62 1352.5,3221C 1366.72,3217.82 1380.72,3213.82 1394.5,3209C 1420.68,3197.17 1445.68,3183.17 1469.5,3167C 1477.61,3162.28 1485.94,3158.11 1494.5,3154.5 Z"/></g>
<g><path style="opacity:1" fill="#d2e3fe" d="M 2027.5,3175.5 C 2025.4,3183.14 2022.73,3190.47 2019.5,3197.5C 2012.45,3195.86 2005.45,3194.02 1998.5,3192C 1995.83,3191.33 1993.17,3191.33 1990.5,3192C 1968.89,3209.62 1946.72,3226.45 1924,3242.5C 1913.72,3231.05 1902.89,3220.05 1891.5,3209.5C 1900.93,3199.73 1910.93,3190.73 1921.5,3182.5C 1932.34,3185.79 1943.34,3188.29 1954.5,3190C 1980.69,3193.9 2004.85,3188.73 2027,3174.5C 2027.4,3174.73 2027.57,3175.06 2027.5,3175.5 Z"/></g>
<g><path style="opacity:1" fill="#c2d9fb" d="M 2043.5,3205.5 C 2055.32,3211.52 2066.99,3218.02 2078.5,3225C 2084.83,3230 2091.17,3235 2097.5,3240C 2110.88,3253.38 2120.04,3269.21 2125,3287.5C 2128.1,3324.44 2120.76,3359.1 2103,3391.5C 2093.35,3407.48 2080.18,3419.65 2063.5,3428C 2057.98,3430.06 2052.31,3430.72 2046.5,3430C 2020.83,3422.75 1995.5,3414.59 1970.5,3405.5C 1969.83,3406.95 1969.16,3408.28 1968.5,3409.5C 1971.62,3378.73 1978.12,3348.73 1988,3319.5C 2004.98,3280.71 2023.48,3242.71 2043.5,3205.5 Z"/></g>
<g><path style="opacity:1" fill="#d1e2fe" d="M 2239.5,3213.5 C 2250.24,3215.62 2260.91,3217.96 2271.5,3220.5C 2267.43,3228.29 2262.6,3235.62 2257,3242.5C 2253.81,3245.86 2249.97,3248.19 2245.5,3249.5C 2240.6,3248.98 2237.77,3246.31 2237,3241.5C 2235.88,3231.96 2236.71,3222.63 2239.5,3213.5 Z"/></g>
<g><path style="opacity:1" fill="#bfd2f0" d="M 4967.5,3233.5 C 4968.36,3234.69 4969.36,3235.85 4970.5,3237C 4976.67,3240.36 4982.67,3243.86 4988.5,3247.5C 4980.23,3246.45 4973.07,3243.11 4967,3237.5C 4966.24,3235.93 4966.4,3234.6 4967.5,3233.5 Z"/></g>
<g><path style="opacity:1" fill="#b25517" d="M 3224.5,3236.5 C 3232.93,3235.63 3238.1,3239.3 3240,3247.5C 3240.83,3254.23 3240.5,3260.9 3239,3267.5C 3234.29,3277.38 3227.96,3278.71 3220,3271.5C 3215.29,3263.29 3214.29,3254.63 3217,3245.5C 3218.64,3241.7 3221.14,3238.7 3224.5,3236.5 Z"/></g>
<g><path style="opacity:1" fill="#b25517" d="M 3685.5,3236.5 C 3693.54,3236.03 3698.71,3239.7 3701,3247.5C 3701.83,3254.23 3701.5,3260.9 3700,3267.5C 3694.47,3276.81 3687.8,3277.81 3680,3270.5C 3675.44,3260.82 3675.44,3251.15 3680,3241.5C 3681.73,3239.6 3683.56,3237.93 3685.5,3236.5 Z"/></g>
<g><path style="opacity:1" fill="#d3671e" d="M 4770.5,3236.5 C 4781.95,3234.48 4790.45,3238.48 4796,3248.5C 4799.16,3264.17 4792.82,3273.51 4777,3276.5C 4759.39,3272.94 4753.39,3262.61 4759,3245.5C 4762.18,3241.46 4766.02,3238.46 4770.5,3236.5 Z"/></g>
<g><path style="opacity:1" fill="#a0c1f4" d="M 7265.5,3873.5 C 7264.6,3874.21 7264.26,3875.21 7264.5,3876.5C 7253.09,3876.81 7241.75,3876.48 7230.5,3875.5C 7219.84,3831.85 7209.34,3788.18 7199,3744.5C 7180.48,3663.21 7165.81,3581.21 7155,3498.5C 7151.95,3469.57 7149.62,3440.57 7148,3411.5C 7146.44,3377.69 7147.77,3344.03 7152,3310.5C 7154.95,3288.45 7163.45,3268.95 7177.5,3252C 7199.19,3235.75 7221.19,3235.41 7243.5,3251C 7259.02,3264.53 7270.19,3281.03 7277,3300.5C 7286.4,3329.51 7292.74,3359.18 7296,3389.5C 7301.57,3458.46 7301.91,3527.46 7297,3596.5C 7289.98,3689.27 7279.48,3781.6 7265.5,3873.5 Z"/></g>
<g><path style="opacity:1" fill="#5588bc" d="M 2169.5,3415.5 C 2161.29,3418.61 2153.62,3422.77 2146.5,3428C 2117.5,3451.32 2090,3476.49 2064,3503.5C 2048.09,3523.31 2035.26,3544.97 2025.5,3568.5C 2016.4,3569.82 2007.4,3569.82 1998.5,3568.5C 2013.67,3538.47 2033.34,3511.64 2057.5,3488C 2097.22,3456.69 2129.05,3418.86 2153,3374.5C 2158.05,3364.86 2162.21,3354.86 2165.5,3344.5C 2185.3,3322.89 2208.63,3306.05 2235.5,3294C 2272.95,3278.41 2311.62,3266.41 2351.5,3258C 2472.14,3235.77 2593.8,3227.11 2716.5,3232C 2632.1,3235.14 2548.1,3242.48 2464.5,3254C 2408.94,3262.2 2354.6,3275.2 2301.5,3293C 2272.57,3303.47 2245.23,3317.13 2219.5,3334C 2201.04,3346.46 2186.87,3362.63 2177,3382.5C 2171.98,3392.7 2170.48,3403.36 2172.5,3414.5C 2171.21,3414.26 2170.21,3414.6 2169.5,3415.5 Z"/></g>
<g><path style="opacity:1" fill="#d2e3fe" d="M 4934.5,3264.5 C 4949.59,3275.42 4962.92,3288.25 4974.5,3303C 5024.81,3327.83 5075.47,3351.49 5126.5,3374C 5130.04,3385 5133.21,3396.16 5136,3407.5C 5140.46,3419.04 5144.63,3430.71 5148.5,3442.5C 5149.5,3645.47 5149.83,3848.47 5149.5,4051.5C 5077.83,4051.5 5006.17,4051.5 4934.5,4051.5C 4934.5,3965.17 4934.5,3878.83 4934.5,3792.5C 4934.5,3616.5 4934.5,3440.5 4934.5,3264.5 Z"/></g>
<g><path style="opacity:1" fill="#d2e3fe" d="M 1661.5,3299.5 C 1666.9,3300.13 1672.23,3301.13 1677.5,3302.5C 1674.97,3308.53 1671.8,3314.2 1668,3319.5C 1665.78,3323.39 1662.61,3326.22 1658.5,3328C 1656.03,3328.71 1653.7,3328.37 1651.5,3327C 1647.95,3319.29 1647.62,3311.45 1650.5,3303.5C 1654.17,3302.17 1657.83,3300.83 1661.5,3299.5 Z"/></g>
<g><path style="opacity:1" fill="#d2e4fe" d="M 6264.5,3315.5 C 6264.63,3330.41 6262.13,3345.08 6257,3359.5C 6251.24,3367.4 6243.74,3369.57 6234.5,3366C 6232.38,3364.27 6230.88,3362.1 6230,3359.5C 6228.89,3353.57 6229.56,3347.91 6232,3342.5C 6242.26,3332.65 6253.09,3323.65 6264.5,3315.5 Z"/></g>
<g><path style="opacity:1" fill="#d2e3fe" d="M 1472.5,3322.5 C 1494.82,3323.4 1517.15,3323.73 1539.5,3323.5C 1542.17,3323.5 1544.83,3323.5 1547.5,3323.5C 1554.88,3356.92 1568.71,3387.25 1589,3414.5C 1589.67,3415.83 1589.67,3417.17 1589,3418.5C 1587.32,3422.88 1585.65,3427.21 1584,3431.5C 1562.47,3477.39 1532.47,3517.05 1494,3550.5C 1476.93,3570.28 1462.6,3591.95 1451,3615.5C 1442.25,3616.48 1433.42,3616.82 1424.5,3616.5C 1421.7,3575.49 1421.87,3534.49 1425,3493.5C 1427.13,3457.7 1433.47,3422.7 1444,3388.5C 1453.2,3366.43 1462.7,3344.43 1472.5,3322.5 Z"/></g>
<g><path style="opacity:1" fill="#d2e4fe" d="M 6890.5,3324.5 C 6890.74,3338.88 6888.91,3353.21 6885,3367.5C 6881.13,3379.36 6872.97,3384.86 6860.5,3384C 6853.6,3381.25 6849.93,3376.08 6849.5,3368.5C 6850.01,3364.74 6850.85,3361.07 6852,3357.5C 6855.8,3352.7 6859.97,3348.2 6864.5,3344C 6873.07,3337.25 6881.73,3330.75 6890.5,3324.5 Z"/></g>
<g><path style="opacity:1" fill="#d1e3fe" d="M 2428.5,3463.5 C 2428.83,3473.68 2428.49,3483.68 2427.5,3493.5C 2423.76,3485.69 2419.26,3478.36 2414,3471.5C 2397.24,3454.04 2378.07,3439.87 2356.5,3429C 2335.73,3419.45 2315.4,3409.12 2295.5,3398C 2287.25,3393.42 2281.58,3386.76 2278.5,3378C 2279.1,3376.39 2280.1,3375.06 2281.5,3374C 2290.7,3371.05 2300.04,3370.72 2309.5,3373C 2320.69,3375.73 2331.69,3379.06 2342.5,3383C 2359.76,3389.21 2374.59,3399.04 2387,3412.5C 2400.67,3429.66 2414.5,3446.66 2428.5,3463.5 Z"/></g>
<g><path style="opacity:1" fill="#d2e3fe" d="M 1936.5,3395.5 C 1933.27,3407.65 1930.94,3419.99 1929.5,3432.5C 1917.28,3423.78 1907.78,3412.78 1901,3399.5C 1900.33,3397.17 1900.33,3394.83 1901,3392.5C 1903.57,3391.58 1906.24,3390.92 1909,3390.5C 1918.35,3391.4 1927.52,3393.06 1936.5,3395.5 Z"/></g>
<g><path style="opacity:1" fill="#d2e3fe" d="M 2169.5,3415.5 C 2170.5,3415.47 2171.16,3415.97 2171.5,3417C 2173.28,3423.96 2175.45,3430.8 2178,3437.5C 2188.94,3456.12 2203.11,3471.95 2220.5,3485C 2282.85,3529 2352.19,3553.5 2428.5,3558.5C 2428.5,3561.83 2428.5,3565.17 2428.5,3568.5C 2294.17,3568.5 2159.83,3568.5 2025.5,3568.5C 2035.26,3544.97 2048.09,3523.31 2064,3503.5C 2090,3476.49 2117.5,3451.32 2146.5,3428C 2153.62,3422.77 2161.29,3418.61 2169.5,3415.5 Z"/></g>
<g><path style="opacity:1" fill="#d2e3fe" d="M 1825.5,3541.5 C 1825.5,3547.83 1825.5,3554.17 1825.5,3560.5C 1824.53,3562.95 1824.19,3565.61 1824.5,3568.5C 1822.17,3568.5 1819.83,3568.5 1817.5,3568.5C 1812.37,3558.24 1807.2,3547.9 1802,3537.5C 1788.4,3518.29 1771.24,3503.12 1750.5,3492C 1732.47,3482.79 1714.8,3472.96 1697.5,3462.5C 1693.1,3459.39 1689.27,3455.73 1686,3451.5C 1683.61,3447.21 1684.11,3443.37 1687.5,3440C 1695.87,3439.32 1704.2,3439.65 1712.5,3441C 1722.7,3444.07 1732.7,3447.73 1742.5,3452C 1754.69,3457.85 1765.19,3466.01 1774,3476.5C 1784.25,3490 1794.25,3503.67 1804,3517.5C 1811.4,3525.39 1818.56,3533.39 1825.5,3541.5 Z"/></g>
<g><path style="opacity:1" fill="#bbd7fe" d="M 5148.5,3442.5 C 5187.19,3530.84 5246.02,3602.84 5325,3658.5C 5331.57,3697.63 5346.4,3733.3 5369.5,3765.5C 5368.5,3802.33 5368.17,3839.33 5368.5,3876.5C 5399.17,3876.5 5429.83,3876.5 5460.5,3876.5C 5461.55,3881.11 5461.72,3885.78 5461,3890.5C 5451.15,3929.4 5438.15,3967.07 5422,4003.5C 5420.62,4007.29 5418.12,4009.96 5414.5,4011.5C 5398.91,4006.15 5382.91,4003.98 5366.5,4005C 5363.06,4006.1 5360.56,4008.27 5359,4011.5C 5357.72,4024.93 5360.22,4037.59 5366.5,4049.5C 5294.51,4051.5 5222.17,4052.16 5149.5,4051.5C 5149.83,3848.47 5149.5,3645.47 5148.5,3442.5 Z"/></g>
<g><path style="opacity:1" fill="#c2d9fb" d="M 1965.5,3449.5 C 1965.34,3452.19 1965.5,3454.85 1966,3457.5C 1983.99,3468.38 2003.49,3475.38 2024.5,3478.5C 2006.32,3499.69 1986.32,3518.69 1964.5,3535.5C 1963.04,3506.67 1963.37,3478 1965.5,3449.5 Z"/></g>
<g><path style="opacity:1" fill="#d3e4fe" d="M 6504.5,3469.5 C 6505.76,3470.51 6506.43,3472.01 6506.5,3474C 6504.96,3483.82 6503.46,3493.66 6502,3503.5C 6498.41,3518.2 6489.58,3523.36 6475.5,3519C 6467.84,3507.91 6469.18,3497.91 6479.5,3489C 6488.02,3482.64 6496.35,3476.14 6504.5,3469.5 Z"/></g>
<g><path style="opacity:1" fill="#d2e3fe" d="M 1675.5,3568.5 C 1633.33,3568.17 1591.33,3568.5 1549.5,3569.5C 1549.5,3574.17 1549.5,3578.83 1549.5,3583.5C 1554.83,3583.5 1560.17,3583.5 1565.5,3583.5C 1566.32,3594.49 1566.99,3605.49 1567.5,3616.5C 1536.16,3616.67 1504.83,3616.5 1473.5,3616C 1477.44,3606.72 1481.61,3597.55 1486,3588.5C 1491.08,3580.67 1495.92,3572.67 1500.5,3564.5C 1518.23,3543.28 1537.23,3523.12 1557.5,3504C 1566.6,3495.56 1576.26,3487.9 1586.5,3481C 1588.72,3480.31 1590.89,3479.47 1593,3478.5C 1597.49,3494.81 1605.15,3509.47 1616,3522.5C 1633.76,3540.79 1653.6,3556.13 1675.5,3568.5 Z"/></g>
<g><path style="opacity:1" fill="#a0c1f4" d="M 7173.5,3876.5 C 7153.83,3876.5 7134.17,3876.5 7114.5,3876.5C 7058.84,3829.02 7004.17,3780.18 6950.5,3730C 6915.5,3696.01 6882.33,3660.51 6851,3623.5C 6842.61,3612.11 6834.61,3600.44 6827,3588.5C 6820.98,3578.6 6817.48,3567.93 6816.5,3556.5C 6815.28,3549.79 6817.28,3544.29 6822.5,3540C 6830.12,3535.37 6838.45,3533.21 6847.5,3533.5C 6869,3534.72 6888.67,3541.22 6906.5,3553C 6938.62,3574.43 6967.78,3599.59 6994,3628.5C 7061.44,3705.74 7121.28,3788.41 7173.5,3876.5 Z"/></g>
<g><path style="opacity:1" fill="#a0c0f1" d="M 1825.5,3560.5 C 1825.5,3563.5 1825.5,3566.5 1825.5,3569.5C 1733.5,3569.5 1641.5,3569.5 1549.5,3569.5C 1591.33,3568.5 1633.33,3568.17 1675.5,3568.5C 1722.83,3568.5 1770.17,3568.5 1817.5,3568.5C 1819.83,3568.5 1822.17,3568.5 1824.5,3568.5C 1824.19,3565.61 1824.53,3562.95 1825.5,3560.5 Z"/></g>
<g><path style="opacity:1" fill="#76a3e4" d="M 1997.5,3568.5 C 1997.83,3568.5 1998.17,3568.5 1998.5,3568.5C 2007.4,3569.82 2016.4,3569.82 2025.5,3568.5C 2195.67,3569.5 2366,3569.83 2536.5,3569.5C 2536.67,3574.18 2536.5,3578.85 2536,3583.5C 2532.27,3584.46 2528.44,3584.79 2524.5,3584.5C 2520.5,3686.53 2488.16,3778.19 2427.5,3859.5C 2384.09,3915.76 2331.09,3960.59 2268.5,3994C 2321.83,3994.5 2375.17,3994.67 2428.5,3994.5C 2438.84,3994.33 2449.17,3994.5 2459.5,3995C 2462.1,3995.92 2464.77,3996.59 2467.5,3997C 2492.4,4006.63 2505.74,4024.79 2507.5,4051.5C 2040.17,4052.83 1572.83,4052.83 1105.5,4051.5C 1263.83,4051.5 1422.17,4051.5 1580.5,4051.5C 1580.79,4046.09 1581.62,4040.76 1583,4035.5C 1591.19,4012.48 1607.36,3998.98 1631.5,3995C 1649.5,3994.5 1667.5,3994.33 1685.5,3994.5C 1730.83,3994.67 1776.17,3994.5 1821.5,3994C 1795.81,3980.16 1771.47,3964.33 1748.5,3946.5C 1643.33,3861.53 1583,3751.53 1567.5,3616.5C 1566.99,3605.49 1566.32,3594.49 1565.5,3583.5C 1560.17,3583.5 1554.83,3583.5 1549.5,3583.5C 1549.5,3578.83 1549.5,3574.17 1549.5,3569.5C 1641.5,3569.5 1733.5,3569.5 1825.5,3569.5C 1834.83,3569.5 1844.17,3569.5 1853.5,3569.5C 1901.67,3569.83 1949.67,3569.5 1997.5,3568.5 Z"/></g>
<g><path style="opacity:1" fill="#adccfa" d="M 1624.5,3583.5 C 1664.17,3583.5 1703.83,3583.5 1743.5,3583.5C 1752.74,3746.52 1823.74,3874.69 1956.5,3968C 1970.84,3977.17 1985.5,3985.84 2000.5,3994C 1960.17,3994.67 1919.83,3994.67 1879.5,3994C 1748.25,3921.06 1666.09,3811.23 1633,3664.5C 1627.35,3637.8 1624.51,3610.8 1624.5,3583.5 Z"/></g>
<g><path style="opacity:1" fill="#d2e4fe" d="M 6227.5,3592.5 C 6228.65,3596.65 6228.81,3600.98 6228,3605.5C 6226.57,3611.43 6225.57,3617.43 6225,3623.5C 6223.54,3637.98 6215.71,3644.81 6201.5,3644C 6196.32,3641.64 6193.32,3637.64 6192.5,3632C 6192.58,3626.67 6194.08,3621.84 6197,3617.5C 6206.77,3608.55 6216.94,3600.21 6227.5,3592.5 Z"/></g>
<g><path style="opacity:1" fill="#163561" d="M 5624.5,3601.5 C 5628.05,3612.89 5630.55,3624.55 5632,3636.5C 5634.8,3657.05 5633.8,3677.38 5629,3697.5C 5626.22,3700.72 5624.22,3704.38 5623,3708.5C 5622.21,3722.31 5626.21,3734.64 5635,3745.5C 5646.26,3759.43 5658.26,3772.76 5671,3785.5C 5674.83,3790 5677.83,3795 5680,3800.5C 5678.01,3825.93 5674.84,3851.26 5670.5,3876.5C 5660.21,3934.41 5649.88,3992.41 5639.5,4050.5C 5638.83,4050.5 5638.5,4050.83 5638.5,4051.5C 5608.17,4051.5 5577.83,4051.5 5547.5,4051.5C 5547.74,4050.21 5547.4,4049.21 5546.5,4048.5C 5545.07,4036.55 5547.57,4025.55 5554,4015.5C 5556.95,4012.34 5560.61,4010.67 5565,4010.5C 5571.44,4012.41 5577.94,4012.75 5584.5,4011.5C 5586.72,4006.08 5587.88,4000.41 5588,3994.5C 5589,3961.13 5588.34,3927.8 5586,3894.5C 5585.78,3888.29 5584.61,3882.29 5582.5,3876.5C 5580.4,3870.63 5577.07,3865.63 5572.5,3861.5C 5575.5,3855.65 5577.84,3849.48 5579.5,3843C 5578.92,3838.02 5577.75,3833.19 5576,3828.5C 5568.16,3811.16 5561.16,3793.49 5555,3775.5C 5553.89,3769.37 5553.05,3763.2 5552.5,3757C 5552.04,3748.72 5554.54,3741.56 5560,3735.5C 5565.71,3731.46 5570.38,3726.46 5574,3720.5C 5589.94,3686.41 5597.27,3650.41 5596,3612.5C 5605.58,3608.92 5615.08,3605.25 5624.5,3601.5 Z"/></g>
<g><path style="opacity:1" fill="#e9f2f9" d="M 5369.5,3765.5 C 5380.33,3780.85 5392.16,3795.51 5405,3809.5C 5420.03,3824.86 5435.36,3839.86 5451,3854.5C 5456.08,3861 5459.25,3868.33 5460.5,3876.5C 5429.83,3876.5 5399.17,3876.5 5368.5,3876.5C 5368.17,3839.33 5368.5,3802.33 5369.5,3765.5 Z"/></g>
<g><path style="opacity:1" fill="#b25517" d="M 3223.5,3857.5 C 3232.65,3855.83 3238.15,3859.49 3240,3868.5C 3240.83,3875.23 3240.5,3881.9 3239,3888.5C 3234.84,3896.81 3229.01,3898.48 3221.5,3893.5C 3214.58,3883.66 3213.74,3873.33 3219,3862.5C 3220.71,3860.96 3222.21,3859.3 3223.5,3857.5 Z"/></g>
<g><path style="opacity:1" fill="#b25517" d="M 3684.5,3857.5 C 3693.6,3855.8 3699.1,3859.47 3701,3868.5C 3701.82,3874.9 3701.48,3881.24 3700,3887.5C 3695.55,3896.99 3689.22,3898.66 3681,3892.5C 3676.35,3884.34 3675.35,3875.67 3678,3866.5C 3679.58,3863.08 3681.75,3860.08 3684.5,3857.5 Z"/></g>
<g><path style="opacity:1" fill="#d2e3fe" d="M 2427.5,3859.5 C 2428.5,3904.33 2428.83,3949.33 2428.5,3994.5C 2375.17,3994.67 2321.83,3994.5 2268.5,3994C 2331.09,3960.59 2384.09,3915.76 2427.5,3859.5 Z"/></g>
<g><path style="opacity:1" fill="#e5eef6" d="M 5572.5,3861.5 C 5577.07,3865.63 5580.4,3870.63 5582.5,3876.5C 5576.5,3876.5 5570.5,3876.5 5564.5,3876.5C 5566.41,3871.02 5569.07,3866.02 5572.5,3861.5 Z"/></g>
<g><path style="opacity:1" fill="#bbd7fe" d="M 5564.5,3876.5 C 5570.5,3876.5 5576.5,3876.5 5582.5,3876.5C 5584.61,3882.29 5585.78,3888.29 5586,3894.5C 5588.34,3927.8 5589,3961.13 5588,3994.5C 5587.88,4000.41 5586.72,4006.08 5584.5,4011.5C 5577.94,4012.75 5571.44,4012.41 5565,4010.5C 5560.61,4010.67 5556.95,4012.34 5554,4015.5C 5547.57,4025.55 5545.07,4036.55 5546.5,4048.5C 5546.5,4049.5 5546.5,4050.5 5546.5,4051.5C 5518.17,4051.5 5489.83,4051.5 5461.5,4051.5C 5496.24,3993.42 5530.57,3935.09 5564.5,3876.5 Z"/></g>
<g><path style="opacity:1" fill="#bcd7fe" d="M 7265.5,3873.5 C 7265.5,3874.5 7265.5,3875.5 7265.5,3876.5C 7334.51,3875.84 7403.17,3876.5 7471.5,3878.5C 7455.4,3938.47 7433.4,3996.13 7405.5,4051.5C 6816.67,4051.83 6228,4051.5 5639.5,4050.5C 5649.88,3992.41 5660.21,3934.41 5670.5,3876.5C 6151.83,3876.5 6633.17,3876.5 7114.5,3876.5C 7134.17,3876.5 7153.83,3876.5 7173.5,3876.5C 7192.67,3876.83 7211.67,3876.5 7230.5,3875.5C 7241.75,3876.48 7253.09,3876.81 7264.5,3876.5C 7264.26,3875.21 7264.6,3874.21 7265.5,3873.5 Z"/></g>
<g><path style="opacity:1" fill="#d2e3fe" d="M 1748.5,3946.5 C 1771.47,3964.33 1795.81,3980.16 1821.5,3994C 1776.17,3994.5 1730.83,3994.67 1685.5,3994.5C 1707.59,3980.09 1728.59,3964.09 1748.5,3946.5 Z"/></g>
<g><path style="opacity:1" fill="#2e3552" d="M 765.5,4051.5 C 878.5,4051.5 991.5,4051.5 1104.5,4051.5C 1104.83,4051.5 1105.17,4051.5 1105.5,4051.5C 1572.83,4052.83 2040.17,4052.83 2507.5,4051.5C 2705.17,4051.5 2902.83,4051.5 3100.5,4051.5C 3711.83,4052.83 4323.17,4052.83 4934.5,4051.5C 5006.17,4051.5 5077.83,4051.5 5149.5,4051.5C 5222.17,4052.83 5294.83,4052.83 5367.5,4051.5C 5398.83,4051.5 5430.17,4051.5 5461.5,4051.5C 5490.17,4052.83 5518.83,4052.83 5547.5,4051.5C 5577.83,4051.5 5608.17,4051.5 5638.5,4051.5C 6227.5,4052.83 6816.5,4052.83 7405.5,4051.5C 7536.5,4051.33 7667.5,4051.5 7798.5,4052C 7801.06,4052.69 7802.89,4054.19 7804,4056.5C 7805.47,4062.08 7804.3,4066.91 7800.5,4071C 6542.17,4071.17 5283.83,4071.33 4025.5,4071.5C 2767.17,4071.33 1508.83,4071.17 250.5,4071C 246.614,4069.06 244.947,4065.9 245.5,4061.5C 245.19,4057.31 246.857,4054.14 250.5,4052C 422.166,4051.5 593.833,4051.33 765.5,4051.5 Z"/></g>
<g><path style="opacity:1" fill="#7787a9" d="M 5366.5,4049.5 C 5367.34,4049.84 5367.67,4050.51 5367.5,4051.5C 5294.83,4052.83 5222.17,4052.83 5149.5,4051.5C 5222.17,4052.16 5294.51,4051.5 5366.5,4049.5 Z"/></g>
<g><path style="opacity:1" fill="#7686a8" d="M 5546.5,4048.5 C 5547.4,4049.21 5547.74,4050.21 5547.5,4051.5C 5518.83,4052.83 5490.17,4052.83 5461.5,4051.5C 5489.83,4051.5 5518.17,4051.5 5546.5,4051.5C 5546.5,4050.5 5546.5,4049.5 5546.5,4048.5 Z"/></g>
<g><path style="opacity:1" fill="#7686a8" d="M 5639.5,4050.5 C 6228,4051.5 6816.67,4051.83 7405.5,4051.5C 6816.5,4052.83 6227.5,4052.83 5638.5,4051.5C 5638.5,4050.83 5638.83,4050.5 5639.5,4050.5 Z"/></g>
</svg>
