<?xml version="1.0" encoding="UTF-8"?>
<!DOCTYPE svg PUBLIC "-//W3C//DTD SVG 1.1//EN" "http://www.w3.org/Graphics/SVG/1.1/DTD/svg11.dtd">
<svg xmlns="http://www.w3.org/2000/svg" version="1.1" width="7500px" height="5000px" style="shape-rendering:geometricPrecision; text-rendering:geometricPrecision; image-rendering:optimizeQuality; fill-rule:evenodd; clip-rule:evenodd" xmlns:xlink="http://www.w3.org/1999/xlink">
<g><path style="opacity:0.228" fill="#fefefe" d="M -0.5,-0.5 C 2499.5,-0.5 4999.5,-0.5 7499.5,-0.5C 7499.5,1666.17 7499.5,3332.83 7499.5,4999.5C 4999.5,4999.5 2499.5,4999.5 -0.5,4999.5C -0.5,3332.83 -0.5,1666.17 -0.5,-0.5 Z"/></g>
<g><path style="opacity:1" fill="#2d3a64" d="M 3790.5,1058.5 C 3787.13,1057.57 3784.63,1055.57 3783,1052.5C 3781.41,1048.66 3780.41,1044.66 3780,1040.5C 3780.08,1010.5 3780.08,980.501 3780,950.5C 3774.71,928.293 3765.38,907.96 3752,889.5C 3729.44,927.747 3701.94,962.247 3669.5,993C 3642.61,1017.54 3611.94,1035.87 3577.5,1048C 3571.5,1049.77 3565.5,1051.11 3559.5,1052C 3594.93,1032.24 3627.27,1008.24 3656.5,980C 3641,989.406 3624.33,996.739 3606.5,1002C 3581.25,1005.62 3556.08,1005.12 3531,1000.5C 3529.83,1000.83 3528.67,1001.17 3527.5,1001.5C 3523.36,1018.74 3519.53,1036.07 3516,1053.5C 3515.33,1061.83 3515.33,1070.17 3516,1078.5C 3517.92,1088.34 3520.42,1098.01 3523.5,1107.5C 3522.05,1117.15 3520.71,1126.82 3519.5,1136.5C 3518.88,1136.61 3518.38,1136.94 3518,1137.5C 3513.68,1118.88 3506.35,1101.55 3496,1085.5C 3487.6,1074.9 3476.93,1071.57 3464,1075.5C 3454.99,1075.14 3447.16,1071.97 3440.5,1066C 3427.64,1054.44 3418.14,1040.61 3412,1024.5C 3394.43,970.447 3397.1,917.447 3420,865.5C 3425.94,852.439 3432.78,839.939 3440.5,828C 3432.18,828.29 3423.85,828.29 3415.5,828C 3409.51,826.592 3404.35,823.758 3400,819.5C 3378.22,789.483 3367.22,755.816 3367,718.5C 3372.29,693.928 3381.96,671.261 3396,650.5C 3404.02,640.404 3413.86,632.57 3425.5,627C 3445.34,622.696 3464.34,625.029 3482.5,634C 3492.25,638.62 3501.41,644.12 3510,650.5C 3510.17,650.167 3510.33,649.833 3510.5,649.5C 3503.12,639.133 3493.45,631.633 3481.5,627C 3465.42,620.539 3448.75,616.206 3431.5,614C 3462.65,614.163 3492.32,620.83 3520.5,634C 3554.46,652.056 3573.96,680.223 3579,718.5C 3596.8,708.208 3615.97,704.708 3636.5,708C 3652.47,711.437 3667.47,717.437 3681.5,726C 3707.51,744.006 3730.34,765.506 3750,790.5C 3769.93,816.675 3787.59,844.341 3803,873.5C 3827.77,898.94 3837.1,929.273 3831,964.5C 3824.78,999.018 3811.28,1030.35 3790.5,1058.5 Z"/></g>
<g><path style="opacity:1" fill="#e9f2f9" d="M 7184.5,4176.5 C 6622.67,4176.83 6061,4176.5 5499.5,4175.5C 5499.17,4155.68 5497.33,4136.01 5494,4116.5C 5488.31,4104.76 5480.47,4094.76 5470.5,4086.5C 5473.92,4037.43 5477.58,3988.43 5481.5,3939.5C 5517.22,3933.15 5552.22,3923.82 5586.5,3911.5C 5586.83,3910 5587.17,3908.5 5587.5,3907C 5571.11,3668.59 5546.45,3431.09 5513.5,3194.5C 5516.61,3193.91 5519.61,3193.24 5522.5,3192.5C 5523.5,3192.5 5524.5,3192.5 5525.5,3192.5C 5525.26,3179.46 5524.43,3166.46 5523,3153.5C 5517.82,3116.07 5512.32,3078.74 5506.5,3041.5C 5526.8,3023.37 5545.97,3004.03 5564,2983.5C 5572.18,2973.64 5579.18,2962.98 5585,2951.5C 5586.41,2947.94 5587.41,2944.28 5588,2940.5C 5588.56,2927.82 5588.23,2915.15 5587,2902.5C 5577.65,2841.55 5565.49,2781.22 5550.5,2721.5C 5560.91,2713.93 5570.24,2705.09 5578.5,2695C 5574.79,2684.7 5570.79,2674.53 5566.5,2664.5C 5602.59,2643.35 5621.59,2611.69 5623.5,2569.5C 5621.83,2559.3 5619.83,2549.13 5617.5,2539C 5618.3,2529.88 5621.46,2521.72 5627,2514.5C 5636.7,2504.47 5646.04,2494.13 5655,2483.5C 5667.17,2467.7 5669.84,2450.36 5663,2431.5C 5657.46,2419.42 5651.12,2407.75 5644,2396.5C 5628.74,2377.66 5615.74,2357.33 5605,2335.5C 5597.74,2316.73 5595.74,2297.4 5599,2277.5C 5602.36,2261.68 5606.36,2246.01 5611,2230.5C 5622.11,2164.87 5596.61,2120.37 5534.5,2097C 5520.98,2093.22 5507.31,2092.22 5493.5,2094C 5485.36,2095.74 5477.86,2098.9 5471,2103.5C 5471.04,2101.72 5471.71,2100.05 5473,2098.5C 5476.7,2094.41 5480.87,2090.91 5485.5,2088C 5464.43,2089.29 5448.6,2099.12 5438,2117.5C 5434.6,2123.53 5432.1,2129.86 5430.5,2136.5C 5416.73,2134.44 5403.06,2134.1 5389.5,2135.5C 5363.14,2131.67 5337.47,2134.5 5312.5,2144C 5271.5,2160.43 5238,2186.6 5212,2222.5C 5208.11,2229.61 5204.78,2236.94 5202,2244.5C 5195.35,2271.95 5193.85,2299.61 5197.5,2327.5C 5192.94,2354.75 5192.1,2382.09 5195,2409.5C 5197.18,2429.7 5206.01,2446.2 5221.5,2459C 5224.61,2461.11 5227.94,2462.77 5231.5,2464C 5242.43,2466.71 5253.43,2469.21 5264.5,2471.5C 5265.71,2471.75 5266.38,2472.41 5266.5,2473.5C 5266.11,2483.1 5264.45,2492.43 5261.5,2501.5C 5258.93,2510.64 5255.26,2519.31 5250.5,2527.5C 5234.81,2529.78 5219.15,2532.28 5203.5,2535C 5193.16,2538.34 5183.49,2543 5174.5,2549C 5137.98,2579.02 5101.31,2608.86 5064.5,2638.5C 5063.5,2644.13 5063.17,2649.79 5063.5,2655.5C 5062.84,2654.6 5062.18,2653.6 5061.5,2652.5C 5023.45,2688.05 4986.95,2725.05 4952,2763.5C 4944.05,2773.24 4936.21,2783.08 4928.5,2793C 4856.89,2828.14 4785.55,2863.81 4714.5,2900C 4688.28,2903.65 4663.28,2911.31 4639.5,2923C 4629.58,2928.2 4621.41,2935.37 4615,2944.5C 4613.08,2950.02 4614.91,2953.35 4620.5,2954.5C 4640.46,2946.9 4660.8,2940.4 4681.5,2935C 4685.15,2934.5 4688.82,2934.33 4692.5,2934.5C 4692.61,2936.9 4691.61,2938.74 4689.5,2940C 4678.7,2942.16 4668.03,2944.83 4657.5,2948C 4656.12,2950.58 4656.78,2952.58 4659.5,2954C 4664.09,2955.86 4668.76,2957.53 4673.5,2959C 4682.5,2959.67 4691.5,2959.67 4700.5,2959C 4748.39,2946.03 4796.39,2933.36 4844.5,2921C 4885.34,2909.79 4925.34,2896.12 4964.5,2880C 5024.11,2845.71 5081.45,2808.21 5136.5,2767.5C 5140.84,2866.58 5136.34,2965.24 5123,3063.5C 5119.2,3091.95 5114.87,3120.28 5110,3148.5C 5109.14,3156.81 5108.64,3165.15 5108.5,3173.5C 5108.39,3178.61 5108.89,3183.61 5110,3188.5C 5110.83,3189.33 5111.67,3190.17 5112.5,3191C 5116.47,3192.04 5120.13,3193.54 5123.5,3195.5C 5084.11,3426.31 5044.11,3656.98 5003.5,3887.5C 5013.73,3890.42 5024.07,3893.08 5034.5,3895.5C 5035.56,3898.07 5035.72,3900.74 5035,3903.5C 5028.6,3933.73 5022.76,3964.07 5017.5,3994.5C 5016.88,3994.39 5016.38,3994.06 5016,3993.5C 4917.55,3717.99 4819.38,3442.32 4721.5,3166.5C 4724.37,3131.99 4722.21,3097.65 4715,3063.5C 4698.64,3030.27 4677.47,3000.44 4651.5,2974C 4644.83,2968.66 4637.49,2964.33 4629.5,2961C 4614.03,2954.28 4598.36,2947.95 4582.5,2942C 4581.19,2941.02 4580.19,2939.85 4579.5,2938.5C 4579.42,2937.25 4578.76,2936.42 4577.5,2936C 4562.51,2932.5 4547.84,2928.33 4533.5,2923.5C 4540.91,2911.1 4547.08,2898.1 4552,2884.5C 4560.68,2857.45 4568.35,2830.12 4575,2802.5C 4589.12,2732.97 4600.46,2662.97 4609,2592.5C 4622.31,2479.76 4631.81,2366.76 4637.5,2253.5C 4630.15,2249.95 4622.81,2246.62 4615.5,2243.5C 4615.83,2232.34 4617.33,2221.34 4620,2210.5C 4628.99,2186.55 4637.99,2162.55 4647,2138.5C 4650.45,2127.68 4653.12,2116.68 4655,2105.5C 4655.67,2098.17 4655.67,2090.83 4655,2083.5C 4650.58,2073.65 4645.41,2064.32 4639.5,2055.5C 4678.75,2023.9 4687.58,1985.24 4666,1939.5C 4650.59,1915.42 4631.09,1895.25 4607.5,1879C 4552.83,1842.33 4494.83,1812 4433.5,1788C 4415.06,1781.31 4396.06,1776.97 4376.5,1775C 4366.5,1774.33 4356.5,1774.33 4346.5,1775C 4341.18,1776.13 4336.02,1777.63 4331,1779.5C 4332.29,1775.86 4334.79,1773.03 4338.5,1771C 4343.1,1769.13 4347.77,1767.47 4352.5,1766C 4340.07,1764.28 4328.73,1766.94 4318.5,1774C 4311.63,1779.21 4305.79,1785.37 4301,1792.5C 4295.13,1789.81 4288.96,1788.98 4282.5,1790C 4287.56,1792.35 4291.56,1795.85 4294.5,1800.5C 4286.04,1806.12 4279.54,1813.46 4275,1822.5C 4264.42,1844.01 4255.75,1866.34 4249,1889.5C 4238.26,1926.77 4231.76,1964.77 4229.5,2003.5C 4229.52,2012.86 4230.02,2022.19 4231,2031.5C 4236.16,2048.5 4241.33,2065.5 4246.5,2082.5C 4241.66,2086.51 4236.5,2090.18 4231,2093.5C 4230.62,2092.94 4230.12,2092.61 4229.5,2092.5C 4167.3,2052.9 4106.63,2011.06 4047.5,1967C 4025.31,1950.14 4004.14,1931.97 3984,1912.5C 3976.49,1903.49 3970.49,1893.49 3966,1882.5C 3956.21,1858.8 3948.21,1834.46 3942,1809.5C 3936.68,1788.9 3931.68,1768.23 3927,1747.5C 3909.12,1655.36 3889.12,1563.7 3867,1472.5C 3859.23,1446.34 3849.39,1421.01 3837.5,1396.5C 3863.14,1357.91 3888.3,1318.91 3913,1279.5C 3998.49,1156.68 4104.65,1055.84 4231.5,977C 4347.5,906.865 4471.83,856.198 4604.5,825C 4787.29,783.226 4971.96,772.893 5158.5,794C 5421.07,823.631 5665.07,905.964 5890.5,1041C 6006.11,1112.21 6110.94,1197.38 6205,1296.5C 6445.02,1558.46 6557.35,1868.13 6542,2225.5C 6537.12,2309.68 6526.12,2393.01 6509,2475.5C 6497.98,2522.22 6486.98,2568.89 6476,2615.5C 6459.82,2697.47 6454.82,2780.14 6461,2863.5C 6470.9,2960.2 6497.57,3051.86 6541,3138.5C 6556.11,3167.06 6571.44,3195.39 6587,3223.5C 6630.5,3292.48 6673.5,3361.82 6716,3431.5C 6743.17,3477.57 6766.17,3525.91 6785,3576.5C 6820.83,3678.11 6828.16,3781.78 6807,3887.5C 6794.25,3947.84 6776.25,4006.51 6753,4063.5C 6737.03,4101.28 6719.53,4138.28 6700.5,4174.5C 6862,4175.17 7023.33,4175.83 7184.5,4176.5 Z"/></g>
<g><path style="opacity:1" fill="#feb17d" d="M 3790.5,1058.5 C 3776.12,1103.08 3755.62,1144.75 3729,1183.5C 3721.32,1193.85 3711.82,1202.02 3700.5,1208C 3691.68,1210.2 3683.01,1209.7 3674.5,1206.5C 3637.9,1196.7 3603.9,1181.2 3572.5,1160C 3563.41,1153.87 3555.24,1146.71 3548,1138.5C 3564.56,1179.07 3592.39,1209.57 3631.5,1230C 3643.99,1235.33 3656.99,1238.83 3670.5,1240.5C 3667.41,1263.79 3666.91,1287.12 3669,1310.5C 3669.23,1313.46 3670.4,1315.96 3672.5,1318C 3678.47,1319.69 3684.47,1321.19 3690.5,1322.5C 3704.42,1356.1 3717.26,1390.1 3729,1424.5C 3734.98,1442.33 3737.98,1460.67 3738,1479.5C 3736.41,1482.76 3733.91,1484.92 3730.5,1486C 3721.46,1487.98 3712.29,1489.15 3703,1489.5C 3628.11,1484.37 3554.61,1471.54 3482.5,1451C 3472.09,1447.9 3462.09,1443.9 3452.5,1439C 3448.18,1434.2 3445.02,1428.7 3443,1422.5C 3431.06,1378.54 3422.89,1333.87 3418.5,1288.5C 3431.4,1287.04 3444.4,1286.21 3457.5,1286C 3464.04,1281.13 3469.54,1275.29 3474,1268.5C 3489.46,1242.39 3501.13,1214.72 3509,1185.5C 3513.11,1169.28 3516.61,1152.95 3519.5,1136.5C 3520.71,1126.82 3522.05,1117.15 3523.5,1107.5C 3520.42,1098.01 3517.92,1088.34 3516,1078.5C 3515.33,1070.17 3515.33,1061.83 3516,1053.5C 3519.53,1036.07 3523.36,1018.74 3527.5,1001.5C 3528.67,1001.17 3529.83,1000.83 3531,1000.5C 3556.08,1005.12 3581.25,1005.62 3606.5,1002C 3624.33,996.739 3641,989.406 3656.5,980C 3627.27,1008.24 3594.93,1032.24 3559.5,1052C 3565.5,1051.11 3571.5,1049.77 3577.5,1048C 3611.94,1035.87 3642.61,1017.54 3669.5,993C 3701.94,962.247 3729.44,927.747 3752,889.5C 3765.38,907.96 3774.71,928.293 3780,950.5C 3780.08,980.501 3780.08,1010.5 3780,1040.5C 3780.41,1044.66 3781.41,1048.66 3783,1052.5C 3784.63,1055.57 3787.13,1057.57 3790.5,1058.5 Z"/></g>
<g><path style="opacity:1" fill="#ed985f" d="M 3674.5,1206.5 C 3672.84,1217.79 3671.51,1229.12 3670.5,1240.5C 3656.99,1238.83 3643.99,1235.33 3631.5,1230C 3592.39,1209.57 3564.56,1179.07 3548,1138.5C 3555.24,1146.71 3563.41,1153.87 3572.5,1160C 3603.9,1181.2 3637.9,1196.7 3674.5,1206.5 Z"/></g>
<g><path style="opacity:1" fill="#2b468a" d="M 3418.5,1288.5 C 3422.89,1333.87 3431.06,1378.54 3443,1422.5C 3445.02,1428.7 3448.18,1434.2 3452.5,1439C 3462.09,1443.9 3472.09,1447.9 3482.5,1451C 3554.61,1471.54 3628.11,1484.37 3703,1489.5C 3712.29,1489.15 3721.46,1487.98 3730.5,1486C 3733.91,1484.92 3736.41,1482.76 3738,1479.5C 3737.98,1460.67 3734.98,1442.33 3729,1424.5C 3717.26,1390.1 3704.42,1356.1 3690.5,1322.5C 3732.32,1331.83 3772.32,1345.99 3810.5,1365C 3811.38,1365.71 3812.05,1366.54 3812.5,1367.5C 3804.6,1374.27 3800.43,1382.94 3800,1393.5C 3799.74,1409.52 3802.07,1425.19 3807,1440.5C 3816.58,1470.15 3824.91,1500.15 3832,1530.5C 3833.22,1537.13 3834.22,1543.8 3835,1550.5C 3835.67,1566.5 3835.67,1582.5 3835,1598.5C 3830.48,1620.25 3825.48,1641.92 3820,1663.5C 3806.05,1745.33 3795.88,1827.67 3789.5,1910.5C 3785.97,1943.31 3782.97,1976.31 3780.5,2009.5C 3727.49,1984.84 3676.82,1956.34 3628.5,1924C 3621.1,1918.06 3614.27,1911.56 3608,1904.5C 3593.1,1881.37 3579.77,1857.37 3568,1832.5C 3523.74,1734.68 3480.07,1636.68 3437,1538.5C 3418.36,1498.39 3398.53,1458.89 3377.5,1420C 3341.51,1417.77 3307.51,1424.77 3275.5,1441C 3255.27,1450.94 3236.6,1463.1 3219.5,1477.5C 3216.04,1444.09 3218.54,1411.09 3227,1378.5C 3234.18,1353 3248.68,1332.83 3270.5,1318C 3301.82,1303.35 3334.82,1294.35 3369.5,1291C 3385.8,1289.53 3402.14,1288.69 3418.5,1288.5 Z"/></g>
<g><path style="opacity:1" fill="#ec985f" d="M 3812.5,1367.5 C 3823.37,1375.03 3831.7,1384.7 3837.5,1396.5C 3849.39,1421.01 3859.23,1446.34 3867,1472.5C 3889.12,1563.7 3909.12,1655.36 3927,1747.5C 3931.68,1768.23 3936.68,1788.9 3942,1809.5C 3948.21,1834.46 3956.21,1858.8 3966,1882.5C 3970.49,1893.49 3976.49,1903.49 3984,1912.5C 4004.14,1931.97 4025.31,1950.14 4047.5,1967C 4106.63,2011.06 4167.3,2052.9 4229.5,2092.5C 4229.06,2094.07 4228.06,2095.24 4226.5,2096C 4208.41,2106.96 4189.41,2115.79 4169.5,2122.5C 4147.14,2124.17 4124.81,2126.17 4102.5,2128.5C 4045.93,2113.92 3990.93,2095.09 3937.5,2072C 3916.93,2062.74 3897.93,2051.08 3880.5,2037C 3844.07,1999.09 3813.74,1956.93 3789.5,1910.5C 3795.88,1827.67 3806.05,1745.33 3820,1663.5C 3825.48,1641.92 3830.48,1620.25 3835,1598.5C 3835.67,1582.5 3835.67,1566.5 3835,1550.5C 3834.22,1543.8 3833.22,1537.13 3832,1530.5C 3824.91,1500.15 3816.58,1470.15 3807,1440.5C 3802.07,1425.19 3799.74,1409.52 3800,1393.5C 3800.43,1382.94 3804.6,1374.27 3812.5,1367.5 Z"/></g>
<g><path style="opacity:1" fill="#ec975f" d="M 3780.5,2009.5 C 3851.12,2044.47 3922.79,2077.31 3995.5,2108C 4026.41,2114.92 4057.08,2122.75 4087.5,2131.5C 4093.67,2133.62 4099.17,2136.96 4104,2141.5C 4118.89,2159.73 4132.23,2179.07 4144,2199.5C 4146.21,2204.29 4147.71,2209.29 4148.5,2214.5C 4148.77,2221.15 4145.77,2225.32 4139.5,2227C 4105.79,2229.52 4073.79,2223.19 4043.5,2208C 4034.75,2200.25 4027.08,2191.58 4020.5,2182C 3996.69,2176.53 3972.69,2172.36 3948.5,2169.5C 3889.23,2161.92 3829.9,2153.92 3770.5,2145.5C 3737.9,2139.67 3705.23,2133.5 3672.5,2127C 3634.62,2119.28 3597.62,2108.61 3561.5,2095C 3542.52,2087.49 3525.19,2077.33 3509.5,2064.5C 3490.46,2046.29 3472.62,2026.96 3456,2006.5C 3413.24,1948.69 3375.24,1887.69 3342,1823.5C 3314.11,1769.73 3288.95,1714.73 3266.5,1658.5C 3249.18,1612.85 3235.02,1566.18 3224,1518.5C 3221.81,1504.9 3220.31,1491.24 3219.5,1477.5C 3236.6,1463.1 3255.27,1450.94 3275.5,1441C 3307.51,1424.77 3341.51,1417.77 3377.5,1420C 3398.53,1458.89 3418.36,1498.39 3437,1538.5C 3480.07,1636.68 3523.74,1734.68 3568,1832.5C 3579.77,1857.37 3593.1,1881.37 3608,1904.5C 3614.27,1911.56 3621.1,1918.06 3628.5,1924C 3676.82,1956.34 3727.49,1984.84 3780.5,2009.5 Z"/></g>
<g><path style="opacity:1" fill="#233862" d="M 3266.5,1658.5 C 3288.95,1714.73 3314.11,1769.73 3342,1823.5C 3375.24,1887.69 3413.24,1948.69 3456,2006.5C 3472.62,2026.96 3490.46,2046.29 3509.5,2064.5C 3500.29,2062.93 3491.29,2060.43 3482.5,2057C 3448.81,2043.49 3417.48,2025.82 3388.5,2004C 3344.11,1968.78 3303.44,1929.61 3266.5,1886.5C 3275.24,1863.9 3280.24,1840.4 3281.5,1816C 3278.72,1763.28 3273.72,1710.78 3266.5,1658.5 Z"/></g>
<g><path style="opacity:1" fill="#2d3a64" d="M 4639.5,2055.5 C 4628.54,2064.63 4616.04,2070.3 4602,2072.5C 4599.78,2072.35 4597.62,2072.01 4595.5,2071.5C 4592.17,2070.17 4588.83,2068.83 4585.5,2067.5C 4565.54,2052.72 4546.88,2036.22 4529.5,2018C 4520.12,2009.62 4510.46,2001.62 4500.5,1994C 4487.91,1984.86 4473.91,1979.36 4458.5,1977.5C 4446.36,1978.49 4435.02,1981.99 4424.5,1988C 4407.93,1999.23 4391.93,2011.23 4376.5,2024C 4369.89,2028.76 4362.55,2030.42 4354.5,2029C 4353.33,2027.83 4352.17,2026.67 4351,2025.5C 4350.54,2012.08 4345.37,2000.92 4335.5,1992C 4330.71,1989.97 4326.04,1990.3 4321.5,1993C 4312.97,2000.56 4306.8,2009.73 4303,2020.5C 4300.41,2027.68 4298.41,2035.01 4297,2042.5C 4292.37,2052.47 4285.53,2060.64 4276.5,2067C 4269.61,2071.45 4262.61,2075.62 4255.5,2079.5C 4255.17,2079.5 4254.83,2079.5 4254.5,2079.5C 4251.84,2080.5 4249.17,2081.5 4246.5,2082.5C 4241.33,2065.5 4236.16,2048.5 4231,2031.5C 4230.02,2022.19 4229.52,2012.86 4229.5,2003.5C 4231.76,1964.77 4238.26,1926.77 4249,1889.5C 4255.75,1866.34 4264.42,1844.01 4275,1822.5C 4279.54,1813.46 4286.04,1806.12 4294.5,1800.5C 4291.56,1795.85 4287.56,1792.35 4282.5,1790C 4288.96,1788.98 4295.13,1789.81 4301,1792.5C 4305.79,1785.37 4311.63,1779.21 4318.5,1774C 4328.73,1766.94 4340.07,1764.28 4352.5,1766C 4347.77,1767.47 4343.1,1769.13 4338.5,1771C 4334.79,1773.03 4332.29,1775.86 4331,1779.5C 4336.02,1777.63 4341.18,1776.13 4346.5,1775C 4356.5,1774.33 4366.5,1774.33 4376.5,1775C 4396.06,1776.97 4415.06,1781.31 4433.5,1788C 4494.83,1812 4552.83,1842.33 4607.5,1879C 4631.09,1895.25 4650.59,1915.42 4666,1939.5C 4687.58,1985.24 4678.75,2023.9 4639.5,2055.5 Z"/></g>
<g><path style="opacity:1" fill="#2b468a" d="M 3266.5,1886.5 C 3303.44,1929.61 3344.11,1968.78 3388.5,2004C 3417.48,2025.82 3448.81,2043.49 3482.5,2057C 3491.29,2060.43 3500.29,2062.93 3509.5,2064.5C 3525.19,2077.33 3542.52,2087.49 3561.5,2095C 3597.62,2108.61 3634.62,2119.28 3672.5,2127C 3705.23,2133.5 3737.9,2139.67 3770.5,2145.5C 3768.96,2164.8 3767.79,2184.14 3767,2203.5C 3765.17,2206 3763.33,2208.5 3761.5,2211C 3757.1,2213.86 3752.77,2216.69 3748.5,2219.5C 3718.75,2230.32 3688.09,2237.32 3656.5,2240.5C 3655.5,2240.5 3654.5,2240.5 3653.5,2240.5C 3529.73,2253.04 3406.06,2251.88 3282.5,2237C 3254.06,2233.51 3226.06,2227.84 3198.5,2220C 3184.34,2216.24 3172.01,2209.41 3161.5,2199.5C 3153.56,2182.12 3150.23,2163.79 3151.5,2144.5C 3152.64,2128.97 3155.14,2113.63 3159,2098.5C 3171.36,2058.14 3188.02,2019.47 3209,1982.5C 3227.95,1950.24 3247.12,1918.24 3266.5,1886.5 Z"/></g>
<g><path style="opacity:1" fill="#e9f1f8" d="M 3789.5,1910.5 C 3813.74,1956.93 3844.07,1999.09 3880.5,2037C 3897.93,2051.08 3916.93,2062.74 3937.5,2072C 3990.93,2095.09 4045.93,2113.92 4102.5,2128.5C 4097.77,2130.24 4092.77,2131.24 4087.5,2131.5C 4057.08,2122.75 4026.41,2114.92 3995.5,2108C 3922.79,2077.31 3851.12,2044.47 3780.5,2009.5C 3782.97,1976.31 3785.97,1943.31 3789.5,1910.5 Z"/></g>
<g><path style="opacity:1" fill="#feb17d" d="M 4585.5,2067.5 C 4580.68,2077.81 4575.34,2087.81 4569.5,2097.5C 4563.91,2104.93 4558.08,2112.27 4552,2119.5C 4550.44,2121.22 4549.61,2123.22 4549.5,2125.5C 4547.63,2125.86 4546.13,2126.86 4545,2128.5C 4517.27,2163.23 4486.44,2195.06 4452.5,2224C 4437.39,2236.42 4420.72,2246.42 4402.5,2254C 4393.82,2255.96 4385.16,2255.96 4376.5,2254C 4365.94,2245.92 4355.27,2238.09 4344.5,2230.5C 4329.61,2216.44 4315.11,2201.77 4301,2186.5C 4283.55,2166.26 4270.21,2143.59 4261,2118.5C 4257.62,2105.56 4255.78,2092.56 4255.5,2079.5C 4262.61,2075.62 4269.61,2071.45 4276.5,2067C 4285.53,2060.64 4292.37,2052.47 4297,2042.5C 4298.41,2035.01 4300.41,2027.68 4303,2020.5C 4306.8,2009.73 4312.97,2000.56 4321.5,1993C 4326.04,1990.3 4330.71,1989.97 4335.5,1992C 4345.37,2000.92 4350.54,2012.08 4351,2025.5C 4352.17,2026.67 4353.33,2027.83 4354.5,2029C 4362.55,2030.42 4369.89,2028.76 4376.5,2024C 4391.93,2011.23 4407.93,1999.23 4424.5,1988C 4435.02,1981.99 4446.36,1978.49 4458.5,1977.5C 4473.91,1979.36 4487.91,1984.86 4500.5,1994C 4510.46,2001.62 4520.12,2009.62 4529.5,2018C 4546.88,2036.22 4565.54,2052.72 4585.5,2067.5 Z"/></g>
<g><path style="opacity:1" fill="#e9f2f9" d="M 3151.5,2144.5 C 3150.23,2163.79 3153.56,2182.12 3161.5,2199.5C 3154.1,2224.72 3148.76,2250.38 3145.5,2276.5C 3142.51,2301.05 3140.84,2325.71 3140.5,2350.5C 3148.46,2537.48 3155.96,2724.48 3163,2911.5C 3166.46,3021.33 3174.29,3130.83 3186.5,3240C 3186.33,3241.5 3186.17,3243 3186,3244.5C 3136.13,3331.43 3104.13,3424.76 3090,3524.5C 3076.34,3631.77 3076.01,3739.1 3089,3846.5C 3095.23,3898.24 3103.73,3949.58 3114.5,4000.5C 3116.66,4019.79 3112.5,4037.79 3102,4054.5C 3090.59,4070.65 3081.25,4087.99 3074,4106.5C 3068.76,4129.24 3067.26,4152.24 3069.5,4175.5C 2936.67,4176.5 2803.67,4176.83 2670.5,4176.5C 2670.78,4174.59 2670.45,4172.92 2669.5,4171.5C 2665.33,4148.83 2652,4134.66 2629.5,4129C 2553.19,4127.69 2476.86,4127.02 2400.5,4127C 2522.4,4074.1 2604.24,3984.6 2646,3858.5C 2656.7,3821.61 2662.87,3783.94 2664.5,3745.5C 2669.17,3745.5 2673.83,3745.5 2678.5,3745.5C 2678.5,3741.17 2678.5,3736.83 2678.5,3732.5C 2597,3731.5 2515.34,3731.17 2433.5,3731.5C 2431.94,3693 2433.78,3654.67 2439,3616.5C 2442.16,3597.86 2447.49,3579.86 2455,3562.5C 2469.6,3529.96 2486.27,3498.63 2505,3468.5C 2510.35,3460.98 2516.52,3454.32 2523.5,3448.5C 2533.69,3464.63 2547.35,3477.13 2564.5,3486C 2588.3,3497.43 2613.3,3505.1 2639.5,3509C 2695.1,3517.25 2750.43,3515.92 2805.5,3505C 2817.91,3502.09 2829.57,3497.42 2840.5,3491C 2846.49,3485.95 2847.99,3479.79 2845,3472.5C 2843.5,3468.84 2841.5,3465.5 2839,3462.5C 2821.07,3444.31 2801.57,3428.14 2780.5,3414C 2756.35,3403.08 2731.02,3396.41 2704.5,3394C 2681.28,3392.46 2658.28,3389.46 2635.5,3385C 2628.85,3383.26 2623.02,3380.09 2618,3375.5C 2616.85,3373.25 2616.52,3370.91 2617,3368.5C 2619.38,3365.73 2622.22,3363.56 2625.5,3362C 2651.01,3354.43 2677.01,3352.43 2703.5,3356C 2713.33,3357.61 2722.67,3360.61 2731.5,3365C 2750,3375.75 2768.33,3386.75 2786.5,3398C 2811.31,3412.38 2837.98,3421.38 2866.5,3425C 2892.89,3427.82 2916.55,3421.15 2937.5,3405C 2957.65,3388.18 2975.15,3369.01 2990,3347.5C 3008.86,3319.77 3024.53,3290.43 3037,3259.5C 3009.17,3267.4 2981,3268.56 2952.5,3263C 2924.57,3259.02 2897.9,3251.02 2872.5,3239C 2866.43,3235.6 2860.93,3231.43 2856,3226.5C 2855.01,3224.55 2854.68,3222.55 2855,3220.5C 2857.59,3217.46 2860.76,3215.29 2864.5,3214C 2888.53,3208.69 2912.86,3205.35 2937.5,3204C 2968.82,3202.13 3000.16,3200.47 3031.5,3199C 3051.67,3197.67 3067.17,3188.5 3078,3171.5C 3088.85,3154.78 3095.51,3136.45 3098,3116.5C 3100.39,3086.99 3097.72,3057.99 3090,3029.5C 3079.8,3000.29 3060.3,2979.79 3031.5,2968C 2993.52,2955.23 2954.52,2950.9 2914.5,2955C 2903.75,2955.68 2893.08,2957.01 2882.5,2959C 2847.14,3014.03 2808.3,3066.53 2766,3116.5C 2756.4,3127.11 2745.9,3136.61 2734.5,3145C 2729.95,3147.85 2725.45,3148.02 2721,3145.5C 2720.33,3140.5 2720.33,3135.5 2721,3130.5C 2730.28,3101.34 2742.28,3073.34 2757,3046.5C 2770.52,3020.63 2784.69,2995.13 2799.5,2970C 2785.05,2969.23 2770.72,2970.23 2756.5,2973C 2720.37,2981.53 2685.04,2992.53 2650.5,3006C 2619.42,3018.49 2588.58,3031.99 2558,3046.5C 2558.35,3085.5 2558.35,3124.5 2558,3163.5C 2556.87,3187.04 2554.21,3210.37 2550,3233.5C 2548.33,3238.5 2546.67,3243.5 2545,3248.5C 2539.93,3259.41 2533.27,3260.75 2525,3252.5C 2519.36,3237.02 2516.86,3221.02 2517.5,3204.5C 2519.51,3158.23 2524.84,3112.4 2533.5,3067C 2527.01,3068.21 2520.68,3070.21 2514.5,3073C 2481.37,3090.17 2451.87,3112.34 2426,3139.5C 2419.67,3146.5 2413.33,3153.5 2407,3160.5C 2376.72,3208.15 2377.05,3255.81 2408,3303.5C 2430.57,3334.9 2458.4,3360.57 2491.5,3380.5C 2492.49,3385.46 2492.83,3390.46 2492.5,3395.5C 2487.48,3453.72 2469.98,3507.72 2440,3557.5C 2413.06,3612.36 2402.23,3670.36 2407.5,3731.5C 2385.5,3731.5 2363.5,3731.5 2341.5,3731.5C 2354.91,3632.72 2335.74,3541.06 2284,3456.5C 2253.3,3396.52 2235.8,3332.85 2231.5,3265.5C 2231.2,3261.23 2231.54,3257.07 2232.5,3253C 2277.64,3226.53 2315.14,3191.7 2345,3148.5C 2363.27,3120.19 2372.77,3089.19 2373.5,3055.5C 2373.47,3021.83 2363.97,2991.16 2345,2963.5C 2313.24,2925.77 2277.07,2893.27 2236.5,2866C 2218.57,2854.7 2199.57,2845.54 2179.5,2838.5C 2179.17,2839.5 2178.83,2840.5 2178.5,2841.5C 2187.95,2890.42 2194.45,2939.75 2198,2989.5C 2199.09,3014.56 2198.42,3039.56 2196,3064.5C 2194.57,3070.69 2192.57,3076.69 2190,3082.5C 2186.27,3089.78 2180.44,3092.28 2172.5,3090C 2169.33,3088.17 2166.83,3085.67 2165,3082.5C 2159.41,3070.39 2155.41,3057.73 2153,3044.5C 2148.79,3012.32 2146.12,2979.98 2145,2947.5C 2144.17,2904.98 2144.67,2862.48 2146.5,2820C 2146.47,2817.25 2146.14,2814.58 2145.5,2812C 2080.72,2781.06 2014.05,2754.4 1945.5,2732C 1920.53,2724.09 1895.2,2717.76 1869.5,2713C 1860.35,2711.89 1851.19,2711.06 1842,2710.5C 1837.01,2710.3 1832.18,2710.96 1827.5,2712.5C 1860.83,2768.38 1890.99,2826.04 1918,2885.5C 1925.24,2901.3 1930.08,2917.8 1932.5,2935C 1932.7,2942.8 1929.04,2946.46 1921.5,2946C 1912.35,2941.93 1904.02,2936.59 1896.5,2930C 1879.6,2913.1 1863.43,2895.6 1848,2877.5C 1802.17,2819.01 1758.67,2758.85 1717.5,2697C 1706.26,2695 1694.92,2693.34 1683.5,2692C 1634.4,2686.88 1586.07,2690.55 1538.5,2703C 1508.47,2712.1 1483.3,2728.6 1463,2752.5C 1456.01,2762.81 1450.34,2773.81 1446,2785.5C 1441.11,2804.29 1437.11,2823.29 1434,2842.5C 1430.9,2872.13 1432.56,2901.46 1439,2930.5C 1445.74,2954.56 1457.57,2975.73 1474.5,2994C 1483.48,3002.82 1494.15,3008.49 1506.5,3011C 1514.18,3011.93 1521.84,3012.93 1529.5,3014C 1588.66,3015.9 1647.66,3019.9 1706.5,3026C 1719.05,3027.63 1731.39,3030.29 1743.5,3034C 1746.88,3035.44 1750.05,3037.27 1753,3039.5C 1755.18,3043.41 1754.85,3047.08 1752,3050.5C 1746.41,3056.1 1740.24,3060.93 1733.5,3065C 1690.53,3085.08 1645.2,3097.08 1597.5,3101C 1576.44,3101.97 1555.44,3101.31 1534.5,3099C 1528.07,3097.91 1521.74,3096.41 1515.5,3094.5C 1515.17,3094.83 1514.83,3095.17 1514.5,3095.5C 1537.64,3150.82 1568.14,3201.48 1606,3247.5C 1624.88,3269.06 1646.71,3286.89 1671.5,3301C 1690.79,3310.06 1711.12,3313.72 1732.5,3312C 1747.66,3309.87 1762.66,3307.03 1777.5,3303.5C 1787.5,3312.5 1797.5,3321.5 1807.5,3330.5C 1795.53,3340.8 1784.2,3351.8 1773.5,3363.5C 1750.34,3348.42 1727.67,3332.58 1705.5,3316C 1703.44,3314.3 1701.11,3313.14 1698.5,3312.5C 1661.64,3319.04 1627.64,3332.54 1596.5,3353C 1577.4,3366.38 1564.57,3384.22 1558,3406.5C 1554.12,3447.99 1564.12,3485.65 1588,3519.5C 1597.81,3531.14 1609.65,3539.98 1623.5,3546C 1634.99,3548.3 1646.32,3547.64 1657.5,3544C 1693.78,3532.1 1730.45,3521.43 1767.5,3512C 1774.72,3511.11 1781.89,3509.95 1789,3508.5C 1792.13,3509.2 1795.13,3510.2 1798,3511.5C 1799.26,3513.64 1799.26,3515.97 1798,3518.5C 1790.25,3530.91 1780.42,3541.41 1768.5,3550C 1744.15,3569.01 1717.15,3583.01 1687.5,3592C 1680.25,3593.76 1672.91,3595.1 1665.5,3596C 1693.48,3627 1725.82,3652.33 1762.5,3672C 1770.93,3675.88 1779.59,3679.21 1788.5,3682C 1814.14,3689.16 1837.81,3685.16 1859.5,3670C 1877.86,3657.98 1894.02,3643.48 1908,3626.5C 1918.37,3611.79 1929.87,3597.96 1942.5,3585C 1967.12,3565.79 1995.12,3556.79 2026.5,3558C 2028.78,3558.87 2030.11,3560.54 2030.5,3563C 2029,3568.33 2026,3572.66 2021.5,3576C 2001.44,3588.03 1980.77,3599.03 1959.5,3609C 1945.68,3616.49 1932.68,3625.16 1920.5,3635C 1914.17,3640.85 1908.67,3647.35 1904,3654.5C 1894.93,3669.3 1886.93,3684.63 1880,3700.5C 1875.69,3712.73 1879.86,3719.9 1892.5,3722C 1913.17,3723.25 1933.51,3721.25 1953.5,3716C 2003.84,3703.66 2049.5,3681.99 2090.5,3651C 2102.6,3640.92 2112.43,3629.08 2120,3615.5C 2122.77,3609.08 2124.6,3602.42 2125.5,3595.5C 2130.95,3596.6 2135.95,3598.76 2140.5,3602C 2148.17,3607.67 2155.83,3613.33 2163.5,3619C 2182.35,3636.19 2200.85,3653.69 2219,3671.5C 2233.98,3689.79 2246.14,3709.79 2255.5,3731.5C 2104.33,3731.17 1953.33,3731.5 1802.5,3732.5C 1802.5,3736.83 1802.5,3741.17 1802.5,3745.5C 1805.5,3745.5 1808.5,3745.5 1811.5,3745.5C 1818.32,3877.97 1872.98,3985.81 1975.5,4069C 2006.13,4092.79 2039.46,4112.12 2075.5,4127C 1998.81,4127.02 1922.14,4127.69 1845.5,4129C 1822.44,4136.21 1809.44,4151.71 1806.5,4175.5C 1806.5,4175.83 1806.5,4176.17 1806.5,4176.5C 1309.17,4176.5 811.833,4176.5 314.5,4176.5C 559.666,4175.67 805,4175.17 1050.5,4175C 1004.12,4120.63 961.618,4063.47 923,4003.5C 843.607,3880.03 781.94,3748.03 738,3607.5C 632.96,3256.33 672.293,2923 856,2607.5C 934.287,2477.15 1028.45,2358.99 1138.5,2253C 1216.76,2179.03 1304.42,2118.7 1401.5,2072C 1535.09,2012.05 1675.09,1987.05 1821.5,1997C 1904.92,2003.18 1987.25,2016.18 2068.5,2036C 2126.73,2050.31 2184.39,2066.64 2241.5,2085C 2368.76,2128 2496.1,2171.33 2623.5,2215C 2764.84,2257.42 2904.17,2251.75 3041.5,2198C 3079.45,2182.52 3116.12,2164.69 3151.5,2144.5 Z"/></g>
<g><path style="opacity:1" fill="#ec975e" d="M 4639.5,2055.5 C 4645.41,2064.32 4650.58,2073.65 4655,2083.5C 4655.67,2090.83 4655.67,2098.17 4655,2105.5C 4653.12,2116.68 4650.45,2127.68 4647,2138.5C 4637.99,2162.55 4628.99,2186.55 4620,2210.5C 4617.33,2221.34 4615.83,2232.34 4615.5,2243.5C 4596.38,2235.39 4576.38,2231.39 4555.5,2231.5C 4557.3,2215.88 4558.63,2200.21 4559.5,2184.5C 4559.78,2176.75 4558.28,2169.41 4555,2162.5C 4551.65,2150.39 4549.82,2138.06 4549.5,2125.5C 4549.61,2123.22 4550.44,2121.22 4552,2119.5C 4558.08,2112.27 4563.91,2104.93 4569.5,2097.5C 4572.28,2104.47 4577.28,2107.31 4584.5,2106C 4587.53,2103.44 4589.7,2100.27 4591,2096.5C 4592.13,2092.11 4593.46,2087.77 4595,2083.5C 4595.5,2079.51 4595.67,2075.51 4595.5,2071.5C 4597.62,2072.01 4599.78,2072.35 4602,2072.5C 4616.04,2070.3 4628.54,2064.63 4639.5,2055.5 Z"/></g>
<g><path style="opacity:1" fill="#eaf1f8" d="M 4585.5,2067.5 C 4588.83,2068.83 4592.17,2070.17 4595.5,2071.5C 4595.67,2075.51 4595.5,2079.51 4595,2083.5C 4593.46,2087.77 4592.13,2092.11 4591,2096.5C 4589.7,2100.27 4587.53,2103.44 4584.5,2106C 4577.28,2107.31 4572.28,2104.47 4569.5,2097.5C 4575.34,2087.81 4580.68,2077.81 4585.5,2067.5 Z"/></g>
<g><path style="opacity:1" fill="#feb17d" d="M 4254.5,2079.5 C 4240.1,2132.33 4241.6,2184.66 4259,2236.5C 4265.42,2252.68 4273.42,2268.02 4283,2282.5C 4283.67,2283.25 4284.5,2283.59 4285.5,2283.5C 4283.54,2285.16 4281.54,2286.82 4279.5,2288.5C 4215.75,2264.54 4179.58,2218.54 4171,2150.5C 4170,2141.19 4169.5,2131.86 4169.5,2122.5C 4189.41,2115.79 4208.41,2106.96 4226.5,2096C 4228.06,2095.24 4229.06,2094.07 4229.5,2092.5C 4230.12,2092.61 4230.62,2092.94 4231,2093.5C 4236.5,2090.18 4241.66,2086.51 4246.5,2082.5C 4249.17,2081.5 4251.84,2080.5 4254.5,2079.5 Z"/></g>
<g><path style="opacity:1" fill="#2d3a64" d="M 5566.5,2664.5 C 5553.69,2633.2 5536.52,2604.54 5515,2578.5C 5505.19,2567.34 5493.69,2558.51 5480.5,2552C 5453.25,2541.52 5425.25,2534.02 5396.5,2529.5C 5391.52,2515.08 5387.35,2500.42 5384,2485.5C 5381.57,2472.76 5379.74,2459.92 5378.5,2447C 5398.15,2428.54 5411.81,2406.37 5419.5,2380.5C 5409.83,2377.23 5401.67,2371.56 5395,2363.5C 5377.35,2338.52 5366.02,2310.85 5361,2280.5C 5359.15,2289.72 5359.15,2299.05 5361,2308.5C 5363.95,2323.84 5368.78,2338.51 5375.5,2352.5C 5363.54,2346.06 5353.71,2336.73 5346,2324.5C 5333.89,2303.77 5326.23,2281.44 5323,2257.5C 5321.78,2245.86 5320.95,2234.19 5320.5,2222.5C 5295.42,2219.58 5273.42,2226.41 5254.5,2243C 5236.15,2259.89 5221.31,2279.39 5210,2301.5C 5206.06,2310.38 5201.89,2319.05 5197.5,2327.5C 5193.85,2299.61 5195.35,2271.95 5202,2244.5C 5204.78,2236.94 5208.11,2229.61 5212,2222.5C 5238,2186.6 5271.5,2160.43 5312.5,2144C 5337.47,2134.5 5363.14,2131.67 5389.5,2135.5C 5435.07,2145.2 5467.57,2171.2 5487,2213.5C 5499.62,2194.68 5498.12,2177.18 5482.5,2161C 5467.28,2148.22 5449.95,2140.06 5430.5,2136.5C 5432.1,2129.86 5434.6,2123.53 5438,2117.5C 5448.6,2099.12 5464.43,2089.29 5485.5,2088C 5480.87,2090.91 5476.7,2094.41 5473,2098.5C 5471.71,2100.05 5471.04,2101.72 5471,2103.5C 5477.86,2098.9 5485.36,2095.74 5493.5,2094C 5507.31,2092.22 5520.98,2093.22 5534.5,2097C 5596.61,2120.37 5622.11,2164.87 5611,2230.5C 5606.36,2246.01 5602.36,2261.68 5599,2277.5C 5595.74,2297.4 5597.74,2316.73 5605,2335.5C 5615.74,2357.33 5628.74,2377.66 5644,2396.5C 5651.12,2407.75 5657.46,2419.42 5663,2431.5C 5669.84,2450.36 5667.17,2467.7 5655,2483.5C 5646.04,2494.13 5636.7,2504.47 5627,2514.5C 5621.46,2521.72 5618.3,2529.88 5617.5,2539C 5619.83,2549.13 5621.83,2559.3 5623.5,2569.5C 5621.59,2611.69 5602.59,2643.35 5566.5,2664.5 Z"/></g>
<g><path style="opacity:1" fill="#ed975e" d="M 4254.5,2079.5 C 4254.83,2079.5 4255.17,2079.5 4255.5,2079.5C 4255.78,2092.56 4257.62,2105.56 4261,2118.5C 4270.21,2143.59 4283.55,2166.26 4301,2186.5C 4315.11,2201.77 4329.61,2216.44 4344.5,2230.5C 4325.75,2249.25 4306.09,2266.92 4285.5,2283.5C 4284.5,2283.59 4283.67,2283.25 4283,2282.5C 4273.42,2268.02 4265.42,2252.68 4259,2236.5C 4241.6,2184.66 4240.1,2132.33 4254.5,2079.5 Z"/></g>
<g><path style="opacity:1" fill="#feb83f" d="M 4169.5,2122.5 C 4169.5,2131.86 4170,2141.19 4171,2150.5C 4179.58,2218.54 4215.75,2264.54 4279.5,2288.5C 4280.19,2295.96 4281.52,2303.29 4283.5,2310.5C 4282.84,2311.96 4282.51,2313.63 4282.5,2315.5C 4289.27,2373.75 4290.11,2432.09 4285,2490.5C 4282.84,2502.47 4280.84,2514.47 4279,2526.5C 4275.98,2537.91 4272.65,2549.25 4269,2560.5C 4244.93,2615.91 4219.43,2670.58 4192.5,2724.5C 4191.62,2724.37 4190.96,2724.7 4190.5,2725.5C 4180.34,2744.49 4169.67,2763.16 4158.5,2781.5C 4156.97,2776.09 4155.14,2770.76 4153,2765.5C 4134.09,2725.01 4112.09,2686.34 4087,2649.5C 4083.21,2700.8 4079.71,2752.13 4076.5,2803.5C 4096.55,2807.96 4116.55,2812.63 4136.5,2817.5C 4185.75,2830.48 4235.08,2843.48 4284.5,2856.5C 4367.69,2878.47 4450.69,2900.8 4533.5,2923.5C 4547.84,2928.33 4562.51,2932.5 4577.5,2936C 4578.76,2936.42 4579.42,2937.25 4579.5,2938.5C 4583.14,2962.13 4578.31,2983.8 4565,3003.5C 4561.92,3007.08 4558.42,3010.08 4554.5,3012.5C 4547.36,3017.24 4540.03,3021.74 4532.5,3026C 4512.86,3027.18 4493.19,3027.85 4473.5,3028C 4301.45,3028.01 4129.45,3025.84 3957.5,3021.5C 3951.21,3017.04 3945.71,3011.71 3941,3005.5C 3923.44,2981.87 3909.44,2956.2 3899,2928.5C 3876.58,2862.76 3860.92,2795.43 3852,2726.5C 3844.45,2666.34 3838.62,2606 3834.5,2545.5C 3804.14,2632.27 3780.97,2720.94 3765,2811.5C 3755.13,2869.09 3751.13,2927.09 3753,2985.5C 3754.94,3023.8 3762.61,3060.8 3776,3096.5C 3778.05,3101.3 3780.55,3105.63 3783.5,3109.5C 3714.9,3128.32 3644.9,3140.16 3573.5,3145C 3547.11,3146.09 3520.78,3145.42 3494.5,3143C 3476.55,3140.67 3459.55,3135.51 3443.5,3127.5C 3432.64,3121.14 3424.8,3112.14 3420,3100.5C 3416.24,3089.12 3413.9,3077.45 3413,3065.5C 3412.19,3047.48 3412.52,3029.48 3414,3011.5C 3426.54,2945.36 3442.2,2880.03 3461,2815.5C 3479.65,2749.61 3499.32,2683.94 3520,2618.5C 3542.66,2554.72 3572.5,2494.38 3609.5,2437.5C 3650.72,2375.93 3700.39,2321.93 3758.5,2275.5C 3816.53,2230.81 3879.87,2195.48 3948.5,2169.5C 3972.69,2172.36 3996.69,2176.53 4020.5,2182C 4027.08,2191.58 4034.75,2200.25 4043.5,2208C 4073.79,2223.19 4105.79,2229.52 4139.5,2227C 4145.77,2225.32 4148.77,2221.15 4148.5,2214.5C 4147.71,2209.29 4146.21,2204.29 4144,2199.5C 4132.23,2179.07 4118.89,2159.73 4104,2141.5C 4099.17,2136.96 4093.67,2133.62 4087.5,2131.5C 4092.77,2131.24 4097.77,2130.24 4102.5,2128.5C 4124.81,2126.17 4147.14,2124.17 4169.5,2122.5 Z"/></g>
<g><path style="opacity:1" fill="#80b178" d="M 5389.5,2135.5 C 5403.06,2134.1 5416.73,2134.44 5430.5,2136.5C 5449.95,2140.06 5467.28,2148.22 5482.5,2161C 5498.12,2177.18 5499.62,2194.68 5487,2213.5C 5467.57,2171.2 5435.07,2145.2 5389.5,2135.5 Z"/></g>
<g><path style="opacity:1" fill="#eaf2f9" d="M 4549.5,2125.5 C 4549.82,2138.06 4551.65,2150.39 4555,2162.5C 4558.28,2169.41 4559.78,2176.75 4559.5,2184.5C 4558.63,2200.21 4557.3,2215.88 4555.5,2231.5C 4549.9,2232.27 4544.23,2233.43 4538.5,2235C 4488.67,2376.65 4444,2519.82 4404.5,2664.5C 4358.07,2548.9 4317.74,2430.9 4283.5,2310.5C 4281.52,2303.29 4280.19,2295.96 4279.5,2288.5C 4281.54,2286.82 4283.54,2285.16 4285.5,2283.5C 4306.09,2266.92 4325.75,2249.25 4344.5,2230.5C 4355.27,2238.09 4365.94,2245.92 4376.5,2254C 4385.16,2255.96 4393.82,2255.96 4402.5,2254C 4420.72,2246.42 4437.39,2236.42 4452.5,2224C 4486.44,2195.06 4517.27,2163.23 4545,2128.5C 4546.13,2126.86 4547.63,2125.86 4549.5,2125.5 Z"/></g>
<g><path style="opacity:1" fill="#eaf2f8" d="M 3770.5,2145.5 C 3829.9,2153.92 3889.23,2161.92 3948.5,2169.5C 3879.87,2195.48 3816.53,2230.81 3758.5,2275.5C 3755.78,2256.7 3752.45,2238.03 3748.5,2219.5C 3752.77,2216.69 3757.1,2213.86 3761.5,2211C 3763.33,2208.5 3765.17,2206 3767,2203.5C 3767.79,2184.14 3768.96,2164.8 3770.5,2145.5 Z"/></g>
<g><path style="opacity:1" fill="#a02e2e" d="M 3161.5,2199.5 C 3172.01,2209.41 3184.34,2216.24 3198.5,2220C 3226.06,2227.84 3254.06,2233.51 3282.5,2237C 3406.06,2251.88 3529.73,2253.04 3653.5,2240.5C 3635.65,2250.07 3616.65,2256.9 3596.5,2261C 3531.52,2273.88 3465.85,2280.55 3399.5,2281C 3335.49,2281.78 3271.49,2281.45 3207.5,2280C 3186.76,2279.03 3166.1,2277.87 3145.5,2276.5C 3148.76,2250.38 3154.1,2224.72 3161.5,2199.5 Z"/></g>
<g><path style="opacity:1" fill="#a02e2e" d="M 3748.5,2219.5 C 3752.45,2238.03 3755.78,2256.7 3758.5,2275.5C 3700.39,2321.93 3650.72,2375.93 3609.5,2437.5C 3608.96,2437.44 3608.62,2437.11 3608.5,2436.5C 3624.88,2371.25 3640.88,2305.92 3656.5,2240.5C 3688.09,2237.32 3718.75,2230.32 3748.5,2219.5 Z"/></g>
<g><path style="opacity:1" fill="#feb17d" d="M 5396.5,2529.5 C 5368.85,2555.4 5336.02,2569.07 5298,2570.5C 5289.68,2570.36 5281.51,2569.2 5273.5,2567C 5253.91,2561.02 5246.25,2547.85 5250.5,2527.5C 5255.26,2519.31 5258.93,2510.64 5261.5,2501.5C 5288.85,2501.58 5313.85,2494.08 5336.5,2479C 5348.03,2471.81 5358.69,2463.48 5368.5,2454C 5338.18,2470.37 5305.68,2476.2 5271,2471.5C 5269.21,2471.76 5267.71,2472.43 5266.5,2473.5C 5266.38,2472.41 5265.71,2471.75 5264.5,2471.5C 5253.43,2469.21 5242.43,2466.71 5231.5,2464C 5227.94,2462.77 5224.61,2461.11 5221.5,2459C 5206.01,2446.2 5197.18,2429.7 5195,2409.5C 5192.1,2382.09 5192.94,2354.75 5197.5,2327.5C 5201.89,2319.05 5206.06,2310.38 5210,2301.5C 5221.31,2279.39 5236.15,2259.89 5254.5,2243C 5273.42,2226.41 5295.42,2219.58 5320.5,2222.5C 5320.95,2234.19 5321.78,2245.86 5323,2257.5C 5326.23,2281.44 5333.89,2303.77 5346,2324.5C 5353.71,2336.73 5363.54,2346.06 5375.5,2352.5C 5368.78,2338.51 5363.95,2323.84 5361,2308.5C 5359.15,2299.05 5359.15,2289.72 5361,2280.5C 5366.02,2310.85 5377.35,2338.52 5395,2363.5C 5401.67,2371.56 5409.83,2377.23 5419.5,2380.5C 5411.81,2406.37 5398.15,2428.54 5378.5,2447C 5379.74,2459.92 5381.57,2472.76 5384,2485.5C 5387.35,2500.42 5391.52,2515.08 5396.5,2529.5 Z"/></g>
<g><path style="opacity:1" fill="#fea513" d="M 4555.5,2231.5 C 4576.38,2231.39 4596.38,2235.39 4615.5,2243.5C 4622.81,2246.62 4630.15,2249.95 4637.5,2253.5C 4631.81,2366.76 4622.31,2479.76 4609,2592.5C 4600.46,2662.97 4589.12,2732.97 4575,2802.5C 4568.35,2830.12 4560.68,2857.45 4552,2884.5C 4547.08,2898.1 4540.91,2911.1 4533.5,2923.5C 4450.69,2900.8 4367.69,2878.47 4284.5,2856.5C 4250.87,2814.57 4220.2,2770.57 4192.5,2724.5C 4219.43,2670.58 4244.93,2615.91 4269,2560.5C 4272.65,2549.25 4275.98,2537.91 4279,2526.5C 4280.84,2514.47 4282.84,2502.47 4285,2490.5C 4290.11,2432.09 4289.27,2373.75 4282.5,2315.5C 4282.51,2313.63 4282.84,2311.96 4283.5,2310.5C 4317.74,2430.9 4358.07,2548.9 4404.5,2664.5C 4444,2519.82 4488.67,2376.65 4538.5,2235C 4544.23,2233.43 4549.9,2232.27 4555.5,2231.5 Z"/></g>
<g><path style="opacity:1" fill="#bc3e3f" d="M 3653.5,2240.5 C 3654.5,2240.5 3655.5,2240.5 3656.5,2240.5C 3640.88,2305.92 3624.88,2371.25 3608.5,2436.5C 3608.62,2437.11 3608.96,2437.44 3609.5,2437.5C 3572.5,2494.38 3542.66,2554.72 3520,2618.5C 3499.32,2683.94 3479.65,2749.61 3461,2815.5C 3442.2,2880.03 3426.54,2945.36 3414,3011.5C 3412.52,3029.48 3412.19,3047.48 3413,3065.5C 3413.9,3077.45 3416.24,3089.12 3420,3100.5C 3424.8,3112.14 3432.64,3121.14 3443.5,3127.5C 3442.79,3152.67 3444.46,3177.67 3448.5,3202.5C 3438.02,3232.76 3426.86,3262.76 3415,3292.5C 3405.99,3312.86 3395.65,3332.53 3384,3351.5C 3368.42,3382.57 3355.75,3414.9 3346,3448.5C 3317.74,3544.55 3293.07,3641.55 3272,3739.5C 3251.07,3839 3230.57,3938.67 3210.5,4038.5C 3172.2,4041.3 3140.2,4028.63 3114.5,4000.5C 3103.73,3949.58 3095.23,3898.24 3089,3846.5C 3076.01,3739.1 3076.34,3631.77 3090,3524.5C 3104.13,3424.76 3136.13,3331.43 3186,3244.5C 3186.17,3243 3186.33,3241.5 3186.5,3240C 3174.29,3130.83 3166.46,3021.33 3163,2911.5C 3155.96,2724.48 3148.46,2537.48 3140.5,2350.5C 3140.84,2325.71 3142.51,2301.05 3145.5,2276.5C 3166.1,2277.87 3186.76,2279.03 3207.5,2280C 3271.49,2281.45 3335.49,2281.78 3399.5,2281C 3465.85,2280.55 3531.52,2273.88 3596.5,2261C 3616.65,2256.9 3635.65,2250.07 3653.5,2240.5 Z"/></g>
<g><path style="opacity:1" fill="#e99c68" d="M 5261.5,2501.5 C 5264.45,2492.43 5266.11,2483.1 5266.5,2473.5C 5267.71,2472.43 5269.21,2471.76 5271,2471.5C 5305.68,2476.2 5338.18,2470.37 5368.5,2454C 5358.69,2463.48 5348.03,2471.81 5336.5,2479C 5313.85,2494.08 5288.85,2501.58 5261.5,2501.5 Z"/></g>
<g><path style="opacity:1" fill="#35488b" d="M 5250.5,2527.5 C 5246.25,2547.85 5253.91,2561.02 5273.5,2567C 5281.51,2569.2 5289.68,2570.36 5298,2570.5C 5336.02,2569.07 5368.85,2555.4 5396.5,2529.5C 5425.25,2534.02 5453.25,2541.52 5480.5,2552C 5493.69,2558.51 5505.19,2567.34 5515,2578.5C 5536.52,2604.54 5553.69,2633.2 5566.5,2664.5C 5570.79,2674.53 5574.79,2684.7 5578.5,2695C 5570.24,2705.09 5560.91,2713.93 5550.5,2721.5C 5524.83,2740.34 5496.16,2751.84 5464.5,2756C 5454.84,2756.5 5445.17,2756.67 5435.5,2756.5C 5430.54,2751.53 5425.87,2746.2 5421.5,2740.5C 5399.73,2794.66 5381.23,2849.99 5366,2906.5C 5360.37,2961.25 5368.2,3013.92 5389.5,3064.5C 5376.27,3068.2 5364.77,3074.86 5355,3084.5C 5351.97,3089.77 5351.97,3095.11 5355,3100.5C 5362.03,3112.86 5372.2,3121.69 5385.5,3127C 5389.26,3127.74 5392.93,3127.4 5396.5,3126C 5404.23,3122.14 5411.23,3117.31 5417.5,3111.5C 5445.9,3147.26 5480.9,3174.26 5522.5,3192.5C 5519.61,3193.24 5516.61,3193.91 5513.5,3194.5C 5439.34,3206.88 5364.68,3213.54 5289.5,3214.5C 5233.24,3215.72 5177.9,3209.38 5123.5,3195.5C 5120.13,3193.54 5116.47,3192.04 5112.5,3191C 5111.67,3190.17 5110.83,3189.33 5110,3188.5C 5108.89,3183.61 5108.39,3178.61 5108.5,3173.5C 5108.64,3165.15 5109.14,3156.81 5110,3148.5C 5114.87,3120.28 5119.2,3091.95 5123,3063.5C 5136.34,2965.24 5140.84,2866.58 5136.5,2767.5C 5106.33,2749.85 5084.49,2724.85 5071,2692.5C 5066.6,2680.53 5064.1,2668.19 5063.5,2655.5C 5063.17,2649.79 5063.5,2644.13 5064.5,2638.5C 5101.31,2608.86 5137.98,2579.02 5174.5,2549C 5183.49,2543 5193.16,2538.34 5203.5,2535C 5219.15,2532.28 5234.81,2529.78 5250.5,2527.5 Z"/></g>
<g><path style="opacity:1" fill="#fea413" d="M 3957.5,3021.5 C 3947.27,3031.56 3936.27,3040.72 3924.5,3049C 3881.08,3077.37 3834.08,3097.54 3783.5,3109.5C 3780.55,3105.63 3778.05,3101.3 3776,3096.5C 3762.61,3060.8 3754.94,3023.8 3753,2985.5C 3751.13,2927.09 3755.13,2869.09 3765,2811.5C 3780.97,2720.94 3804.14,2632.27 3834.5,2545.5C 3838.62,2606 3844.45,2666.34 3852,2726.5C 3860.92,2795.43 3876.58,2862.76 3899,2928.5C 3909.44,2956.2 3923.44,2981.87 3941,3005.5C 3945.71,3011.71 3951.21,3017.04 3957.5,3021.5 Z"/></g>
<g><path style="opacity:1" fill="#e99c68" d="M 5063.5,2655.5 C 5064.1,2668.19 5066.6,2680.53 5071,2692.5C 5084.49,2724.85 5106.33,2749.85 5136.5,2767.5C 5081.45,2808.21 5024.11,2845.71 4964.5,2880C 4925.34,2896.12 4885.34,2909.79 4844.5,2921C 4796.39,2933.36 4748.39,2946.03 4700.5,2959C 4691.5,2959.67 4682.5,2959.67 4673.5,2959C 4668.76,2957.53 4664.09,2955.86 4659.5,2954C 4656.78,2952.58 4656.12,2950.58 4657.5,2948C 4668.03,2944.83 4678.7,2942.16 4689.5,2940C 4691.61,2938.74 4692.61,2936.9 4692.5,2934.5C 4688.82,2934.33 4685.15,2934.5 4681.5,2935C 4660.8,2940.4 4640.46,2946.9 4620.5,2954.5C 4614.91,2953.35 4613.08,2950.02 4615,2944.5C 4621.41,2935.37 4629.58,2928.2 4639.5,2923C 4663.28,2911.31 4688.28,2903.65 4714.5,2900C 4785.55,2863.81 4856.89,2828.14 4928.5,2793C 4936.21,2783.08 4944.05,2773.24 4952,2763.5C 4986.95,2725.05 5023.45,2688.05 5061.5,2652.5C 5062.18,2653.6 5062.84,2654.6 5063.5,2655.5 Z"/></g>
<g><path style="opacity:1" fill="#fea413" d="M 4158.5,2781.5 C 4151.59,2793.75 4144.26,2805.75 4136.5,2817.5C 4116.55,2812.63 4096.55,2807.96 4076.5,2803.5C 4079.71,2752.13 4083.21,2700.8 4087,2649.5C 4112.09,2686.34 4134.09,2725.01 4153,2765.5C 4155.14,2770.76 4156.97,2776.09 4158.5,2781.5 Z"/></g>
<g><path style="opacity:1" fill="#a8d29f" d="M 2231.5,3265.5 C 2230.67,3260.35 2230.17,3255.02 2230,3249.5C 2217.63,3218.42 2199.96,3190.75 2177,3166.5C 2134.94,3124.26 2088.77,3087.42 2038.5,3056C 1967.19,3012.34 1893.19,2973.34 1816.5,2939C 1729.98,2900.59 1641.64,2866.26 1551.5,2836C 1669.6,2882.84 1784.6,2936.84 1896.5,2998C 1951.26,3028.46 2003.59,3062.46 2053.5,3100C 2093.92,3130.42 2129.76,3165.59 2161,3205.5C 2179.89,3230.62 2192.23,3258.62 2198,3289.5C 2200.36,3307.66 2197.86,3324.99 2190.5,3341.5C 2185.14,3352.05 2177.97,3361.38 2169,3369.5C 2168.52,3370.45 2168.35,3371.45 2168.5,3372.5C 2167.88,3372.39 2167.38,3372.06 2167,3371.5C 2144.55,3389.48 2119.38,3402.31 2091.5,3410C 2082.99,3412.6 2074.33,3414.77 2065.5,3416.5C 2055.68,3418.26 2046.01,3420.26 2036.5,3422.5C 1964.13,3433.03 1892.13,3431.2 1820.5,3417C 1804.74,3413.3 1789.74,3407.64 1775.5,3400C 1767.05,3394.3 1763.88,3386.47 1766,3376.5C 1768.01,3371.81 1770.51,3367.48 1773.5,3363.5C 1784.2,3351.8 1795.53,3340.8 1807.5,3330.5C 1816.29,3323.55 1824.96,3316.38 1833.5,3309C 1850.34,3296.91 1868.68,3288.08 1888.5,3282.5C 1902.07,3279.25 1915.74,3276.42 1929.5,3274C 1961.82,3269.86 1994.16,3265.86 2026.5,3262C 2038.07,3260.48 2049.07,3257.14 2059.5,3252C 2064.45,3249.4 2067.45,3245.4 2068.5,3240C 2067.7,3237.4 2066.37,3235.07 2064.5,3233C 2055.32,3227.16 2045.32,3223.5 2034.5,3222C 2004.83,3217.37 1975.16,3217.37 1945.5,3222C 1928.97,3226.77 1913.31,3233.43 1898.5,3242C 1876.17,3256.17 1853.5,3269.84 1830.5,3283C 1831.79,3283.49 1833.13,3283.66 1834.5,3283.5C 1832.03,3284.32 1829.36,3284.82 1826.5,3285C 1810.6,3292.55 1794.27,3298.71 1777.5,3303.5C 1762.66,3307.03 1747.66,3309.87 1732.5,3312C 1711.12,3313.72 1690.79,3310.06 1671.5,3301C 1646.71,3286.89 1624.88,3269.06 1606,3247.5C 1568.14,3201.48 1537.64,3150.82 1514.5,3095.5C 1514.83,3095.17 1515.17,3094.83 1515.5,3094.5C 1521.74,3096.41 1528.07,3097.91 1534.5,3099C 1555.44,3101.31 1576.44,3101.97 1597.5,3101C 1645.2,3097.08 1690.53,3085.08 1733.5,3065C 1740.24,3060.93 1746.41,3056.1 1752,3050.5C 1754.85,3047.08 1755.18,3043.41 1753,3039.5C 1750.05,3037.27 1746.88,3035.44 1743.5,3034C 1731.39,3030.29 1719.05,3027.63 1706.5,3026C 1647.66,3019.9 1588.66,3015.9 1529.5,3014C 1521.84,3012.93 1514.18,3011.93 1506.5,3011C 1494.15,3008.49 1483.48,3002.82 1474.5,2994C 1457.57,2975.73 1445.74,2954.56 1439,2930.5C 1432.56,2901.46 1430.9,2872.13 1434,2842.5C 1437.11,2823.29 1441.11,2804.29 1446,2785.5C 1450.34,2773.81 1456.01,2762.81 1463,2752.5C 1483.3,2728.6 1508.47,2712.1 1538.5,2703C 1586.07,2690.55 1634.4,2686.88 1683.5,2692C 1694.92,2693.34 1706.26,2695 1717.5,2697C 1758.67,2758.85 1802.17,2819.01 1848,2877.5C 1863.43,2895.6 1879.6,2913.1 1896.5,2930C 1904.02,2936.59 1912.35,2941.93 1921.5,2946C 1929.04,2946.46 1932.7,2942.8 1932.5,2935C 1930.08,2917.8 1925.24,2901.3 1918,2885.5C 1890.99,2826.04 1860.83,2768.38 1827.5,2712.5C 1832.18,2710.96 1837.01,2710.3 1842,2710.5C 1851.19,2711.06 1860.35,2711.89 1869.5,2713C 1895.2,2717.76 1920.53,2724.09 1945.5,2732C 2014.05,2754.4 2080.72,2781.06 2145.5,2812C 2146.14,2814.58 2146.47,2817.25 2146.5,2820C 2144.67,2862.48 2144.17,2904.98 2145,2947.5C 2146.12,2979.98 2148.79,3012.32 2153,3044.5C 2155.41,3057.73 2159.41,3070.39 2165,3082.5C 2166.83,3085.67 2169.33,3088.17 2172.5,3090C 2180.44,3092.28 2186.27,3089.78 2190,3082.5C 2192.57,3076.69 2194.57,3070.69 2196,3064.5C 2198.42,3039.56 2199.09,3014.56 2198,2989.5C 2194.45,2939.75 2187.95,2890.42 2178.5,2841.5C 2178.83,2840.5 2179.17,2839.5 2179.5,2838.5C 2199.57,2845.54 2218.57,2854.7 2236.5,2866C 2277.07,2893.27 2313.24,2925.77 2345,2963.5C 2363.97,2991.16 2373.47,3021.83 2373.5,3055.5C 2372.77,3089.19 2363.27,3120.19 2345,3148.5C 2315.14,3191.7 2277.64,3226.53 2232.5,3253C 2231.54,3257.07 2231.2,3261.23 2231.5,3265.5 Z"/></g>
<g><path style="opacity:1" fill="#feb17d" d="M 5550.5,2721.5 C 5565.49,2781.22 5577.65,2841.55 5587,2902.5C 5588.23,2915.15 5588.56,2927.82 5588,2940.5C 5587.41,2944.28 5586.41,2947.94 5585,2951.5C 5579.18,2962.98 5572.18,2973.64 5564,2983.5C 5545.97,3004.03 5526.8,3023.37 5506.5,3041.5C 5487.19,3058.97 5466.86,3075.14 5445.5,3090C 5441.29,3092.6 5436.96,3094.94 5432.5,3097C 5427.6,3102.06 5422.6,3106.9 5417.5,3111.5C 5411.23,3117.31 5404.23,3122.14 5396.5,3126C 5392.93,3127.4 5389.26,3127.74 5385.5,3127C 5372.2,3121.69 5362.03,3112.86 5355,3100.5C 5351.97,3095.11 5351.97,3089.77 5355,3084.5C 5364.77,3074.86 5376.27,3068.2 5389.5,3064.5C 5399.52,3061.87 5409.35,3058.87 5419,3055.5C 5445.18,3019.81 5469.34,2982.81 5491.5,2944.5C 5497.07,2936.68 5501.07,2928.02 5503.5,2918.5C 5500.68,2910.86 5497.34,2903.53 5493.5,2896.5C 5473.59,2850.1 5454.25,2803.43 5435.5,2756.5C 5445.17,2756.67 5454.84,2756.5 5464.5,2756C 5496.16,2751.84 5524.83,2740.34 5550.5,2721.5 Z"/></g>
<g><path style="opacity:1" fill="#eaf2f9" d="M 4192.5,2724.5 C 4220.2,2770.57 4250.87,2814.57 4284.5,2856.5C 4235.08,2843.48 4185.75,2830.48 4136.5,2817.5C 4144.26,2805.75 4151.59,2793.75 4158.5,2781.5C 4169.67,2763.16 4180.34,2744.49 4190.5,2725.5C 4190.96,2724.7 4191.62,2724.37 4192.5,2724.5 Z"/></g>
<g><path style="opacity:1" fill="#2d3a64" d="M 5435.5,2756.5 C 5454.25,2803.43 5473.59,2850.1 5493.5,2896.5C 5492.78,2908.74 5491.45,2920.9 5489.5,2933C 5490.44,2936.79 5491.1,2940.63 5491.5,2944.5C 5469.34,2982.81 5445.18,3019.81 5419,3055.5C 5409.35,3058.87 5399.52,3061.87 5389.5,3064.5C 5368.2,3013.92 5360.37,2961.25 5366,2906.5C 5381.23,2849.99 5399.73,2794.66 5421.5,2740.5C 5425.87,2746.2 5430.54,2751.53 5435.5,2756.5 Z"/></g>
<g><path style="opacity:1" fill="#82b479" d="M 2231.5,3265.5 C 2235.8,3332.85 2253.3,3396.52 2284,3456.5C 2335.74,3541.06 2354.91,3632.72 2341.5,3731.5C 2330.5,3731.5 2319.5,3731.5 2308.5,3731.5C 2312.53,3676.63 2310.7,3621.97 2303,3567.5C 2299.05,3540.34 2291.38,3514.34 2280,3489.5C 2267.4,3461.64 2253.74,3434.31 2239,3407.5C 2228.24,3388.31 2216.24,3369.98 2203,3352.5C 2199.26,3348.25 2195.09,3344.59 2190.5,3341.5C 2197.86,3324.99 2200.36,3307.66 2198,3289.5C 2192.23,3258.62 2179.89,3230.62 2161,3205.5C 2129.76,3165.59 2093.92,3130.42 2053.5,3100C 2003.59,3062.46 1951.26,3028.46 1896.5,2998C 1784.6,2936.84 1669.6,2882.84 1551.5,2836C 1641.64,2866.26 1729.98,2900.59 1816.5,2939C 1893.19,2973.34 1967.19,3012.34 2038.5,3056C 2088.77,3087.42 2134.94,3124.26 2177,3166.5C 2199.96,3190.75 2217.63,3218.42 2230,3249.5C 2230.17,3255.02 2230.67,3260.35 2231.5,3265.5 Z"/></g>
<g><path style="opacity:1" fill="#e6edf4" d="M 5493.5,2896.5 C 5497.34,2903.53 5500.68,2910.86 5503.5,2918.5C 5501.07,2928.02 5497.07,2936.68 5491.5,2944.5C 5491.1,2940.63 5490.44,2936.79 5489.5,2933C 5491.45,2920.9 5492.78,2908.74 5493.5,2896.5 Z"/></g>
<g><path style="opacity:1" fill="#feb17d" d="M 4579.5,2938.5 C 4580.19,2939.85 4581.19,2941.02 4582.5,2942C 4598.36,2947.95 4614.03,2954.28 4629.5,2961C 4637.49,2964.33 4644.83,2968.66 4651.5,2974C 4677.47,3000.44 4698.64,3030.27 4715,3063.5C 4722.21,3097.65 4724.37,3131.99 4721.5,3166.5C 4714.18,3165.33 4707.51,3162.5 4701.5,3158C 4675.24,3139.42 4657.08,3114.92 4647,3084.5C 4639.61,3068.44 4628.11,3056.28 4612.5,3048C 4611.17,3047.33 4609.83,3047.33 4608.5,3048C 4614,3062.84 4618.5,3078 4622,3093.5C 4624.32,3099.99 4622.15,3103.32 4615.5,3103.5C 4611.89,3103.02 4608.56,3101.85 4605.5,3100C 4602.33,3096.83 4599.17,3093.67 4596,3090.5C 4591.67,3082.5 4587.33,3074.5 4583,3066.5C 4573.07,3053.65 4564.4,3039.98 4557,3025.5C 4555.37,3021.31 4554.54,3016.98 4554.5,3012.5C 4558.42,3010.08 4561.92,3007.08 4565,3003.5C 4578.31,2983.8 4583.14,2962.13 4579.5,2938.5 Z"/></g>
<g><path style="opacity:1" fill="#a8d29f" d="M 2523.5,3448.5 C 2523.61,3447.88 2523.94,3447.38 2524.5,3447C 2518.85,3436.2 2516.69,3424.7 2518,3412.5C 2518.82,3405.07 2520.15,3397.74 2522,3390.5C 2527.58,3374.75 2535.25,3360.08 2545,3346.5C 2567.83,3317 2594,3290.83 2623.5,3268C 2678.85,3226.64 2737.51,3190.31 2799.5,3159C 2867.48,3124.57 2936.81,3093.23 3007.5,3065C 2903.84,3098.69 2803.51,3141.02 2706.5,3192C 2659.14,3217 2614.47,3246 2572.5,3279C 2548.14,3299.02 2526.97,3321.86 2509,3347.5C 2504.4,3355.71 2500.06,3364.04 2496,3372.5C 2494.13,3380.19 2492.97,3387.86 2492.5,3395.5C 2492.83,3390.46 2492.49,3385.46 2491.5,3380.5C 2458.4,3360.57 2430.57,3334.9 2408,3303.5C 2377.05,3255.81 2376.72,3208.15 2407,3160.5C 2413.33,3153.5 2419.67,3146.5 2426,3139.5C 2451.87,3112.34 2481.37,3090.17 2514.5,3073C 2520.68,3070.21 2527.01,3068.21 2533.5,3067C 2524.84,3112.4 2519.51,3158.23 2517.5,3204.5C 2516.86,3221.02 2519.36,3237.02 2525,3252.5C 2533.27,3260.75 2539.93,3259.41 2545,3248.5C 2546.67,3243.5 2548.33,3238.5 2550,3233.5C 2554.21,3210.37 2556.87,3187.04 2558,3163.5C 2558.35,3124.5 2558.35,3085.5 2558,3046.5C 2588.58,3031.99 2619.42,3018.49 2650.5,3006C 2685.04,2992.53 2720.37,2981.53 2756.5,2973C 2770.72,2970.23 2785.05,2969.23 2799.5,2970C 2784.69,2995.13 2770.52,3020.63 2757,3046.5C 2742.28,3073.34 2730.28,3101.34 2721,3130.5C 2720.33,3135.5 2720.33,3140.5 2721,3145.5C 2725.45,3148.02 2729.95,3147.85 2734.5,3145C 2745.9,3136.61 2756.4,3127.11 2766,3116.5C 2808.3,3066.53 2847.14,3014.03 2882.5,2959C 2893.08,2957.01 2903.75,2955.68 2914.5,2955C 2954.52,2950.9 2993.52,2955.23 3031.5,2968C 3060.3,2979.79 3079.8,3000.29 3090,3029.5C 3097.72,3057.99 3100.39,3086.99 3098,3116.5C 3095.51,3136.45 3088.85,3154.78 3078,3171.5C 3067.17,3188.5 3051.67,3197.67 3031.5,3199C 3000.16,3200.47 2968.82,3202.13 2937.5,3204C 2912.86,3205.35 2888.53,3208.69 2864.5,3214C 2860.76,3215.29 2857.59,3217.46 2855,3220.5C 2854.68,3222.55 2855.01,3224.55 2856,3226.5C 2860.93,3231.43 2866.43,3235.6 2872.5,3239C 2897.9,3251.02 2924.57,3259.02 2952.5,3263C 2981,3268.56 3009.17,3267.4 3037,3259.5C 3024.53,3290.43 3008.86,3319.77 2990,3347.5C 2975.15,3369.01 2957.65,3388.18 2937.5,3405C 2916.55,3421.15 2892.89,3427.82 2866.5,3425C 2837.98,3421.38 2811.31,3412.38 2786.5,3398C 2768.33,3386.75 2750,3375.75 2731.5,3365C 2722.67,3360.61 2713.33,3357.61 2703.5,3356C 2677.01,3352.43 2651.01,3354.43 2625.5,3362C 2622.22,3363.56 2619.38,3365.73 2617,3368.5C 2616.52,3370.91 2616.85,3373.25 2618,3375.5C 2623.02,3380.09 2628.85,3383.26 2635.5,3385C 2658.28,3389.46 2681.28,3392.46 2704.5,3394C 2731.02,3396.41 2756.35,3403.08 2780.5,3414C 2801.57,3428.14 2821.07,3444.31 2839,3462.5C 2841.5,3465.5 2843.5,3468.84 2845,3472.5C 2847.99,3479.79 2846.49,3485.95 2840.5,3491C 2829.57,3497.42 2817.91,3502.09 2805.5,3505C 2750.43,3515.92 2695.1,3517.25 2639.5,3509C 2613.3,3505.1 2588.3,3497.43 2564.5,3486C 2547.35,3477.13 2533.69,3464.63 2523.5,3448.5 Z"/></g>
<g><path style="opacity:1" fill="#35488b" d="M 4554.5,3012.5 C 4554.54,3016.98 4555.37,3021.31 4557,3025.5C 4564.4,3039.98 4573.07,3053.65 4583,3066.5C 4587.33,3074.5 4591.67,3082.5 4596,3090.5C 4599.17,3093.67 4602.33,3096.83 4605.5,3100C 4608.56,3101.85 4611.89,3103.02 4615.5,3103.5C 4622.15,3103.32 4624.32,3099.99 4622,3093.5C 4618.5,3078 4614,3062.84 4608.5,3048C 4609.83,3047.33 4611.17,3047.33 4612.5,3048C 4628.11,3056.28 4639.61,3068.44 4647,3084.5C 4657.08,3114.92 4675.24,3139.42 4701.5,3158C 4707.51,3162.5 4714.18,3165.33 4721.5,3166.5C 4819.38,3442.32 4917.55,3717.99 5016,3993.5C 5016.38,3994.06 5016.88,3994.39 5017.5,3994.5C 5026.58,4023.08 5036.25,4051.41 5046.5,4079.5C 5040.14,4079.48 5033.81,4079.81 5027.5,4080.5C 4990.23,4083.23 4952.89,4084.07 4915.5,4083C 4903.55,4081.36 4891.55,4080.19 4879.5,4079.5C 4871.96,4077.34 4864.3,4075.17 4856.5,4073C 4852.83,4071.33 4849.17,4069.67 4845.5,4068C 4806.22,3996.6 4766.05,3925.77 4725,3855.5C 4671.08,3768.67 4617.42,3681.67 4564,3594.5C 4535.15,3544.81 4508.99,3493.81 4485.5,3441.5C 4473.53,3411.64 4463.69,3380.98 4456,3349.5C 4449.77,3321.14 4447.94,3292.47 4450.5,3263.5C 4394.24,3279.15 4337.24,3291.81 4279.5,3301.5C 4272.23,3295.46 4263.9,3291.63 4254.5,3290C 4004.83,3289.5 3755.17,3289.33 3505.5,3289.5C 3482.35,3274.9 3465.52,3254.9 3455,3229.5C 3452.89,3220.37 3450.73,3211.37 3448.5,3202.5C 3444.46,3177.67 3442.79,3152.67 3443.5,3127.5C 3459.55,3135.51 3476.55,3140.67 3494.5,3143C 3520.78,3145.42 3547.11,3146.09 3573.5,3145C 3644.9,3140.16 3714.9,3128.32 3783.5,3109.5C 3834.08,3097.54 3881.08,3077.37 3924.5,3049C 3936.27,3040.72 3947.27,3031.56 3957.5,3021.5C 4129.45,3025.84 4301.45,3028.01 4473.5,3028C 4493.19,3027.85 4512.86,3027.18 4532.5,3026C 4540.03,3021.74 4547.36,3017.24 4554.5,3012.5 Z"/></g>
<g><path style="opacity:1" fill="#2d3a64" d="M 5506.5,3041.5 C 5512.32,3078.74 5517.82,3116.07 5523,3153.5C 5524.43,3166.46 5525.26,3179.46 5525.5,3192.5C 5524.5,3192.5 5523.5,3192.5 5522.5,3192.5C 5480.9,3174.26 5445.9,3147.26 5417.5,3111.5C 5422.6,3106.9 5427.6,3102.06 5432.5,3097C 5436.96,3094.94 5441.29,3092.6 5445.5,3090C 5466.86,3075.14 5487.19,3058.97 5506.5,3041.5 Z"/></g>
<g><path style="opacity:1" fill="#87b379" d="M 2523.5,3448.5 C 2516.52,3454.32 2510.35,3460.98 2505,3468.5C 2486.27,3498.63 2469.6,3529.96 2455,3562.5C 2447.49,3579.86 2442.16,3597.86 2439,3616.5C 2433.78,3654.67 2431.94,3693 2433.5,3731.5C 2515.34,3731.17 2597,3731.5 2678.5,3732.5C 2386.5,3732.5 2094.5,3732.5 1802.5,3732.5C 1953.33,3731.5 2104.33,3731.17 2255.5,3731.5C 2263.5,3731.5 2271.5,3731.5 2279.5,3731.5C 2289.17,3731.5 2298.83,3731.5 2308.5,3731.5C 2319.5,3731.5 2330.5,3731.5 2341.5,3731.5C 2363.5,3731.5 2385.5,3731.5 2407.5,3731.5C 2402.23,3670.36 2413.06,3612.36 2440,3557.5C 2469.98,3507.72 2487.48,3453.72 2492.5,3395.5C 2492.97,3387.86 2494.13,3380.19 2496,3372.5C 2500.06,3364.04 2504.4,3355.71 2509,3347.5C 2526.97,3321.86 2548.14,3299.02 2572.5,3279C 2614.47,3246 2659.14,3217 2706.5,3192C 2803.51,3141.02 2903.84,3098.69 3007.5,3065C 2936.81,3093.23 2867.48,3124.57 2799.5,3159C 2737.51,3190.31 2678.85,3226.64 2623.5,3268C 2594,3290.83 2567.83,3317 2545,3346.5C 2535.25,3360.08 2527.58,3374.75 2522,3390.5C 2520.15,3397.74 2518.82,3405.07 2518,3412.5C 2516.69,3424.7 2518.85,3436.2 2524.5,3447C 2523.94,3447.38 2523.61,3447.88 2523.5,3448.5 Z"/></g>
<g><path style="opacity:1" fill="#bc3e3f" d="M 5513.5,3194.5 C 5546.45,3431.09 5571.11,3668.59 5587.5,3907C 5587.17,3908.5 5586.83,3910 5586.5,3911.5C 5552.22,3923.82 5517.22,3933.15 5481.5,3939.5C 5444.07,3945.75 5406.4,3947.75 5368.5,3945.5C 5333.66,3943.17 5299.66,3936.67 5266.5,3926C 5266,3925.5 5265.5,3925 5265,3924.5C 5264.68,3918.62 5263.85,3912.95 5262.5,3907.5C 5263.64,3897.24 5263.81,3886.91 5263,3876.5C 5256.17,3704.45 5249.17,3532.45 5242,3360.5C 5210,3453.84 5182.66,3548.51 5160,3644.5C 5155.66,3666.19 5151.32,3687.86 5147,3709.5C 5139.87,3750.2 5135.7,3791.2 5134.5,3832.5C 5133.7,3859.58 5136.53,3886.25 5143,3912.5C 5144.65,3913.95 5146.48,3914.95 5148.5,3915.5C 5109.91,3911.76 5071.91,3905.1 5034.5,3895.5C 5024.07,3893.08 5013.73,3890.42 5003.5,3887.5C 5044.11,3656.98 5084.11,3426.31 5123.5,3195.5C 5177.9,3209.38 5233.24,3215.72 5289.5,3214.5C 5364.68,3213.54 5439.34,3206.88 5513.5,3194.5 Z"/></g>
<g><path style="opacity:1" fill="#e9f2f9" d="M 1888.5,3282.5 C 1870.49,3282.53 1852.49,3282.86 1834.5,3283.5C 1833.13,3283.66 1831.79,3283.49 1830.5,3283C 1853.5,3269.84 1876.17,3256.17 1898.5,3242C 1913.31,3233.43 1928.97,3226.77 1945.5,3222C 1975.16,3217.37 2004.83,3217.37 2034.5,3222C 2045.32,3223.5 2055.32,3227.16 2064.5,3233C 2066.37,3235.07 2067.7,3237.4 2068.5,3240C 2067.45,3245.4 2064.45,3249.4 2059.5,3252C 2049.07,3257.14 2038.07,3260.48 2026.5,3262C 1994.16,3265.86 1961.82,3269.86 1929.5,3274C 1915.74,3276.42 1902.07,3279.25 1888.5,3282.5 Z"/></g>
<g><path style="opacity:1" fill="#e9f2f9" d="M 3448.5,3202.5 C 3450.73,3211.37 3452.89,3220.37 3455,3229.5C 3465.52,3254.9 3482.35,3274.9 3505.5,3289.5C 3482.76,3285.8 3463.93,3292.47 3449,3309.5C 3444.74,3316.29 3442.07,3323.62 3441,3331.5C 3440.5,3367.83 3440.33,3404.17 3440.5,3440.5C 3439.88,3454.61 3440.71,3468.61 3443,3482.5C 3449.62,3498.79 3461.46,3508.96 3478.5,3513C 3492.79,3514.37 3507.13,3514.87 3521.5,3514.5C 3526.96,3537.75 3533.29,3560.75 3540.5,3583.5C 3540.92,3584.26 3541.26,3585.1 3541.5,3586C 3533.04,3631.19 3524.71,3676.36 3516.5,3721.5C 3488.13,3872.67 3460.13,4024 3432.5,4175.5C 3416.83,4175.5 3401.17,4175.5 3385.5,4175.5C 3385.74,4174.21 3385.4,4173.21 3384.5,4172.5C 3381.06,4158.15 3373.06,4146.98 3360.5,4139C 3351.85,4134.18 3342.85,4130.18 3333.5,4127C 3316.33,4122.45 3298.99,4118.45 3281.5,4115C 3276.27,4113.59 3271.27,4111.59 3266.5,4109C 3245.97,4088.42 3228.47,4065.58 3214,4040.5C 3213.18,4039.18 3212.02,4038.51 3210.5,4038.5C 3230.57,3938.67 3251.07,3839 3272,3739.5C 3293.07,3641.55 3317.74,3544.55 3346,3448.5C 3355.75,3414.9 3368.42,3382.57 3384,3351.5C 3395.65,3332.53 3405.99,3312.86 3415,3292.5C 3426.86,3262.76 3438.02,3232.76 3448.5,3202.5 Z"/></g>
<g><path style="opacity:1" fill="#2d3a64" d="M 4485.5,3441.5 C 4435.73,3622.89 4388.23,3805.22 4343,3988.5C 4337.45,4011.08 4332.62,4033.74 4328.5,4056.5C 4318.82,4058.37 4309.16,4060.2 4299.5,4062C 4314.02,4083.51 4332.68,4100.51 4355.5,4113C 4387.53,4129.79 4421.53,4140.79 4457.5,4146C 4474.75,4150.1 4487.42,4159.93 4495.5,4175.5C 4428.5,4175.5 4361.5,4175.5 4294.5,4175.5C 4294.74,4174.21 4294.4,4173.21 4293.5,4172.5C 4261.45,3994.91 4228.78,3817.58 4195.5,3640.5C 4192.83,3624.17 4190.17,3607.83 4187.5,3591.5C 4190.56,3565.82 4193.56,3540.15 4196.5,3514.5C 4214.5,3514.67 4232.5,3514.5 4250.5,3514C 4274.37,3511.13 4289.21,3497.97 4295,3474.5C 4295.5,3463.84 4295.67,3453.17 4295.5,3442.5C 4295.67,3404.83 4295.5,3367.17 4295,3329.5C 4292.68,3318.52 4287.51,3309.18 4279.5,3301.5C 4337.24,3291.81 4394.24,3279.15 4450.5,3263.5C 4447.94,3292.47 4449.77,3321.14 4456,3349.5C 4463.69,3380.98 4473.53,3411.64 4485.5,3441.5 Z"/></g>
<g><path style="opacity:1" fill="#82b379" d="M 1888.5,3282.5 C 1868.68,3288.08 1850.34,3296.91 1833.5,3309C 1824.96,3316.38 1816.29,3323.55 1807.5,3330.5C 1797.5,3321.5 1787.5,3312.5 1777.5,3303.5C 1794.27,3298.71 1810.6,3292.55 1826.5,3285C 1829.36,3284.82 1832.03,3284.32 1834.5,3283.5C 1852.49,3282.86 1870.49,3282.53 1888.5,3282.5 Z"/></g>
<g><path style="opacity:1" fill="#f99646" d="M 3505.5,3289.5 C 3755.17,3289.33 4004.83,3289.5 4254.5,3290C 4263.9,3291.63 4272.23,3295.46 4279.5,3301.5C 4287.51,3309.18 4292.68,3318.52 4295,3329.5C 4295.5,3367.17 4295.67,3404.83 4295.5,3442.5C 4292.87,3441.9 4290.21,3441.4 4287.5,3441C 4005.17,3440.5 3722.83,3440.33 3440.5,3440.5C 3440.33,3404.17 3440.5,3367.83 3441,3331.5C 3442.07,3323.62 3444.74,3316.29 3449,3309.5C 3463.93,3292.47 3482.76,3285.8 3505.5,3289.5 Z"/></g>
<g><path style="opacity:1" fill="#82b479" d="M 1773.5,3363.5 C 1770.51,3367.48 1768.01,3371.81 1766,3376.5C 1763.88,3386.47 1767.05,3394.3 1775.5,3400C 1789.74,3407.64 1804.74,3413.3 1820.5,3417C 1892.13,3431.2 1964.13,3433.03 2036.5,3422.5C 2041.13,3431.31 2047.13,3439.14 2054.5,3446C 2060.83,3450.01 2065.33,3448.51 2068,3441.5C 2068.96,3432.97 2068.13,3424.64 2065.5,3416.5C 2074.33,3414.77 2082.99,3412.6 2091.5,3410C 2119.38,3402.31 2144.55,3389.48 2167,3371.5C 2167.38,3372.06 2167.88,3372.39 2168.5,3372.5C 2177.38,3391.8 2180.54,3412.13 2178,3433.5C 2170.91,3471.18 2155.07,3504.68 2130.5,3534C 2151.25,3582.18 2181.92,3622.84 2222.5,3656C 2246.33,3677.64 2265.33,3702.81 2279.5,3731.5C 2271.5,3731.5 2263.5,3731.5 2255.5,3731.5C 2246.14,3709.79 2233.98,3689.79 2219,3671.5C 2200.85,3653.69 2182.35,3636.19 2163.5,3619C 2155.83,3613.33 2148.17,3607.67 2140.5,3602C 2135.95,3598.76 2130.95,3596.6 2125.5,3595.5C 2124.6,3602.42 2122.77,3609.08 2120,3615.5C 2112.43,3629.08 2102.6,3640.92 2090.5,3651C 2049.5,3681.99 2003.84,3703.66 1953.5,3716C 1933.51,3721.25 1913.17,3723.25 1892.5,3722C 1879.86,3719.9 1875.69,3712.73 1880,3700.5C 1886.93,3684.63 1894.93,3669.3 1904,3654.5C 1908.67,3647.35 1914.17,3640.85 1920.5,3635C 1932.68,3625.16 1945.68,3616.49 1959.5,3609C 1980.77,3599.03 2001.44,3588.03 2021.5,3576C 2026,3572.66 2029,3568.33 2030.5,3563C 2030.11,3560.54 2028.78,3558.87 2026.5,3558C 1995.12,3556.79 1967.12,3565.79 1942.5,3585C 1929.87,3597.96 1918.37,3611.79 1908,3626.5C 1894.02,3643.48 1877.86,3657.98 1859.5,3670C 1837.81,3685.16 1814.14,3689.16 1788.5,3682C 1779.59,3679.21 1770.93,3675.88 1762.5,3672C 1725.82,3652.33 1693.48,3627 1665.5,3596C 1672.91,3595.1 1680.25,3593.76 1687.5,3592C 1717.15,3583.01 1744.15,3569.01 1768.5,3550C 1780.42,3541.41 1790.25,3530.91 1798,3518.5C 1799.26,3515.97 1799.26,3513.64 1798,3511.5C 1795.13,3510.2 1792.13,3509.2 1789,3508.5C 1781.89,3509.95 1774.72,3511.11 1767.5,3512C 1730.45,3521.43 1693.78,3532.1 1657.5,3544C 1646.32,3547.64 1634.99,3548.3 1623.5,3546C 1609.65,3539.98 1597.81,3531.14 1588,3519.5C 1564.12,3485.65 1554.12,3447.99 1558,3406.5C 1564.57,3384.22 1577.4,3366.38 1596.5,3353C 1627.64,3332.54 1661.64,3319.04 1698.5,3312.5C 1701.11,3313.14 1703.44,3314.3 1705.5,3316C 1727.67,3332.58 1750.34,3348.42 1773.5,3363.5 Z"/></g>
<g><path style="opacity:1" fill="#e9f2f9" d="M 2190.5,3341.5 C 2195.09,3344.59 2199.26,3348.25 2203,3352.5C 2216.24,3369.98 2228.24,3388.31 2239,3407.5C 2253.74,3434.31 2267.4,3461.64 2280,3489.5C 2291.38,3514.34 2299.05,3540.34 2303,3567.5C 2310.7,3621.97 2312.53,3676.63 2308.5,3731.5C 2298.83,3731.5 2289.17,3731.5 2279.5,3731.5C 2265.33,3702.81 2246.33,3677.64 2222.5,3656C 2181.92,3622.84 2151.25,3582.18 2130.5,3534C 2155.07,3504.68 2170.91,3471.18 2178,3433.5C 2180.54,3412.13 2177.38,3391.8 2168.5,3372.5C 2168.35,3371.45 2168.52,3370.45 2169,3369.5C 2177.97,3361.38 2185.14,3352.05 2190.5,3341.5 Z"/></g>
<g><path style="opacity:1" fill="#a02e2e" d="M 5262.5,3907.5 C 5249.43,3911.26 5236.1,3913.76 5222.5,3915C 5202.52,3916.32 5182.52,3916.82 5162.5,3916.5C 5158.03,3915.51 5153.36,3915.18 5148.5,3915.5C 5146.48,3914.95 5144.65,3913.95 5143,3912.5C 5136.53,3886.25 5133.7,3859.58 5134.5,3832.5C 5135.7,3791.2 5139.87,3750.2 5147,3709.5C 5151.32,3687.86 5155.66,3666.19 5160,3644.5C 5182.66,3548.51 5210,3453.84 5242,3360.5C 5249.17,3532.45 5256.17,3704.45 5263,3876.5C 5263.81,3886.91 5263.64,3897.24 5262.5,3907.5 Z"/></g>
<g><path style="opacity:1" fill="#e8f1f7" d="M 2065.5,3416.5 C 2068.13,3424.64 2068.96,3432.97 2068,3441.5C 2065.33,3448.51 2060.83,3450.01 2054.5,3446C 2047.13,3439.14 2041.13,3431.31 2036.5,3422.5C 2046.01,3420.26 2055.68,3418.26 2065.5,3416.5 Z"/></g>
<g><path style="opacity:1" fill="#ec7c2b" d="M 3440.5,3440.5 C 3722.83,3440.33 4005.17,3440.5 4287.5,3441C 4290.21,3441.4 4292.87,3441.9 4295.5,3442.5C 4295.67,3453.17 4295.5,3463.84 4295,3474.5C 4289.21,3497.97 4274.37,3511.13 4250.5,3514C 4232.5,3514.5 4214.5,3514.67 4196.5,3514.5C 4188.5,3514.5 4180.5,3514.5 4172.5,3514.5C 4172.03,3513.31 4171.03,3512.64 4169.5,3512.5C 4147.35,3513.14 4125.35,3513.8 4103.5,3514.5C 3990.83,3514.5 3878.17,3514.5 3765.5,3514.5C 3718.17,3514.5 3670.83,3514.5 3623.5,3514.5C 3606.51,3513.49 3589.34,3512.83 3572,3512.5C 3565.79,3512.5 3559.96,3513.17 3554.5,3514.5C 3543.5,3514.5 3532.5,3514.5 3521.5,3514.5C 3507.13,3514.87 3492.79,3514.37 3478.5,3513C 3461.46,3508.96 3449.62,3498.79 3443,3482.5C 3440.71,3468.61 3439.88,3454.61 3440.5,3440.5 Z"/></g>
<g><path style="opacity:1" fill="#e9f2f9" d="M 4485.5,3441.5 C 4508.99,3493.81 4535.15,3544.81 4564,3594.5C 4617.42,3681.67 4671.08,3768.67 4725,3855.5C 4766.05,3925.77 4806.22,3996.6 4845.5,4068C 4849.17,4069.67 4852.83,4071.33 4856.5,4073C 4864.3,4075.17 4871.96,4077.34 4879.5,4079.5C 4875.31,4111.57 4875.64,4143.57 4880.5,4175.5C 4752.17,4176.83 4623.83,4176.83 4495.5,4175.5C 4487.42,4159.93 4474.75,4150.1 4457.5,4146C 4421.53,4140.79 4387.53,4129.79 4355.5,4113C 4332.68,4100.51 4314.02,4083.51 4299.5,4062C 4309.16,4060.2 4318.82,4058.37 4328.5,4056.5C 4332.62,4033.74 4337.45,4011.08 4343,3988.5C 4388.23,3805.22 4435.73,3622.89 4485.5,3441.5 Z"/></g>
<g><path style="opacity:1" fill="#c59c7a" d="M 3623.5,3514.5 C 3611.69,3558.26 3600.02,3601.93 3588.5,3645.5C 3562.44,3658.03 3541.6,3677.03 3526,3702.5C 3522.84,3708.65 3520.17,3714.98 3518,3721.5C 3517.31,3722.74 3516.81,3722.74 3516.5,3721.5C 3524.71,3676.36 3533.04,3631.19 3541.5,3586C 3541.26,3585.1 3540.92,3584.26 3540.5,3583.5C 3541.12,3583.39 3541.62,3583.06 3542,3582.5C 3545.68,3559.72 3549.85,3537.06 3554.5,3514.5C 3559.96,3513.17 3565.79,3512.5 3572,3512.5C 3589.34,3512.83 3606.51,3513.49 3623.5,3514.5 Z"/></g>
<g><path style="opacity:1" fill="#c59d7a" d="M 4172.5,3514.5 C 4177.39,3540.27 4182.39,3565.93 4187.5,3591.5C 4190.17,3607.83 4192.83,3624.17 4195.5,3640.5C 4180.43,3662.53 4170.93,3686.86 4167,3713.5C 4166.16,3723.35 4165,3733.02 4163.5,3742.5C 4143.62,3666.41 4123.62,3590.41 4103.5,3514.5C 4125.35,3513.8 4147.35,3513.14 4169.5,3512.5C 4171.03,3512.64 4172.03,3513.31 4172.5,3514.5 Z"/></g>
<g><path style="opacity:1" fill="#e9f2f9" d="M 3765.5,3514.5 C 3878.17,3514.5 3990.83,3514.5 4103.5,3514.5C 4123.62,3590.41 4143.62,3666.41 4163.5,3742.5C 4165.66,3749.46 4167.66,3756.46 4169.5,3763.5C 4160.69,3855.55 4153.52,3947.89 4148,4040.5C 4152.29,4046.75 4157.79,4051.75 4164.5,4055.5C 4162.49,4059.55 4161.32,4063.88 4161,4068.5C 4157.77,4098.37 4157.93,4128.2 4161.5,4158C 4162.67,4163.67 4164.34,4169.17 4166.5,4174.5C 4131.67,4175.5 4096.67,4175.83 4061.5,4175.5C 4058.53,4158.03 4049.2,4145.2 4033.5,4137C 4024.97,4132.28 4015.97,4128.61 4006.5,4126C 3989.28,4121.63 3971.94,4117.63 3954.5,4114C 3949.32,4112.61 3944.66,4110.28 3940.5,4107C 3932.03,4099.53 3923.86,4091.7 3916,4083.5C 3894.97,4060.3 3873.8,4037.3 3852.5,4014.5C 3824.87,3886.11 3800.7,3757.11 3780,3627.5C 3774.09,3589.97 3769.26,3552.3 3765.5,3514.5 Z"/></g>
<g><path style="opacity:1" fill="#e7eff6" d="M 4172.5,3514.5 C 4180.5,3514.5 4188.5,3514.5 4196.5,3514.5C 4193.56,3540.15 4190.56,3565.82 4187.5,3591.5C 4182.39,3565.93 4177.39,3540.27 4172.5,3514.5 Z"/></g>
<g><path style="opacity:1" fill="#bc3f40" d="M 3521.5,3514.5 C 3532.5,3514.5 3543.5,3514.5 3554.5,3514.5C 3549.85,3537.06 3545.68,3559.72 3542,3582.5C 3541.62,3583.06 3541.12,3583.39 3540.5,3583.5C 3533.29,3560.75 3526.96,3537.75 3521.5,3514.5 Z"/></g>
<g><path style="opacity:1" fill="#bc3e3f" d="M 3623.5,3514.5 C 3670.83,3514.5 3718.17,3514.5 3765.5,3514.5C 3769.26,3552.3 3774.09,3589.97 3780,3627.5C 3800.7,3757.11 3824.87,3886.11 3852.5,4014.5C 3831.58,4028.31 3808.58,4033.48 3783.5,4030C 3773.17,4028.09 3763.17,4025.25 3753.5,4021.5C 3685.49,3915.15 3627.15,3803.49 3578.5,3686.5C 3581.53,3672.77 3584.86,3659.11 3588.5,3645.5C 3600.02,3601.93 3611.69,3558.26 3623.5,3514.5 Z"/></g>
<g><path style="opacity:1" fill="#e8c6a8" d="M 3588.5,3645.5 C 3584.86,3659.11 3581.53,3672.77 3578.5,3686.5C 3534.73,3849.22 3491.4,4012.22 3448.5,4175.5C 3443.17,4175.5 3437.83,4175.5 3432.5,4175.5C 3460.13,4024 3488.13,3872.67 3516.5,3721.5C 3516.81,3722.74 3517.31,3722.74 3518,3721.5C 3520.17,3714.98 3522.84,3708.65 3526,3702.5C 3541.6,3677.03 3562.44,3658.03 3588.5,3645.5 Z"/></g>
<g><path style="opacity:1" fill="#e7c4a7" d="M 4195.5,3640.5 C 4228.78,3817.58 4261.45,3994.91 4293.5,4172.5C 4293.5,4173.5 4293.5,4174.5 4293.5,4175.5C 4288.07,4175.78 4282.74,4175.45 4277.5,4174.5C 4241.5,4037.52 4205.5,3900.52 4169.5,3763.5C 4167.66,3756.46 4165.66,3749.46 4163.5,3742.5C 4165,3733.02 4166.16,3723.35 4167,3713.5C 4170.93,3686.86 4180.43,3662.53 4195.5,3640.5 Z"/></g>
<g><path style="opacity:1" fill="#e9f2f9" d="M 3578.5,3686.5 C 3627.15,3803.49 3685.49,3915.15 3753.5,4021.5C 3760.84,4033.34 3765.17,4046.18 3766.5,4060C 3766.05,4065.56 3765.21,4071.06 3764,4076.5C 3757.53,4088.44 3751.86,4100.78 3747,4113.5C 3742.95,4133.41 3742.45,4153.41 3745.5,4173.5C 3646.84,4175.5 3547.84,4176.16 3448.5,4175.5C 3491.4,4012.22 3534.73,3849.22 3578.5,3686.5 Z"/></g>
<g><path style="opacity:1" fill="#db6a1e" d="M 1802.5,3732.5 C 2094.5,3732.5 2386.5,3732.5 2678.5,3732.5C 2678.5,3736.83 2678.5,3741.17 2678.5,3745.5C 2673.83,3745.5 2669.17,3745.5 2664.5,3745.5C 2473.67,3745.17 2283,3745.5 2092.5,3746.5C 1998.8,3746.83 1905.14,3746.49 1811.5,3745.5C 1808.5,3745.5 1805.5,3745.5 1802.5,3745.5C 1802.5,3741.17 1802.5,3736.83 1802.5,3732.5 Z"/></g>
<g><path style="opacity:1" fill="#ed7d2b" d="M 1811.5,3745.5 C 1905.14,3746.49 1998.8,3746.83 2092.5,3746.5C 2092.12,3822.33 2104.29,3895.99 2129,3967.5C 2148.11,4019.22 2178.28,4063.39 2219.5,4100C 2231.8,4110.15 2244.8,4119.32 2258.5,4127.5C 2237.2,4130.3 2222.36,4141.63 2214,4161.5C 2212.03,4165.96 2211.19,4170.63 2211.5,4175.5C 2076.5,4175.5 1941.5,4175.5 1806.5,4175.5C 1809.44,4151.71 1822.44,4136.21 1845.5,4129C 1922.14,4127.69 1998.81,4127.02 2075.5,4127C 2039.46,4112.12 2006.13,4092.79 1975.5,4069C 1872.98,3985.81 1818.32,3877.97 1811.5,3745.5 Z"/></g>
<g><path style="opacity:1" fill="#f99646" d="M 2664.5,3745.5 C 2662.87,3783.94 2656.7,3821.61 2646,3858.5C 2604.24,3984.6 2522.4,4074.1 2400.5,4127C 2476.86,4127.02 2553.19,4127.69 2629.5,4129C 2652,4134.66 2665.33,4148.83 2669.5,4171.5C 2669.5,4172.83 2669.5,4174.17 2669.5,4175.5C 2516.83,4175.5 2364.17,4175.5 2211.5,4175.5C 2211.19,4170.63 2212.03,4165.96 2214,4161.5C 2222.36,4141.63 2237.2,4130.3 2258.5,4127.5C 2244.8,4119.32 2231.8,4110.15 2219.5,4100C 2178.28,4063.39 2148.11,4019.22 2129,3967.5C 2104.29,3895.99 2092.12,3822.33 2092.5,3746.5C 2283,3745.5 2473.67,3745.17 2664.5,3745.5 Z"/></g>
<g><path style="opacity:1" fill="#feb075" d="M 2506.5,3746.5 C 2541.83,3746.5 2577.17,3746.5 2612.5,3746.5C 2602.91,3900.44 2533.24,4018.27 2403.5,4100C 2385.2,4110.9 2366.04,4120.06 2346,4127.5C 2345.17,4127.33 2344.33,4127.17 2343.5,4127C 2398.46,4095.7 2438.3,4050.87 2463,3992.5C 2485.27,3936.92 2498.61,3879.26 2503,3819.5C 2504.32,3795.17 2505.49,3770.84 2506.5,3746.5 Z"/></g>
<g><path style="opacity:1" fill="#2d3a64" d="M 4169.5,3763.5 C 4205.5,3900.52 4241.5,4037.52 4277.5,4174.5C 4277.5,4174.83 4277.5,4175.17 4277.5,4175.5C 4240.83,4175.5 4204.17,4175.5 4167.5,4175.5C 4167.5,4174.83 4167.17,4174.5 4166.5,4174.5C 4164.34,4169.17 4162.67,4163.67 4161.5,4158C 4157.93,4128.2 4157.77,4098.37 4161,4068.5C 4161.32,4063.88 4162.49,4059.55 4164.5,4055.5C 4157.79,4051.75 4152.29,4046.75 4148,4040.5C 4153.52,3947.89 4160.69,3855.55 4169.5,3763.5 Z"/></g>
<g><path style="opacity:1" fill="#feb17d" d="M 5034.5,3895.5 C 5071.91,3905.1 5109.91,3911.76 5148.5,3915.5C 5153.36,3915.18 5158.03,3915.51 5162.5,3916.5C 5161.32,3916.28 5160.32,3916.61 5159.5,3917.5C 5129.82,3973.53 5100.15,4029.53 5070.5,4085.5C 5060.8,4091.51 5050.47,4096.18 5039.5,4099.5C 5033.3,4094.46 5027.96,4088.63 5023.5,4082C 5025.06,4081.79 5026.39,4081.29 5027.5,4080.5C 5033.81,4079.81 5040.14,4079.48 5046.5,4079.5C 5036.25,4051.41 5026.58,4023.08 5017.5,3994.5C 5022.76,3964.07 5028.6,3933.73 5035,3903.5C 5035.72,3900.74 5035.56,3898.07 5034.5,3895.5 Z"/></g>
<g><path style="opacity:1" fill="#e9f2f9" d="M 5262.5,3907.5 C 5263.85,3912.95 5264.68,3918.62 5265,3924.5C 5265.5,3925 5266,3925.5 5266.5,3926C 5299.66,3936.67 5333.66,3943.17 5368.5,3945.5C 5378.06,3995.52 5387.39,4045.52 5396.5,4095.5C 5387.1,4111.71 5373.77,4123.54 5356.5,4131C 5333.73,4134.63 5314.9,4145.13 5300,4162.5C 5297.74,4166.54 5296.57,4170.87 5296.5,4175.5C 5266.26,4176.83 5235.93,4176.83 5205.5,4175.5C 5200.42,4169.26 5194.09,4164.43 5186.5,4161C 5168.22,4156.42 5149.89,4152.09 5131.5,4148C 5119.58,4144.87 5108.25,4140.7 5097.5,4135.5C 5097.93,4128.99 5097.1,4122.66 5095,4116.5C 5089.2,4104.2 5081.03,4093.87 5070.5,4085.5C 5100.15,4029.53 5129.82,3973.53 5159.5,3917.5C 5160.32,3916.61 5161.32,3916.28 5162.5,3916.5C 5182.52,3916.82 5202.52,3916.32 5222.5,3915C 5236.1,3913.76 5249.43,3911.26 5262.5,3907.5 Z"/></g>
<g><path style="opacity:1" fill="#feb17d" d="M 5481.5,3939.5 C 5477.58,3988.43 5473.92,4037.43 5470.5,4086.5C 5463.73,4089.38 5457.07,4092.55 5450.5,4096C 5440.9,4100.14 5430.9,4101.47 5420.5,4100C 5412.31,4099.38 5404.31,4097.88 5396.5,4095.5C 5387.39,4045.52 5378.06,3995.52 5368.5,3945.5C 5406.4,3947.75 5444.07,3945.75 5481.5,3939.5 Z"/></g>
<g><path style="opacity:1" fill="#233863" d="M 3114.5,4000.5 C 3140.2,4028.63 3172.2,4041.3 3210.5,4038.5C 3212.02,4038.51 3213.18,4039.18 3214,4040.5C 3228.47,4065.58 3245.97,4088.42 3266.5,4109C 3271.27,4111.59 3276.27,4113.59 3281.5,4115C 3298.99,4118.45 3316.33,4122.45 3333.5,4127C 3342.85,4130.18 3351.85,4134.18 3360.5,4139C 3373.06,4146.98 3381.06,4158.15 3384.5,4172.5C 3384.5,4173.5 3384.5,4174.5 3384.5,4175.5C 3279.5,4175.5 3174.5,4175.5 3069.5,4175.5C 3067.26,4152.24 3068.76,4129.24 3074,4106.5C 3081.25,4087.99 3090.59,4070.65 3102,4054.5C 3112.5,4037.79 3116.66,4019.79 3114.5,4000.5 Z"/></g>
<g><path style="opacity:1" fill="#233863" d="M 3852.5,4014.5 C 3873.8,4037.3 3894.97,4060.3 3916,4083.5C 3923.86,4091.7 3932.03,4099.53 3940.5,4107C 3944.66,4110.28 3949.32,4112.61 3954.5,4114C 3971.94,4117.63 3989.28,4121.63 4006.5,4126C 4015.97,4128.61 4024.97,4132.28 4033.5,4137C 4049.2,4145.2 4058.53,4158.03 4061.5,4175.5C 3956.5,4175.5 3851.5,4175.5 3746.5,4175.5C 3746.67,4174.51 3746.34,4173.84 3745.5,4173.5C 3742.45,4153.41 3742.95,4133.41 3747,4113.5C 3751.86,4100.78 3757.53,4088.44 3764,4076.5C 3765.21,4071.06 3766.05,4065.56 3766.5,4060C 3765.17,4046.18 3760.84,4033.34 3753.5,4021.5C 3763.17,4025.25 3773.17,4028.09 3783.5,4030C 3808.58,4033.48 3831.58,4028.31 3852.5,4014.5 Z"/></g>
<g><path style="opacity:1" fill="#2d3a64" d="M 4879.5,4079.5 C 4891.55,4080.19 4903.55,4081.36 4915.5,4083C 4952.89,4084.07 4990.23,4083.23 5027.5,4080.5C 5026.39,4081.29 5025.06,4081.79 5023.5,4082C 5027.96,4088.63 5033.3,4094.46 5039.5,4099.5C 5056.46,4115.09 5075.79,4127.09 5097.5,4135.5C 5108.25,4140.7 5119.58,4144.87 5131.5,4148C 5149.89,4152.09 5168.22,4156.42 5186.5,4161C 5194.09,4164.43 5200.42,4169.26 5205.5,4175.5C 5097.17,4175.5 4988.83,4175.5 4880.5,4175.5C 4875.64,4143.57 4875.31,4111.57 4879.5,4079.5 Z"/></g>
<g><path style="opacity:1" fill="#a02f2f" d="M 5070.5,4085.5 C 5081.03,4093.87 5089.2,4104.2 5095,4116.5C 5097.1,4122.66 5097.93,4128.99 5097.5,4135.5C 5075.79,4127.09 5056.46,4115.09 5039.5,4099.5C 5050.47,4096.18 5060.8,4091.51 5070.5,4085.5 Z"/></g>
<g><path style="opacity:1" fill="#a02e2e" d="M 5470.5,4086.5 C 5480.47,4094.76 5488.31,4104.76 5494,4116.5C 5497.33,4136.01 5499.17,4155.68 5499.5,4175.5C 5431.83,4175.5 5364.17,4175.5 5296.5,4175.5C 5296.57,4170.87 5297.74,4166.54 5300,4162.5C 5314.9,4145.13 5333.73,4134.63 5356.5,4131C 5373.77,4123.54 5387.1,4111.71 5396.5,4095.5C 5404.31,4097.88 5412.31,4099.38 5420.5,4100C 5430.9,4101.47 5440.9,4100.14 5450.5,4096C 5457.07,4092.55 5463.73,4089.38 5470.5,4086.5 Z"/></g>
<g><path style="opacity:1" fill="#926248" d="M 2669.5,4171.5 C 2670.45,4172.92 2670.78,4174.59 2670.5,4176.5C 2382.5,4176.5 2094.5,4176.5 1806.5,4176.5C 1806.5,4176.17 1806.5,4175.83 1806.5,4175.5C 1941.5,4175.5 2076.5,4175.5 2211.5,4175.5C 2364.17,4175.5 2516.83,4175.5 2669.5,4175.5C 2669.5,4174.17 2669.5,4172.83 2669.5,4171.5 Z"/></g>
<g><path style="opacity:1" fill="#2e3551" d="M 3384.5,4172.5 C 3385.4,4173.21 3385.74,4174.21 3385.5,4175.5C 3505.83,4176.83 3626.17,4176.83 3746.5,4175.5C 3851.5,4175.5 3956.5,4175.5 4061.5,4175.5C 4096.83,4176.83 4132.17,4176.83 4167.5,4175.5C 4204.17,4175.5 4240.83,4175.5 4277.5,4175.5C 4283.17,4176.83 4288.83,4176.83 4294.5,4175.5C 4361.5,4175.5 4428.5,4175.5 4495.5,4175.5C 4623.83,4176.83 4752.17,4176.83 4880.5,4175.5C 4988.83,4175.5 5097.17,4175.5 5205.5,4175.5C 5235.93,4176.83 5266.26,4176.83 5296.5,4175.5C 5364.17,4175.5 5431.83,4175.5 5499.5,4175.5C 6061,4176.5 6622.67,4176.83 7184.5,4176.5C 7187.79,4178.13 7189.45,4180.79 7189.5,4184.5C 7189.8,4188.81 7188.13,4191.97 7184.5,4194C 6039.5,4194.17 4894.5,4194.33 3749.5,4194.5C 2604.5,4194.33 1459.5,4194.17 314.5,4194C 310.866,4191.97 309.2,4188.81 309.5,4184.5C 309.546,4180.79 311.213,4178.13 314.5,4176.5C 811.833,4176.5 1309.17,4176.5 1806.5,4176.5C 2094.5,4176.5 2382.5,4176.5 2670.5,4176.5C 2803.67,4176.83 2936.67,4176.5 3069.5,4175.5C 3174.5,4175.5 3279.5,4175.5 3384.5,4175.5C 3384.5,4174.5 3384.5,4173.5 3384.5,4172.5 Z"/></g>
<g><path style="opacity:1" fill="#8c93a4" d="M 3745.5,4173.5 C 3746.34,4173.84 3746.67,4174.51 3746.5,4175.5C 3626.17,4176.83 3505.83,4176.83 3385.5,4175.5C 3401.17,4175.5 3416.83,4175.5 3432.5,4175.5C 3437.83,4175.5 3443.17,4175.5 3448.5,4175.5C 3547.84,4176.16 3646.84,4175.5 3745.5,4173.5 Z"/></g>
<g><path style="opacity:1" fill="#8c93a5" d="M 4166.5,4174.5 C 4167.17,4174.5 4167.5,4174.83 4167.5,4175.5C 4132.17,4176.83 4096.83,4176.83 4061.5,4175.5C 4096.67,4175.83 4131.67,4175.5 4166.5,4174.5 Z"/></g>
<g><path style="opacity:1" fill="#857a7c" d="M 4293.5,4172.5 C 4294.4,4173.21 4294.74,4174.21 4294.5,4175.5C 4288.83,4176.83 4283.17,4176.83 4277.5,4175.5C 4277.5,4175.17 4277.5,4174.83 4277.5,4174.5C 4282.74,4175.45 4288.07,4175.78 4293.5,4175.5C 4293.5,4174.5 4293.5,4173.5 4293.5,4172.5 Z"/></g>
</svg>
