<?xml version="1.0" encoding="UTF-8"?>
<!DOCTYPE svg PUBLIC "-//W3C//DTD SVG 1.1//EN" "http://www.w3.org/Graphics/SVG/1.1/DTD/svg11.dtd">
<svg xmlns="http://www.w3.org/2000/svg" version="1.1" width="512px" height="512px" style="shape-rendering:geometricPrecision; text-rendering:geometricPrecision; image-rendering:optimizeQuality; fill-rule:evenodd; clip-rule:evenodd" xmlns:xlink="http://www.w3.org/1999/xlink">
<g><path style="opacity:0.94" fill="#4b231c" d="M 320.5,43.5 C 325.809,42.5655 329.309,44.5655 331,49.5C 331.667,54.8333 331.667,60.1667 331,65.5C 329.542,71.0589 326.042,72.8923 320.5,71C 318.667,70.5 317.5,69.3333 317,67.5C 316.333,60.8333 316.333,54.1667 317,47.5C 317.69,45.6498 318.856,44.3164 320.5,43.5 Z"/></g>
<g><path style="opacity:0.994" fill="#eeedd1" d="M 290.5,73.5 C 288.941,76.8696 289.274,80.0363 291.5,83C 296.768,84.1622 302.102,84.9955 307.5,85.5C 310.474,88.1379 313.474,90.8046 316.5,93.5C 316.334,98.1785 316.501,102.845 317,107.5C 321.157,112.403 325.657,112.737 330.5,108.5C 344.999,126.499 354.999,146.832 360.5,169.5C 351.179,156.442 338.512,151.275 322.5,154C 309.36,157.807 300.86,166.307 297,179.5C 295.877,192.286 296.544,204.953 299,217.5C 300.663,221.496 302.829,225.163 305.5,228.5C 300.893,230.137 296.56,232.304 292.5,235C 244.167,235.333 195.833,235.667 147.5,236C 136.07,239.927 129.07,247.761 126.5,259.5C 125.833,265.5 125.167,271.5 124.5,277.5C 108.379,273.308 97.5461,278.975 92,294.5C 91.5005,300.825 91.3338,307.158 91.5,313.5C 64.114,283.706 50.4474,248.373 50.5,207.5C 52.331,146.979 78.9976,101.146 130.5,70C 176.11,46.6579 222.777,44.3246 270.5,63C 277.351,66.2579 284.018,69.7579 290.5,73.5 Z"/></g>
<g><path style="opacity:0.94" fill="#4d251e" d="M 307.5,85.5 C 302.102,84.9955 296.768,84.1622 291.5,83C 289.274,80.0363 288.941,76.8696 290.5,73.5C 291.6,72.4415 292.934,71.6082 294.5,71C 301.276,70.0804 307.943,70.4137 314.5,72C 318.875,77.1213 318.209,81.4546 312.5,85C 310.866,85.4935 309.199,85.6602 307.5,85.5 Z"/></g>
<g><path style="opacity:0.908" fill="#4b231d" d="M 335.5,70.5 C 341.509,70.3338 347.509,70.5005 353.5,71C 360.167,75.6667 360.167,80.3333 353.5,85C 346.418,85.8842 339.418,85.5508 332.5,84C 330.607,81.0828 330.107,77.9162 331,74.5C 331.907,72.3909 333.407,71.0576 335.5,70.5 Z"/></g>
<g><path style="opacity:1" fill="#4e271f" d="M 169.5,71.5 C 208.709,69.2505 234.543,86.5839 247,123.5C 252.51,160.32 238.677,186.82 205.5,203C 171.465,213.987 143.965,205.154 123,176.5C 105.118,143.198 109.618,113.364 136.5,87C 146.304,79.0957 157.304,73.9291 169.5,71.5 Z"/></g>
<g><path style="opacity:0.97" fill="#4f271f" d="M 330.5,108.5 C 325.657,112.737 321.157,112.403 317,107.5C 316.501,102.845 316.334,98.1785 316.5,93.5C 316.334,85.9022 320.001,83.0688 327.5,85C 330.912,88.789 332.245,93.289 331.5,98.5C 331.414,101.884 331.081,105.217 330.5,108.5 Z"/></g>
<g><path style="opacity:1" fill="#fdfdfd" d="M 173.5,84.5 C 204.535,83.7512 224.702,98.0845 234,127.5C 237.774,161.146 223.607,182.979 191.5,193C 155.596,196.415 133.763,180.582 126,145.5C 124.741,118.173 136.575,99.0067 161.5,88C 165.623,86.8077 169.623,85.641 173.5,84.5 Z"/></g>
<g><path style="opacity:0.919" fill="#4b231c" d="M 425.5,87.5 C 433.694,88.5545 436.194,92.8878 433,100.5C 425.817,105.609 420.984,103.943 418.5,95.5C 419.485,91.5228 421.818,88.8561 425.5,87.5 Z"/></g>
<g><path style="opacity:1" fill="#502821" d="M 177.5,105.5 C 181.594,104.705 184.761,106.038 187,109.5C 187.667,120.833 187.667,132.167 187,143.5C 186.535,144.931 185.701,146.097 184.5,147C 178.003,150.414 171.67,154.081 165.5,158C 156.763,161.586 152.93,158.752 154,149.5C 160.066,145.105 166.4,141.105 173,137.5C 173.333,128.167 173.667,118.833 174,109.5C 175.032,107.973 176.199,106.64 177.5,105.5 Z"/></g>
<g><path style="opacity:0.96" fill="#4b241c" d="M 426.5,145.5 C 449.609,147.795 457.776,160.129 451,182.5C 441.871,194.657 430.371,197.49 416.5,191C 404.867,181.611 402.367,170.111 409,156.5C 413.594,150.632 419.427,146.965 426.5,145.5 Z M 426.5,160.5 C 437.592,161.065 441.092,166.398 437,176.5C 428.289,182.098 422.456,179.931 419.5,170C 420.528,165.814 422.862,162.647 426.5,160.5 Z"/></g>
<g><path style="opacity:0.987" fill="#4d251e" d="M 360.5,169.5 C 363.094,173.783 364.594,178.45 365,183.5C 365.167,199.844 365.667,216.177 366.5,232.5C 367.308,232.808 367.975,233.308 368.5,234C 378.5,234.333 388.5,234.667 398.5,235C 410.845,237.008 419.345,243.841 424,255.5C 425.943,262.689 426.943,270.022 427,277.5C 442.986,272.66 453.986,277.993 460,293.5C 460.667,320.5 460.667,347.5 460,374.5C 455.242,387.647 445.742,393.981 431.5,393.5C 436,402.5 440.5,411.5 445,420.5C 445.658,424.025 444.491,426.859 441.5,429C 432.065,429.945 422.732,429.611 413.5,428C 406.333,416.833 399.167,405.667 392,394.5C 390.211,392.771 388.044,392.104 385.5,392.5C 385.333,409.17 385.5,425.837 386,442.5C 391.262,448.543 393.262,455.543 392,463.5C 391.167,465 390,466.167 388.5,467C 372.833,467.667 357.167,467.667 341.5,467C 338.402,465.732 336.735,463.399 336.5,460C 337.09,453.561 339.257,447.727 343,442.5C 343.5,425.837 343.667,409.17 343.5,392.5C 282.832,392.333 222.166,392.5 161.5,393C 153.748,405.172 145.748,417.172 137.5,429C 128.5,429.667 119.5,429.667 110.5,429C 107.735,426.005 106.902,422.505 108,418.5C 112.755,409.99 117.255,401.324 121.5,392.5C 108.619,394.306 99.1187,389.306 93,377.5C 91.5336,356.233 91.0336,334.9 91.5,313.5C 91.3338,307.158 91.5005,300.825 92,294.5C 97.5461,278.975 108.379,273.308 124.5,277.5C 124.56,278.043 124.893,278.376 125.5,278.5C 126.496,272.202 126.83,265.868 126.5,259.5C 129.07,247.761 136.07,239.927 147.5,236C 195.833,235.667 244.167,235.333 292.5,235C 296.56,232.304 300.893,230.137 305.5,228.5C 302.829,225.163 300.663,221.496 299,217.5C 296.544,204.953 295.877,192.286 297,179.5C 300.86,166.307 309.36,157.807 322.5,154C 338.512,151.275 351.179,156.442 360.5,169.5 Z"/></g>
<g><path style="opacity:1" fill="#fddcd3" d="M 350.5,183.5 C 350.5,198.167 350.5,212.833 350.5,227.5C 343.5,227.5 336.5,227.5 329.5,227.5C 320.77,225.279 314.603,219.945 311,211.5C 310.333,201.167 310.333,190.833 311,180.5C 320.529,164.223 332.529,162.223 347,174.5C 348.741,177.309 349.908,180.309 350.5,183.5 Z"/></g>
<g><path style="opacity:1" fill="#aa867e" d="M 350.5,183.5 C 351.496,198.324 351.829,213.324 351.5,228.5C 343.981,228.825 336.648,228.492 329.5,227.5C 336.5,227.5 343.5,227.5 350.5,227.5C 350.5,212.833 350.5,198.167 350.5,183.5 Z"/></g>
<g><path style="opacity:1" fill="#a7b759" d="M 308.5,241.5 C 322.837,241.333 337.171,241.5 351.5,242C 361.14,244.305 367.64,250.138 371,259.5C 371.667,279.833 371.667,300.167 371,320.5C 370.167,321.333 369.333,322.167 368.5,323C 342.169,323.5 315.835,323.667 289.5,323.5C 289.333,302.497 289.5,281.497 290,260.5C 293.017,250.984 299.184,244.651 308.5,241.5 Z"/></g>
<g><path style="opacity:1" fill="#f2adaa" d="M 266.5,364.5 C 291.995,365.498 317.661,365.831 343.5,365.5C 343.5,369.833 343.5,374.167 343.5,378.5C 275.833,378.5 208.167,378.5 140.5,378.5C 140.5,369.5 140.5,360.5 140.5,351.5C 169.502,351.667 198.502,351.5 227.5,351C 232.626,348.447 233.793,344.614 231,339.5C 230.25,338.874 229.416,338.374 228.5,338C 198.835,337.5 169.169,337.333 139.5,337.5C 139.333,311.831 139.5,286.165 140,260.5C 141.807,254.693 145.64,250.859 151.5,249C 194.171,248.167 236.837,248.333 279.5,249.5C 278.568,251.795 277.735,254.129 277,256.5C 276.5,278.831 276.333,301.164 276.5,323.5C 258.154,322.021 248.987,330.354 249,348.5C 251.855,357.192 257.688,362.525 266.5,364.5 Z"/></g>
<g><path style="opacity:1" fill="#efaaa7" d="M 381.5,248.5 C 387.925,248.13 394.258,248.63 400.5,250C 405.333,252.167 408.833,255.667 411,260.5C 412.472,286.102 412.972,311.769 412.5,337.5C 405.5,337.5 398.5,337.5 391.5,337.5C 391.666,331.824 391.499,326.157 391,320.5C 389.826,318.329 387.993,317.329 385.5,317.5C 385.667,298.164 385.5,278.83 385,259.5C 383.677,255.873 382.511,252.207 381.5,248.5 Z"/></g>
<g><path style="opacity:1" fill="#826658" d="M 126.5,259.5 C 126.83,265.868 126.496,272.202 125.5,278.5C 124.893,278.376 124.56,278.043 124.5,277.5C 125.167,271.5 125.833,265.5 126.5,259.5 Z"/></g>
<g><path style="opacity:1" fill="#4e281e" d="M 300.5,269.5 C 304.594,268.705 307.761,270.038 310,273.5C 310.667,286.167 310.667,298.833 310,311.5C 307.928,316.143 304.428,317.643 299.5,316C 298.299,315.097 297.465,313.931 297,312.5C 296.333,299.5 296.333,286.5 297,273.5C 297.69,271.65 298.856,270.316 300.5,269.5 Z"/></g>
<g><path style="opacity:1" fill="#4c241d" d="M 354.5,269.5 C 358.287,268.814 361.454,269.814 364,272.5C 364.667,285.833 364.667,299.167 364,312.5C 361.947,316.292 358.781,317.458 354.5,316C 353.667,315.167 352.833,314.333 352,313.5C 351.333,299.833 351.333,286.167 352,272.5C 353.045,271.627 353.878,270.627 354.5,269.5 Z"/></g>
<g><path style="opacity:1" fill="#f3adaa" d="M 112.5,289.5 C 117.948,288.975 122.115,290.975 125,295.5C 125.667,320.833 125.667,346.167 125,371.5C 121.944,377.943 117.111,379.776 110.5,377C 108.274,375.773 106.774,373.939 106,371.5C 105.333,346.167 105.333,320.833 106,295.5C 107.914,293.144 110.081,291.144 112.5,289.5 Z"/></g>
<g><path style="opacity:1" fill="#f3adaa" d="M 433.5,289.5 C 438.874,288.937 443.041,290.937 446,295.5C 446.667,320.833 446.667,346.167 446,371.5C 440.078,380.434 433.744,380.767 427,372.5C 426.333,346.833 426.333,321.167 427,295.5C 428.494,292.686 430.66,290.686 433.5,289.5 Z"/></g>
<g><path style="opacity:1" fill="#694c57" d="M 377.5,332.5 C 378.82,340.01 378.82,347.677 377.5,355.5C 369.512,347.885 369.512,340.219 377.5,332.5 Z"/></g>
<g><path style="opacity:1" fill="#9abcdd" d="M 266.5,337.5 C 297.167,337.5 327.833,337.5 358.5,337.5C 358.5,342.167 358.5,346.833 358.5,351.5C 328.165,351.667 297.832,351.5 267.5,351C 261.178,346.911 260.845,342.411 266.5,337.5 Z"/></g>
<g><path style="opacity:1" fill="#f0aba8" d="M 392.5,351.5 C 398.833,351.5 405.167,351.5 411.5,351.5C 411.5,360.5 411.5,369.5 411.5,378.5C 402.833,378.5 394.167,378.5 385.5,378.5C 385.192,376.076 385.526,373.743 386.5,371.5C 388.258,370.872 389.758,369.872 391,368.5C 391.173,362.652 391.673,356.985 392.5,351.5 Z"/></g>
<g><path style="opacity:1" fill="#9d6661" d="M 392.5,351.5 C 398.979,350.509 405.646,350.176 412.5,350.5C 412.827,360.015 412.494,369.348 411.5,378.5C 411.5,369.5 411.5,360.5 411.5,351.5C 405.167,351.5 398.833,351.5 392.5,351.5 Z"/></g>
<g><path style="opacity:1" fill="#bc807c" d="M 266.5,364.5 C 292.5,364.5 318.5,364.5 344.5,364.5C 344.819,369.363 344.486,374.03 343.5,378.5C 343.5,374.167 343.5,369.833 343.5,365.5C 317.661,365.831 291.995,365.498 266.5,364.5 Z"/></g>
<g><path style="opacity:1" fill="#9abbdc" d="M 357.5,364.5 C 362.485,363.771 366.985,364.771 371,367.5C 371.5,389.497 371.667,411.497 371.5,433.5C 366.833,433.5 362.167,433.5 357.5,433.5C 357.5,410.5 357.5,387.5 357.5,364.5 Z"/></g>
<g><path style="opacity:1" fill="#b97964" d="M 136.5,392.5 C 139.187,392.336 141.854,392.503 144.5,393C 140.03,400.302 135.363,407.468 130.5,414.5C 129.311,415.429 127.978,415.762 126.5,415.5C 129.552,407.727 132.885,400.061 136.5,392.5 Z"/></g>
<g><path style="opacity:1" fill="#b57661" d="M 407.5,391.5 C 410.685,391.02 413.519,391.686 416,393.5C 419.5,400.5 423,407.5 426.5,414.5C 424.389,415.848 422.555,415.515 421,413.5C 416.227,406.278 411.727,398.945 407.5,391.5 Z"/></g>
<g><path style="opacity:1" fill="#694d58" d="M 360.5,446.5 C 367.017,445.837 372.35,448.004 376.5,453C 368.812,453.831 361.145,453.665 353.5,452.5C 355.678,450.255 358.012,448.255 360.5,446.5 Z"/></g>
</svg>
