<?xml version="1.0" encoding="UTF-8"?>
<!DOCTYPE svg PUBLIC "-//W3C//DTD SVG 1.1//EN" "http://www.w3.org/Graphics/SVG/1.1/DTD/svg11.dtd">
<svg xmlns="http://www.w3.org/2000/svg" version="1.1" width="512px" height="512px" style="shape-rendering:geometricPrecision; text-rendering:geometricPrecision; image-rendering:optimizeQuality; fill-rule:evenodd; clip-rule:evenodd" xmlns:xlink="http://www.w3.org/1999/xlink">
<g><path style="opacity:0.964" fill="#000100" d="M 349.5,-0.5 C 395.833,-0.5 442.167,-0.5 488.5,-0.5C 500.07,2.73661 507.737,10.0699 511.5,21.5C 511.5,31.1667 511.5,40.8333 511.5,50.5C 509.61,52.5776 507.276,53.9109 504.5,54.5C 501.042,53.8923 498.542,51.8923 497,48.5C 496.911,39.7579 496.244,31.0912 495,22.5C 492.548,19.1793 489.382,16.6793 485.5,15C 440.998,14.1686 396.665,14.3352 352.5,15.5C 347.246,16.9191 343.746,20.2524 342,25.5C 341.333,49.1667 341.333,72.8333 342,96.5C 343.779,100.612 346.612,103.778 350.5,106C 359.125,105.814 366.458,108.647 372.5,114.5C 374.043,116.928 375.043,119.594 375.5,122.5C 375.333,133.838 375.5,145.172 376,156.5C 376.717,155.956 377.217,155.289 377.5,154.5C 385.5,141.167 393.5,127.833 401.5,114.5C 404.439,111.082 408.106,108.582 412.5,107C 419.492,106.5 426.492,106.334 433.5,106.5C 451.902,106.961 470.235,106.461 488.5,105C 492.058,103.108 494.558,100.275 496,96.5C 496.078,89.726 496.745,83.0594 498,76.5C 499.734,74.5494 501.901,73.5494 504.5,73.5C 507.652,73.5713 509.986,74.9046 511.5,77.5C 511.5,85.1667 511.5,92.8333 511.5,100.5C 507.684,110.481 500.684,117.315 490.5,121C 465.541,122.285 440.541,122.952 415.5,123C 404.239,139.769 393.573,156.935 383.5,174.5C 378.399,178.746 372.732,179.579 366.5,177C 363.865,175.039 362.031,172.539 361,169.5C 360.667,154.5 360.333,139.5 360,124.5C 352.662,122.754 345.496,120.254 338.5,117C 332.773,112.372 328.94,106.539 327,99.5C 326.333,73.5 326.333,47.5 327,21.5C 330.447,9.88511 337.947,2.55178 349.5,-0.5 Z"/></g>
<g><path style="opacity:1" fill="#b2e39e" d="M 352.5,15.5 C 379.841,15.1669 407.175,15.5002 434.5,16.5C 438.109,22.6264 439.442,29.293 438.5,36.5C 426.495,36.3335 414.495,36.5001 402.5,37C 398.139,39.2258 396.639,42.7258 398,47.5C 399.451,49.4641 401.284,50.7974 403.5,51.5C 414.988,52.4949 426.655,52.8283 438.5,52.5C 438.5,58.8333 438.5,65.1667 438.5,71.5C 414.328,71.1691 390.328,71.5024 366.5,72.5C 360.513,74.6133 359.013,78.6133 362,84.5C 362.903,85.7014 364.069,86.5348 365.5,87C 389.831,87.5 414.164,87.6666 438.5,87.5C 439.163,94.5189 437.496,100.852 433.5,106.5C 426.492,106.334 419.492,106.5 412.5,107C 408.106,108.582 404.439,111.082 401.5,114.5C 391.833,114.5 382.167,114.5 372.5,114.5C 366.458,108.647 359.125,105.814 350.5,106C 346.612,103.778 343.779,100.612 342,96.5C 341.333,72.8333 341.333,49.1667 342,25.5C 343.746,20.2524 347.246,16.9191 352.5,15.5 Z"/></g>
<g><path style="opacity:1" fill="#91d09f" d="M 352.5,15.5 C 396.665,14.3352 440.998,14.1686 485.5,15C 489.382,16.6793 492.548,19.1793 495,22.5C 496.244,31.0912 496.911,39.7579 497,48.5C 498.542,51.8923 501.042,53.8923 504.5,54.5C 504.5,60.8333 504.5,67.1667 504.5,73.5C 501.901,73.5494 499.734,74.5494 498,76.5C 496.745,83.0594 496.078,89.726 496,96.5C 494.558,100.275 492.058,103.108 488.5,105C 470.235,106.461 451.902,106.961 433.5,106.5C 437.496,100.852 439.163,94.5189 438.5,87.5C 449.838,87.6665 461.172,87.4999 472.5,87C 477.689,84.0868 478.856,79.9201 476,74.5C 475.25,73.8742 474.416,73.3742 473.5,73C 437.835,72.5 402.168,72.3333 366.5,72.5C 390.328,71.5024 414.328,71.1691 438.5,71.5C 438.5,65.1667 438.5,58.8333 438.5,52.5C 426.655,52.8283 414.988,52.4949 403.5,51.5C 426.836,51.6666 450.169,51.5 473.5,51C 477.212,48.487 478.378,44.987 477,40.5C 475.786,38.9512 474.286,37.7845 472.5,37C 461.172,36.5001 449.838,36.3335 438.5,36.5C 439.442,29.293 438.109,22.6264 434.5,16.5C 407.175,15.5002 379.841,15.1669 352.5,15.5 Z"/></g>
<g><path style="opacity:0.983" fill="#020202" d="M 383.5,511.5 C 261.5,511.5 139.5,511.5 17.5,511.5C 8.89822,508.564 2.89822,502.898 -0.5,494.5C -0.5,489.833 -0.5,485.167 -0.5,480.5C 0.704964,477.766 2.20496,475.099 4,472.5C 4.33333,456.167 4.66667,439.833 5,423.5C 7.41734,398.06 16.9173,375.727 33.5,356.5C 24.7929,315.873 41.1263,297.54 82.5,301.5C 82.6666,272.498 82.5,243.498 82,214.5C 77.4954,210.491 74.8287,205.491 74,199.5C 73.3333,187.167 73.3333,174.833 74,162.5C 74.836,156.493 77.5026,151.493 82,147.5C 87.5041,92.0047 116.671,55.5047 169.5,38C 225.834,26.4371 270.001,44.2704 302,91.5C 311.901,108.871 317.568,127.537 319,147.5C 322.082,150.659 324.416,154.325 326,158.5C 326.667,173.5 326.667,188.5 326,203.5C 324.487,207.681 322.154,211.348 319,214.5C 318.5,243.498 318.333,272.498 318.5,301.5C 328.96,301.039 339.293,301.872 349.5,304C 364.026,310.879 370.36,322.379 368.5,338.5C 368.178,344.857 368.012,351.191 368,357.5C 385.054,377.626 394.387,400.96 396,427.5C 396.333,442.5 396.667,457.5 397,472.5C 405.887,490.345 401.387,503.345 383.5,511.5 Z"/></g>
<g><path style="opacity:1" fill="#090b07" d="M 365.5,36.5 C 370.297,36.1211 374.964,36.6211 379.5,38C 384.833,42.3333 384.833,46.6667 379.5,51C 373.719,51.9032 368.053,51.5699 362.5,50C 359.277,44.4868 360.277,39.9868 365.5,36.5 Z"/></g>
<g><path style="opacity:1" fill="#060806" d="M 438.5,36.5 C 449.838,36.3335 461.172,36.5001 472.5,37C 474.286,37.7845 475.786,38.9512 477,40.5C 478.378,44.987 477.212,48.487 473.5,51C 450.169,51.5 426.836,51.6666 403.5,51.5C 401.284,50.7974 399.451,49.4641 398,47.5C 396.639,42.7258 398.139,39.2258 402.5,37C 414.495,36.5001 426.495,36.3335 438.5,36.5 Z"/></g>
<g><path style="opacity:1" fill="#746d77" d="M 211.5,50.5 C 229.061,60.9291 239.728,76.2625 243.5,96.5C 238.336,94.6383 233.669,95.4717 229.5,99C 219.455,116.702 204.788,129.036 185.5,136C 176.703,138.893 167.703,140.893 158.5,142C 138.503,142.5 118.503,142.667 98.5,142.5C 104.073,100.089 126.74,70.9221 166.5,55C 181.177,49.9563 196.177,48.4563 211.5,50.5 Z"/></g>
<g><path style="opacity:1" fill="#655d65" d="M 211.5,50.5 C 251.72,56.0162 279.887,77.3496 296,114.5C 299.634,123.504 301.8,132.837 302.5,142.5C 294.826,142.666 287.159,142.5 279.5,142C 264.094,132.373 253.594,118.873 248,101.5C 246.634,99.6383 245.134,97.9717 243.5,96.5C 239.728,76.2625 229.061,60.9291 211.5,50.5 Z"/></g>
<g><path style="opacity:1" fill="#050705" d="M 366.5,72.5 C 402.168,72.3333 437.835,72.5 473.5,73C 474.416,73.3742 475.25,73.8742 476,74.5C 478.856,79.9201 477.689,84.0868 472.5,87C 461.172,87.4999 449.838,87.6665 438.5,87.5C 414.164,87.6666 389.831,87.5 365.5,87C 364.069,86.5348 362.903,85.7014 362,84.5C 359.013,78.6133 360.513,74.6133 366.5,72.5 Z"/></g>
<g><path style="opacity:1" fill="#93d3a2" d="M 372.5,114.5 C 382.167,114.5 391.833,114.5 401.5,114.5C 393.5,127.833 385.5,141.167 377.5,154.5C 376.833,143.833 376.167,133.167 375.5,122.5C 375.043,119.594 374.043,116.928 372.5,114.5 Z"/></g>
<g><path style="opacity:1" fill="#fedccd" d="M 245.5,130.5 C 245.667,155.169 245.5,179.836 245,204.5C 244.029,213.203 241.863,221.536 238.5,229.5C 226.739,228.296 218.239,232.963 213,243.5C 211.022,252.392 213.189,260.059 219.5,266.5C 190.011,274.06 165.178,266.394 145,243.5C 136.713,232.919 131.713,220.919 130,207.5C 129.5,190.837 129.333,174.17 129.5,157.5C 157.33,159.701 183.663,154.534 208.5,142C 219.91,135.258 229.41,126.425 237,115.5C 239.845,120.527 242.679,125.527 245.5,130.5 Z"/></g>
<g><path style="opacity:1" fill="#334938" d="M 375.5,122.5 C 376.167,133.167 376.833,143.833 377.5,154.5C 377.217,155.289 376.717,155.956 376,156.5C 375.5,145.172 375.333,133.838 375.5,122.5 Z"/></g>
<g><path style="opacity:1" fill="#fdc9bc" d="M 245.5,130.5 C 252.516,140.014 261.016,148.014 271,154.5C 271.895,174.197 271.561,193.864 270,213.5C 268.284,220.339 265.617,226.673 262,232.5C 254.439,229.768 246.606,228.768 238.5,229.5C 241.863,221.536 244.029,213.203 245,204.5C 245.5,179.836 245.667,155.169 245.5,130.5 Z"/></g>
<g><path style="opacity:1" fill="#99c2f6" d="M 94.5,157.5 C 101.167,157.5 107.833,157.5 114.5,157.5C 114.5,173.167 114.5,188.833 114.5,204.5C 107.492,204.666 100.492,204.5 93.5,204C 91.9512,202.786 90.7845,201.286 90,199.5C 89.3333,187.167 89.3333,174.833 90,162.5C 91.025,160.313 92.525,158.646 94.5,157.5 Z"/></g>
<g><path style="opacity:1" fill="#9ac2f7" d="M 286.5,157.5 C 293.947,157.071 301.281,157.571 308.5,159C 309.211,160.255 310.044,161.421 311,162.5C 311.667,174.833 311.667,187.167 311,199.5C 310.535,200.931 309.701,202.097 308.5,203C 301.281,204.429 293.947,204.929 286.5,204.5C 286.5,188.833 286.5,173.167 286.5,157.5 Z"/></g>
<g><path style="opacity:1" fill="#736c76" d="M 97.5,219.5 C 104.167,219.5 110.833,219.5 117.5,219.5C 122.302,240.764 133.802,257.431 152,269.5C 152.667,278.167 152.667,286.833 152,295.5C 150.542,297.96 148.709,300.127 146.5,302C 130.17,302.5 113.837,302.667 97.5,302.5C 97.5,274.833 97.5,247.167 97.5,219.5 Z"/></g>
<g><path style="opacity:1" fill="#615a61" d="M 283.5,219.5 C 290.167,219.5 296.833,219.5 303.5,219.5C 304.045,240.267 294.045,248.267 273.5,243.5C 278.2,236.066 281.533,228.066 283.5,219.5 Z"/></g>
<g><path style="opacity:1" fill="#cd5c67" d="M 230.5,244.5 C 238.174,244.334 245.841,244.5 253.5,245C 258.815,248.617 258.815,252.283 253.5,256C 245.833,256.667 238.167,256.667 230.5,256C 226.555,252.169 226.555,248.336 230.5,244.5 Z"/></g>
<g><path style="opacity:1" fill="#645c64" d="M 300.5,255.5 C 301.5,255.5 302.5,255.5 303.5,255.5C 303.5,271.167 303.5,286.833 303.5,302.5C 286.405,302.971 269.405,302.471 252.5,301C 250.623,298.749 249.123,296.249 248,293.5C 247.5,285.841 247.334,278.174 247.5,270.5C 257.141,272.01 264.474,268.677 269.5,260.5C 277.145,259.669 284.812,259.169 292.5,259C 295.476,258.295 298.142,257.129 300.5,255.5 Z"/></g>
<g><path style="opacity:1" fill="#fbd9ca" d="M 167.5,278.5 C 188.82,286.499 210.153,286.499 231.5,278.5C 232.329,283.802 232.829,289.136 233,294.5C 233.735,296.871 234.568,299.205 235.5,301.5C 212.167,302.833 188.833,302.833 165.5,301.5C 167.308,293.966 167.975,286.299 167.5,278.5 Z"/></g>
<g><path style="opacity:1" fill="#e9f1fe" d="M 289.5,317.5 C 294.273,323.24 296.273,329.907 295.5,337.5C 293.224,379.507 290.891,421.507 288.5,463.5C 268.833,463.5 249.167,463.5 229.5,463.5C 229.5,462.5 229.5,461.5 229.5,460.5C 230.818,454.858 232.985,449.525 236,444.5C 253.1,427.096 257.766,406.763 250,383.5C 244.665,371.958 236.499,363.125 225.5,357C 218.001,354.834 212.834,357.334 210,364.5C 209.667,377.5 209.333,390.5 209,403.5C 203.584,404.639 198.084,404.806 192.5,404C 191.676,390.575 191.176,377.075 191,363.5C 186.021,356.01 179.521,354.51 171.5,359C 148.759,376.354 142.259,398.521 152,425.5C 156.011,433.527 161.011,440.86 167,447.5C 169.936,452.475 171.769,457.808 172.5,463.5C 133.167,463.5 93.8333,463.5 54.5,463.5C 54.2767,455.819 53.7767,448.153 53,440.5C 51.2067,437.692 48.7067,436.026 45.5,435.5C 44.7243,428.863 44.391,422.196 44.5,415.5C 50.2084,413.944 52.5417,410.11 51.5,404C 50.1552,386.511 48.9885,369.011 48,351.5C 47.3333,343.5 47.3333,335.5 48,327.5C 49.4612,323.74 51.9612,320.907 55.5,319C 133.442,317.509 211.442,317.009 289.5,317.5 Z"/></g>
<g><path style="opacity:1" fill="#dae7f8" d="M 289.5,317.5 C 307.17,317.333 324.836,317.5 342.5,318C 347.333,320.167 350.833,323.667 353,328.5C 351,373.504 348.833,418.504 346.5,463.5C 327.167,463.5 307.833,463.5 288.5,463.5C 290.891,421.507 293.224,379.507 295.5,337.5C 296.273,329.907 294.273,323.24 289.5,317.5 Z"/></g>
<g><path style="opacity:1" fill="#b9d3f5" d="M 175.5,374.5 C 176.33,384.992 176.83,395.659 177,406.5C 179.167,412.667 183.333,416.833 189.5,419C 196.833,419.667 204.167,419.667 211.5,419C 217.272,416.894 221.438,413.061 224,407.5C 224.333,396.5 224.667,385.5 225,374.5C 239.931,389.071 242.598,405.738 233,424.5C 222.253,435.328 215.753,448.328 213.5,463.5C 204.833,463.5 196.167,463.5 187.5,463.5C 186.57,454.543 183.736,446.21 179,438.5C 175,433.167 171,427.833 167,422.5C 158.696,404.418 161.529,388.418 175.5,374.5 Z"/></g>
<g><path style="opacity:1" fill="#fbcd62" d="M 44.5,415.5 C 44.391,422.196 44.7243,428.863 45.5,435.5C 42.3252,435.84 40.1585,437.507 39,440.5C 38.4031,448.185 38.5698,455.852 39.5,463.5C 33.1667,463.5 26.8333,463.5 20.5,463.5C 20.5,451.167 20.5,438.833 20.5,426.5C 21.4226,410.232 26.256,395.232 35,381.5C 35.2554,391.199 35.9221,400.865 37,410.5C 38.3296,414.007 40.8296,415.673 44.5,415.5 Z"/></g>
<g><path style="opacity:1" fill="#facc62" d="M 365.5,381.5 C 372.959,393.028 377.793,405.694 380,419.5C 380.5,434.163 380.667,448.83 380.5,463.5C 374.167,463.5 367.833,463.5 361.5,463.5C 363.107,436.181 364.44,408.848 365.5,381.5 Z"/></g>
<g><path style="opacity:1" fill="#725d2d" d="M 20.5,426.5 C 20.5,438.833 20.5,451.167 20.5,463.5C 26.8333,463.5 33.1667,463.5 39.5,463.5C 33.021,464.491 26.3543,464.824 19.5,464.5C 19.1713,451.656 19.5046,438.989 20.5,426.5 Z"/></g>
<g><path style="opacity:1" fill="#3b3f43" d="M 229.5,460.5 C 229.5,461.5 229.5,462.5 229.5,463.5C 249.167,463.5 268.833,463.5 288.5,463.5C 307.833,463.5 327.167,463.5 346.5,463.5C 307.337,464.499 268.004,464.832 228.5,464.5C 228.232,462.901 228.566,461.568 229.5,460.5 Z"/></g>
<g><path style="opacity:1" fill="#9ac3f8" d="M 20.5,479.5 C 123.167,479.5 225.833,479.5 328.5,479.5C 328.986,484.699 328.319,489.699 326.5,494.5C 224.502,495.5 122.502,495.833 20.5,495.5C 14.5947,492.813 13.0947,488.48 16,482.5C 17.129,480.859 18.629,479.859 20.5,479.5 Z"/></g>
<g><path style="opacity:1" fill="#759fd9" d="M 20.5,479.5 C 139.999,478.334 259.666,478.167 379.5,479C 386.77,482.005 388.27,486.838 384,493.5C 382.581,494.46 381.081,495.293 379.5,496C 259.666,496.833 139.999,496.666 20.5,495.5C 122.502,495.833 224.502,495.5 326.5,494.5C 328.319,489.699 328.986,484.699 328.5,479.5C 225.833,479.5 123.167,479.5 20.5,479.5 Z"/></g>
</svg>
